<?xml version="1.0" encoding="utf-8"?>
<!-- Generator: Adobe Illustrator 27.9.0, SVG Export Plug-In . SVG Version: 6.00 Build 0)  -->
<svg version="1.1" id="Layer_1" xmlns="http://www.w3.org/2000/svg" xmlns:xlink="http://www.w3.org/1999/xlink" x="0px" y="0px"
	 viewBox="0 0 452 177" style="enable-background:new 0 0 452 177;" xml:space="preserve" fill="none">
<style type="text/css">
	.st0{fill:#FF0000;}
	.st1{fill:#FFFFFF;}
</style>
<path class="st0" d="M392,16.7c0-3.6-2-5.6-5.5-5.6c-3.4,0-5.6,1.8-5.6,4.6c0,2.4,0.5,3.3,5.3,9.3C390.1,22.8,392,20.2,392,16.7
	 M377.9,42.4c-2.6,1.7-4.2,4.6-4.2,7.7c0,5.8,5,11.3,10.2,11.3c3,0,7.1-1.8,11.6-5.3l-13.1-16.5L377.9,42.4z M417.3,34.4v1.5
	c-0.2,7.3-2.7,15.2-6.6,19.6l11.9,14.9H407l-4.5-5.4c-7.9,5.9-12.2,7.6-18.8,7.6c-13.7,0-22.9-8.3-22.9-20.9
	c0-9.1,3.9-14.2,15.2-20.1c-0.4-0.5-0.8-1-1.2-1.4c-1-1.2-1.8-2.2-2.7-3.3c-2.7-3.2-4-6.7-4-10.2c0-9.2,7.9-16.1,18.3-16.1
	c10.3,0,17.2,6,17.2,14.9c0,7.2-2.7,11.2-11.3,17.1l11.2,13.9c2.1-4,2.9-6.9,2.9-11.1v-1L417.3,34.4z"/>
<path class="st1" d="M308,45.4c0,9.5,4.2,15.9,10,15.9c6.8,0,11.3-6.5,11.3-15.9c0-9.7-4.7-16.7-11.1-16.7
	C312.2,28.7,308,35.5,308,45.4 M342,18.3v53.9c0,12.1-9.1,19.3-24.1,19.3c-7.3,0-13-1.6-17.2-5c-3.6-2.9-5-5.7-5.1-9.7h13.9
	c1.1,4,4.1,6.1,8.9,6.1c6.4,0,10.8-4.3,10.8-10.6v-7c-4.7,5.7-8.1,7.5-13.7,7.5c-12.5,0-21-11-21-27c0-9.2,2.7-16.7,7.9-22.1
	c3.6-3.8,8.7-6.1,13.3-6.1c5.5,0,9.7,2.8,13.4,8.9v-8L342,18.3z M253.5,18.3v7.5c3.9-5.9,8.6-8.4,15.7-8.4
	c11.2,0,17.5,6.5,17.5,18.1v35h-13.5V38.3c0-6.2-2.9-9.4-8.7-9.4c-6.7,0-10.9,4.1-10.9,10.2v31.3h-13.5V18.3L253.5,18.3z M227,70.4
	h-13.5V18.3H227V70.4z M227,12.1h-13.5V0H227V12.1z M189.7,18.3h15.4L187.3,38l19,32.5h-15.8l-12.5-23l-5.4,5.9v17.1h-13.5V0h13.5
	v38.5L189.7,18.3z M135.6,18.3v10.2c3-7,8.3-11.1,14.5-11.1c0.6,0,0.9,0,1.6,0.1v13.7c-1.4-0.3-2.8-0.4-4.2-0.4
	c-7.9,0-11.9,4-11.9,11.9v27.7H122V18.3L135.6,18.3z M96.6,45.8c-1.5,0.8-2.1,1-5.7,1.6l-4.6,0.9c-5.6,1.2-7.7,3.1-7.7,7.1
	c0,3.9,2.8,6.3,7.3,6.3c6.9,0,10.7-4.4,10.7-12.3V45.8z M112.9,70.4H98.2c-1.3-1.5-1.5-2.5-1.5-5.2c-4.8,5-10,7.4-15.8,7.4
	C71.2,72.6,65,66.3,65,57c0-9.4,5-14.7,15.4-16.4l5.4-1c6.7-1.1,6.7-1.1,8.5-2c1.5-0.9,2.3-2.3,2.3-4.1c0-3.5-2.6-5.2-7.8-5.2
	c-6.7,0-8.9,1.8-9.6,7.2h-13c0.9-12.1,8.2-18.1,22.3-18.1c14.1,0,21.3,5.4,21.3,16v29c0,2.6,0.8,4.2,3.1,6.4V70.4z M15,58.3h17.3
	c7,0,10.7-3.1,10.7-9.1c0-6.1-3.7-9.2-10.7-9.2H15V58.3z M15,28h15.7c6.8,0,10.2-2.7,10.2-8c0-5.2-3.5-7.9-10.2-7.9H15V28z M0.5,0
	h31.4c7.5,0,12.5,1.5,16.6,5.1c4,3.5,6.4,8.5,6.4,13.4c0,6-2.7,10-9.7,14.5c8,4.6,11.7,10.1,11.7,17.1c0,5.7-2.7,11.6-7,15.2
	c-4.2,3.6-9.7,5.1-17.8,5.1H0.5L0.5,0z M390.8,103.3v6.5c4.4-5.4,8.3-7.3,14.3-7.3c6.5,0,11.7,2.8,14.2,7.7
	c4.1-5.4,8.6-7.7,15.3-7.7c10.4,0,16.6,6,16.6,16.1v36.9h-13.5v-34.8c0-4.2-2.8-6.8-7.3-6.8c-5.8,0-9.3,3.9-9.3,10.2v31.3h-13.5
	v-34.8c0-4.2-2.8-6.8-7.3-6.8c-5.8,0-9.3,3.8-9.3,10.2v31.3h-13.5v-52.2L390.8,103.3z M356,130.8c-1.5,0.8-2.1,1-5.7,1.6l-4.6,0.9
	c-5.6,1.2-7.7,3.1-7.7,7.2c0,3.9,2.8,6.3,7.3,6.3c6.9,0,10.7-4.5,10.7-12.3V130.8z M372.3,155.4h-14.7c-1.2-1.5-1.5-2.5-1.5-5.2
	c-4.8,5-10,7.4-15.8,7.4c-9.6,0-15.8-6.3-15.8-15.6c0-9.4,5-14.7,15.4-16.4l5.4-1c6.7-1.1,6.7-1.1,8.5-2c1.4-0.9,2.3-2.3,2.3-4
	c0-3.5-2.6-5.2-7.8-5.2c-6.7,0-8.9,1.7-9.5,7.1h-13c0.9-12.1,8.2-18,22.3-18c14.1,0,21.3,5.4,21.3,16v29c0,2.6,0.8,4.2,3.1,6.4
	V155.4z M286.6,85v25.8c3.8-5.8,8.6-8.4,15.3-8.4c4.3,0,8.7,1.4,11.7,4c3.6,3,5.3,7.6,5.3,14.1v35h-13.5v-31.9
	c0-3.3-0.3-4.7-1.5-6.5c-1.5-2.1-3.8-3.2-6.7-3.2c-6.1,0-10.4,4.2-10.4,10.2v31.3h-13.5V85H286.6z M233,103.2v7.5
	c3.9-5.9,8.6-8.4,15.6-8.4c11.2,0,17.5,6.5,17.5,18v35h-13.5v-32.2c0-6.2-2.9-9.4-8.7-9.4c-6.7,0-10.9,4.1-10.9,10.2v31.3h-13.5
	v-52.2L233,103.2z M200.2,124.6c-0.7-7.7-4.3-11.9-10.5-11.9c-6,0-9.4,3.9-10.2,11.9H200.2z M179.2,133.6c0.2,4.9,0.7,7.2,1.9,9.2
	c1.9,2.9,5,4.5,8.9,4.5c4.9,0,8.7-2.4,10.3-6.6h13.3c-3,10.3-12.5,16.9-24.2,16.9c-14.8,0-23.8-10.2-23.8-26.9
	c0-17.5,9.2-28.3,24.1-28.3c10.5,0,18.9,5.7,22.4,15.2c1.2,3.7,2,8.5,2,13.7c0,0.7,0,1.2-0.1,2.3L179.2,133.6z M125.7,130.4
	c0,9.5,4.1,15.9,10,15.9c6.8,0,11.3-6.5,11.3-15.9c0-9.7-4.7-16.7-11.1-16.7C129.9,113.7,125.7,120.5,125.7,130.4 M159.7,103.2v53.9
	c0,12.1-9.1,19.3-24.1,19.3c-7.3,0-13-1.6-17.2-5c-3.6-2.9-5-5.7-5.1-9.7h13.9c1.1,4,4.1,6.1,8.9,6.1c6.4,0,10.8-4.3,10.8-10.6v-7
	c-4.7,5.7-8.1,7.5-13.7,7.5c-12.5,0-21-11-21-27c0-9.2,2.7-16.7,7.9-22.1c3.6-3.8,8.7-6.1,13.3-6.1c5.5,0,9.7,2.8,13.4,8.9v-8
	L159.7,103.2z M92.9,130.8c-1.5,0.8-2.1,1-5.7,1.6l-4.6,0.9c-5.6,1.2-7.7,3.1-7.7,7.2c0,3.9,2.8,6.3,7.3,6.3
	c6.8,0,10.7-4.5,10.7-12.3V130.8z M109.2,155.4H94.5c-1.3-1.5-1.5-2.5-1.5-5.2c-4.8,5-10,7.4-15.8,7.4c-9.6,0-15.8-6.3-15.8-15.6
	c0-9.4,5-14.7,15.3-16.4l5.4-1c6.7-1.1,6.7-1.1,8.5-2c1.5-0.8,2.3-2.4,2.3-4c0-3.5-2.6-5.2-7.8-5.2c-6.7,0-8.9,1.7-9.6,7.1h-13
	c0.9-12.1,8.2-18,22.3-18c14.1,0,21.3,5.4,21.3,16v29c0,2.6,0.8,4.2,3.1,6.4L109.2,155.4z M27.5,143.3c10.9,0,16.3-7.6,16.3-23.1
	c0-15.5-5.4-23.2-16.3-23.2h-13v46.2H27.5z M0,85h27.5c10.8,0,17.5,2.4,22.3,8.1c5.5,6.7,8.5,16.1,8.5,27c0,11-3,20.5-8.5,27
	c-4.8,5.7-11.6,8.2-22.3,8.2H0V85z"/>
</svg>
