<svg xmlns:inkscape="http://www.inkscape.org/namespaces/inkscape" xmlns:sodipodi="http://sodipodi.sourceforge.net/DTD/sodipodi-0.dtd" xmlns="http://www.w3.org/2000/svg" xmlns:svg="http://www.w3.org/2000/svg" version="1.1" id="svg2" sodipodi:docname="Barking&amp;Dagenham_master_brand_logo_Fullwhite_CMYK.eps" viewBox="278.77 305.31 567.99 222.16">
  <defs id="defs6"/>
  <sodipodi:namedview id="namedview4" pagecolor="#ffffff" bordercolor="#000000" borderopacity="0.25" inkscape:showpageshadow="2" inkscape:pageopacity="0.0" inkscape:pagecheckerboard="0" inkscape:deskcolor="#d1d1d1"/>
  <g id="g8" inkscape:groupmode="layer" inkscape:label="ink_ext_XXXXXX" transform="matrix(1.3333333,0,0,-1.3333333,0,793.70667)">
    <g id="g10" transform="scale(0.1)">
      <path d="m 2350.66,2309.62 c 103.05,0 154.12,72.04 154.12,217.94 0,146.82 -51.07,218.86 -154.12,218.86 h -123.1 v -436.8 z m -259.9,550.81 h 259.9 c 102.14,0 165.06,-22.81 210.66,-76.62 51.98,-62.92 80.25,-152.28 80.25,-255.34 0,-103.94 -28.27,-193.32 -80.25,-255.33 -45.6,-53.8 -109.44,-77.51 -210.66,-77.51 h -259.9 v 664.8" style="fill:#ffffff;fill-opacity:1;fill-rule:nonzero;stroke:none" id="path12"/>
      <path d="m 2967.92,2428.17 c -14.59,-7.29 -20.07,-9.12 -53.8,-15.51 l -43.78,-8.2 c -52.89,-10.94 -72.95,-29.19 -72.95,-67.48 0,-36.48 26.44,-59.28 69.31,-59.28 64.75,0 101.22,41.95 101.22,115.82 z m 154.11,-232.54 h -138.6 c -11.87,14.59 -14.6,23.71 -14.6,49.24 -45.59,-47.41 -94.85,-70.22 -149.56,-70.22 -90.28,0 -149.56,59.28 -149.56,147.74 0,88.45 47.43,138.61 145.01,155.02 l 51.07,9.12 c 62.92,10.04 62.92,10.04 80.25,19.16 13.67,8.19 21.88,21.87 21.88,38.29 0,32.83 -24.62,49.25 -73.87,49.25 -62.92,0 -83.9,-16.42 -90.28,-67.48 h -123.11 c 8.21,113.98 77.51,170.52 210.65,170.52 133.15,0 201.54,-51.07 201.54,-151.37 v -273.58 c 0,-24.62 7.3,-39.21 29.18,-60.18 v -15.51" style="fill:#ffffff;fill-opacity:1;fill-rule:nonzero;stroke:none" id="path14"/>
      <path d="m 3277.9,2431.82 c 0,-89.37 39.21,-150.48 94.83,-150.48 63.85,0 106.7,61.11 106.7,150.48 0,91.18 -44.68,157.76 -104.87,157.76 -57.45,0 -96.66,-64.75 -96.66,-157.76 z m 320.99,256.24 v -508.84 c 0,-113.99 -85.72,-182.39 -227.97,-182.39 -69.31,0 -123.12,15.5 -162.33,47.42 -33.75,27.36 -47.42,53.8 -48.34,92.1 h 131.32 c 10.04,-37.39 38.3,-57.45 83.9,-57.45 60.19,0 102.14,41.04 102.14,100.32 v 66.57 c -44.69,-53.81 -76.6,-71.14 -129.49,-71.14 -117.64,0 -197.89,103.97 -197.89,255.35 0,86.63 25.53,157.75 74.78,208.82 33.74,35.56 82.07,57.45 125.83,57.45 51.99,0 91.21,-26.44 126.77,-83.89 v 75.68 h 121.28" style="fill:#ffffff;fill-opacity:1;fill-rule:nonzero;stroke:none" id="path16"/>
      <path d="m 3980.9,2486.53 c -6.39,72.96 -41.04,112.17 -99.41,112.17 -56.53,0 -88.45,-36.48 -96.66,-112.17 z m -197.89,-84.81 c 1.82,-46.51 6.38,-68.39 18.24,-86.63 18.24,-27.36 47.42,-42.86 83.9,-42.86 46.5,0 82.07,22.8 97.56,62.01 h 125.85 c -28.26,-97.57 -117.63,-159.59 -227.98,-159.59 -139.53,0 -225.24,96.67 -225.24,254.43 0,165.06 86.63,267.19 227.98,267.19 99.39,0 178.73,-53.79 211.57,-143.17 11.85,-34.65 19.14,-80.24 19.14,-129.49 0,-6.38 0,-10.95 -0.9,-21.89 h -330.12" style="fill:#ffffff;fill-opacity:1;fill-rule:nonzero;stroke:none" id="path18"/>
      <path d="m 4290.87,2688.06 v -71.13 c 36.49,55.63 81.17,79.34 147.73,79.34 105.79,0 165.07,-61.09 165.07,-170.52 v -330.12 h -127.66 v 303.66 c 0,58.37 -27.36,88.46 -82.08,88.46 -62.91,0 -103.06,-38.29 -103.06,-96.65 v -295.47 h -127.66 v 492.43 h 127.66" style="fill:#ffffff;fill-opacity:1;fill-rule:nonzero;stroke:none" id="path20"/>
      <path d="m 4796.91,2860.43 v -243.5 c 35.58,54.73 81.16,79.34 144.09,79.34 41.03,0 82.09,-13.68 110.35,-37.39 33.73,-28.27 50.14,-72.04 50.14,-133.13 v -330.12 h -127.66 v 300.94 c 0,30.99 -2.74,44.69 -14.59,61.09 -14.59,20.07 -35.58,30.09 -63.84,30.09 -57.45,0 -98.49,-40.12 -98.49,-96.65 v -295.47 h -127.65 v 664.8 h 127.65" style="fill:#ffffff;fill-opacity:1;fill-rule:nonzero;stroke:none" id="path22"/>
      <path d="m 5452.5,2428.17 c -14.59,-7.29 -20.07,-9.12 -53.82,-15.51 l -43.75,-8.2 c -52.91,-10.94 -72.98,-29.19 -72.98,-67.48 0,-36.48 26.47,-59.28 69.33,-59.28 64.74,0 101.22,41.95 101.22,115.82 z m 154.1,-232.54 h -138.59 c -11.86,14.59 -14.6,23.71 -14.6,49.24 -45.6,-47.41 -94.85,-70.22 -149.56,-70.22 -90.29,0 -149.56,59.28 -149.56,147.74 0,88.45 47.43,138.61 145,155.02 l 51.07,9.12 c 62.93,10.04 62.93,10.04 80.24,19.16 13.68,8.19 21.9,21.87 21.9,38.29 0,32.83 -24.64,49.25 -73.87,49.25 -62.93,0 -83.89,-16.42 -90.28,-67.48 h -123.13 c 8.23,113.98 77.53,170.52 210.67,170.52 133.14,0 201.53,-51.07 201.53,-151.37 v -273.58 c 0,-24.62 7.31,-39.21 29.18,-60.18 v -15.51" style="fill:#ffffff;fill-opacity:1;fill-rule:nonzero;stroke:none" id="path24"/>
      <path d="m 5780.71,2688.06 v -61.09 c 41.95,51.06 78.42,69.3 134.95,69.3 61.11,0 110.36,-26.44 134.06,-72.95 38.32,51.06 81.17,72.95 144.08,72.95 98.5,0 156.86,-56.54 156.86,-152.29 v -348.35 h -127.68 v 328.29 c 0,39.22 -26.44,63.83 -69.3,63.83 -54.71,0 -87.55,-36.47 -87.55,-96.65 v -295.47 h -127.65 v 328.29 c 0,39.22 -26.45,63.83 -69.33,63.83 -54.71,0 -87.55,-35.56 -87.55,-96.65 v -295.47 h -127.66 v 492.43 h 126.77" style="fill:#ffffff;fill-opacity:1;fill-rule:nonzero;stroke:none" id="path26"/>
      <path d="m 5792,3505.25 c 0,33.74 -19.14,52.89 -51.97,52.89 -31.93,0 -52.88,-17.32 -52.88,-43.78 0,-22.8 4.54,-31 50.14,-87.54 37.4,20.97 54.71,45.6 54.71,78.43 z m -133.12,-242.57 c -24.64,-16.42 -39.23,-42.86 -39.23,-72.96 0,-54.72 47.43,-106.7 96.68,-106.7 28.27,0 66.56,17.33 109.42,50.16 l -124.01,155.94 z m 372.05,75.68 v -14.59 c -1.83,-69.3 -25.53,-143.17 -62.01,-185.11 l 112.17,-140.44 h -146.81 l -41.95,51.06 c -74.78,-55.62 -114.92,-72.03 -177.83,-72.03 -129.49,0 -216.12,78.42 -216.12,196.97 0,85.72 36.46,134.05 143.17,189.68 -5.49,7.3 -9.14,11.85 -10.94,13.68 -9.14,10.95 -17.33,20.97 -25.55,31.01 -25.53,30.09 -38.29,62.92 -38.29,96.66 0,86.63 74.78,152.29 172.35,152.29 97.57,0 162.32,-56.55 162.32,-140.44 0,-67.48 -25.52,-105.79 -106.7,-161.41 l 105.79,-131.31 c 20.07,38.3 27.35,64.74 27.35,104.87 v 9.11 h 103.05" style="fill:#ffffff;fill-opacity:1;fill-rule:nonzero;stroke:none" id="path28"/>
      <path d="m 2232.11,3112.2 h 163.24 c 66.57,0 101.22,29.19 101.22,85.73 0,57.45 -34.65,86.63 -101.22,86.63 h -163.24 z m 0,286.35 h 148.65 c 63.83,0 96.65,25.54 96.65,75.69 0,49.24 -32.82,74.78 -96.65,74.78 h -148.65 z m -136.78,264.46 h 296.36 c 71.13,0 117.65,-14.59 156.86,-48.34 37.38,-32.82 60.18,-80.24 60.18,-126.75 0,-56.54 -25.53,-94.84 -91.19,-136.79 75.7,-43.77 110.35,-95.75 110.35,-161.41 0,-53.8 -25.54,-109.43 -65.66,-143.18 -40.13,-33.73 -91.2,-48.32 -167.79,-48.32 h -299.11 v 664.79" style="fill:#ffffff;fill-opacity:1;fill-rule:nonzero;stroke:none" id="path30"/>
      <path d="m 3002.57,3230.76 c -14.59,-7.3 -20.07,-9.12 -53.81,-15.51 l -43.77,-8.21 c -52.89,-10.94 -72.95,-29.18 -72.95,-67.47 0,-36.48 26.44,-59.28 69.3,-59.28 64.75,0 101.23,41.95 101.23,115.81 z m 154.12,-232.54 h -138.62 c -11.85,14.59 -14.59,23.71 -14.59,49.24 -45.59,-47.41 -94.83,-70.21 -149.55,-70.21 -90.29,0 -149.55,59.27 -149.55,147.73 0,88.46 47.41,138.61 144.99,155.02 l 51.06,9.12 c 62.92,10.04 62.92,10.04 80.25,19.15 13.69,8.21 21.89,21.89 21.89,38.3 0,32.84 -24.63,49.24 -73.86,49.24 -62.93,0 -83.91,-16.4 -90.29,-67.47 h -123.11 c 8.21,113.98 77.51,170.52 210.66,170.52 133.14,0 201.53,-51.07 201.53,-151.38 v -273.57 c 0,-24.63 7.29,-39.22 29.19,-60.19 v -15.5" style="fill:#ffffff;fill-opacity:1;fill-rule:nonzero;stroke:none" id="path32"/>
      <path d="M 3370.91,3490.66 V 3394 c 28.26,66.57 78.42,104.86 136.78,104.86 5.47,0 8.21,0 15.51,-0.91 v -129.5 c -17.34,2.75 -26.46,3.66 -40.13,3.66 -74.77,0 -112.16,-37.39 -112.16,-112.17 v -261.72 h -127.68 v 492.44 h 127.68" style="fill:#ffffff;fill-opacity:1;fill-rule:nonzero;stroke:none" id="path34"/>
      <path d="m 3882.43,3490.66 h 144.99 l -167.79,-186.03 179.66,-306.41 h -149.56 l -117.65,217.03 -51.06,-55.62 v -161.41 h -127.67 v 664.79 h 127.67 v -363.85 l 161.41,191.5" style="fill:#ffffff;fill-opacity:1;fill-rule:nonzero;stroke:none" id="path36"/>
      <path d="m 4234.36,2998.22 h -127.67 v 492.44 h 127.67 z m 0,550.8 h -127.67 v 113.99 h 127.67 v -113.99" style="fill:#ffffff;fill-opacity:1;fill-rule:nonzero;stroke:none" id="path38"/>
      <path d="m 4484.18,3490.66 v -71.14 c 36.49,55.64 81.18,79.34 147.73,79.34 105.79,0 165.07,-61.1 165.07,-170.52 v -330.12 h -127.66 v 303.67 c 0,58.36 -27.36,88.45 -82.08,88.45 -62.91,0 -103.06,-38.3 -103.06,-96.67 v -295.45 h -127.66 v 492.44 h 127.66" style="fill:#ffffff;fill-opacity:1;fill-rule:nonzero;stroke:none" id="path40"/>
      <path d="m 4999.4,3234.41 c 0,-89.37 39.21,-150.47 94.84,-150.47 63.84,0 106.7,61.1 106.7,150.47 0,91.19 -44.69,157.76 -104.88,157.76 -57.45,0 -96.66,-64.75 -96.66,-157.76 z m 321,256.25 V 2981.8 c 0,-113.98 -85.71,-182.38 -227.99,-182.38 -69.3,0 -123.09,15.5 -162.32,47.42 -33.73,27.36 -47.4,53.8 -48.32,92.1 h 131.32 c 10.02,-37.39 38.29,-57.45 83.89,-57.45 60.19,0 102.13,41.04 102.13,100.31 v 66.57 c -44.69,-53.79 -76.6,-71.12 -129.49,-71.12 -117.64,0 -197.89,103.96 -197.89,255.33 0,86.64 25.55,157.76 74.77,208.83 33.75,35.56 82.09,57.45 125.86,57.45 51.98,0 91.17,-26.44 126.75,-83.89 v 75.69 h 121.29" style="fill:#ffffff;fill-opacity:1;fill-rule:nonzero;stroke:none" id="path42"/>
    </g>
  </g>
</svg>