<?xml version="1.0" encoding="UTF-8"?>
<!DOCTYPE svg PUBLIC "-//W3C//DTD SVG 1.1//EN" "http://www.w3.org/Graphics/SVG/1.1/DTD/svg11.dtd">
<svg xmlns="http://www.w3.org/2000/svg" version="1.1" width="687px" height="202px" style="shape-rendering:geometricPrecision; text-rendering:geometricPrecision; image-rendering:optimizeQuality; fill-rule:evenodd; clip-rule:evenodd" xmlns:xlink="http://www.w3.org/1999/xlink">
<g><path style="opacity:0.969" fill="#fefffe" d="M 26.5,13.5 C 57.1667,13.5 87.8333,13.5 118.5,13.5C 118.5,53.5 118.5,93.5 118.5,133.5C 87.8333,133.5 57.1667,133.5 26.5,133.5C 26.5,93.5 26.5,53.5 26.5,13.5 Z M 49.5,35.5 C 59.5056,35.3335 69.5056,35.5002 79.5,36C 94.3597,40.5753 98.8597,50.0753 93,64.5C 90.408,67.7621 87.2413,70.2621 83.5,72C 100.172,76.1801 105.672,86.3467 100,102.5C 94.5555,109.431 87.3889,112.931 78.5,113C 68.8391,113.5 59.1724,113.666 49.5,113.5C 49.5,87.5 49.5,61.5 49.5,35.5 Z"/></g>
<g><path style="opacity:0.965" fill="#fefffe" d="M 128.5,13.5 C 164.167,13.5 199.833,13.5 235.5,13.5C 235.5,53.5 235.5,93.5 235.5,133.5C 199.833,133.5 164.167,133.5 128.5,133.5C 128.5,93.5 128.5,53.5 128.5,13.5 Z M 177.5,34.5 C 179.924,34.1924 182.257,34.5258 184.5,35.5C 196.038,61.4079 207.705,87.2413 219.5,113C 215.909,113.789 212.409,113.622 209,112.5C 205.628,104.924 202.128,97.4245 198.5,90C 186.838,89.5001 175.171,89.3335 163.5,89.5C 160.5,97.5 157.5,105.5 154.5,113.5C 150.818,113.665 147.152,113.499 143.5,113C 155.252,86.9975 166.586,60.8308 177.5,34.5 Z"/></g>
<g><path style="opacity:0.981" fill="#fefffe" d="M 245.5,13.5 C 276.5,13.5 307.5,13.5 338.5,13.5C 338.5,53.5 338.5,93.5 338.5,133.5C 307.5,133.5 276.5,133.5 245.5,133.5C 245.5,93.5 245.5,53.5 245.5,13.5 Z M 264.5,35.5 C 274.898,35.1009 285.232,35.6009 295.5,37C 309.378,43.9666 312.878,54.4666 306,68.5C 303.248,71.7603 300.081,74.427 296.5,76.5C 299.484,78.9836 302.318,81.6503 305,84.5C 310.918,94.0048 317.085,103.338 323.5,112.5C 319.878,113.659 316.211,113.825 312.5,113C 306.082,102.75 299.082,92.9162 291.5,83.5C 286.961,79.4322 281.628,77.7655 275.5,78.5C 275.5,90.1667 275.5,101.833 275.5,113.5C 271.833,113.5 268.167,113.5 264.5,113.5C 264.5,87.5 264.5,61.5 264.5,35.5 Z"/></g>
<g><path style="opacity:0.97" fill="#fefffe" d="M 348.5,13.5 C 386.833,13.5 425.167,13.5 463.5,13.5C 463.5,53.5 463.5,93.5 463.5,133.5C 425.167,133.5 386.833,133.5 348.5,133.5C 348.5,93.5 348.5,53.5 348.5,13.5 Z M 369.5,35.5 C 372.572,35.1826 375.572,35.5159 378.5,36.5C 396.186,56.3519 413.686,76.3519 431,96.5C 431.5,76.1694 431.667,55.8361 431.5,35.5C 434.833,35.5 438.167,35.5 441.5,35.5C 441.5,61.5 441.5,87.5 441.5,113.5C 438.482,113.665 435.482,113.498 432.5,113C 414.991,92.6598 397.324,72.4932 379.5,52.5C 378.5,72.8224 378.167,93.1557 378.5,113.5C 375.5,113.5 372.5,113.5 369.5,113.5C 369.5,87.5 369.5,61.5 369.5,35.5 Z"/></g>
<g><path style="opacity:0.959" fill="#fefffe" d="M 473.5,13.5 C 503.167,13.5 532.833,13.5 562.5,13.5C 562.5,53.5 562.5,93.5 562.5,133.5C 532.833,133.5 503.167,133.5 473.5,133.5C 473.5,93.5 473.5,53.5 473.5,13.5 Z M 496.5,35.5 C 510.833,35.5 525.167,35.5 539.5,35.5C 539.5,38.5 539.5,41.5 539.5,44.5C 528.5,44.5 517.5,44.5 506.5,44.5C 506.5,52.8333 506.5,61.1667 506.5,69.5C 517.167,69.5 527.833,69.5 538.5,69.5C 538.5,72.5 538.5,75.5 538.5,78.5C 527.833,78.5 517.167,78.5 506.5,78.5C 506.5,86.8333 506.5,95.1667 506.5,103.5C 518.167,103.5 529.833,103.5 541.5,103.5C 541.5,106.833 541.5,110.167 541.5,113.5C 526.5,113.5 511.5,113.5 496.5,113.5C 496.5,87.5 496.5,61.5 496.5,35.5 Z"/></g>
<g><path style="opacity:0.973" fill="#fefffe" d="M 572.5,13.5 C 602.167,13.5 631.833,13.5 661.5,13.5C 661.5,53.5 661.5,93.5 661.5,133.5C 631.833,133.5 602.167,133.5 572.5,133.5C 572.5,93.5 572.5,53.5 572.5,13.5 Z M 583.5,35.5 C 605.167,35.5 626.833,35.5 648.5,35.5C 648.5,38.5 648.5,41.5 648.5,44.5C 639.5,44.5 630.5,44.5 621.5,44.5C 621.5,67.5 621.5,90.5 621.5,113.5C 617.833,113.5 614.167,113.5 610.5,113.5C 610.5,90.5 610.5,67.5 610.5,44.5C 601.5,44.5 592.5,44.5 583.5,44.5C 583.5,41.5 583.5,38.5 583.5,35.5 Z"/></g>
<g><path style="opacity:0.949" fill="#fefffe" d="M 275.5,43.5 C 282.483,43.0525 289.15,44.2191 295.5,47C 298.363,51.7809 299.196,56.9476 298,62.5C 296.332,66.1655 293.499,68.3322 289.5,69C 284.845,69.4992 280.179,69.6658 275.5,69.5C 275.5,60.8333 275.5,52.1667 275.5,43.5 Z"/></g>
<g><path style="opacity:0.929" fill="#fefffe" d="M 59.5,44.5 C 65.5092,44.3338 71.5092,44.5005 77.5,45C 84.7766,48.8207 86.9432,54.6541 84,62.5C 82.5,64 81,65.5 79.5,67C 72.9236,68.3774 66.2569,68.8774 59.5,68.5C 59.5,60.5 59.5,52.5 59.5,44.5 Z"/></g>
<g><path style="opacity:0.909" fill="#fefffe" d="M 179.5,51.5 C 180.496,51.4142 181.329,51.7476 182,52.5C 186.129,61.7513 189.962,71.0847 193.5,80.5C 185.14,80.8312 176.807,80.4979 168.5,79.5C 172.568,70.2891 176.235,60.9558 179.5,51.5 Z"/></g>
<g><path style="opacity:0.947" fill="#fefffe" d="M 59.5,78.5 C 68.2498,78.0901 76.9164,78.5901 85.5,80C 92.5305,84.7678 94.0305,90.9345 90,98.5C 88.786,100.049 87.286,101.215 85.5,102C 76.9164,103.41 68.2498,103.91 59.5,103.5C 59.5,95.1667 59.5,86.8333 59.5,78.5 Z"/></g>
<g><path style="opacity:0.887" fill="#fefffe" d="M 136.5,151.5 C 154.251,151.072 161.084,159.406 157,176.5C 150.077,184.465 141.577,186.632 131.5,183C 122.641,177.692 120.141,170.192 124,160.5C 127.236,156.082 131.402,153.082 136.5,151.5 Z M 136.5,159.5 C 146.659,158.158 150.826,162.491 149,172.5C 144.038,178.709 138.705,179.042 133,173.5C 130.267,167.722 131.434,163.056 136.5,159.5 Z"/></g>
<g><path style="opacity:0.887" fill="#fefffe" d="M 255.5,151.5 C 273.251,151.072 280.084,159.406 276,176.5C 269.077,184.465 260.577,186.632 250.5,183C 241.641,177.692 239.141,170.192 243,160.5C 246.236,156.082 250.402,153.082 255.5,151.5 Z M 255.5,159.5 C 265.659,158.158 269.826,162.491 268,172.5C 263.038,178.709 257.705,179.042 252,173.5C 249.267,167.722 250.434,163.056 255.5,159.5 Z"/></g>
<g><path style="opacity:0.885" fill="#fefffe" d="M 383.5,151.5 C 396.541,150.165 404.208,155.832 406.5,168.5C 404.914,179.053 398.748,184.386 388,184.5C 374.934,184.104 368.934,177.438 370,164.5C 372.442,157.888 376.942,153.555 383.5,151.5 Z M 384.5,159.5 C 396.294,159.435 399.627,164.602 394.5,175C 387.756,178.751 382.59,177.251 379,170.5C 378.176,165.482 380.009,161.815 384.5,159.5 Z"/></g>
<g><path style="opacity:0.884" fill="#fefffe" d="M 456.5,151.5 C 472.998,150.823 480.165,158.49 478,174.5C 472.559,183.319 464.726,186.486 454.5,184C 442.257,178.269 439.424,169.436 446,157.5C 449.069,154.554 452.569,152.554 456.5,151.5 Z M 456.5,159.5 C 466.861,158.353 471.028,162.687 469,172.5C 464.038,178.709 458.705,179.042 453,173.5C 450.437,167.866 451.604,163.199 456.5,159.5 Z"/></g>
<g><path style="opacity:0.872" fill="#fefffe" d="M 537.5,151.5 C 543.304,151.086 548.804,152.086 554,154.5C 554.667,157.167 554.667,159.833 554,162.5C 548.82,159.797 543.32,158.964 537.5,160C 530.866,163.838 529.866,168.838 534.5,175C 538.298,177.454 542.298,177.954 546.5,176.5C 546.5,175.5 546.5,174.5 546.5,173.5C 544.833,173.5 543.167,173.5 541.5,173.5C 541.5,171.167 541.5,168.833 541.5,166.5C 546.167,166.5 550.833,166.5 555.5,166.5C 555.666,171.179 555.499,175.845 555,180.5C 546.32,185.623 537.487,185.789 528.5,181C 521.38,173.579 520.713,165.579 526.5,157C 529.99,154.588 533.657,152.755 537.5,151.5 Z"/></g>
<g><path style="opacity:0.867" fill="#fefffe" d="M 94.5,152.5 C 97.5,152.5 100.5,152.5 103.5,152.5C 103.5,160.833 103.5,169.167 103.5,177.5C 108.5,177.5 113.5,177.5 118.5,177.5C 118.5,179.833 118.5,182.167 118.5,184.5C 110.5,184.5 102.5,184.5 94.5,184.5C 94.5,173.833 94.5,163.167 94.5,152.5 Z"/></g>
<g><path style="opacity:0.881" fill="#fefffe" d="M 164.5,152.5 C 167.518,152.335 170.518,152.502 173.5,153C 178.333,158.5 183.167,164 188,169.5C 188.499,163.843 188.666,158.176 188.5,152.5C 191.5,152.5 194.5,152.5 197.5,152.5C 197.5,163.167 197.5,173.833 197.5,184.5C 194.813,184.664 192.146,184.497 189.5,184C 184.214,177.926 179.048,171.759 174,165.5C 173.5,171.825 173.334,178.158 173.5,184.5C 170.5,184.5 167.5,184.5 164.5,184.5C 164.5,173.833 164.5,163.167 164.5,152.5 Z"/></g>
<g><path style="opacity:0.887" fill="#fefffe" d="M 204.5,152.5 C 211.508,152.334 218.508,152.5 225.5,153C 233.21,155.24 236.876,160.407 236.5,168.5C 236.548,177.895 231.881,183.062 222.5,184C 216.509,184.499 210.509,184.666 204.5,184.5C 204.5,173.833 204.5,163.167 204.5,152.5 Z M 213.5,158.5 C 223.563,157.402 228.063,161.736 227,171.5C 224.09,176.863 219.59,178.863 213.5,177.5C 213.5,171.167 213.5,164.833 213.5,158.5 Z"/></g>
<g><path style="opacity:0.881" fill="#fefffe" d="M 283.5,152.5 C 286.518,152.335 289.518,152.502 292.5,153C 297.333,158.5 302.167,164 307,169.5C 307.499,163.843 307.666,158.176 307.5,152.5C 310.5,152.5 313.5,152.5 316.5,152.5C 316.5,163.167 316.5,173.833 316.5,184.5C 313.813,184.664 311.146,184.497 308.5,184C 303.214,177.926 298.048,171.759 293,165.5C 292.5,171.825 292.334,178.158 292.5,184.5C 289.5,184.5 286.5,184.5 283.5,184.5C 283.5,173.833 283.5,163.167 283.5,152.5 Z"/></g>
<g><path style="opacity:0.886" fill="#fefffe" d="M 337.5,152.5 C 344.947,152.071 352.281,152.571 359.5,154C 363.059,157.87 363.392,162.037 360.5,166.5C 363.567,168.469 364.9,171.302 364.5,175C 364.961,178.545 363.628,181.212 360.5,183C 352.905,184.356 345.238,184.856 337.5,184.5C 337.5,173.833 337.5,163.167 337.5,152.5 Z M 346.5,158.5 C 349.463,158.151 351.796,159.151 353.5,161.5C 351.929,164.093 349.596,165.093 346.5,164.5C 346.5,162.5 346.5,160.5 346.5,158.5 Z M 346.5,171.5 C 349.187,171.336 351.854,171.503 354.5,172C 355.991,174.022 355.658,175.688 353.5,177C 351.19,177.497 348.857,177.663 346.5,177.5C 346.5,175.5 346.5,173.5 346.5,171.5 Z"/></g>
<g><path style="opacity:0.922" fill="#fefffe" d="M 412.5,152.5 C 418.842,152.334 425.175,152.5 431.5,153C 438.637,157.664 439.304,163.164 433.5,169.5C 436.361,173.888 438.694,178.554 440.5,183.5C 437.167,184.833 433.833,184.833 430.5,183.5C 429.274,180.048 427.774,176.715 426,173.5C 424.416,172.139 422.582,171.472 420.5,171.5C 420.5,175.833 420.5,180.167 420.5,184.5C 417.833,184.5 415.167,184.5 412.5,184.5C 412.5,173.833 412.5,163.167 412.5,152.5 Z M 420.5,158.5 C 423.798,158.016 426.464,159.016 428.5,161.5C 426.582,164.106 423.916,165.106 420.5,164.5C 420.5,162.5 420.5,160.5 420.5,158.5 Z"/></g>
<g><path style="opacity:0.916" fill="#fefffe" d="M 484.5,152.5 C 487.5,152.5 490.5,152.5 493.5,152.5C 493.334,159.175 493.5,165.842 494,172.5C 496.858,177.286 500.691,178.286 505.5,175.5C 506.806,174.088 507.64,172.421 508,170.5C 508.499,164.509 508.666,158.509 508.5,152.5C 511.167,152.5 513.833,152.5 516.5,152.5C 516.666,160.507 516.5,168.507 516,176.5C 512.71,182.312 507.71,184.979 501,184.5C 495.511,185.004 490.844,183.338 487,179.5C 486.027,177.608 485.36,175.608 485,173.5C 484.5,166.508 484.334,159.508 484.5,152.5 Z"/></g>
<g><path style="opacity:0.884" fill="#fefffe" d="M 562.5,152.5 C 565.5,152.5 568.5,152.5 571.5,152.5C 571.5,156.5 571.5,160.5 571.5,164.5C 576.167,164.5 580.833,164.5 585.5,164.5C 585.5,160.5 585.5,156.5 585.5,152.5C 588.5,152.5 591.5,152.5 594.5,152.5C 594.5,163.167 594.5,173.833 594.5,184.5C 591.5,184.5 588.5,184.5 585.5,184.5C 585.5,180.167 585.5,175.833 585.5,171.5C 580.833,171.5 576.167,171.5 571.5,171.5C 571.5,175.833 571.5,180.167 571.5,184.5C 568.5,184.5 565.5,184.5 562.5,184.5C 562.5,173.833 562.5,163.167 562.5,152.5 Z"/></g>
</svg>
