<?xml version="1.0" encoding="UTF-8" standalone="no"?>
<!-- Created with Inkscape (http://www.inkscape.org/) -->

<svg
   version="1.1"
   id="svg2"
   width="778.58398"
   height="589.61066"
   viewBox="0 0 778.58398 589.61066"
   sodipodi:docname="BCC_Logo_2016_White_(1).ai"
   xmlns:inkscape="http://www.inkscape.org/namespaces/inkscape"
   xmlns:sodipodi="http://sodipodi.sourceforge.net/DTD/sodipodi-0.dtd"
   xmlns="http://www.w3.org/2000/svg"
   xmlns:svg="http://www.w3.org/2000/svg">
  <defs
     id="defs6">
    <clipPath
       clipPathUnits="userSpaceOnUse"
       id="clipPath16">
      <path
         d="M 0,442.208 H 583.938 V 0 H 0 Z"
         id="path14" />
    </clipPath>
  </defs>
  <sodipodi:namedview
     id="namedview4"
     pagecolor="#ffffff"
     bordercolor="#000000"
     borderopacity="0.25"
     inkscape:showpageshadow="2"
     inkscape:pageopacity="0.0"
     inkscape:pagecheckerboard="0"
     inkscape:deskcolor="#d1d1d1" />
  <g
     id="g8"
     inkscape:groupmode="layer"
     inkscape:label="BCC_Logo_2016_White_(1)"
     transform="matrix(1.3333333,0,0,-1.3333333,0,589.61067)">
    <g
       id="g10">
      <g
         id="g12"
         clip-path="url(#clipPath16)">
        <g
           id="g18"
           transform="translate(245.0351,234.2551)">
          <path
             d="m 0,0 h 5.665 c 1.983,0 4.209,0.85 4.209,3.359 0,2.711 -3.035,3.156 -5.099,3.156 L 0,6.515 Z m 0,11.857 h 4.573 c 1.942,0 3.965,0.809 3.965,3.115 0,2.388 -2.266,2.995 -4.249,2.995 H 0 Z M -6.312,23.308 H 4.37 c 5.018,0 10.481,-1.052 10.481,-7.284 0,-3.196 -1.983,-5.381 -4.937,-6.312 V 9.631 c 3.763,-0.485 6.272,-3.278 6.272,-7.001 0,-5.989 -5.665,-7.971 -10.764,-7.971 H -6.312 Z"
             style="fill:#ffffff;fill-opacity:1;fill-rule:nonzero;stroke:none"
             id="path20" />
        </g>
        <path
           d="m 264.258,248.58 h 6.07 v -19.666 h -6.07 z m 3.035,9.712 c 1.942,0 3.52,-1.578 3.52,-3.521 0,-1.942 -1.578,-3.52 -3.52,-3.52 -1.943,0 -3.521,1.578 -3.521,3.52 0,1.943 1.578,3.521 3.521,3.521"
           style="fill:#ffffff;fill-opacity:1;fill-rule:nonzero;stroke:none"
           id="path22" />
        <g
           id="g24"
           transform="translate(274.6983,248.5802)">
          <path
             d="m 0,0 h 6.07 v -3.157 h 0.081 c 1.295,2.388 2.995,3.642 5.665,3.642 0.688,0 1.457,-0.04 2.023,-0.202 v -5.544 c -0.849,0.243 -1.699,0.405 -2.589,0.405 -4.614,0 -5.18,-2.671 -5.18,-6.596 v -8.214 H 0 Z"
             style="fill:#ffffff;fill-opacity:1;fill-rule:nonzero;stroke:none"
             id="path26" />
        </g>
        <g
           id="g28"
           transform="translate(291.1692,248.5802)">
          <path
             d="m 0,0 h 5.827 v -2.671 h 0.081 c 0.81,1.538 2.792,3.156 5.746,3.156 2.752,0 5.018,-1.133 6.07,-3.52 1.416,2.509 3.318,3.52 6.232,3.52 5.341,0 6.96,-3.763 6.96,-8.538 v -11.613 h -6.07 v 11.451 c 0,1.821 -0.688,3.359 -2.671,3.359 -2.792,0 -3.682,-1.983 -3.682,-4.411 v -10.399 h -6.07 v 10.399 c 0,1.457 0.081,4.411 -2.711,4.411 -3.157,0 -3.642,-2.469 -3.642,-5.018 v -9.792 H 0 Z"
             style="fill:#ffffff;fill-opacity:1;fill-rule:nonzero;stroke:none"
             id="path30" />
        </g>
        <path
           d="m 326.457,248.58 h 6.07 v -19.666 h -6.07 z m 3.035,9.712 c 1.943,0 3.521,-1.578 3.521,-3.521 0,-1.942 -1.578,-3.52 -3.521,-3.52 -1.942,0 -3.52,1.578 -3.52,3.52 0,1.943 1.578,3.521 3.52,3.521"
           style="fill:#ffffff;fill-opacity:1;fill-rule:nonzero;stroke:none"
           id="path32" />
        <g
           id="g34"
           transform="translate(336.898,248.5802)">
          <path
             d="m 0,0 h 5.827 v -2.671 h 0.081 c 0.81,1.538 2.792,3.156 5.746,3.156 6.151,0 7.284,-4.046 7.284,-9.307 v -10.844 h -6.07 v 9.63 c 0,2.267 -0.04,5.18 -3.156,5.18 -3.157,0 -3.642,-2.469 -3.642,-5.018 v -9.792 H 0 Z"
             style="fill:#ffffff;fill-opacity:1;fill-rule:nonzero;stroke:none"
             id="path36" />
        </g>
        <g
           id="g38"
           transform="translate(369.5142,234.0126)">
          <path
             d="M 0,0 C 2.752,0 4.856,2.306 4.856,4.856 4.856,7.405 2.752,9.712 0,9.712 -2.752,9.712 -4.856,7.405 -4.856,4.856 -4.856,2.306 -2.752,0 0,0 m 10.44,-3.44 c 0,-7.405 -3.763,-11.37 -11.371,-11.37 -3.48,0 -7.041,0.607 -9.873,2.873 l 3.358,5.017 c 1.862,-1.578 3.926,-2.549 6.394,-2.549 3.682,0 5.422,2.023 5.422,4.815 v 1.902 H 4.29 c -1.377,-1.902 -3.724,-2.59 -5.545,-2.59 -5.826,0 -9.671,4.209 -9.671,10.157 0,5.22 3.4,10.238 8.984,10.238 3.439,0 5.786,-1.659 6.717,-3.075 h 0.081 v 2.59 h 5.584 z"
             style="fill:#ffffff;fill-opacity:1;fill-rule:nonzero;stroke:none"
             id="path40" />
        </g>
        <g
           id="g42"
           transform="translate(390.8816,259.5058)">
          <path
             d="m 0,0 v -13.596 h 0.081 c 0.567,1.537 2.549,3.156 5.503,3.156 6.151,0 7.284,-4.047 7.284,-9.307 v -10.845 h -6.07 v 9.631 c 0,2.266 -0.04,5.179 -3.156,5.179 C 0.485,-15.782 0,-18.25 0,-20.799 v -9.793 H -6.07 V 0 Z"
             style="fill:#ffffff;fill-opacity:1;fill-rule:nonzero;stroke:none"
             id="path44" />
        </g>
        <g
           id="g46"
           transform="translate(418.8846,237.533)">
          <path
             d="m 0,0 c -1.862,0 -5.989,-0.162 -5.989,-2.833 0,-1.456 1.538,-2.144 2.873,-2.144 2.387,0 4.613,1.254 4.613,3.682 L 1.497,0 Z M 1.497,-6.151 H 1.416 c -1.335,-2.104 -3.763,-2.954 -6.231,-2.954 -3.683,0 -7.001,2.104 -7.001,6.07 0,6.798 8.255,6.919 13.313,6.919 0,2.145 -1.78,3.521 -3.884,3.521 -1.983,0 -3.642,-0.89 -4.937,-2.347 l -3.237,3.318 c 2.225,2.104 5.462,3.157 8.659,3.157 7.082,0 8.983,-3.602 8.983,-10.157 V -8.619 H 1.497 Z"
             style="fill:#ffffff;fill-opacity:1;fill-rule:nonzero;stroke:none"
             id="path48" />
        </g>
        <g
           id="g50"
           transform="translate(429.8205,248.5802)">
          <path
             d="m 0,0 h 5.827 v -2.671 h 0.081 c 0.81,1.538 2.792,3.156 5.746,3.156 2.752,0 5.018,-1.133 6.07,-3.52 1.416,2.509 3.318,3.52 6.232,3.52 5.341,0 6.96,-3.763 6.96,-8.538 v -11.613 h -6.07 v 11.451 c 0,1.821 -0.688,3.359 -2.671,3.359 -2.792,0 -3.682,-1.983 -3.682,-4.411 v -10.399 h -6.07 v 10.399 c 0,1.457 0.081,4.411 -2.711,4.411 -3.157,0 -3.642,-2.469 -3.642,-5.018 v -9.792 H 0 Z"
             style="fill:#ffffff;fill-opacity:1;fill-rule:nonzero;stroke:none"
             id="path52" />
        </g>
        <g
           id="g54"
           transform="translate(264.3664,197.0849)">
          <path
             d="m 0,0 c -1.902,-2.954 -5.867,-5.26 -10.602,-5.26 -8.538,0 -14.932,6.353 -14.932,15.053 0,8.7 6.394,15.053 14.932,15.053 3.561,0 7.405,-1.336 9.914,-4.532 l -2.549,-1.902 c -1.133,1.861 -4.33,3.763 -7.365,3.763 -7.364,0 -11.775,-5.786 -11.775,-12.382 0,-6.596 4.411,-12.383 11.775,-12.383 2.995,0 6.07,0.971 8.215,4.289 z"
             style="fill:#ffffff;fill-opacity:1;fill-rule:nonzero;stroke:none"
             id="path56" />
        </g>
        <path
           d="m 270.721,192.553 h -2.671 v 18.938 h 2.671 z m -1.335,24.279 c -0.971,0 -1.942,0.809 -1.942,1.942 0,1.133 0.971,1.943 1.942,1.943 0.971,0 1.942,-0.81 1.942,-1.943 0,-1.133 -0.971,-1.942 -1.942,-1.942"
           style="fill:#ffffff;fill-opacity:1;fill-rule:nonzero;stroke:none"
           id="path58" />
        <g
           id="g60"
           transform="translate(285.2893,209.0627)">
          <path
             d="m 0,0 h -5.463 v -11.168 c 0,-2.833 1.093,-3.4 2.752,-3.4 0.931,0 1.942,0.284 2.752,0.729 l 0.121,-2.468 c -0.971,-0.446 -2.266,-0.689 -3.602,-0.689 -2.023,0 -4.694,0.891 -4.694,5.059 V 0 h -4.006 v 2.428 h 4.006 v 5.341 h 2.671 V 2.428 l 5.463,0 z"
             style="fill:#ffffff;fill-opacity:1;fill-rule:nonzero;stroke:none"
             id="path62" />
        </g>
        <g
           id="g64"
           transform="translate(296.7412,195.8308)">
          <path
             d="M 0,0 5.787,15.66 H 9.024 L -0.445,-8.215 c -1.133,-2.913 -2.671,-4.774 -5.949,-4.774 -0.809,0 -1.659,0.04 -2.468,0.283 l 0.283,2.589 c 0.607,-0.323 1.295,-0.444 2.024,-0.444 1.861,0 2.832,1.254 3.642,3.398 l 1.375,3.642 -7.769,19.181 h 3.359 z"
             style="fill:#ffffff;fill-opacity:1;fill-rule:nonzero;stroke:none"
             id="path66" />
        </g>
        <g
           id="g68"
           transform="translate(340.8907,197.0849)">
          <path
             d="m 0,0 c -1.902,-2.954 -5.867,-5.26 -10.602,-5.26 -8.538,0 -14.932,6.353 -14.932,15.053 0,8.7 6.394,15.053 14.932,15.053 3.561,0 7.405,-1.336 9.914,-4.532 l -2.549,-1.902 c -1.133,1.861 -4.33,3.763 -7.365,3.763 -7.365,0 -11.775,-5.786 -11.775,-12.382 0,-6.596 4.41,-12.383 11.775,-12.383 2.994,0 6.07,0.971 8.215,4.289 z"
             style="fill:#ffffff;fill-opacity:1;fill-rule:nonzero;stroke:none"
             id="path70" />
        </g>
        <g
           id="g72"
           transform="translate(353.8416,209.5481)">
          <path
             d="m 0,0 c -4.37,0 -7.122,-3.277 -7.122,-7.526 0,-4.249 2.752,-7.527 7.122,-7.527 4.411,0 7.162,3.278 7.162,7.527 C 7.162,-3.277 4.411,0 0,0 m 0,-17.481 c -5.868,0 -10.036,4.249 -10.036,9.955 0,5.705 4.168,9.954 10.036,9.954 5.908,0 10.076,-4.249 10.076,-9.954 0,-5.706 -4.168,-9.955 -10.076,-9.955"
             style="fill:#ffffff;fill-opacity:1;fill-rule:nonzero;stroke:none"
             id="path74" />
        </g>
        <g
           id="g76"
           transform="translate(381.6018,192.5529)">
          <path
             d="m 0,0 c -0.122,1.012 -0.122,2.023 -0.122,3.035 h -0.08 c -1.174,-2.064 -3.845,-3.521 -6.353,-3.521 -4.816,0 -7.123,2.712 -7.123,7.405 v 12.019 h 2.671 V 8.457 c 0,-4.208 1.174,-6.515 5.139,-6.515 0.567,0 5.746,0.364 5.746,7.284 v 9.712 H 2.549 V 4.168 C 2.549,3.156 2.671,1.376 2.752,0 Z"
             style="fill:#ffffff;fill-opacity:1;fill-rule:nonzero;stroke:none"
             id="path78" />
        </g>
        <g
           id="g80"
           transform="translate(392.934,211.4907)">
          <path
             d="m 0,0 c 0.121,-1.012 0.121,-2.023 0.121,-3.035 h 0.081 c 1.174,2.064 3.844,3.52 6.353,3.52 4.815,0 7.122,-2.711 7.122,-7.405 v -12.018 h -2.671 v 10.481 c 0,4.208 -1.173,6.514 -5.139,6.514 -0.566,0 -5.746,-0.363 -5.746,-7.283 v -9.712 H -2.55 v 14.77 c 0,1.012 -0.121,2.792 -0.202,4.168 z"
             style="fill:#ffffff;fill-opacity:1;fill-rule:nonzero;stroke:none"
             id="path82" />
        </g>
        <g
           id="g84"
           transform="translate(426.6429,207.0398)">
          <path
             d="m 0,0 c -0.89,1.375 -2.63,2.508 -4.734,2.508 -4.411,0.081 -7.122,-3.196 -7.122,-7.526 0,-4.33 2.711,-7.607 7.122,-7.527 2.104,0 3.844,1.134 4.734,2.509 l 2.185,-1.659 c -1.861,-2.185 -4.37,-3.237 -6.919,-3.278 -6.192,-0.08 -10.036,4.249 -10.036,9.955 0,5.706 3.844,10.035 10.036,9.954 2.549,-0.04 5.058,-1.092 6.919,-3.277 z"
             style="fill:#ffffff;fill-opacity:1;fill-rule:nonzero;stroke:none"
             id="path86" />
        </g>
        <path
           d="m 435.587,192.553 h -2.671 v 18.938 h 2.671 z m -1.335,24.279 c -0.971,0 -1.943,0.809 -1.943,1.942 0,1.133 0.972,1.943 1.943,1.943 0.971,0 1.942,-0.81 1.942,-1.943 0,-1.133 -0.971,-1.942 -1.942,-1.942"
           style="fill:#ffffff;fill-opacity:1;fill-rule:nonzero;stroke:none"
           id="path88" />
        <path
           d="m 444.894,192.553 h -2.671 v 30.592 h 2.671 z"
           style="fill:#ffffff;fill-opacity:1;fill-rule:nonzero;stroke:none"
           id="path90" />
        <path
           d="m 225.344,192.45 h -2.671 v 65.14 h 2.671 z"
           style="fill:#ffffff;fill-opacity:1;fill-rule:nonzero;stroke:none"
           id="path92" />
        <g
           id="g94"
           transform="translate(209.6322,249.8113)">
          <path
             d="m 0,0 c 0,4.103 -3.181,7.483 -7.21,7.778 h -14.634 c -2.257,0 -4.274,-0.975 -5.696,-2.512 l -40.833,-40.781 19.771,-19.752 c 1.408,-1.41 3.354,-2.281 5.505,-2.281 2.101,0 3.998,0.84 5.398,2.192 l 35.342,35.322 c 0.052,0.051 0.101,0.102 0.151,0.153 l 0.019,0.015 -0.003,0.003 c 1.354,1.401 2.19,3.298 2.19,5.403 v 0.205 14.065 z"
             style="fill:#ffffff;fill-opacity:1;fill-rule:nonzero;stroke:none"
             id="path96" />
        </g>
        <g
           id="g98"
           transform="translate(162.1179,243.9814)">
          <path
             d="m 0,0 -11.149,11.096 c -1.423,1.536 -3.44,2.512 -5.697,2.512 -0.054,0 -14.634,0 -14.634,0 -4.029,-0.295 -7.217,-3.675 -7.217,-7.778 V 5.64 -8.425 -8.63 c 0,-2.105 0.844,-4.002 2.198,-5.403 l 11.231,-11.238 z"
             style="fill:#ffffff;fill-opacity:1;fill-rule:nonzero;stroke:none"
             id="path100" />
        </g>
      </g>
    </g>
  </g>
</svg>
