<?xml version="1.0" standalone="yes"?>
<svg xmlns="http://www.w3.org/2000/svg" width="420" height="142">
<path style="fill:#010101; stroke:none;" d="M0 0L0 142L420 142L420 0L0 0z"/>
<path style="fill:#ffffff; stroke:none;" d="M314 33L314 69L322 69C322 65.6505 320.297 54.481 325.039 53.6312C330.479 52.6563 329 66.1048 329 69L337 69C337 57.0732 338.603 42.049 322 46L322 33L314 33M177.224 34.8009C171.866 36.7835 175.569 44.6248 180.683 42.3773C185.095 40.4385 181.83 33.0965 177.224 34.8009M248.318 35.0471C243.866 37.8089 248.201 44.7328 252.682 41.9529C257.134 39.1911 252.799 32.2672 248.318 35.0471M28 81C33.2085 77.331 37.5018 72.4982 42 68C46.059 63.941 55.2269 57.7261 56.6543 52C57.905 46.983 46.9455 38.1517 43 36.179C37.3075 33.3328 18.949 32.9814 14.7029 38.2284C11.2403 42.5073 11.998 48.8778 12 54C12.0016 58.0735 11.6919 62.3605 13.858 66C17.2509 71.7007 23.3369 76.3369 28 81M84 35.6528C70.2406 39.9667 56.0515 60.9485 46 71C42.6274 74.3726 35.5417 79.2022 34.3457 84C33.3756 87.8915 38.6434 91.6384 41 94C47.2487 100.262 55.7317 113.354 66 110.566C71.2816 109.133 75.2879 103.712 79 100C88.5715 90.4291 108.233 77.1234 112.347 64C114.306 57.7538 114.882 42.1604 109.721 37.4336C105.013 33.1206 89.8194 33.8282 84 35.6528M127 35L127 111L131 111L131 35L127 35M145 35L145 69C151.848 69 163.214 71.1579 168.852 66.4861C174.569 61.7482 170.301 56.5915 169.769 51C169.438 47.5273 171.607 44.5536 170.254 41.0185C166.881 32.2107 152.377 35 145 35z"/>
<path style="fill:#010101; stroke:none;" d="M154 42L154 48C162.795 47.8958 162.74 42.212 154 42z"/>
<path style="fill:#ffffff; stroke:none;" d="M175 45L175 69L183 69L183 45L175 45M187 45L187 69L195 69C195 60.874 193.718 52.5645 204 52L204 45L196 47L187 45M206 45L206 69L214 69C214 66.25 212.487 52.5895 217.741 53.6312C221.625 54.4014 220 66.0991 220 69L228 69C228 65.6702 226.387 54.5113 231.12 53.6312C236.439 52.6419 235 66.1936 235 69L243 69C243 60.6957 241.639 34.2835 227 48C221.647 43.3629 212.748 45.0141 206 45M247 45L247 69L255 69L255 45L247 45M259 45L259 69L267 69C267 65.9866 265.266 53.4371 270 53.3457C274.693 53.255 273 66.0684 273 69L281 69C281 60.6953 282.432 36.457 267 47L259 45M301 68C297.618 74.4403 292.641 71.8758 287 70L284 78C286.99 78.948 289.844 79.8074 293 79.9599C313.686 80.9593 309 59.5709 309 45L302 47C280.471 36.6396 277.127 75.0565 301 68M341 48L355 54C348.473 54.0043 331.404 59.9323 343.148 68.1412C347.66 71.2951 356.658 68.9705 362 69C362 54.4596 360.206 37.2414 341 48M366 45L366 69L374 69C374 66.25 372.487 52.5895 377.741 53.6312C381.625 54.4014 380 66.0991 380 69L388 69C388 66.25 386.487 52.5895 391.741 53.6312C395.625 54.4014 394 66.0991 394 69L402 69C402 60.9598 401.964 33.9789 387 48L386 48C382.573 44.5007 378.053 44.2312 374 47L366 45z"/>
<path style="fill:#010101; stroke:none;" d="M295.225 52.8009C290.191 54.6487 292.503 62.8909 297.895 61.2878C303.566 59.6017 300.731 50.7796 295.225 52.8009M154 55L154 62C164.762 61.962 164.692 55.229 154 55M347 61C350.435 64.4038 353.319 63.3889 355 59L347 61z"/>
<path style="fill:#ffffff; stroke:none;" d="M380 75L380 111L384 111L384 75L380 75M176 104C170.244 103.466 165.835 108.813 160 106.812C147.992 102.692 147.682 86.7148 159.001 81.5872C165.054 78.8449 169.151 84.9322 175 83C170.41 73.6903 156.956 74.4581 150.214 81.2137C145.512 85.9244 144.705 94.7975 146.653 101C150.367 112.826 171.197 116.886 176 104M264 104C258.129 103.488 254.04 109.053 248.001 106.837C228.517 99.6889 245.954 70.0655 259 85C269.519 79.1534 248.858 75.1107 243.004 77.9198C230.598 83.8726 231.002 103.916 243.004 110C249.999 113.545 261.5 112.443 264 104M179 78L179 83C182.474 82.4235 183.423 81.4744 184 78L179 78M369 78L369 83C372.474 82.4235 373.423 81.4745 374 78L369 78M190 82L190 88L185 88L185 92L190 92C190 100.724 187.57 113.007 200 111L200 107C191.886 107.263 194 97.8505 194 92L200 92L200 88L194 88L194 82L190 82M179 88L179 111L183 111L183 88L179 88M202 88C203.271 96.4844 216.936 115.669 202 118L202 122C215.566 121.84 220.925 99.2437 224 88C216.331 88.5958 215.132 97.6984 213 104L207 88L202 88M273.015 88.858C259.324 94.5803 269.583 116.882 283.995 110.346C298.691 103.683 287.465 82.819 273.015 88.858M294 88C294 95.8046 294.728 121.398 309 109L314 111L314 88L310 88C310 92.2658 311.265 110.078 302.224 106.593C296.322 104.318 298 92.8428 298 88L294 88M320 88L320 111L324 111C324 107.365 325.027 85.1322 333.656 93.5571C337.616 97.4232 336 105.975 336 111L340 111C340 102.118 340.553 79.3749 325 90L320 88M366 108L366 107C362.094 105.402 358.738 108.063 355.019 106.633C348.683 104.195 348.328 94.7913 355.019 92.5417C358.913 91.2325 361.944 93.898 366 92C348.907 72.6306 334.088 116.219 358.998 111.429C361.686 110.912 363.789 109.505 366 108M369 88L369 111L373 111L373 88L369 88z"/>
<path style="fill:#010101; stroke:none;" d="M278.003 91.7863C268.173 93.0804 270.153 109.231 279.985 107.323C288.719 105.628 287.211 90.5741 278.003 91.7863z"/>
</svg>
