<svg xmlns="http://www.w3.org/2000/svg" width="190" height="85" viewBox="0 0 190 85" preserveAspectRatio="xMinYMid" aria-hidden="true" focusable="false"><path d="M38.39,7.65a.06.06,0,0,1,0-.06.09.09,0,0,1,0-.07h0l0,.07c.08.08.14.18.23.26s.31.35.49.51l.19.17h.09v.19h0a.58.58,0,0,0,.05.14V9l.09.25.06.15a.06.06,0,0,1,0,.06h-.52a.45.45,0,0,1-.28,0V9.34a.89.89,0,0,1-.08-.17V9l-.09-.23V8.39s-.05-.21-.07-.31a.78.78,0,0,1-.05-.14V7.63ZM38,10.29A1.55,1.55,0,0,1,37.9,10V9.91h0A10.9,10.9,0,0,0,39,10H40l.09.07.26.24.15.11.16.09.63.42.12.07.11,0h.11a.83.83,0,0,0-.19-.27l-.06-.11-.1-.21-.15-.22a.36.36,0,0,0-.07-.1L40.94,10l0-.08-.18-.3-.07-.12a2.56,2.56,0,0,1-.11-.24v-.1l-.12-.28-.06-.14v-.1l-.11-.14a.27.27,0,0,0-.05-.16c-.1-.28-.19-.56-.26-.84V7.19a.43.43,0,0,1,0-.16.29.29,0,0,1,0-.13V6.84H40l.06.08a.11.11,0,0,0,.06.09v.08l.06.09c.05.09.11.17.17.26a.38.38,0,0,1,.09.13,1.57,1.57,0,0,0,.2.25c.09.11.17.22.27.33h0v.06h0l.06.08.26.21.06.06.16.15.16.15.11.08.21.17a2.36,2.36,0,0,0,.42.28h.15V9.33a.17.17,0,0,0,0-.1c-.06-.14-.14-.26-.21-.39s-.16-.33-.24-.49l-.12-.26V8h0l.16-.21,0-.07.1-.12a4.25,4.25,0,0,1,.48-.47.23.23,0,0,0,.07-.07h.13L43,7l.1-.08h.35a.34.34,0,0,0,.1-.42V6.2l-.09-.52V5.5a2.16,2.16,0,0,1,0-.36V4.8a1.73,1.73,0,0,1,.16-.37l.08-.1v0h.07s.15.1.12.1h0l.32,0,.12.09.06.06a2.47,2.47,0,0,1,.27.21l.1.07.08.09.18.17c.1.12.2.25.29.38v.06c.13.19.23.39.35.58s.09.2.14.3h0a.16.16,0,0,0,.06.08.55.55,0,0,0,.25.07h.24l.31.06v8.6h-.36a.84.84,0,0,0-.13.27.61.61,0,0,0-.07.14v.11h0a.19.19,0,0,1-.05.13s0,0,0,0h0v.12L46,16.2v.05h0v.05c0,.05-.07.09-.07.12h0v.1l-.13.27h0a.46.46,0,0,1-.07.16v.1a1.85,1.85,0,0,1-.16.32.35.35,0,0,1-.05.08v.21l-.09.16a1,1,0,0,1-.07.15l-.06.09-.06.13a.12.12,0,0,1-.07.1l-.07.15-.12.21a1.28,1.28,0,0,0-.11.2v0a.62.62,0,0,0,.27,0h2v1.6H41.52a.9.9,0,0,1-.21-.08l-.11-.1a.45.45,0,0,1-.1-.1,1.06,1.06,0,0,1,0-.5.64.64,0,0,1,.58-.48h.63a1,1,0,0,0,.13-.16c.1-.13.18-.25.27-.39l0-.06c.09-.14.19-.27.28-.4a3.45,3.45,0,0,0,.2-.32.36.36,0,0,0,.07-.1l.24-.36c.09-.14.17-.28.26-.41h0a.86.86,0,0,0,.1-.16v-.05a.25.25,0,0,0,.08-.12l.09-.16a.35.35,0,0,0,.05-.08.12.12,0,0,1,.07-.1c.07,0,.14-.22.2-.33h0a.75.75,0,0,0,.07-.12l.19-.33h0v-.24l.12-.24c0-.07.07-.12.09-.19v-.07a.11.11,0,0,0,0-.08h0l-.1.08-.16.13h0l-.17.18-.09.11h0l-.06.07c-.07.06-.12.13-.18.19h0l-.1.12-.07.06-.14.14-.06.08h0l-.06.05-.27.28h0a1.12,1.12,0,0,0-.18.2h0L43,16.7l-.07.05a.83.83,0,0,0-.08.12l-.07.05-.09.07h0c-.07,0,0-.32,0-.4V16a3.38,3.38,0,0,0,0-.45v-.4h0a.14.14,0,0,0,0-.09v-.23h0v-.23h0v-.4l-.4-.34h0v-.06a1.15,1.15,0,0,0-.14-.17L42,13.45,42,13.39l-.12-.15-.1-.09h0l-.09-.07a1.07,1.07,0,0,0-.22-.15h-.06l-.12-.13H41.1a3.16,3.16,0,0,0-1.1-.17,1.63,1.63,0,0,0-.54.06l-.22,0L39,12.8l-.22.07h-.08a.64.64,0,0,1-.06-.18l0-.14v-.36a1.36,1.36,0,0,0-.11-.38v-.13a2.2,2.2,0,0,1-.21-.32v-.13a3.63,3.63,0,0,0-.1-.45v-.3Zm5.2-2v.1a.28.28,0,0,0,.08.11.41.41,0,0,0,.11.07l.11.06h.11a1,1,0,0,0,.35.06H44A.93.93,0,0,0,44.75,8V7.86a.11.11,0,0,0-.08,0h-.43l-.39.08h-.14l-.26.11h0a1.09,1.09,0,0,1-.17.13h-.06A.36.36,0,0,0,43.16,8.29Zm-8.75,52h.47l.42.15.84.29,1,.31.32.11h.2l1,.24a1.06,1.06,0,0,1,.46.07l.37,0h.17a6.61,6.61,0,0,0,.89,0h2.87l.38-.11a2,2,0,0,0,.33-.09c.55-.19,1.09-.4,1.64-.58l.31-.11a.79.79,0,0,1,.22-.06h.37V62.5h-.39L45,62.82a2,2,0,0,0-.34.13l-.32.13-.32.11-.59.2-.46.13-.62.12s-.09,0-.1.06,0,.28,0,.42v4a1.18,1.18,0,0,0,.08.49s0,.06.08.09l.12.11.15.1h0a.74.74,0,0,0,.16.1h0l1.46.86h0a1.51,1.51,0,0,1,.17.1h0l1.42.63H46l.25.08.37.12h0v1.07l-.21-.07-.18,0h-.16l-.2-.08-.2-.07-.36-.18-.24-.09a1.39,1.39,0,0,1-.28-.12h-.14l-1-.47h0l-.42-.23-.7-.4-.43-.28a9.49,9.49,0,0,1-.83-.58l-.17-.12L41,69.08l-.1-.06-.16-.15h-.06l-.77-.66-.13-.12c-.2-.18-.4-.36-.59-.55v-.05l-.21-.21-.09-.08-.05-.07-.29-.29-.15-.18a.91.91,0,0,1-.11-.16l-.1-.12v0L38,66.19,38,66.1v0l-.09-.1-.24-.31-.19-.14a1.56,1.56,0,0,1-.16-.2l0-.11L37,64.85l0-.08-.11-.16v-.06l-.08-.11V64.3c-.1-.15-.21-.31-.3-.47l-.1-.15-.26-.18L36,63.34l0-.08v-.07c-.06-.11-.11-.22-.17-.32l-.16-.28a1.14,1.14,0,0,1-.1-.19l-.1-.15-.06-.13L35.24,62v-.13h0l-.06-.09a.61.61,0,0,0-.12-.26v-.1L35,61.33l-.09-.21a1.62,1.62,0,0,1-.1-.18.19.19,0,0,0-.05-.13l-.23-.31a1.47,1.47,0,0,1-.12-.25Zm4,4v.3h0v-.07a.86.86,0,0,0,.61.72,1.09,1.09,0,0,0,.36,0h.32a.94.94,0,0,0,.5-.48,1,1,0,0,0-.33-1.2,1.23,1.23,0,0,0-.26-.12,1,1,0,0,0-.35,0h-.21A1,1,0,0,0,38.41,64.29Zm-3-8.33-.06.21-.06.15v.07a1.15,1.15,0,0,1-.12.25s0,.11-.08.16a2.92,2.92,0,0,1-.24.37l-.06.07a1,1,0,0,1-.13.16l0,.07-.06.05a.38.38,0,0,1-.09.08s-.5.42-.57.47l-.2.11h0a.33.33,0,0,0,0,.14,2.13,2.13,0,0,0,.44.07l.58.09.56.09h.22l.58.13.36.13h.19L37,59l.42.15.29.09.3.1a.72.72,0,0,1,.35.06l.46.08h.45l.88.09h1.35l.47-.08.29,0,.29-.07.41-.12c.36-.1.71-.22,1.06-.33l.39-.12.82-.21.71-.13.88-.16v-7.5H45.68l-.3.08c-.38.1-.75.23-1.13.35l-.37.12-.73.18h-.51a.29.29,0,0,0-.13,0H40.13a.29.29,0,0,0-.13,0,.29.29,0,0,0-.13,0,.38.38,0,0,0-.15,0h-.48l-.58-.06-.32-.07-.4-.08-.37-.1-.67-.22L36,50.79l-.59-.19L35,50.46a1.48,1.48,0,0,0-.36-.1h-.22v.07h0a.67.67,0,0,1,0,.2.29.29,0,0,0,0,.16V51l.06.24a.87.87,0,0,1,.07.17v.11a.61.61,0,0,1,0,.12,1.83,1.83,0,0,0,.08.25,1.83,1.83,0,0,1,.08.25.37.37,0,0,1,0,.11v.07l.06.18a.73.73,0,0,0,.08.25v.09c.06.2.1.41.16.62a5.91,5.91,0,0,1,.14,1.11v.29A3.83,3.83,0,0,1,35.36,56ZM45.89,45.5a1.13,1.13,0,0,0,0,.26V46h0a1.75,1.75,0,0,1,.29-.18l.32-.2.14-.08h0l.12-.06v-7h0c-.17-.1-.34-.2-.52-.29a1.35,1.35,0,0,0-.38-.19.25.25,0,0,0,0,.17v.05h0a1.13,1.13,0,0,1,0,.26v.35l.06.26v.19l0,.28v.07a3.91,3.91,0,0,0,.14.73.21.21,0,0,1,0,.11.21.21,0,0,1,0,.11v.1h0V41H44a2.34,2.34,0,0,0-.45-.07c-.07,0-.31-.07-.35,0h0l.18.29.45.66a.22.22,0,0,1,.05.08l.06.09.08.13a1.7,1.7,0,0,1-.15.45c0,.09,0,.11-.07.17s0,0,0,0l-.06.17v.07h0v.06a4.15,4.15,0,0,1-.22.47v.08a.06.06,0,0,0,0,.06l.36-.07.29-.07a1.62,1.62,0,0,0,.43-.12l.36-.08h.14l.19-.06a.76.76,0,0,0,.44-.09h.49a.29.29,0,0,1,.13,0v.44h0v.13a.28.28,0,0,0-.08-.31h0V44h0a.38.38,0,0,0,0,.15h0a.54.54,0,0,1,0,.18v.29h0V45h0v.05A1.39,1.39,0,0,1,45.89,45.5Zm.65,18.87-.21-.32-.28-.43a.22.22,0,0,0-.16,0l-.09.09-.19.2c-.12.15-.27.27-.38.43l-.22.3-.14.25a.22.22,0,0,0,0,.08c-.07.14-.13.29-.2.43a2.35,2.35,0,0,0-.14.45c0,.15-.09.27-.13.4a5,5,0,0,0-.09.56,6.53,6.53,0,0,1-.13.87c0,.29-.09.61-.14.91l-.09.5a.06.06,0,0,0,0,.06H44c.06,0,.09-.08.13-.12a.8.8,0,0,0,.13-.13l.15-.1c.15-.12.3-.25.45-.35a.76.76,0,0,1,.19-.12,1.45,1.45,0,0,1,.35.12c.24.1.48.2.71.32l.21.08.3.14.17.1V68a5.69,5.69,0,0,1-.71-.07.46.46,0,0,1-.24-.17,1.09,1.09,0,0,1-.1-.25.39.39,0,0,1,0-.26c.11-.34.75-.39,1.06-.4h0v-2a.52.52,0,0,0-.1-.23Zm-20.83,5.3a1.12,1.12,0,0,1-.46-.2.31.31,0,0,1-.11-.09c0-.07-.11-.14-.15-.21a1.43,1.43,0,0,1-.08-.22l-.06-.34v-.19a1.47,1.47,0,0,0-.11-.38v-.12h0s0-.09-.06-.11-.05-.12-.06-.13h0a.11.11,0,0,0-.08-.1c-.08,0,0,0,0-.08a0,0,0,0,1,0,0,.31.31,0,0,1-.05-.1h0a.13.13,0,0,0-.06-.11h0v0h0l-.08-.1h0a.91.91,0,0,0-.18-.21.31.31,0,0,0-.09-.11h0a.07.07,0,0,1-.07-.06h0v0H24l-.06-.06h-.06l-.07-.08h0s-.08,0-.08-.07H23.6l-.21-.11h-.07l-.1-.06h-.06a.27.27,0,0,1-.15,0h0a1.31,1.31,0,0,1-.28-.09H21.57l.13.11a2.51,2.51,0,0,1,.25.24l.23.24.16.23.05.06.1.15a.44.44,0,0,0,.08.11l.09.19.06.11s.05.11.08.16l.07.14v.06a.38.38,0,1,1-.63-.44s.07.2.09.2v.08h0v.94h0v.72h0a.11.11,0,0,1,0,.08v.09a.33.33,0,0,1,0,.14h0V70a.14.14,0,0,0,0,.09h0v.14a.29.29,0,0,1,0,.13h0a1.48,1.48,0,0,1-.12.29.36.36,0,0,1-.07.17V71h0V71h0v.07h0v.29a.17.17,0,0,1,0,.1v0h0a3,3,0,0,0,0,.6,2.58,2.58,0,0,0,1.52,2.17l.11.06.29.09.19.06h.1a.76.76,0,0,0,.3,0l.08,0a.47.47,0,0,0,.15-.06h0v-.35a1.38,1.38,0,0,1,.05-.45v-1a2.24,2.24,0,0,1,.13-.57V72a2.21,2.21,0,0,1,.13-.47l0,0v-.18a.49.49,0,0,1,0-.17.91.91,0,0,1,.11-.3l.06-.19a1,1,0,0,1,.07-.15l.09-.26v-.07a1.82,1.82,0,0,0,.11-.3,1,1,0,0,0,.07-.15.17.17,0,0,0-.05-.12Zm.38-4.26.22.19a3.65,3.65,0,0,1,.27.3h0l.21-.12h.08l.23-.1a1.67,1.67,0,0,1,.32-.08H28l.28-.1a1.23,1.23,0,0,1,.38.08h.06l.17.06a1.19,1.19,0,0,1,.26.11,2.59,2.59,0,0,1,.56.37.3.3,0,0,1,.08.08h.06a.23.23,0,0,0,.07.07l.07.11v.07H30v.12h0v-.26a2.05,2.05,0,0,1,.16-.41.29.29,0,0,1,.05-.13l.12-.14a1.1,1.1,0,0,1,.42-.29h0l.15-.06a1.15,1.15,0,0,1,.37,0h.16V65.2a1.15,1.15,0,0,1,0-.37,1.89,1.89,0,0,1,.1-.41c0-.13.07-.1.08-.18h0l.09-.14h0a1,1,0,0,1,.27-.19h.81s.1.05.16,0h0a1,1,0,0,0,0-.25,2.56,2.56,0,0,0,0-.62.49.49,0,0,0,0-.17,3.65,3.65,0,0,0-.14-.35,1,1,0,0,0-.12-.23.13.13,0,0,0-.05-.1l0,0-.08-.09-.06-.11-.12-.1-.07-.08h0a.27.27,0,0,1-.18-.14c0-.07.22-.12.22-.12L32,61.36l-.2-.06H30l-.11.06-.11,0-.1.08h0l-.09.07h0l-.07.07h-.06a.18.18,0,0,1,0,.07h-.05a.13.13,0,0,1-.06.1l-.1.1h0c0,.06-.08.11-.11.16h0l-.06.06h-.25l-.55.38h-.45a.22.22,0,0,0-.16,0,1.45,1.45,0,0,1-.23-.15h0a.13.13,0,0,0,0-.1.24.24,0,0,1,0-.12h0a.29.29,0,0,1,0-.13v-.12h0v-.07h0v-.09l.06-.18h0v-.08a1.14,1.14,0,0,1,.1-.19l0-.09a.27.27,0,0,1,.09-.12V61l.14-.18a.41.41,0,0,1,.05-.09c.08-.11.18-.2.26-.31a.86.86,0,0,0,.1-.16,2.2,2.2,0,0,0,.17-.25l.11-.22a3.42,3.42,0,0,0,.13-.34v-.07a4.37,4.37,0,0,0,.2-1.39v-.13a1.17,1.17,0,0,0-.06-.45v-.32A4.08,4.08,0,0,0,28,55.5l-.16-.21a.39.39,0,0,0-.1-.08v-.06a3.88,3.88,0,0,0-.31-.26l-.2-.14-.31-.3a.52.52,0,0,1-.1-.11l-.19-.21a5,5,0,0,1-.46-.73c-.05-.11-.1-.2-.14-.31S26,52.9,26,52.81a.38.38,0,0,0,0-.15H25.9a1.14,1.14,0,0,0-.15.23V53c-.09.13-.16.28-.24.42l-.09.17a.8.8,0,0,1-.08.16l-.13.26a3.59,3.59,0,0,0-.17.34c-.05.13-.12.26-.18.39s-.09.22-.15.33l-.09.24a2.54,2.54,0,0,0-.16.38.94.94,0,0,1-.1.28,2,2,0,0,0-.1.26c-.15.44-.29.88-.42,1.33v.63a2.81,2.81,0,0,1,0,.41v.54a6.39,6.39,0,0,1-.18.87h0v.09a.69.69,0,0,0-.05.13l-.07.13v.09a1.35,1.35,0,0,1-.15.26v.06h0a1.33,1.33,0,0,1,.05.19,1.94,1.94,0,0,0,.07.33v.36a3.15,3.15,0,0,1-.11,1.1,2.28,2.28,0,0,1-.15.44c-.05.1-.11.2-.17.3a2.24,2.24,0,0,0-.11.22,1.33,1.33,0,0,0-.14.19s-.09.12-.14.17H24.5l.24.09.31.12a1.06,1.06,0,0,1,.34.16h.05a.76.76,0,0,1,.19.12h.06l.17.12.11.09H26l.06.07.16.12h0Zm-5-4.8h.53s0-.07,0-.1v-.18a.09.09,0,0,1,0-.07v-.5c.05-.26.09-.52.14-.77v-.43a.49.49,0,0,1,0-.24V57.9a2.68,2.68,0,0,1,.07-.27V57.5a1.3,1.3,0,0,0,.08-.34,2.6,2.6,0,0,1,.14-.53l.06-.25.12-.36a1.6,1.6,0,0,1,0-.21l.09-.24v-.1a1.43,1.43,0,0,0,.08-.22l.05-.17.11-.27v-.09l.07-.19c.05-.13.11-.26.17-.39a1.43,1.43,0,0,1,.34-.14c.13-.29.26-.58.4-.87l.19-.4.08-.13c.05-.11.11-.21.16-.31s.25-.45.38-.67l.12-.2a.68.68,0,0,1,.22-.31h0c0-.1.12-.23.17-.31s.26-.41.41-.6l.07-.08a3,3,0,0,1,.2-.29l.14-.19.11-.11v-.09a.24.24,0,0,0-.06-.11h0v-.08c0-.08-.08,0-.12-.09L25.54,49l-.06-.06a.09.09,0,0,1,0-.07h0l-.08-.09-.16-.23h0v-.14l-.05-.07v0a.34.34,0,0,0-.08-.09v-.24h0L25,47.82l0-.09-.3-.23a1,1,0,0,1-.1-.17l-.07-.11a.54.54,0,0,1,0-.11L24.36,47h0a1.05,1.05,0,0,1-.08-.18h0a.09.09,0,0,1,.08.06h.05l.11.06h.13l.13.11,0,.06h.06l.08.08h.3l.16.1h0l.09,0h.09l.14.11h.12l.1.07H26l.09.06h0a.13.13,0,0,1,.06.1h.18a.45.45,0,0,1,.21.22V48h.06a2,2,0,0,1,.13.16l.06.1a1,1,0,0,1,.11.17c0,.06.07.13.11.2s0,.06,0,.09a1.43,1.43,0,0,1,.16.38l.07.14c.06.17.1.34.15.52v.16l.06.27v.34c0,.11.05.39.06.58s0,.41,0,.61a1.31,1.31,0,0,0,0,.28v.66a3.85,3.85,0,0,1-.08.49.06.06,0,0,0,.06.06h0c.06,0,.12-.08.17-.1a1,1,0,0,1,.38-.1h.17a1.16,1.16,0,0,1,.65.23l.16.14.05.07h0l.06.08a.87.87,0,0,1,.07.17,1.08,1.08,0,0,1,.08.19v.41a.62.62,0,0,1-.09.26s-.05.09-.07.14a.44.44,0,0,0-.08.11L29,55s-.08.1-.08.14a2.16,2.16,0,0,0,.43.29,2.5,2.5,0,0,0,.76.24h1.51l.18-.08.27-.13.29-.22a2,2,0,0,0,.35-.36c0-.06.09-.13.14-.2a.94.94,0,0,0,.12-.22.17.17,0,0,0,0-.1,1.63,1.63,0,0,0,.13-.37.55.55,0,0,0,.1.54v-.26a2.7,2.7,0,0,0-.11-.94,1.34,1.34,0,0,0-.07-.18.74.74,0,0,0-.1-.27l-.11-.35-.12-.24-.07-.09V52.1h0L32.58,52l-.13-.24v-.09l-.21-.34v-.06l-.09-.29-.06-.37V48.8A5.16,5.16,0,0,0,32,47.5a1.29,1.29,0,0,0-.08-.28l-.06-.2-.06-.15v-.14l-.09-.21a.64.64,0,0,1-.08-.14h0l-.06-.11-.08-.11a.64.64,0,0,0-.08-.14l-.07-.09-.06-.1-.08-.09v-.08a.1.1,0,0,1-.09-.08,2.5,2.5,0,0,0-.22-.24l-.19-.16-.12-.11h0L30.5,45h-.09s-.11-.11-.08-.17h0l.05-.2a.57.57,0,0,1,.07-.33c.11-.43.21-.86.31-1.3v-.2a.64.64,0,0,1,.07-.31v-.59a1.58,1.58,0,0,1,.1-.43V41.4l.06-.25a.59.59,0,0,1,.05-.29c.05-.1,0-.19,0-.29.06-.68.15-1.36.18-2.06v-4a3.11,3.11,0,0,1,0-.61h0a.19.19,0,0,1,.15,0h5.57s.06,0,0-.1a.81.81,0,0,1-.22,0H36.6l-.21-.06-.4-.09h-.07l-.28-.11-.22-.09h-.06l-.12-.54v-.07l-.19-.1h0L35,32.72h0l-.31-.22H34.6v-.07h-.06l-.09-.09h0l-.06-.07a.16.16,0,0,0-.1-.07h0l-.1-.08h0l-.07-.06h0L33.91,32l-.22-.15h0l-.29-.32H33.3l-.15-.07L33,31.35h-.23a1.75,1.75,0,0,1-.38-.09H31l-.2,0h-.21l-.14.05h-.11l-.11.05a3.59,3.59,0,0,0-1.49,1.21c-.06.07-.09.14-.14.21l-.08.11-.06.12a1,1,0,0,0-.07.15.14.14,0,0,0,0,.09c0,.06.12.12.17.15l.14.11c.11.1.22.2.32.31v.06l.08.08.13.19.07.08a3.84,3.84,0,0,1,.28.53.9.9,0,0,0,.08.28l.09.24a.19.19,0,0,0,.05.13v.1l.09.18.06.11.17.27c.06.1.15.18.22.28a2,2,0,0,0,.19.22.57.57,0,0,1,.11.11l.06.07.12.1.07.07.06.07h-.1a1.14,1.14,0,0,1-.26-.09h0l-.2-.09-.26-.17-.21-.19a4.4,4.4,0,0,1-.63-.59,1.89,1.89,0,0,1-.2-.27L29,35.5v0c-.08-.1-.15-.2-.23-.29a1.29,1.29,0,0,0-.17-.16l-.4-.32L28,34.57l-.1,0a2.78,2.78,0,0,0-1-.39h-.12s-.06.06-.07.1h0l-.14.3-.08.17c-.09.18-.18.35-.28.52l-.06.1a.75.75,0,0,0-.07.12.54.54,0,0,0-.1.16h0l-.1.14v.06l-.07.09c-.1.15-.21.3-.32.44l-.09.09-.15.21h0v.06l-.07.07h0v.18a1,1,0,0,0,.11.34c0,.11.11.35.16.52l.42,1.32.15.51.06.17h3.34a.34.34,0,0,1,.2,0,0,0,0,0,1,0,.05h0l-.13.1-.08,0c-.13.09-.27.18-.4.29l-.09.08-.14.08-.14.11h-.07l-.11.07h-.06l-.14.09h-.05l-.09.05h-.06l-.1.07-.12.08-.21.16-.16.1-.18.13-.11.08h0l-.12.09a.6.6,0,0,0-.21.14h0l.18.56v.09c.05.14.09.28.13.42l.09.27v.1l.09.3a.58.58,0,0,1,0,.14v.17a.33.33,0,0,0,.05.21v.24a.5.5,0,0,1,.05.13v.09a.83.83,0,0,1,.06.21v.13a5.5,5.5,0,0,1-.59-.32h-.06l-.12-.08h-.1l-.05-.05-.34.27h-.13l-.07-.06L26,44.36l-.1-.08h-.06l-.08-.06c-.11-.08-.21-.17-.32-.24L25,43.5a.86.86,0,0,0-.22-.15h0a1,1,0,0,1-.14.1l-.31.23-.2.13L24,43.9l-.11.07-.12.09-.12.08-.09.07a.12.12,0,0,0-.11.07h-.12l-.11.08-.07.06h-.08a.25.25,0,0,0-.12.08.11.11,0,0,0-.09.06l-.13.08-.08.07-.19.12h-.06l-.1.06c-.05,0-.21.15-.27.13M22,45a2,2,0,0,1,.1-.35,1.28,1.28,0,0,1,.11-.35c.2-.63.4-1.26.61-1.89a6.13,6.13,0,0,0,.18-.61H23l-.17-.13a.27.27,0,0,1-.08-.07l-.18-.13-.22.07a4.63,4.63,0,0,0-.56-.43h0l-.21-.16h0l-.09-.08-.23-.17H21.1l-.2-.16-.12-.08-.08-.07-.15-.12a0,0,0,0,1,0-.07H23.7a.64.64,0,0,0,.06-.18c0-.13.09-.26.13-.4a1.86,1.86,0,0,1,.08-.23c.12-.4.25-.8.38-1.2l.09-.29a.55.55,0,0,0,.06-.28h-.16l-.1-.08-.15.14-.14.11-.32.25-.36.24c-.15.1-.31.18-.47.28l-.52.26c-.17.07-.35.15-.53.21h-.28l-.27.08H18.52c-.06,0,0,.17,0,.22h0a.1.1,0,0,1,.08.05v.09a.29.29,0,0,0,.08.24c.08.08,0,.16.07.24l.06.27a2.29,2.29,0,0,0,.07.36c0,.12.05.29.06.44a.93.93,0,0,1,0,.18v.38a4.82,4.82,0,0,1,0,.76,2,2,0,0,1-.06.34,1.7,1.7,0,0,1-.1.37l-.06.18h0l-.08.23a.21.21,0,0,0,0,.11h0v.15a1,1,0,0,0-.07.15l-.08.24a1,1,0,0,1-.07.15c0,.06,0,.13-.11.15h0v.05h0v.16l-.11.22a.17.17,0,0,0,0,.1h.58l.17,0h.42l.16-.06h.11l.18-.08a2.26,2.26,0,0,0,.49-.25l-.07,0a1.07,1.07,0,0,0,.22-.15,1.14,1.14,0,0,1,.23-.15m.06,0h0a3.54,3.54,0,0,1-.16.34c-.21.38-.38.77-.58,1.15l-.45.87c-.08.16-.17.32-.25.49s-.22.42-.32.63l-.09.16-.09.2a.64.64,0,0,0-.08.14l-.17.34c-.06.11-.2.39-.32.59l0,.11c-.08.13-.16.27-.23.41l-.06.1a.66.66,0,0,0-.09.19v.16c0,.1-.1.2-.16.3h0c0,.12-.12.23-.17.34l-.05.08-.13.28-.08.12a1.42,1.42,0,0,1-.08.18.64.64,0,0,0-.08.14v.07a.75.75,0,0,1-.07.12l-.06.14c-.1.18-.21.37-.3.56l-.07.11v.14c0,.06,0,.11-.07.17L16.4,53l-.08.14c-.06.1-.1.21-.16.31l-.06.07-.06.17-.08.13-.12.2a1.12,1.12,0,0,1-.19.24s-.1.08-.14.13l-.27.12h0a.44.44,0,0,0-.08.11l-.17.17c-.08.07-.17.12-.25.18a2,2,0,0,1-.38.2l-.3.1h-.45a2.06,2.06,0,0,1-1.2-.38h-.17v-.05l-.09-.11a.64.64,0,0,1-.1-.13l-.12-.19h0l-.06-.12h0l-.06-.1-.1-.16-.07-.11a1.37,1.37,0,0,1-.09-.4v-.59a1.31,1.31,0,0,1,0-.28l.11-.27c.06-.1.13-.19.18-.29v-.17l.09-.16v-.17l.07-.11.24-.41.09-.21c.15-.29.28-.59.44-.88V49.9c.08-.16.16-.32.25-.47l.09-.19.13-.16.09-.19.12-.22.05-.17c0-.08.1-.16.14-.24l.11-.23A.22.22,0,0,1,13.8,48v-.08c0-.1.1-.21.16-.31a1.2,1.2,0,0,0,.1-.19l.61-1.22.15-.26.11-.23.21-.4.08-.17.23-.45.18-.32.06-.12.09-.18a.21.21,0,0,0,0-.11.24.24,0,0,1,0-.12c.07-.17.11-.35.17-.54a4.62,4.62,0,0,0,.15-.74c0-.15,0-.32.06-.48a1.65,1.65,0,0,0,0-.23v-.47a1.41,1.41,0,0,1,0-.29v-.65a2,2,0,0,0,0-.35,7.17,7.17,0,0,0-.3-1c0-.11-.08-.23-.13-.34a4.68,4.68,0,0,0-.3-.54L15.34,38l-.1-.14-.18-.24-.22-.32-.18-.22a.44.44,0,0,1-.08-.11,9,9,0,0,0-.81-.82L13.55,36l-.14-.1-.17-.09v-.08a6.3,6.3,0,0,0-.8-.45l-.2-.07h-.06L12,35.14h-.18a2.35,2.35,0,0,0-.37-.14c-.2-.07-.39-.13-.59-.18h-.39s-.1,0-.14,0H9.79a.45.45,0,0,0-.23,0h-4a.64.64,0,0,0,0,.14,2.82,2.82,0,0,0,.15.7,1.07,1.07,0,0,0,.12.37h0l0,.12.06.11v.11a3.12,3.12,0,0,0,.39.56.75.75,0,0,0,.07.12l.07.08.14.17c.08.09.18.17.27.26s.07.09.12.13l.24.17.06.06.12.08a.39.39,0,0,0,.1.08c.12.08.26.13.38.2a4.39,4.39,0,0,0,1.39.22h2.44l.34.08h.06a2.13,2.13,0,0,1,.33.11l.22.1.21.11a4.25,4.25,0,0,1,.43.31l.18.15.1.11a2.8,2.8,0,0,1,.66.9c0,.1.09.2.12.3V41.8a1,1,0,0,1,0,.24v.26a.9.9,0,0,1-.05.36.61.61,0,0,1,0,.19V43c0,.11,0,.21-.07.32a.31.31,0,0,1-.06.13l-.15.29c-.1.19-.2.4-.31.59l.06.19-.12.2v.09c-.18.31-.35.62-.51.94l-.07.11-.13.23-.13.24-.13.19c-.22.43-.47.84-.69,1.27L11.9,48c-.17.31-.33.64-.52,1v.06a.54.54,0,0,0-.07.13c-.07.14-.16.27-.23.41l-.12.24c-.08.15-.17.29-.26.44v.08l-.13.24v.06c-.16.29-.31.58-.48.87h0a1,1,0,0,0-.16.37l-.11.29-.09.39v1.16a3.38,3.38,0,0,0,0,.45,4,4,0,0,0,.17.68,1,1,0,0,0,.08.26l.12.25h0a2.1,2.1,0,0,0,.13.26v.06l.12.19V56a1.37,1.37,0,0,0,.13.2l.08.09.08.1.1.15.12.13.09.08a1.21,1.21,0,0,0,.16.16l.11.08h.06l.25.19a1,1,0,0,0,.23.12l.11.07.22.1.15.06a2.48,2.48,0,0,0,.37.17h2.07a1.5,1.5,0,0,0,.3,0h.13a.07.07,0,0,1,.07.07c0,.07,0,0,0,.06a1.09,1.09,0,0,1-.27.4l-.09.09h-.05a.75.75,0,0,1-.15.16s-.08,0-.09.1h0l-.11.09s-.05.07-.08.07h-.05l-.21.14v.06h0A.06.06,0,0,1,14,59h-.22l-.13,0h-.11a.66.66,0,0,1-.2.06H12v.08a.32.32,0,0,0,.05.18v.08a1.63,1.63,0,0,0,.11.42h0l.08.67a.86.86,0,0,0,.09.3c0,.1,0,.14.05.22v.12a1.71,1.71,0,0,0,.09.3v.07c.07.27.14.55.2.82s.09.36.13.54,0,.27.07.4,0,.11,0,.17a3.87,3.87,0,0,0,.13.73c.05.25.06.4.09.61a1.32,1.32,0,0,1,0,.35v.24c.05.36.09.72.12,1.1v3.12h.07a1.35,1.35,0,0,1,.6-.29.92.92,0,0,1,.33,0,1.49,1.49,0,0,1,1,.2.65.65,0,0,1,.17.16,1.33,1.33,0,0,1,.23.3,1.75,1.75,0,0,1,.12.32v.08a1.13,1.13,0,0,1,0,.26.76.76,0,0,1,0,.3v.17s.06.07.09.07h0a1.75,1.75,0,0,1,.34-.38l.14-.12a2.09,2.09,0,0,1,.83-.34h.59a1.3,1.3,0,0,1,.33.07,1.81,1.81,0,0,1,.44.22h.06l.12.09h.07a2.17,2.17,0,0,1,.32.36.24.24,0,0,0,.06.11l.06.09v.1l.06.1a.17.17,0,0,0,0,.1h0v-.07h.47v-.12l.08-.13.07-.16.09-.21v-.23l.06-.19V69.29A.48.48,0,0,0,20,69v-.06l-.06-.13v-.09a1.89,1.89,0,0,0-.11-.25V68.4l-.06-.11h0v-.08h0v0a.21.21,0,0,0-.06-.1s-.11-.09-.12-.16h0l-.07-.09-.07-.06-.18-.17a.39.39,0,0,1-.09-.11h-.08a.56.56,0,0,1-.17-.09h0l-.13-.08a.44.44,0,0,0-.16-.06c-.05,0-.09-.06-.14-.06h0l-.14-.08h-.41a.1.1,0,0,1-.09-.06h-.06a.17.17,0,0,0-.1,0h-.25a.09.09,0,0,1-.08-.06v-.09a.66.66,0,0,1-.09-.19h0v-.15a.33.33,0,0,0,0-.14h0v-.07h0a.24.24,0,0,1,0-.12h0v-.1h0v-.29h0v-.06h0v-.72h0v-.24a.67.67,0,0,1,0-.2v-.08l.06-.26.06-.22.05-.11v-.08l.12-.26v-.13l.09-.15a3.34,3.34,0,0,1,.25-.4l.13-.18a3.58,3.58,0,0,1,.26-.29l.21-.21.16-.1.06-.06-.46-.58.06-.06h.07l.1-.07c.11-.07.2-.16.31-.23l.16-.09.22-.09a2.35,2.35,0,0,1,.37-.14h1.54Zm26,29.53h-.06a2.47,2.47,0,0,1-.7-.17l-.19-.06a1.54,1.54,0,0,1-.49-.15h-.17l-.33-.13h-.1l-.18-.06h-.11l-.26-.1h-.26L43.81,73h-.15c-.08,0-.1,0-.11-.09a.68.68,0,0,1-.2-.07h0c-.06,0-.12-.08-.18,0H41.24a.24.24,0,0,0-.12,0H40a.41.41,0,0,1-.22,0H39.4a.49.49,0,0,0-.17,0h-.88s-.1-.06-.14,0,0,0-.06,0h-.52a.34.34,0,0,1-.24-.06h-.12a.21.21,0,0,0-.11,0h0a.06.06,0,0,0-.06,0h0a.48.48,0,0,1-.16-.08h-1l-.17-.07h-.13s-.11-.08-.1,0h-.29c-.07,0-.1,0-.12,0h0a.48.48,0,0,0-.1-.09h-.44a.24.24,0,0,1-.13-.11h0c0,.06-.11,0-.13,0h0a1,1,0,0,0-.15-.1h-.05a.09.09,0,0,1-.07,0h-.22a.2.2,0,0,1-.15-.07h0a.11.11,0,0,1-.09-.05h-.06l-.14-.07h-.2l-.12-.09H31.24a.24.24,0,0,1-.11-.06h0a.18.18,0,0,1-.1-.07H31a.19.19,0,0,1-.1,0h-.07s0-.05-.07,0h0l-.11-.06-.08-.06h-.2a.11.11,0,0,0-.08,0H28.9a.62.62,0,0,0-.22.1h-.2s-.12.1-.13.13H28.3a.87.87,0,0,1-.14.16l-.09.11h0c-.05,0-.07.08-.09.12l-.09.12a.09.09,0,0,1,0,.07.86.86,0,0,0-.1.16h0v.08s0,.12-.07.15a.17.17,0,0,1,0,.1h0a.54.54,0,0,1,0,.11l-.07.16v.12c0,.07-.07.12-.07.15h0v.09l-.07.13s0,0,0,0L27.4,74v.09h0v.15h0v.06h0l-.06.18a.21.21,0,0,0,0,.11.2.2,0,0,1-.07.15c-.07.05,0,.06,0,.08a.84.84,0,0,0-.05.17h0l-.09.35h0a1.87,1.87,0,0,1-.07.22.86.86,0,0,1-.06.23h0l-.06.26a4.37,4.37,0,0,1-.14.79v.26h0a1.84,1.84,0,0,0,.17-.22l.13-.15a1.06,1.06,0,0,1,.2-.17l.29-.17h.47a2,2,0,0,1,.76.06l.18.06.13.08h.08l.23.15.1.06.26.14.13.07c.31.15.61.3.9.46l.26.12.46.24.31.15c.29.14.58.27.88.39l.27.13,1.45.59h.08l.2.06.14.07.56.21.29.1.23.08h.19l.65.21H37l.23.08.33.09.31.1h.31c.42.11.84.23,1.28.32l.17,0h.21a6,6,0,0,0,.61.14h.09l1,.2.57.1h.3l.71.11h.51l.77.09h3.14ZM12.64,27.42a2.39,2.39,0,0,1,0-1.4l.06-.17c0-.09.08-.16.12-.24s0-.11.08-.13H13a.82.82,0,0,0,.27,0h.19l.23.05h.14l.38.07a.21.21,0,0,1,.11,0h.28a1.64,1.64,0,0,0-.16-.29c-.05-.12-.35-.82-.26-.9s.18,0,.22,0h1.19a5.73,5.73,0,0,0,.69-.16l.2-.08h.08l.09-.05h.09l.15-.1.3-.1a1.61,1.61,0,0,1,.38-.08h.91l.28.07a2.24,2.24,0,0,1,.54.26s.2.18.26.18h.13l.36-.11h.09l.32-.08h.11l.83-.21.22-.06h.34l.8-.13c.1,0,.15.15.21.23s.31.4.45.61a6.53,6.53,0,0,1,.47.91v.07l.09.26c0,.1.08.2.11.3v.09a2.06,2.06,0,0,0,.07.32c0,.11,0,.07,0,.12H24l-.34.06h-.42a.33.33,0,0,1-.14,0h-.29a5.79,5.79,0,0,0-.64.17h0a2.25,2.25,0,0,0-1,1.15h0v.17l-.06.35c-.09,1,.09,1.57.35,1.62a.91.91,0,0,0,.83-.08c.26-.22.07-.37.49-.45h0L23,29.6l.24-.08.4-.16.17-.06.2-.09h.07s0,.06,0,.09l.06.2v.07a3.34,3.34,0,0,0,.17.44l.06.12a1.39,1.39,0,0,0,.12.28c.06.12.14.24.21.36l.12.22.25.35c0,.06.09.12.13.19s.23.25.22.31-.31,0-.46.06h-.54l-.36.08-.28.08h-.07l-.19.06h-.16l-.15.05a.14.14,0,0,0-.14.06h0a1.05,1.05,0,0,0,.24.06H24l.32.05a.67.67,0,0,1,.2,0,.61.61,0,0,1,.19,0l.22.06h.18v.31a1.11,1.11,0,0,0-.07.13s0,0,0,.07a.92.92,0,0,1-.09.23.23.23,0,0,1-.08.2.22.22,0,0,1-.05.08l-.07.16c0,.05-.05.09-.07.14a.66.66,0,0,0-.09.19l-.12.18c0,.09-.09.19-.15.28s-.19.31-.3.46l-.06.09-.17.2a.11.11,0,0,1-.1.1l-.16.1-.25.13-.12.07-.34.14-.08.84-.31.12-.26.08c-.19.07-.38.11-.57.16l-.37.09a.8.8,0,0,0-.37.06,4.65,4.65,0,0,1-.91.07H18.8L18.45,37h-.16l-.46-.15-.34-.07a2.41,2.41,0,0,0-.37-.07H17a3.17,3.17,0,0,0-.87,0l-.22,0h-.14a.33.33,0,0,1-.14,0s-.06,0,0-.08a.09.09,0,0,0,0-.07,1.19,1.19,0,0,0,.08-.2v-.1a2.58,2.58,0,0,0,.08-.26v-.29c0-.16.06-.32.07-.48v-1a3.63,3.63,0,0,0-.16-.65V33.4H15.3a1.91,1.91,0,0,1-.33.06h-.86c.1,0,.21-.21.26-.29a2.26,2.26,0,0,0,.26-.42l.07-.15c0-.11.1-.22.14-.33a1,1,0,0,0,.08-.25v-.11c.05-.21.1-.42.13-.64v-.08a.33.33,0,0,1,0-.14v-.6A1,1,0,0,0,15,30a2,2,0,0,0-.08-.43v-.22a.24.24,0,0,0-.05-.14,1.86,1.86,0,0,0-.41-.08h-.13l-.21-.06a2.56,2.56,0,0,1-1.31-1.2A2.84,2.84,0,0,1,12.64,27.42Zm4.93-1.63a.61.61,0,0,0,0,.19.63.63,0,0,0,.08.23c.05.08.08.16.13.23a1.47,1.47,0,0,0,.68.47l.17.05a.74.74,0,0,1,.21,0h.39a1.43,1.43,0,0,0,.67-.37.24.24,0,0,0,.07-.12l-.26-.1-.34-.11H19.2l-.42-.14-.2-.05L18.39,26h-.24L18,26H17.6S17.57,25.77,17.57,25.79Zm7.84-3.43.06.15a1.14,1.14,0,0,1,.1.19c.05.1.11.2.16.31a.31.31,0,0,1,.05.12,2.18,2.18,0,0,1,.22.31c.12.17.22.35.34.51s.21.28.31.43l.4.48.25.3.22.22.11.13.26.25a1.45,1.45,0,0,0,.21.22.86.86,0,0,1,.14.13l.1.08h.07l.12.13.13.1.12.1h0l.18.14.07.07.1.06.12.11.15.1.11.09h.11a.16.16,0,0,0,.08.06.27.27,0,0,0,.08.07l.09.06h0l.15.09.06.05c.06,0,.1,0,.13.09h0l.07.06.06.05.19.11.05.05h0l.07.06.13.09H31L31,28l.15.07h.19s.11,0,.13.08h.07l.15.07h.06a.33.33,0,0,0,.13.07h.33l.09,0,.16.08h.05a.41.41,0,0,1,.23.11.33.33,0,0,1,.16.07h.13l.11.05h.21l.16.08h.08l.13.06.1.06h.06l.32.13.09.05h0l.36.16.32.16a.69.69,0,0,0,.19.1l.08.06.22.11.23.15.15.08.14.09.14.08.13.09h.06l.86,1.4.09.08h.06l.06.06a3,3,0,0,1,.4.3h.06L38,32l.36.3c.11.1.23.19.33.3h.06l.14.12v0l.1.08.29.28.2.16.14.15v.06l.07.07.08.09.13.12v.06a.29.29,0,0,0,.14.08h0v-.11a2.3,2.3,0,0,0-.24-.5c-.15-.24-.3-.49-.47-.73v-.06l0,0-.18-.26-.1-.15a.64.64,0,0,1-.1-.13c-.18-.23-.37-.46-.56-.68,0-.06-.09-.12-.14-.17L38.15,31c-.14-.17-.29-.33-.45-.49l-.17-.19-.08-.08c-.06-.06-.12-.13-.19-.19L37.17,30l-.1-.1-.1-.09-.15-.15a3.16,3.16,0,0,1-.42-.4l-.08-.12L36.24,29l-.06-.08L36,28.72v-.07a.39.39,0,0,0-.08-.1c0-.07-.07-.13-.1-.19l-.1-.17L35.67,28a.86.86,0,0,0-.07-.21l-.12-.21v-.1a3.56,3.56,0,0,1-.23-.62v-.1a4.75,4.75,0,0,1-.14-.63V24.83a1.61,1.61,0,0,1,0-.31V23.9a1.12,1.12,0,0,1,.08-.26v-.21h0c.05-.13.09-.26.13-.4s.11-.28.17-.42V22.5a.41.41,0,0,0,0-.09.17.17,0,0,0,0-.1l.06-.09a.37.37,0,0,1,0-.11h0v-.06l.05-.1H33.39a3,3,0,0,1-.11.5,8.92,8.92,0,0,0-.14,1.86c0,.31.07.6.09.91h0v-.14c-.07-.15-.13-.31-.19-.47l-.15-.41a3.16,3.16,0,0,1-.12-.37,2.3,2.3,0,0,0-.08-.27c0-.09-.07-.31-.11-.46V23c-.07-.3-.13-.62-.18-.94V20a.81.81,0,0,0,0-.22.38.38,0,0,1,0-.15v-.12a.34.34,0,0,0,0-.21h-3a1.74,1.74,0,0,1,.05.22v.31l.06.37v.42a1.22,1.22,0,0,0,.06.26.76.76,0,0,0,.05.33c.05.11,0,.12.05.19a1.4,1.4,0,0,0,.06.28v.08a1.46,1.46,0,0,0,.05.2V22l.09.28h0a.14.14,0,0,0,0,.09h0v.08a2.31,2.31,0,0,1,.1.28,1,1,0,0,0,.13.37c.05.12,0,.08.05.12s0,.15.07.22a2.56,2.56,0,0,1,.11.24.65.65,0,0,0,.08.22V24c0,.07.07.13.1.21l.06.16a.41.41,0,0,0,.07.11,2.44,2.44,0,0,1,.1.24v.07l.13.24v.06l.05.1h0a1,1,0,0,0,.07.15l.09.14a0,0,0,0,1,0,.05l.09.14a.44.44,0,0,0,.08.11l.09.17.07.1.06.11.11.15c.05.06.08.14.13.21a.59.59,0,0,1,.14.27h0a.08.08,0,0,1-.07-.06l-.12-.09-.08-.08.32-.1c-.11-.11-.22-.22-.34-.32l-.13-.13h-.07l-.11-.11v-.05l0-.06-.1-.11L31,25.57h-.05l-.13-.15c-.05-.07-.11-.13-.17-.2l-.08-.12L30.46,25l-.08-.09-.06-.09a1.09,1.09,0,0,0-.13-.17.09.09,0,0,1,0-.07L30,24.39c-.08-.13-.19-.24-.27-.37s-.22-.31-.32-.47l-.19-.16v-.08a.13.13,0,0,0,0-.1l-.05-.07L29.08,23c-.12-.2-.25-.39-.36-.6l-.17-.33-.1-.21H25.24l.14.29Zm11.27,4.71h0c0-.06.07-.09.12-.09a.29.29,0,0,1,.13,0h.4a.31.31,0,0,1,.19,0h1.25a.09.09,0,0,1,.07,0H39.9a.17.17,0,0,1,.1,0,.37.37,0,0,1,.21,0l.08.1h0l.09.12h0v.21a1.28,1.28,0,0,0,.11.2c.08.15.16.31.25.46l.12.23c.15.28.29.57.42.86s.32.75.46,1.13a.19.19,0,0,0,0,.16l.16.46a1.09,1.09,0,0,0,.07.24c0,.08.09.29.13.45v.16l.12.47a2.68,2.68,0,0,0,.11.55c0,.18.12.54.16.81a.8.8,0,0,0,.06.37,4.34,4.34,0,0,1,.09.52h0v1.21h0a1.7,1.7,0,0,1,.06-.31.14.14,0,0,0,0-.09,3.1,3.1,0,0,0,.09-.61v-.76h0v-.45h0V31.34h0v-.75a.52.52,0,0,1,.4-.09v-.31a1.22,1.22,0,0,1,0-.27,1.31,1.31,0,0,0,0-.28h0v-.2a.65.65,0,0,0-.05-.31v-.22h0s0-.15,0-.2v-.07a.57.57,0,0,0-.06-.31c-.06-.1,0-.06,0-.06v-.2a.33.33,0,0,1,0-.14v-.18a.28.28,0,0,0-.07-.2c-.07-.07,0-.05,0-.08s0-.13-.07-.2v-.2l-.06-.16c0-.05-.07-.17,0-.23a.43.43,0,0,1,.26-.07h1.27a.33.33,0,0,0,.11-.15l.09-.13a.75.75,0,0,0,.07-.12l.06-.09a1.27,1.27,0,0,0,.13-.19l.17-.21c.17-.23.35-.46.54-.68l.09-.09a3.59,3.59,0,0,1,.38-.4,1.29,1.29,0,0,0,.16-.17l.19-.16.12-.1.11-.11L46.7,24a0,0,0,0,0,0-.05.2.2,0,0,0-.15,0h-.11l-.17.07a4.78,4.78,0,0,0-.48.19H45.7l-.14.07-.24.12h0l-.16.09-.2.11c-.18.1-.35.23-.53.33l0,.05-.16.1-.15.12-.15.11h0a1.93,1.93,0,0,1-.28.22.86.86,0,0,1-.32,0h-1a3.09,3.09,0,0,0-.43,0h-.37a.29.29,0,0,0-.13,0H39.24a.21.21,0,0,0-.11,0h0a.54.54,0,0,0-.18,0H37.62a.17.17,0,0,0-.1,0h0v-.14h0s0-.15.07-.15v-.08l.08-.12.08-.09v-.07l.2-.28.08-.08a.64.64,0,0,1,.1-.13,4.26,4.26,0,0,1,.48-.57l.16-.18.11-.1v-.06l.09-.07.18-.17v-.05h.05l.16-.15h0l.17-.16.15-.12.14-.11.11-.08c.22-.17.43-.34.66-.5l.22-.13.18-.12a2.55,2.55,0,0,1,.39-.24l.13-.07H46.6V32.7h0l-.33.27-.06.05h-.12l-.2.17-.23.18-.08.08h0l-.12.12-.25.22c-.14.12-.26.24-.39.37l-.06.06h0v.07l-.12.13-.07.06s-.07.1-.11.1-.08.09-.12.13l-.11.13-.08.07a1,1,0,0,0-.13.16h2.74v1.37h0l-.34.1-.18.26h-.08l-.39.12-.22.07-.27.1-.27.09h-.1l-.3.11-.13.06-.31.14h-.08l-.24.11-.43.22c-.15.07-.29.15-.43.23l-.07.06-.15.09-.1.08h-.08a.39.39,0,0,1-.1.08h0v.21a.09.09,0,0,1,0,.07v3h0V42a.21.21,0,0,1,0,.11v4.68a1,1,0,0,0,0,.24v.33a.29.29,0,0,0,0,.13h0a.13.13,0,0,0,.12,0h.62v0h1.25a.62.62,0,0,1,.19-.07h2v2h-.44l-.63.14-.46.13-.66.18-.3.07-.42.1-.36.1c-.21.05-.42.09-.64.12h-.14l-.57.08-.48.07a4.64,4.64,0,0,0-.91.06H39.42l-.63-.09-.47-.07-.5-.12a2,2,0,0,1-.53-.15l-.37-.1-.68-.26-.38-.13-.32-.1c-.19-.06-.4-.1-.6-.15a4.22,4.22,0,0,0-.62-.1H34.1a.49.49,0,0,1,0-.17v-.26a.11.11,0,0,0,0-.08v-.31a1.33,1.33,0,0,0-.05-.19.11.11,0,0,0,0-.08v-.39c-.07-.19-.13-.38-.21-.57s-.21-.43-.32-.65a.84.84,0,0,0-.15-.25l-.27-.76h-.05a.16.16,0,0,1-.06-.08V42.89h0a.21.21,0,0,1,0-.11v-2h0V35.26h7.93l.06.07a1.59,1.59,0,0,1,.13.22l.06.1v.07c.06.11.11.22.16.33s.11.22.16.34l.33.74c.06.15.12.31.19.46l.07.16v.07h0a.17.17,0,0,0,0-.1,2.81,2.81,0,0,0,0-.41v-2h0v-.07a.17.17,0,0,1,0-.1v-.22l-.21-.44a1.89,1.89,0,0,0-.11-.47l-.07-.18-.06-.16v-.11a.27.27,0,0,0-.05-.16v-.07c-.06-.16-.12-.3-.17-.46s-.06-.11-.08-.16l-.2-.51a3.73,3.73,0,0,0-.16-.35l-.09-.19h0v-.06l-.09-.17c0-.1-.1-.2-.16-.3L40.51,31v-.07h0v-.06l-.11-.15v-.09l-.11-.14-.22-.32-.16-.19a8.48,8.48,0,0,0-.89-1L39,28.86H38.9l-.12-.13h0v-.06l-.1-.08-.44-.25-.05-.06-.1-.09L38,28.13c-.05,0-.11-.07-.13-.12h0L37.8,28a1.07,1.07,0,0,1-.19-.18l-.16-.14-.14-.14c-.11-.09-.23-.17-.33-.26l-.08,0-.12-.1S36.69,27.09,36.68,27.07Zm4.2,20.7a.89.89,0,0,0,0-.23V47.4l-.06-.24L40.76,47l-.09-.29c-.06-.19-.1-.38-.17-.56v-.2l-.06-.21v-.07h0l-.2-.15v-.1l-.07-.19c0-.12-.09-.23-.13-.35a3.69,3.69,0,0,0-.17-.42l-.06-.18-.09-.17V44l-.11-.22-.2-.45-.17-.16a1.47,1.47,0,0,1-.1-.22l-.08-.12v-.08l-.15-.28c-.17-.32-.35-.63-.54-1a4.07,4.07,0,0,0-.34-.56l-.14-.2a.38.38,0,0,1-.09-.13l-.08-.11v-.06l-.08-.17-.09-.13a3.28,3.28,0,0,0-.2-.31,4.59,4.59,0,0,0-.35-.51c-.07-.09-.12-.19-.2-.28l-.06-.1-.1-.12-.06-.07h0a.42.42,0,0,0-.09-.14l-.31-.39-.1-.14-.15-.17-.14-.15s-.09-.11-.14-.17h-.06v-.05l-.1-.1h-.08a.27.27,0,0,0-.17.06v.36a1.71,1.71,0,0,1,0,.32v.9a2.24,2.24,0,0,1-.05.58v.19a.38.38,0,0,1,0,.15h0v.5a2.77,2.77,0,0,1-.1.5v.34a.09.09,0,0,0,0,.07v.21a.34.34,0,0,1-.05.22c0,.07,0,.1,0,.15a.37.37,0,0,0,0,.21c0,.13.14.23.22.34l.18.27a2,2,0,0,1,.22.29l.05.06c0,.08.12.15.17.23l.3.44.06.08a.39.39,0,0,0,.08.1h0a.14.14,0,0,0,.09,0A.11.11,0,0,0,36.5,44l.07-.08.17-.12.24-.11h.28a.77.77,0,0,1,.37,0h.22a1.27,1.27,0,0,1,.76.91v.17a1.5,1.5,0,0,1,0,.3,1.12,1.12,0,0,1-.14.4l-.08.15a1.65,1.65,0,0,1-.37.33l-.09.05-.15.06c-.06,0-.26,0-.28.11s.07.23.1.31.13.26.19.39.15.33.23.49a.72.72,0,0,0,.11.19h.06a2.46,2.46,0,0,0,.47.1h.24l.45.06h1.47S40.87,47.8,40.88,47.77Zm-31.25.82a2.12,2.12,0,0,0,.11-.21c.11-.18.21-.37.32-.56v-.08l.09-.15.09-.09.18-.32.13-.23.06-.11c.08-.15.17-.3.25-.46s.09-.17.14-.26l.18-.34.14-.28c0-.08.07-.14.1-.21l.14-.24.17-.33.08-.12.15-.3.1-.14v-.11a.76.76,0,0,0,.18-.09.27.27,0,0,0-.07-.22l-.07-.15L12,43.41l-.12-.33a.33.33,0,0,0-.05-.21v-.13a.17.17,0,0,1,0-.1c0-.07-.09-.38,0-.42h0v-.41a.76.76,0,0,0-.17.23l-.5.46-.1.15-.14.25-.11.24-.13.25-.1.14-.09.18-.1.21a.27.27,0,0,1-.07.22,2,2,0,0,1-.1.21,2,2,0,0,1-.1.21h0l-.06.12-.07.15h0V45h0a.44.44,0,0,1,0,.15v.14l-.06.16a.09.09,0,0,0,0,.07v.21l-.19.57v.12a1.91,1.91,0,0,1-.11.41v.06a4.68,4.68,0,0,1-.11.48h0v.13l-.06.33v.32l-.06.36v.35a2.67,2.67,0,0,0,0,.4v.35s0,.13.08.12h0l.06-.12-.36-.08.09-.16a1,1,0,0,0,.07-.15c.07-.1.12-.2.18-.3a1.24,1.24,0,0,0,.1-.2ZM52.57,69.66h1.67c2.23,0,3-1.53,3-3.46s-.8-3.45-3-3.45H52.57Zm-3-9.42h4.67c3.62,0,6.06,1.72,6.06,6s-2.44,6-6.06,6H49.6ZM61.91,72.17h2.6V63.25h-2.6Zm0-9.92h2.6v-2h-2.6Zm10.54,3.63a3.53,3.53,0,0,0-2.46-1c-.65,0-1.12.23-1.12.69,0,1.52,5.27.26,5.27,3.6,0,2.35-2.07,3.18-4,3.18a5.65,5.65,0,0,1-4.35-1.76l1.62-1.4a3.84,3.84,0,0,0,2.83,1.31c.44,0,1.42-.1,1.42-.9,0-1.39-5.26-.29-5.26-3.45,0-2.25,1.95-3.12,3.76-3.12a7.06,7.06,0,0,1,3.92,1.29l-1.6,1.57M80.24,65H78.65V69.4c0,.71.35.89.82.89a6.81,6.81,0,0,0,.78-.05V72.3c-.33,0-1.1.1-1.67.1C76.36,72.4,76,71,76,69.72V65H74.77V63.42H76V60.84h2.61v2.58h1.59V65m1.32-1.78h2.61v.91a4.13,4.13,0,0,1,2.44-.94V65.5h-.28c-1.56.18-2.17.45-2.17,1.44V72.1H81.52V63.25m6.33,8.92h2.61V63.25H87.85Zm0-9.92h2.61v-2H87.85Zm10.54,4A1.9,1.9,0,0,0,96.72,65c-1.48,0-2,1.16-2,2.68s.64,2.68,2,2.68a1.83,1.83,0,0,0,1.86-1.3l1.87,1a4.5,4.5,0,0,1-4,2.36c-2.66,0-4.49-1.69-4.49-4.69a4.33,4.33,0,0,1,4-4.68h.46a4.24,4.24,0,0,1,4,2.18l-2,1M106.13,65h-1.56V69.4c0,.71.35.89.82.89a7,7,0,0,0,.79-.05V72.3c-.34,0-1.11.1-1.67.1-2.23,0-2.54-1.39-2.54-2.68V65h-1.25V63.42H102V60.84h2.6v2.58h1.56V65m14.93-.78a3.75,3.75,0,0,0-3.76-2.6c-2.94,0-4.27,2.27-4.27,4.79s1.33,4.8,4.27,4.8a3.79,3.79,0,0,0,3.89-3.4l1.66.19a5.57,5.57,0,0,1-5.55,4.47,5.63,5.63,0,0,1-6-5.23,5,5,0,0,1,0-.77,5.62,5.62,0,0,1,5.21-6,5.21,5.21,0,0,1,.79,0c2.56,0,4.68,1.19,5.4,3.54l-1.64.28m6.75,7.08c2,0,2.44-1.73,2.44-3s-.47-3-2.44-3-2.44,1.73-2.44,3,.47,3,2.44,3m0-7a4,4,0,1,1-3.91,4.09V68.4a3.75,3.75,0,0,1,3.49-4c.14,0,.28,0,.42,0m11.93,7.88h-1.37v-1h0a2.68,2.68,0,0,1-2.34,1.22c-1.61,0-2.83-.67-2.83-2.81V64.5h1.37v5.07A1.51,1.51,0,0,0,136,71.15h.23a2,2,0,0,0,2.14-1.86V64.5h1.37v7.69m1.95-7.69h1.37v1h0a2.68,2.68,0,0,1,2.34-1.22,2.49,2.49,0,0,1,2.83,2.1,2.89,2.89,0,0,1,0,.72v5.07h-1.37V67.23c0-1.32-.72-1.72-1.68-1.72a2,2,0,0,0-2.14,1.86v4.77h-1.37V64.5M155.78,67a2.05,2.05,0,0,0-2.13-1.7c-1.93,0-2.48,1.62-2.48,3s.65,3,2.45,3a2.07,2.07,0,0,0,2.28-1.84,1.77,1.77,0,0,0,0-.23l1.47.11a3.42,3.42,0,0,1-3.71,3,3.66,3.66,0,0,1-4-3.28,4.33,4.33,0,0,1,0-.72,3.77,3.77,0,0,1,4-4.12,3.42,3.42,0,0,1,3.6,2.59L155.8,67m2.87,5.15H160V64.5h-1.37Zm0-9.94H160V60.72h-1.37Zm3.24-1.51h1.33V72.17h-1.37ZM54.41,48.06v5.31h1.94c1.54,0,3.32-.59,3.32-2.68,0-2.63-2.76-2.63-3.65-2.63Zm0-8.91v5.1h1.88c2.08,0,3.24-1,3.24-2.6,0-2.5-2.41-2.5-3.15-2.5Zm3.39-3.82c4.85,0,6.6,2.68,6.6,5.58,0,1.34-.44,4.56-4.07,4.89a5,5,0,0,1,4.34,5.28,5.85,5.85,0,0,1-3.27,5.48,14.41,14.41,0,0,1-5.68.78H49.54v-22ZM72.61,40.1V44c1.57-4.21,3.51-4.21,5.85-4.21v4.66a14.2,14.2,0,0,0-1.6-.15,4.44,4.44,0,0,0-4,2.11v11h-4.8V40.1h4.55M91,51.85c0-1.61-.83-2.71-2.44-2.71A2.5,2.5,0,0,0,86,51.55a2.55,2.55,0,0,0,0,.39c0,1.19.41,2.74,2.43,2.74A2.53,2.53,0,0,0,91,52.2C91,52.08,91,52,91,51.85ZM91,46.36c0-1.55-.24-2-.68-2.41a3.22,3.22,0,0,0-2.17-.72,9.31,9.31,0,0,0-3,.6,6.13,6.13,0,0,0-1.69,1L82,41.61A12.7,12.7,0,0,1,89,39.73c4,0,6.57,1.35,6.57,4.77V57.34H91.1V54.8a5.06,5.06,0,0,1-4.86,2.81c-3.65,0-5-3-5-5.61,0-3.91,2.67-5.81,5.5-5.81a4.67,4.67,0,0,1,4.19,2.2Zm10,11h4.67V40.1H101Zm-.27-21.53a2.62,2.62,0,1,1,2.62,2.62,2.62,2.62,0,0,1-2.62-2.62v0Zm14.9,4.29v3a5.63,5.63,0,0,1,5-3.22A4.19,4.19,0,0,1,124,41.45a5,5,0,0,1,.8,3.16V57.34H120V45.8c0-1.17-.36-2.21-1.55-2.21-.3,0-1.49,0-2.68,1.76v12H111V40.1h4.55M130,36.28H135v4.6h2.52v3.37H135v8c0,1,.18,1.67,1.45,1.67a6.37,6.37,0,0,0,1.07-.12v3.46a28,28,0,0,1-3.17.21c-4.14,0-4.26-2.09-4.26-4.92v-8.3h-2.4V40.88h2.47v-4.6m16,3.82V44c1.57-4.21,3.5-4.21,5.85-4.21v4.66a14.2,14.2,0,0,0-1.6-.15,4.44,4.44,0,0,0-4,2.11v11H141.6V40.1h4.55m16.77,7c.09-1.4,0-3.79-2.08-3.79S158.7,46,158.73,47.1Zm-4.2,2.4c-.18,3,.27,4.69,2.05,4.69s2.11-1.85,2.2-2.75l4.27,1.06c-.38,1.4-1.45,5.22-6.54,5.22a6.18,6.18,0,0,1-5-2.09c-1-1.16-1.7-2.57-1.7-6.56,0-3.79.42-5.1.86-6.06,1.34-2.8,4.46-3.13,5.89-3.13,6.18,0,6.66,5.46,6.66,8.2,0,.69-.06,1.14-.06,1.43ZM180,47.09c.08-1.4,0-3.79-2.08-3.79s-2.14,2.72-2.12,3.79Zm-4.2,2.41c-.18,3,.27,4.69,2.06,4.69s2.11-1.85,2.2-2.75l4.31,1c-.39,1.4-1.46,5.22-6.54,5.22a6.24,6.24,0,0,1-5-2.09c-1-1.16-1.69-2.57-1.69-6.56,0-3.79.41-5.1.86-6.06,1.34-2.8,4.46-3.13,5.88-3.13,6.19,0,6.67,5.46,6.67,8.2,0,.69-.06,1.14-.06,1.43Z" fill="#fff"/></svg>