<svg width="158" height="40" fill="none" xmlns="http://www.w3.org/2000/svg"><path d="M47.909 6.983h4.346c2.4 0 3.373 1.257 3.373 2.64 0 1.185-.646 1.947-1.379 2.249.707.254 1.693.99 1.693 2.4 0 1.843-1.438 3.088-3.553 3.088h-4.485V6.983h.005Zm4.096 4.165c1.215 0 1.693-.508 1.693-1.335 0-.823-.599-1.305-1.59-1.305H49.83v2.64h2.175Zm-2.175 4.678h2.205c1.245 0 1.922-.538 1.922-1.602 0-.93-.617-1.542-2.025-1.542h-2.098v3.144h-.004Zm13.672-.719c0 .75 0 1.632.017 2.248h-1.813c-.03-.21-.043-.646-.06-.973-.435.792-1.142 1.154-2.189 1.154-1.486 0-2.563-.853-2.563-2.847V9.653h1.861v4.661c0 .9.271 1.68 1.318 1.68 1.124 0 1.577-.616 1.577-2.261v-4.08h1.86v5.454h-.008Zm7.96-.194c-.284 1.288-1.184 2.623-3.372 2.623-2.31 0-3.567-1.62-3.567-3.989 0-2.235 1.335-4.079 3.674-4.079 2.46 0 3.21 1.77 3.27 2.684h-1.831c-.15-.69-.556-1.198-1.486-1.198-1.111 0-1.723.96-1.723 2.533 0 1.68.629 2.58 1.71 2.58.81 0 1.258-.465 1.486-1.154h1.84-.001Zm2.701-1.874c.599-.767 1.844-2.158 2.908-3.39h2.158l-2.757 2.938 3.028 4.768h-2.128l-2.158-3.566-1.05 1.003v2.563h-1.862V6.397h1.861v6.642Zm5.634-6.642h1.861V8.21h-1.86V6.397h-.001Zm0 3.252h1.861v7.706h-1.86V9.65l-.001-.001Zm3.33 1.934c0-.659 0-1.348-.017-1.934h1.8c.044.211.074.84.074 1.081.271-.538.9-1.258 2.296-1.258 1.516 0 2.563.991 2.563 2.968v4.92h-1.861v-4.71c0-.96-.345-1.65-1.365-1.65-1.095 0-1.633.707-1.633 2.129v4.23h-1.861v-5.777h.004v.001Zm14.948 4.919c0 2.473-.961 3.99-3.735 3.99-2.654 0-3.27-1.487-3.36-2.413h1.891c.18.629.676 1.02 1.542 1.02 1.516 0 1.83-.93 1.83-2.532v-.448c-.404.732-1.063 1.167-2.248 1.167-1.977 0-3.192-1.62-3.192-3.765 0-2.442 1.456-4.049 3.36-4.049 1.379 0 1.952.646 2.085 1.052.017-.255.06-.733.073-.87h1.77c-.012.598-.012 1.468-.012 2.218v4.63h-.004Zm-3.567-.736c1.408 0 1.8-.974 1.8-2.4 0-1.455-.301-2.382-1.753-2.382-1.094 0-1.83.87-1.83 2.46 0 1.426.732 2.322 1.783 2.322Zm6.849-9.369v4.243c.357-.569 1.003-1.168 2.279-1.168 1.365 0 2.58.793 2.58 2.955v4.933h-1.844v-4.648c0-1.112-.418-1.71-1.396-1.71-1.257 0-1.619.9-1.619 2.218v4.14h-1.861V6.4h1.861v-.004.001Zm12.401 9.072c0 .719.061 1.692.104 1.886h-1.784c-.06-.163-.103-.555-.12-.84-.272.465-.827 1.021-2.236 1.021-1.843 0-2.623-1.215-2.623-2.4 0-1.74 1.396-2.55 3.657-2.55h1.167v-.525c0-.598-.193-1.227-1.348-1.227-1.021 0-1.228.465-1.335 1.033h-1.784c.104-1.257.901-2.412 3.192-2.399 2.008.013 3.106.81 3.106 2.61v3.39h.004v.001Zm-1.813-1.71h-1.008c-1.366 0-1.964.404-1.964 1.274 0 .63.417 1.142 1.245 1.142 1.529 0 1.723-1.051 1.723-2.188v-.229h.004v.001Zm3.265-2.129c0-.659 0-1.335-.017-1.977h1.783c.03.194.06.677.078 1.004.374-.616 1.021-1.185 2.175-1.185 1.094 0 1.753.569 2.037 1.245.435-.659 1.125-1.245 2.4-1.245 1.318 0 2.442.793 2.442 2.835v5.053h-1.831v-4.83c0-.766-.271-1.541-1.257-1.541-1.021 0-1.439.719-1.439 1.964v4.407h-1.831v-4.77c0-.853-.224-1.59-1.228-1.59-1.003 0-1.468.69-1.468 2.068v4.29h-1.844V11.63Zm13.496 3.447c.181.689.719 1.08 1.602 1.08.9 0 1.245-.344 1.245-.882 0-.586-.345-.827-1.559-1.125-2.413-.585-2.835-1.335-2.835-2.399 0-1.124.793-2.279 2.998-2.279 2.219 0 3.028 1.228 3.106 2.296h-1.783c-.074-.362-.332-.96-1.396-.96-.84 0-1.094.392-1.094.792 0 .435.271.66 1.572.974 2.49.568 2.895 1.426 2.895 2.563 0 1.288-1.004 2.4-3.209 2.4-2.236 0-3.192-1.095-3.373-2.46h1.831Zm7.434-8.68v4.243c.358-.569 1.004-1.168 2.279-1.168 1.366 0 2.58.793 2.58 2.955v4.933h-1.843v-4.648c0-1.112-.418-1.71-1.396-1.71-1.262 0-1.62.9-1.62 2.218v4.14h-1.86V6.4h1.86v-.004.001Zm6.298 0h1.861V8.21h-1.861V6.397Zm0 3.252h1.861v7.706h-1.861V9.649Zm3.313 2.085c0-.87 0-1.516-.018-2.085h1.831c.03.18.043.9.043 1.426.362-.93 1.215-1.59 2.52-1.603v1.801c-1.559-.017-2.52.538-2.52 2.593v3.494h-1.861v-5.626h.005Zm6.358 2.158c0 1.154.585 2.158 1.74 2.158.991 0 1.305-.452 1.516-.943h1.874c-.284.96-1.124 2.43-3.451 2.43-2.489 0-3.553-1.922-3.553-3.93 0-2.381 1.214-4.139 3.644-4.139 2.593 0 3.463 1.934 3.463 3.765 0 .254 0 .435-.03.659h-5.203Zm3.355-1.185c-.017-1.034-.465-1.873-1.602-1.873-1.142 0-1.603.78-1.71 1.873h3.312ZM56.515 30.312c-.435 1.874-1.843 3.24-4.346 3.24-3.222 0-4.781-2.326-4.781-5.277 0-2.834 1.589-5.385 4.871-5.385 2.64 0 3.972 1.543 4.256 3.283h-1.947c-.271-.913-.9-1.723-2.386-1.723-1.995 0-2.787 1.8-2.787 3.765 0 1.843.72 3.795 2.847 3.795 1.516 0 2.055-.961 2.326-1.693h1.947v-.005Zm8.038-.766c0 2.296-1.348 4.049-3.765 4.049-2.339 0-3.704-1.71-3.704-4.02 0-2.338 1.395-4.048 3.795-4.048 2.235 0 3.674 1.606 3.674 4.019Zm-5.578.012c0 1.56.706 2.55 1.86 2.55 1.168 0 1.814-.973 1.814-2.532 0-1.663-.646-2.563-1.843-2.563-1.142 0-1.831.87-1.831 2.545Zm13.134 1.607c0 .75 0 1.633.017 2.249h-1.814c-.03-.211-.043-.646-.06-.974-.435.793-1.141 1.155-2.188 1.155-1.486 0-2.563-.853-2.563-2.848v-5.04h1.86v4.666c0 .9.272 1.68 1.319 1.68 1.124 0 1.576-.616 1.576-2.266v-4.08h1.861v5.458h-.008Zm1.468-3.523c0-.66 0-1.349-.017-1.934h1.8c.044.21.074.84.074 1.08.271-.538.9-1.261 2.296-1.261 1.516 0 2.563.99 2.563 2.967v4.92h-1.861v-4.708c0-.961-.345-1.65-1.365-1.65-1.095 0-1.633.706-1.633 2.128v4.23h-1.86v-5.772h.003Zm14.616 3.329c-.284 1.288-1.185 2.624-3.373 2.624-2.309 0-3.566-1.62-3.566-3.99 0-2.235 1.335-4.078 3.674-4.078 2.46 0 3.209 1.77 3.27 2.683h-1.831c-.151-.689-.556-1.202-1.487-1.202-1.11 0-1.722.961-1.722 2.533 0 1.68.628 2.58 1.71 2.58.81 0 1.257-.465 1.486-1.154h1.839v.004Zm.887-8.516h1.861v1.814h-1.86v-1.814h-.001Zm0 3.253h1.861v7.706h-1.86v-7.707l-.001.001Zm5.174-3.253h-1.861v10.959h1.86l.001-10.959ZM20 0C9.05 0 .034 8.99 0 19.935l1.051.005c.043-9.852 7.693-17.903 17.381-18.583A18.925 18.925 0 0 1 20 1.292c10.334 0 18.712 8.378 18.712 18.712 0 6.078-2.899 11.476-7.383 14.891a18.63 18.63 0 0 1-11.324 3.817h-.018v.026c-.551-.013-1.404-.09-1.413-.508-.008-.345.254-.625.508-.823.34-.267.741-.457 1.138-.625.379-.163.766-.31 1.158-.448a.978.978 0 0 0 .345-.18.441.441 0 0 0 .1-.535c-.113-.207-.35-.327-.557-.418-.84-.357-4.932-.284-5.444-.275h-.052c.017.004 4.69.525 4.695.81.009.288-3.342.943-3.403 3.023-.017.565.599.741.836.823.823.28 1.189.396 2.042.418h.486c.656-.003 1.31-.05 1.96-.142 9.865-1.193 17.618-9.688 17.618-19.854C40 9.03 30.971 0 20 0Z" fill="#fff"/><path d="m19.07 27.5.65-.302s-6.961-7.375-18.695-5.565l-.965.107a20.007 20.007 0 0 0 15.072 17.21l.31-1.25C8.504 35.99 3.197 30.456 1.677 23.607c2.02-.444 8.8-1.336 17.394 3.893h-.001Z" fill="#fff"/><path d="M37.558 18.16c-.035-.055-.04-.18-.005-.223.12-.147.09-.276-.008-.4-.095-.117-.164-.238-.155-.401.004-.06-.04-.16-.087-.181-.168-.086-.163-.233-.159-.392.004-.108-.039-.224-.017-.328.064-.319-.297-.301-.362-.52-.009-.031-.069-.044-.108-.061-.008-.005-.026 0-.034-.005-.15-.068-.306-.124-.453-.21-.103-.06-.185-.151-.28-.229-.129-.31-.142-.319-.392-.306-.163-.314-.297-.026-.447.035-.03-.043-.048-.104-.087-.125-.116-.07-.129-.302-.305-.254-.151.038-.259.034-.323-.13-.013-.03-.056-.051-.087-.069-.129-.073-.258-.142-.422-.232-.232.073-.512.155-.736.228-.134-.004-.263-.047-.298-.008-.15.185-.28.387-.4.594-.086.142-.353.194-.457.082-.095.043-.18.108-.271.12-.116.018-.151.078-.198.181-.06.138-.142.32-.259.362-.241.095-.207.38-.392.517-.06.043-.082.138-.107.237.034.017.081.03.086.052.06.22.422.202.361.521-.021.103.018.22.018.327-.005.16-.009.306.163.392.048.026.09.12.087.181-.009.164.064.28.155.396.099.125.129.255.008.401-.034.043-.03.168.005.224.107.181.245.345.06.569-.035.043-.017.138-.026.22-.146-.03-.198.047-.198.189 0 .039-.03.099-.06.112-.194.082-.168.263-.186.426-.008.065-.034.155-.073.181.095.12.233.25.435.12.03-.02.147.027.16.061.06.229.689.737.887.728.306-.013.603-.198.917-.064-.017.59-.047 1.456-.086 1.843-.03.315-.094.569-.168.776-1.563-.06-3.441.03-5.38.49a1.542 1.542 0 0 1-.103-.43c-.039-.427-.06-1.413-.073-1.977.034 0 .077-.013.116-.017.086-.005.543.025.698-.065l.064.13c.117.016.224-.005.28.046.095.082.151.074.237 0 .052-.043.134-.056.198-.086.056-.021.147-.034.16-.077.06-.198.254-.203.375-.302.073-.06.133-.138.198-.207.03-.03.051-.073.09-.09.258-.108.392-.293.362-.594-.013-.125.017-.224.146-.28.005 0 .005-.005.009-.005.039-.03.065-.12.073-.18.022-.164-.004-.345.186-.427.03-.013.06-.073.06-.112 0-.142.051-.215.198-.19.009-.086-.009-.176.026-.22.18-.219.043-.383-.065-.568-.034-.056-.039-.18-.004-.224.12-.146.09-.276-.009-.4-.09-.117-.163-.233-.155-.397.005-.06-.039-.16-.09-.18-.168-.087-.164-.233-.16-.393 0-.107-.038-.224-.017-.327.06-.319-.297-.302-.362-.521-.008-.026-.052-.039-.086-.052-.004-.004-.013-.004-.017-.009-.009-.004-.026 0-.035-.004-.15-.069-.305-.125-.452-.21-.103-.061-.185-.152-.28-.23-.13-.31-.142-.318-.392-.305-.164-.314-.297-.026-.448.034-.03-.043-.047-.103-.086-.124-.116-.07-.125-.302-.301-.255-.151.04-.259.035-.324-.129-.012-.03-.056-.052-.086-.069-.129-.073-.262-.142-.422-.232-.232.073-.512.155-.736.228-.134-.004-.263-.048-.298-.009-.15.185-.28.388-.4.595-.087.142-.358.193-.457.082-.095.043-.18.107-.271.12-.117.017-.151.078-.198.181-.06.138-.143.319-.259.362-.241.095-.211.379-.392.517-.103.077-.099.297-.172.435a.519.519 0 0 1-.22.211c-.16.078-.202.142-.142.323.017.06.052.12.047.177-.026.198-.073.396-.099.594-.004.013-.004.03-.004.043-.047.323-.095.646-.12.97-.01.124.03.258.064.383.056.202.185.698.289.698.15 0 .275.021.193.25.194.017.293.124.41.267.099.124.245.366.5.202.017-.009.051-.004.085.009.035.012.07.034.074.051.06.229.689.737.887.728.22-.008.78-.108 1.163-.146-.017.581-.047 1.58-.09 2.007a3.52 3.52 0 0 1-.112.603c-.59.172-1.176.38-1.762.633a89.11 89.11 0 0 0-3.42 1.581c-.078-.164-.16-.435-.203-.896a32.46 32.46 0 0 1-.064-1.697c.081-.004.47.022.598-.056.03.056.052.095.056.112.1.013.194-.004.242.039.081.069.129.06.206 0 .048-.039.117-.048.173-.073.047-.018.129-.03.137-.065.056-.164.22-.168.323-.254.06-.052.112-.117.173-.172.026-.026.047-.065.077-.074.224-.09.34-.245.315-.495-.013-.104.013-.185.125-.233.039-.017.06-.103.069-.16.017-.137-.005-.288.159-.357.026-.013.052-.064.052-.094 0-.121.043-.181.172-.155.009-.074-.009-.147.022-.186.137-.163.064-.288-.022-.418-.03-.008-.06-.017-.073-.008-.22.133-.35-.069-.431-.168-.099-.12-.185-.211-.353-.224.069-.19-.035-.207-.168-.207-.09 0-.203-.418-.25-.586-.03-.103-.065-.215-.056-.323.026-.271.065-.538.108-.81-.005-.004-.009-.004-.013-.004-.09-.047-.164-.13-.241-.194-.113-.258-.121-.267-.34-.254-.143-.263-.255-.021-.388.03-.026-.038-.043-.086-.074-.103-.103-.056-.107-.25-.262-.216-.13.03-.224.03-.28-.107-.009-.026-.048-.043-.074-.056-.112-.06-.224-.12-.366-.194-.202.06-.444.134-.637.19-.117-.005-.229-.044-.259-.005a4.442 4.442 0 0 0-.349.496c-.073.12-.306.163-.396.069-.082.034-.155.09-.237.099-.103.012-.13.064-.172.15-.052.117-.12.267-.22.306-.21.078-.18.319-.34.431-.09.065-.086.245-.15.366a.43.43 0 0 1-.195.177c-.138.064-.176.12-.125.267.018.047.048.103.04.146-.022.168-.061.332-.087.5-.043.28-.086.564-.112.844-.009.104.026.216.056.323.047.168.16.586.25.586.133 0 .237.017.168.207.168.017.254.103.353.224.086.103.215.306.43.168.027-.017.13.021.139.052.051.19.598.616.77.607.216-.009.802-.112 1.125-.13-.017.479-.039 1.353-.078 1.72-.069.68-.215 1.115-.331 1.36a190.06 190.06 0 0 0-8.689 4.653h1.03c1.068-.599 7.624-3.726 12.25-4.799 4.627-1.073 11.006-.47 11.006-.47l.685-2.27s-1.197-.314-3.02-.46a2.837 2.837 0 0 1-.206-.858c-.039-.417-.06-1.382-.073-1.95.07.007.14.023.206.05.043.018.095-.008.147-.012.086-.005.194-.043.254-.005.164.108.293.03.444-.06l.064.134c.112.017.22-.005.28.043.095.082.151.073.237 0 .056-.043.134-.056.198-.086.056-.022.147-.035.16-.078.06-.198.254-.202.374-.301.074-.06.134-.138.199-.207.03-.03.051-.073.09-.09.259-.108.392-.294.362-.595-.013-.125.017-.22.146-.28.044-.022.074-.12.082-.19.022-.163-.004-.344.185-.426.03-.013.06-.073.06-.112 0-.142.053-.215.199-.19.009-.086-.009-.176.026-.22.172-.215.034-.378-.073-.56Zm-17.541-5.957c-.017-.034-.202-.038-.301-.073a1.664 1.664 0 0 1-.242-.177s-.051-.043-.069-.043c-.021 0-.176.255-.137.289.038.03.155.047.305.047.134.005.345.018.427 0 .017-.013.026-.026.017-.043Z" fill="#fff"/><path d="M19.212 12.28c-.013-.025-.022-.055-.03-.081a.695.695 0 0 0-.013-.047.724.724 0 0 0-.168-.207.08.08 0 0 1-.03.008c-.04.005-.07-.012-.074-.034-.004-.026.026-.047.065-.052a.07.07 0 0 1 .06.017l.289-.086a.824.824 0 0 0-.362-.056c-.228.013-.457.125-.612.216a.154.154 0 0 1-.043.008c-.133.022-2.503.255-2.662.224-.163-.03-.973-.202-1.03-.331-.055-.125.595-1.723.643-1.818.228-.491.473-1.189.473-1.189s.336-1.585.07-1.65c-.053-.013-.177.504-.31.595-.121.081-.156-.466-.315-.332-.087.073-.07.573-.173.4-.306-.512-.254.19-.323.242-.521.379-.969.827-1.06 1.003-.22.358-.71 1.728-.81 1.724-.21-.005-2.075-2.02-2.205-2.103-.125-.086-1.016-1.154-1.18-2.05-.043-.233-.246-.228-.172.948.008.146-.422-.59-.478-.345-.065.284.21.551.116.771-.017.043-.34-.146-.34.004 0 1.207 1.33 3.839 2.33 4.218s-1.615.762-1.749.818c-.133.056-.232.202-.056.241.38.06-.03.289.112.388.073.017.155.021.203.073.047.069-.143.314-.065.349.077.034 1.21-.362 1.667-.414.224-.025.935.16 1.538 0 .603-.159 1.886-.904 2.158-.951.271-.048 3.842-.32 3.842-.32.315.03.707-.064.793-.09-.03.005-.07-.03-.1-.09l.001-.001Z" fill="#fff"/></svg>