<?xml version="1.0" encoding="UTF-8"?>
<!DOCTYPE svg PUBLIC "-//W3C//DTD SVG 1.1//EN" "http://www.w3.org/Graphics/SVG/1.1/DTD/svg11.dtd">
<svg xmlns="http://www.w3.org/2000/svg" version="1.1" width="1775px" height="359px" style="shape-rendering:geometricPrecision; text-rendering:geometricPrecision; image-rendering:optimizeQuality; fill-rule:evenodd; clip-rule:evenodd" xmlns:xlink="http://www.w3.org/1999/xlink">
<g><path style="opacity:0.974" fill="#fefffe" d="M 163.5,-0.5 C 168.5,-0.5 173.5,-0.5 178.5,-0.5C 190.989,0.495351 203.656,0.828684 216.5,0.5C 216.667,22.1692 216.5,43.8359 216,65.5C 197.91,74.4615 179.743,83.2948 161.5,92C 144.833,92.6667 128.167,92.6667 111.5,92C 107.881,84.189 109.881,78.189 117.5,74C 128.733,72.0342 140.066,71.0342 151.5,71C 153.807,69.1724 153.474,67.5057 150.5,66C 117.502,65.5 84.5017,65.3334 51.5,65.5C 52.8603,42.2768 62.527,23.4435 80.5,9C 86.1175,5.68306 92.1175,3.34973 98.5,2C 120.313,0.955011 141.98,0.121677 163.5,-0.5 Z"/></g>
<g><path style="opacity:0.974" fill="#fefffe" d="M 270.5,-0.5 C 275.5,-0.5 280.5,-0.5 285.5,-0.5C 303.662,0.3317 321.995,0.8317 340.5,1C 359.53,1.76085 374.363,9.92752 385,25.5C 392.105,37.8168 396.605,50.9835 398.5,65C 365.167,65.3333 331.833,65.6667 298.5,66C 296.473,67.3957 296.14,69.0624 297.5,71C 307.532,71.2438 317.532,71.9105 327.5,73C 338.315,75.6335 341.648,81.9668 337.5,92C 320.833,92.6667 304.167,92.6667 287.5,92C 269.257,83.2948 251.09,74.4615 233,65.5C 232.5,43.8359 232.333,22.1692 232.5,0.5C 245.344,0.828684 258.011,0.495351 270.5,-0.5 Z"/></g>
<g><path style="opacity:0.968" fill="#fefffe" d="M 621.5,68.5 C 650.072,67.0588 676.405,73.8921 700.5,89C 718.593,102.277 728.926,120.11 731.5,142.5C 717.151,142.833 702.818,142.499 688.5,141.5C 681.206,117.707 665.206,104.207 640.5,101C 596.302,97.5507 569.468,117.384 560,160.5C 554.575,188.3 559.575,213.966 575,237.5C 597.039,261.18 623.539,268.013 654.5,258C 675.829,247.488 687.496,230.321 689.5,206.5C 703.5,206.5 717.5,206.5 731.5,206.5C 727.066,251.773 702.732,279.94 658.5,291C 619.57,299.283 584.237,291.616 552.5,268C 523.717,240.33 511.551,206.497 516,166.5C 526.334,106.997 561.5,74.3302 621.5,68.5 Z"/></g>
<g><path style="opacity:0.972" fill="#fefffe" d="M 1362.5,68.5 C 1375.83,68.5 1389.17,68.5 1402.5,68.5C 1402.5,141.833 1402.5,215.167 1402.5,288.5C 1389.83,288.5 1377.17,288.5 1364.5,288.5C 1364.67,282.158 1364.5,275.825 1364,269.5C 1352.18,284.329 1336.68,292.163 1317.5,293C 1288.34,295.84 1263.84,286.673 1244,265.5C 1227.6,240.386 1222.6,213.052 1229,183.5C 1237.17,149.33 1258.67,129.83 1293.5,125C 1312.52,122.954 1330.52,126.288 1347.5,135C 1352.92,138.419 1357.76,142.585 1362,147.5C 1362.5,121.169 1362.67,94.8354 1362.5,68.5 Z M 1306.5,153.5 C 1337.64,150.5 1356.47,164.167 1363,194.5C 1365.97,211.757 1363.3,228.09 1355,243.5C 1338.7,264.035 1318.2,269.535 1293.5,260C 1274.87,248.745 1265.87,232.078 1266.5,210C 1266.5,196.998 1269.67,184.831 1276,173.5C 1283.45,162.533 1293.61,155.866 1306.5,153.5 Z"/></g>
<g><path style="opacity:0.978" fill="#fefffe" d="M -0.5,166.5 C -0.5,144.5 -0.5,122.5 -0.5,100.5C 18.1798,91.7694 36.8464,82.936 55.5,74C 71.5,73.3333 87.5,73.3333 103.5,74C 107.855,82.7827 105.522,89.1161 96.5,93C 85.8649,94.8772 75.1982,95.5438 64.5,95C 61.8709,97.7892 62.5375,99.7892 66.5,101C 99.1718,101.167 131.838,101.667 164.5,102.5C 162.076,123.181 153.409,140.681 138.5,155C 131.065,160.48 122.732,163.814 113.5,165C 75.5132,166.331 37.5132,166.831 -0.5,166.5 Z"/></g>
<g><path style="opacity:0.974" fill="#fefffe" d="M 345.5,73.5 C 361.837,73.3334 378.17,73.5001 394.5,74C 412.833,82.8333 431.167,91.6667 449.5,100.5C 450.5,122.49 450.833,144.49 450.5,166.5C 412.154,166.833 373.82,166.333 335.5,165C 317.926,162.083 304.76,152.916 296,137.5C 289.963,126.223 286.463,114.223 285.5,101.5C 318.896,101.979 352.229,101.479 385.5,100C 386.991,97.9783 386.658,96.3117 384.5,95C 380.999,94.664 377.499,94.8307 374,95.5C 366.017,95.1095 358.183,93.9429 350.5,92C 343.393,87.3207 341.726,81.154 345.5,73.5 Z"/></g>
<g><path style="opacity:0.966" fill="#fefffe" d="M 818.5,124.5 C 841.269,122.415 862.936,126.249 883.5,136C 893.528,142.218 900.028,151.051 903,162.5C 903.333,193.833 903.667,225.167 904,256.5C 904.117,259.911 905.617,262.411 908.5,264C 913.087,264.799 917.587,264.632 922,263.5C 922.832,272.186 922.665,280.853 921.5,289.5C 909.346,293.229 897.012,294.062 884.5,292C 875.307,289.474 869.474,283.64 867,274.5C 848.95,287.227 828.783,293.56 806.5,293.5C 789.715,293.736 774.382,289.236 760.5,280C 745.196,265.262 741.029,247.762 748,227.5C 752.893,216.941 760.726,209.441 771.5,205C 776.64,202.731 781.973,201.065 787.5,200C 808.474,196.813 829.474,193.813 850.5,191C 864.378,187.41 868.878,178.91 864,165.5C 859.948,159.881 854.448,156.381 847.5,155C 836.494,153.03 825.494,153.03 814.5,155C 801.235,157.431 793.569,165.264 791.5,178.5C 778.167,178.5 764.833,178.5 751.5,178.5C 752.693,155.623 764.027,140.123 785.5,132C 796.36,128.265 807.36,125.765 818.5,124.5 Z M 861.5,210.5 C 862.828,215.119 863.494,220.119 863.5,225.5C 865.54,245.244 856.873,257.411 837.5,262C 821.472,266.466 806.139,264.799 791.5,257C 783.846,249.711 782.679,241.544 788,232.5C 793.68,225.905 800.847,221.739 809.5,220C 821.8,218.088 834.133,216.421 846.5,215C 851.843,214.253 856.843,212.753 861.5,210.5 Z"/></g>
<g><path style="opacity:0.972" fill="#fefffe" d="M 1030.5,124.5 C 1049.2,122.278 1066.2,126.445 1081.5,137C 1085.19,140.893 1088.53,145.06 1091.5,149.5C 1109.28,129.403 1131.61,121.236 1158.5,125C 1187.3,126.79 1203.13,141.956 1206,170.5C 1206.5,209.832 1206.67,249.165 1206.5,288.5C 1193.17,288.5 1179.83,288.5 1166.5,288.5C 1166.67,253.832 1166.5,219.165 1166,184.5C 1166.28,163.446 1155.95,153.113 1135,153.5C 1113.11,153.055 1100.78,163.722 1098,185.5C 1097.5,219.832 1097.33,254.165 1097.5,288.5C 1084.17,288.5 1070.83,288.5 1057.5,288.5C 1057.96,250.132 1057.46,211.799 1056,173.5C 1052.07,159.103 1042.57,152.436 1027.5,153.5C 1008.29,153.875 995.794,163.208 990,181.5C 988.533,217.126 988.033,252.793 988.5,288.5C 975.167,288.5 961.833,288.5 948.5,288.5C 948.5,235.167 948.5,181.833 948.5,128.5C 961.167,128.5 973.833,128.5 986.5,128.5C 986.334,135.841 986.5,143.174 987,150.5C 997.802,135.521 1012.3,126.854 1030.5,124.5 Z"/></g>
<g><path style="opacity:0.965" fill="#fefffe" d="M 1500.5,124.5 C 1534.81,121.416 1562.31,133.416 1583,160.5C 1594.12,178.324 1598.29,197.658 1595.5,218.5C 1552.17,218.5 1508.83,218.5 1465.5,218.5C 1467.3,247.961 1482.96,263.295 1512.5,264.5C 1532.14,265.355 1546.14,257.021 1554.5,239.5C 1567.49,238.334 1580.49,238.167 1593.5,239C 1583.26,269.82 1561.92,287.487 1529.5,292C 1502.3,296.416 1477.3,291.083 1454.5,276C 1431.37,254.96 1421.87,228.794 1426,197.5C 1433.25,155.082 1458.08,130.749 1500.5,124.5 Z M 1502.5,153.5 C 1532.74,151.103 1550.41,164.769 1555.5,194.5C 1525.5,194.5 1495.5,194.5 1465.5,194.5C 1468.43,172.245 1480.76,158.578 1502.5,153.5 Z"/></g>
<g><path style="opacity:0.972" fill="#fefffe" d="M 1774.5,166.5 C 1774.5,207.167 1774.5,247.833 1774.5,288.5C 1761.17,288.5 1747.83,288.5 1734.5,288.5C 1734.97,250.46 1734.47,212.46 1733,174.5C 1728.08,159.445 1717.58,152.445 1701.5,153.5C 1680.43,153.609 1666.59,163.609 1660,183.5C 1658.53,218.459 1658.03,253.459 1658.5,288.5C 1645.17,288.5 1631.83,288.5 1618.5,288.5C 1618.5,235.167 1618.5,181.833 1618.5,128.5C 1631.17,128.5 1643.83,128.5 1656.5,128.5C 1656.33,136.174 1656.5,143.841 1657,151.5C 1670.91,133.296 1689.41,124.296 1712.5,124.5C 1731.33,123.72 1747.83,129.386 1762,141.5C 1768.33,148.832 1772.5,157.165 1774.5,166.5 Z"/></g>
<g><path style="opacity:0.978" fill="#fefffe" d="M -0.5,191.5 C 37.5136,191.16 75.5136,191.66 113.5,193C 136.439,197.598 151.606,211.098 159,233.5C 161.406,240.701 163.24,248.034 164.5,255.5C 131.838,256.333 99.1718,256.833 66.5,257C 62.3999,258.101 61.7332,260.101 64.5,263C 75.208,262.336 85.8747,263.003 96.5,265C 105.522,268.884 107.855,275.217 103.5,284C 87.5,284.667 71.5,284.667 55.5,284C 36.9281,274.88 18.2614,266.046 -0.5,257.5C -0.5,235.5 -0.5,213.5 -0.5,191.5 Z"/></g>
<g><path style="opacity:0.974" fill="#fefffe" d="M 357.5,191.5 C 388.5,191.5 419.5,191.5 450.5,191.5C 450.833,213.51 450.5,235.51 449.5,257.5C 431.833,266 414.167,274.5 396.5,283C 387.571,284.125 378.571,284.625 369.5,284.5C 361.258,284.493 353.091,284.159 345,283.5C 341.663,271.692 346.163,265.192 358.5,264C 367.164,262.598 375.83,262.265 384.5,263C 387.401,259.951 386.734,257.951 382.5,257C 350.168,256.5 317.835,256.333 285.5,256.5C 286.864,235.884 294.864,218.384 309.5,204C 314.723,200.221 320.39,197.221 326.5,195C 336.889,193.113 347.223,191.946 357.5,191.5 Z"/></g>
<g><path style="opacity:0.975" fill="#fefffe" d="M 175.5,358.5 C 172.167,358.5 168.833,358.5 165.5,358.5C 143.315,357.869 120.982,357.035 98.5,356C 82.8713,352.77 71.038,344.27 63,330.5C 56.435,318.64 52.6017,305.973 51.5,292.5C 84.5017,292.667 117.502,292.5 150.5,292C 153.474,290.494 153.807,288.828 151.5,287C 140.066,286.966 128.733,285.966 117.5,284C 109.881,279.811 107.881,273.811 111.5,266C 128.167,265.333 144.833,265.333 161.5,266C 179.743,274.705 197.91,283.539 216,292.5C 216.5,314.164 216.667,335.831 216.5,357.5C 202.656,357.171 188.99,357.504 175.5,358.5 Z"/></g>
<g><path style="opacity:0.974" fill="#fefffe" d="M 284.5,358.5 C 280.833,358.5 277.167,358.5 273.5,358.5C 260.01,357.504 246.344,357.171 232.5,357.5C 232.333,335.831 232.5,314.164 233,292.5C 251.09,283.539 269.257,274.705 287.5,266C 304.167,265.333 320.833,265.333 337.5,266C 341.648,276.033 338.315,282.367 327.5,285C 317.532,286.09 307.532,286.756 297.5,287C 296.14,288.938 296.473,290.604 298.5,292C 331.833,292.333 365.167,292.667 398.5,293C 396.128,314.41 387.128,332.41 371.5,347C 361.856,353.548 351.189,356.881 339.5,357C 320.995,357.168 302.662,357.668 284.5,358.5 Z"/></g>
</svg>
