<?xml version="1.0" encoding="UTF-8" standalone="no"?>
<!-- Created with Inkscape (http://www.inkscape.org/) -->

<svg
   version="1.1"
   id="svg2"
   width="446.72"
   height="140.29333"
   viewBox="0 0 446.72 140.29333"
   sodipodi:docname="Epsom_&amp;_Ewell_Borough_Council_(Full_Colour)_(EPS).eps"
   xmlns:inkscape="http://www.inkscape.org/namespaces/inkscape"
   xmlns:sodipodi="http://sodipodi.sourceforge.net/DTD/sodipodi-0.dtd"
   xmlns="http://www.w3.org/2000/svg"
   xmlns:svg="http://www.w3.org/2000/svg">
  <defs
     id="defs6" />
  <sodipodi:namedview
     id="namedview4"
     pagecolor="#ffffff"
     bordercolor="#000000"
     borderopacity="0.25"
     inkscape:showpageshadow="2"
     inkscape:pageopacity="0.0"
     inkscape:pagecheckerboard="0"
     inkscape:deskcolor="#d1d1d1" />
  <g
     id="g8"
     inkscape:groupmode="layer"
     inkscape:label="ink_ext_XXXXXX"
     transform="matrix(1.3333333,0,0,-1.3333333,0,140.29333)">
    <g
       id="g10"
       transform="scale(0.1)">
      <path
         d="m 257.305,84.4805 c 4.535,-0.1328 7.808,-0.211 9.832,-0.211 14.508,0 25.304,3.1524 32.379,9.4805 7.078,6.301 10.621,14.199 10.621,23.684 0,7.183 -2.16,12.781 -6.485,16.785 -4.328,4.023 -11.23,6.023 -20.714,6.023 -2.516,0 -5.719,-0.418 -9.629,-1.258 z m -20.61,-69.8789 c 7.532,-0.9805 13.43,-1.4727 17.676,-1.4727 10.887,0 20.524,3.2813 28.934,9.8399 8.402,6.5625 12.601,15.4531 12.601,26.6718 0,8.5821 -2.597,15.2813 -7.793,20.086 -5.195,4.8164 -13.586,7.2148 -25.16,7.2148 -2.23,0 -4.953,-0.0937 -8.16,-0.3086 z m -0.629,128.7774 1.465,3.867 h 50.637 c 8.512,0 16.094,-1.328 22.754,-3.976 6.652,-2.645 11.648,-6.344 14.961,-11.082 3.308,-4.739 4.965,-9.766 4.965,-15.071 0,-8.152 -2.946,-15.535 -8.836,-22.117 -5.899,-6.6016 -15.5,-11.4648 -28.824,-14.6016 8.578,-3.2109 14.89,-7.4609 18.933,-12.7617 4.043,-5.3008 6.07,-11.1211 6.07,-17.4648 0,-7.0508 -1.816,-13.7813 -5.437,-20.2031 -3.625,-6.4102 -8.281,-11.3985 -13.969,-14.9493 -5.687,-3.5586 -12.539,-6.16794 -20.558,-7.84762 -5.715,-1.1836 -14.645,-1.78125 -26.778,-1.78125 h -52 l 1.364,3.87109 c 5.441,0.12891 9.136,0.66016 11.089,1.56638 2.789,1.1836 4.778,2.75 5.961,4.711 1.676,2.6406 3.907,8.7109 6.696,18.1992 l 25.425,85.8907 c 2.157,7.258 3.243,12.344 3.243,15.273 0,2.586 -0.957,4.618 -2.875,6.133 -1.926,1.492 -5.563,2.235 -10.934,2.235 -1.191,0 -2.305,0.031 -3.352,0.109"
         style="fill:#231f20;fill-opacity:1;fill-rule:nonzero;stroke:none"
         id="path12" />
      <path
         d="m 456.523,143.801 c -6.968,0 -13.796,-1.723 -20.453,-5.188 -6.66,-3.437 -13.269,-9.093 -19.824,-16.953 -6.551,-7.832 -12.449,-18.105 -17.68,-30.8006 -6.418,-15.6172 -9.621,-30.3633 -9.621,-44.25 0,-9.9102 2.547,-18.6797 7.633,-26.3086 5.09,-7.6406 12.906,-11.44924 23.434,-11.44924 6.343,0 12.57,1.55864 18.672,4.69924 6.109,3.1406 12.468,8.5 19.097,16.1094 8.301,9.5507 15.274,21.75 20.922,36.5625 5.652,14.8242 8.473,28.6406 8.473,41.4803 0,9.492 -2.547,17.871 -7.637,25.168 -5.09,7.285 -12.762,10.93 -23.016,10.93 z m 3.559,6.695 c 9.414,0 17.746,-2.051 25.004,-6.109 7.258,-4.106 12.934,-10.117 17.051,-18.117 4.117,-7.977 6.172,-16.258 6.172,-24.844 0,-15.1955 -4.411,-31.1604 -13.235,-47.8518 C 486.246,36.8711 474.73,24.1211 460.5,15.3281 446.273,6.53906 431.555,2.14844 416.352,2.14844 c -10.95,0 -20.106,2.42187 -27.461,7.27344 -7.36,4.84762 -12.805,11.23832 -16.321,19.18752 -3.519,7.9492 -5.281,15.6719 -5.281,23.1289 0,13.25 3.188,26.3476 9.57,39.2851 6.379,12.9296 14.004,23.7346 22.856,32.4336 8.855,8.672 18.312,15.352 28.355,20.027 10.043,4.68 20.711,7.012 32.012,7.012"
         style="fill:#231f20;fill-opacity:1;fill-rule:nonzero;stroke:none"
         id="path14" />
      <path
         d="m 580.32,81.8633 c 4.461,-0.625 8.438,-0.9336 11.93,-0.9336 11.992,0 21.484,3.3281 28.457,9.9766 6.973,6.6601 10.457,14.9457 10.457,24.8557 0,7.746 -2.18,13.672 -6.535,17.785 -4.356,4.109 -10.895,6.172 -19.617,6.172 -2.235,0 -4.883,-0.285 -7.949,-0.84 z M 617.566,5.39063 594.867,74.3359 c -5.297,-0.0781 -10.742,0.4493 -16.324,1.5625 L 566.301,33.0117 c -1.606,-5.582 -2.403,-10.2929 -2.403,-14.1211 0,-2.9297 1.008,-5.2422 3.036,-6.9101 1.531,-1.2617 5.714,-2.17191 12.55,-2.71878 l -0.941,-3.87109 h -54.922 l 1.152,3.87109 c 5.161,0.20703 8.645,0.72656 10.461,1.56638 2.86,1.1836 4.954,2.793 6.278,4.8125 2.23,3.2813 4.566,9.0782 7.008,17.3711 l 24.793,85.6793 c 1.675,5.723 2.511,10.149 2.511,13.282 0,3.211 -1.308,5.937 -3.922,8.164 -2.617,2.226 -6.367,3.32 -11.25,3.242 l 1.258,3.867 h 46.242 c 15.485,0 26.637,-2.93 33.477,-8.777 6.836,-5.864 10.25,-13.574 10.25,-23.125 0,-9.133 -3.5,-17.4846 -10.516,-25.0627 -7.004,-7.5665 -16.613,-12.3594 -28.82,-14.3829 l 13.812,-41.5273 c 3.344,-10.1797 6.696,-16.8125 10.04,-19.8828 3.347,-3.0586 8.753,-4.80861 16.214,-5.22658 l -1.144,-3.87109 h -33.899"
         style="fill:#231f20;fill-opacity:1;fill-rule:nonzero;stroke:none"
         id="path16" />
      <path
         d="m 780.691,143.801 c -6.972,0 -13.793,-1.723 -20.449,-5.188 -6.66,-3.437 -13.269,-9.093 -19.828,-16.953 -6.555,-7.832 -12.445,-18.105 -17.676,-30.8006 -6.422,-15.6172 -9.629,-30.3633 -9.629,-44.25 0,-9.9102 2.547,-18.6797 7.637,-26.3086 5.094,-7.6406 12.906,-11.44924 23.438,-11.44924 6.343,0 12.566,1.55864 18.671,4.69924 6.11,3.1406 12.465,8.5 19.09,16.1094 8.309,9.5507 15.274,21.75 20.922,36.5625 5.653,14.8242 8.481,28.6406 8.481,41.4803 0,9.492 -2.551,17.871 -7.637,25.168 -5.09,7.285 -12.766,10.93 -23.02,10.93 z m 3.559,6.695 c 9.414,0 17.746,-2.051 25,-6.109 7.258,-4.106 12.941,-10.117 17.059,-18.117 4.113,-7.977 6.171,-16.258 6.171,-24.844 0,-15.1955 -4.41,-31.1604 -13.234,-47.8518 C 810.418,36.8711 798.895,24.1211 784.668,15.3281 770.441,6.53906 755.727,2.14844 740.52,2.14844 c -10.946,0 -20.102,2.42187 -27.461,7.27344 -7.364,4.84762 -12.801,11.23832 -16.321,19.18752 -3.515,7.9492 -5.285,15.6719 -5.285,23.1289 0,13.25 3.195,26.3476 9.574,39.2851 6.383,12.9296 14.004,23.7346 22.86,32.4336 8.855,8.672 18.308,15.352 28.351,20.027 10.039,4.68 20.715,7.012 32.012,7.012"
         style="fill:#231f20;fill-opacity:1;fill-rule:nonzero;stroke:none"
         id="path18" />
      <path
         d="m 880.746,147.246 h 59.942 l -1.149,-3.867 c -6.137,-0.137 -10.516,-0.711 -13.129,-1.719 -2.617,-1.015 -4.847,-2.812 -6.695,-5.39 -1.848,-2.586 -3.785,-7.352 -5.805,-14.336 L 899.363,71.7188 c -2.578,-8.9258 -4.117,-14.7852 -4.597,-17.5782 -0.84,-4.4609 -1.258,-8.6015 -1.258,-12.4492 0,-8.4414 3.137,-15.5703 9.414,-21.3906 6.273,-5.832 14.683,-8.7422 25.211,-8.7422 6.902,0 13.082,1.3008 18.519,3.9414 5.442,2.6016 10.094,6.2695 13.965,10.9609 3.871,4.7188 7.414,11.0899 10.621,19.1602 3.203,8.0391 6.032,16.1875 8.473,24.418 l 12.555,43.3199 c 3.136,10.801 4.707,17.852 4.707,21.121 0,2.305 -1.063,4.282 -3.192,5.93 -2.129,1.621 -6.433,2.625 -12.918,2.969 l 1.149,3.867 h 45.088 l -1.15,-3.867 c -5.3,0 -9.12,-0.508 -11.45,-1.504 -2.34,-1.023 -4.38,-2.844 -6.12,-5.449 -1.75,-2.625 -3.7,-7.696 -5.86,-15.227 L 987.137,68.5742 c -4.949,-17.0859 -9.625,-29.6836 -14.02,-37.8047 -4.394,-8.1289 -10.754,-14.9297 -19.09,-20.4179 -8.332,-5.47269 -18.672,-8.20316 -31.015,-8.20316 -14.231,0 -25.699,4.02344 -34.418,12.08986 -8.723,8.043 -13.082,17.2734 -13.082,27.6601 0,4.1211 0.379,8.5118 1.152,13.1914 0.563,3.0547 1.918,8.3672 4.082,15.8946 l 14.02,48.2266 c 1.945,6.98 2.929,12.105 2.929,15.379 0,2.59 -1,4.59 -2.984,6.023 -1.988,1.418 -6.996,2.348 -15.016,2.766 l 1.051,3.867"
         style="fill:#231f20;fill-opacity:1;fill-rule:nonzero;stroke:none"
         id="path20" />
      <path
         d="m 1180.92,150.496 -10.57,-44.676 h -3.97 c 0.63,5.235 0.94,9.102 0.94,11.614 0,6.836 -3.02,12.886 -9.05,18.164 -6.03,5.254 -14.35,7.886 -24.95,7.886 -21.7,0 -39.41,-10.175 -53.15,-30.546 -10.94,-16.1138 -16.42,-34.1372 -16.42,-54.0903 0,-13.2461 3.38,-24.6875 10.14,-34.3164 6.77,-9.6211 17.2,-14.4297 31.28,-14.4297 3.5,0 6.79,0.3086 9.89,0.9375 3.1,0.6328 7.79,2.0195 14.07,4.1797 l 10.36,36.5195 c 1.47,5.0195 2.2,9.0234 2.2,12.0312 0,2.5078 -0.91,4.4219 -2.72,5.75 -2.93,2.0118 -7.68,3.0391 -14.23,3.0391 h -2.93 l 1.15,4.0742 h 59.01 l -1.05,-4.0742 c -5.37,-0.0781 -9.28,-0.7031 -11.72,-1.8828 -2.44,-1.1836 -4.53,-3.2149 -6.28,-6.0742 -1.18,-1.875 -3.1,-7.3555 -5.75,-16.4297 l -10.46,-35.8828 c -9.56,-4.10941 -17.26,-6.83988 -23.12,-8.21879 -5.86,-1.33984 -12.03,-2.03125 -18.52,-2.03125 -14.92,0 -27.03,2.8125 -36.3,8.42974 -9.27,5.6015 -16.13,13.0429 -20.56,22.2695 -4.43,9.25 -6.64,18.4414 -6.64,27.5742 0,12.2773 2.58,23.9453 7.74,34.9922 5.17,11.0503 11.6,20.4103 19.3,28.0353 7.71,7.644 16.1,13.664 25.16,18.055 12.49,6.066 25.6,9.101 39.34,9.101 10.11,0 19.25,-1.68 27.41,-5.027 3.28,-1.328 5.68,-1.985 7.22,-1.985 1.74,0 3.23,0.403 4.44,1.196 1.22,0.808 2.81,2.754 4.76,5.816 h 3.98"
         style="fill:#231f20;fill-opacity:1;fill-rule:nonzero;stroke:none"
         id="path22" />
      <path
         d="m 1253.56,83.9531 h 65.49 l 10.36,35.0509 c 1.95,6.824 2.93,12.141 2.93,15.898 0,1.817 -0.44,3.368 -1.31,4.668 -0.88,1.282 -2.21,2.239 -4.03,2.871 -1.82,0.625 -5.37,0.938 -10.67,0.938 l 1.05,3.867 h 57.12 l -1.26,-3.867 c -4.81,0.078 -8.41,-0.418 -10.78,-1.465 -3.34,-1.465 -5.82,-3.351 -7.42,-5.644 -2.3,-3.282 -4.64,-9.036 -7.01,-17.266 l -25,-85.6837 c -2.1,-7.1094 -3.14,-12.2109 -3.14,-15.2695 0,-2.6524 0.92,-4.6524 2.77,-6.0313 1.85,-1.3398 6.26,-2.25778 13.23,-2.75778 l -1.15,-3.87109 h -55.23 l 1.46,3.87109 c 5.44,0.12891 9.06,0.62891 10.88,1.45708 2.79,1.2617 4.81,2.8593 6.07,4.8203 1.81,2.7226 4.04,8.6523 6.69,17.7812 l 12.77,43.418 h -65.81 l -12.87,-43.418 c -2.02,-6.9687 -3.03,-12.0586 -3.03,-15.2695 0,-2.6524 0.91,-4.6524 2.72,-6.0313 1.81,-1.3398 6.21,-2.25778 13.18,-2.75778 l -0.83,-3.87109 h -55.66 l 1.36,3.87109 c 5.51,0.12891 9.17,0.62891 10.99,1.45708 2.78,1.2617 4.84,2.8593 6.17,4.8203 1.81,2.8515 4.04,8.789 6.69,17.7812 l 25.11,85.6837 c 2.03,6.98 3.03,12.266 3.03,15.898 0,1.817 -0.43,3.368 -1.3,4.668 -0.88,1.282 -2.24,2.239 -4.08,2.871 -1.85,0.625 -5.46,0.938 -10.83,0.938 l 1.25,3.867 h 55.97 l -1.15,-3.867 c -4.67,0.078 -8.12,-0.418 -10.36,-1.465 -3.27,-1.387 -5.68,-3.242 -7.21,-5.547 -2.09,-3.058 -4.4,-8.855 -6.91,-17.363 l -10.25,-35.0509"
         style="fill:#231f20;fill-opacity:1;fill-rule:nonzero;stroke:none"
         id="path24" />
      <path
         d="m 1598.34,150.496 -10.57,-45.926 h -3.76 l -0.42,11.504 c -0.35,4.192 -1.16,7.918 -2.41,11.192 -1.26,3.269 -3.14,6.113 -5.65,8.535 -2.51,2.39 -5.69,4.277 -9.52,5.652 -3.83,1.34 -8.09,2.031 -12.76,2.031 -12.49,0 -23.4,-3.425 -32.75,-10.254 -11.92,-8.71 -21.27,-21.023 -28.04,-36.9292 -5.58,-13.1094 -8.37,-26.3906 -8.37,-39.8555 0,-13.7344 4.02,-24.707 12.04,-32.9062 8.01,-8.1993 18.45,-12.2891 31.28,-12.2891 9.69,0 18.32,2.1719 25.89,6.4805 7.57,4.3203 14.59,10.9883 21.08,19.9804 h 4.92 c -7.68,-12.1992 -16.18,-21.1718 -25.53,-26.9414 -9.35,-5.73825 -20.54,-8.62106 -33.58,-8.62106 -11.58,0 -21.83,2.42187 -30.76,7.27344 -8.93,4.84762 -15.73,11.65622 -20.4,20.44922 -4.67,8.7891 -7.01,18.2383 -7.01,28.3516 0,15.4765 4.15,30.5468 12.45,45.1953 8.3,14.648 19.68,26.152 34.16,34.52 14.47,8.371 29.07,12.558 43.78,12.558 6.9,0 14.65,-1.648 23.23,-4.922 3.76,-1.386 6.48,-2.09 8.16,-2.09 1.67,0 3.13,0.344 4.39,1.047 1.26,0.703 3.35,2.688 6.28,5.965 h 3.87"
         style="fill:#231f20;fill-opacity:1;fill-rule:nonzero;stroke:none"
         id="path26" />
      <path
         d="m 1711.77,143.801 c -6.97,0 -13.79,-1.723 -20.45,-5.188 -6.66,-3.437 -13.27,-9.093 -19.83,-16.953 -6.55,-7.832 -12.44,-18.105 -17.68,-30.8006 -6.41,-15.6172 -9.62,-30.3633 -9.62,-44.25 0,-9.9102 2.55,-18.6797 7.63,-26.3086 5.1,-7.6406 12.91,-11.44924 23.44,-11.44924 6.34,0 12.57,1.55864 18.67,4.69924 6.11,3.1406 12.47,8.5 19.1,16.1094 8.3,9.5507 15.27,21.75 20.92,36.5625 5.65,14.8242 8.47,28.6406 8.47,41.4803 0,9.492 -2.54,17.871 -7.63,25.168 -5.09,7.285 -12.77,10.93 -23.02,10.93 z m 3.56,6.695 c 9.41,0 17.74,-2.051 25,-6.109 7.26,-4.106 12.93,-10.117 17.06,-18.117 4.11,-7.977 6.17,-16.258 6.17,-24.844 0,-15.1955 -4.41,-31.1604 -13.24,-47.8518 -8.82,-16.7031 -20.35,-29.4531 -34.57,-38.2461 -14.23,-8.78904 -28.95,-13.17966 -44.15,-13.17966 -10.95,0 -20.1,2.42187 -27.46,7.27344 -7.36,4.84762 -12.8,11.23832 -16.32,19.18752 -3.52,7.9492 -5.29,15.6719 -5.29,23.1289 0,13.25 3.2,26.3476 9.58,39.2851 6.38,12.9296 14,23.7346 22.85,32.4336 8.86,8.672 18.31,15.352 28.35,20.027 10.05,4.68 20.72,7.012 32.02,7.012"
         style="fill:#231f20;fill-opacity:1;fill-rule:nonzero;stroke:none"
         id="path28" />
      <path
         d="m 1811.82,147.246 h 59.95 l -1.15,-3.867 c -6.14,-0.137 -10.52,-0.711 -13.13,-1.719 -2.62,-1.015 -4.85,-2.812 -6.7,-5.39 -1.84,-2.586 -3.78,-7.352 -5.81,-14.336 l -14.54,-50.2152 c -2.58,-8.9258 -4.11,-14.7852 -4.6,-17.5782 -0.84,-4.4609 -1.26,-8.6015 -1.26,-12.4492 0,-8.4414 3.14,-15.5703 9.42,-21.3906 6.28,-5.832 14.68,-8.7422 25.21,-8.7422 6.91,0 13.08,1.3008 18.52,3.9414 5.44,2.6016 10.1,6.2695 13.97,10.9609 3.87,4.7188 7.41,11.0899 10.62,19.1602 3.2,8.0391 6.03,16.1875 8.47,24.418 l 12.55,43.3199 c 3.13,10.801 4.72,17.852 4.72,21.121 0,2.305 -1.08,4.282 -3.2,5.93 -2.13,1.621 -6.43,2.625 -12.92,2.969 l 1.15,3.867 h 45.1 l -1.17,-3.867 c -5.29,0 -9.12,-0.508 -11.45,-1.504 -2.33,-1.023 -4.36,-2.844 -6.12,-5.449 -1.74,-2.625 -3.69,-7.696 -5.86,-15.227 l -15.37,-52.6248 c -4.96,-17.0859 -9.63,-29.6836 -14.02,-37.8047 -4.4,-8.1289 -10.76,-14.9297 -19.09,-20.4179 -8.33,-5.47269 -18.68,-8.20316 -31.02,-8.20316 -14.23,0 -25.7,4.02344 -34.42,12.08986 -8.72,8.043 -13.08,17.2734 -13.08,27.6601 0,4.1211 0.38,8.5118 1.15,13.1914 0.56,3.0547 1.92,8.3672 4.08,15.8946 l 14.02,48.2266 c 1.95,6.98 2.93,12.105 2.93,15.379 0,2.59 -0.99,4.59 -2.98,6.023 -1.99,1.418 -7,2.348 -15.02,2.766 l 1.05,3.867"
         style="fill:#231f20;fill-opacity:1;fill-rule:nonzero;stroke:none"
         id="path30" />
      <path
         d="m 2019.21,147.246 43.84,-111.2069 23.74,83.0699 c 1.96,6.829 2.93,12.129 2.93,15.903 0,2.586 -0.91,4.597 -2.72,6.062 -1.81,1.465 -5.2,2.196 -10.15,2.196 -0.84,0 -1.7,0.031 -2.61,0.109 l 1.15,3.867 H 2121 l -1.26,-3.867 c -4.73,0.078 -8.26,-0.418 -10.56,-1.465 -3.27,-1.465 -5.72,-3.351 -7.32,-5.644 -2.23,-3.282 -4.5,-9.004 -6.8,-17.161 L 2061.68,2.14844 h -3.76 L 2010.74,121.824 1985.52,33.4297 c -1.88,-6.6992 -2.82,-11.8281 -2.82,-15.3789 0,-2.6524 0.85,-4.6524 2.57,-6.0313 1.7,-1.3398 5.77,-2.25778 12.18,-2.75778 l -1.05,-3.87109 h -44.57 l 1.47,3.87109 c 5.58,0.12891 9.31,0.62891 11.2,1.45708 2.85,1.2617 4.99,2.9023 6.38,4.9218 2.01,3.0703 4.28,9 6.8,17.7891 l 28.14,98.6483 c -2.72,4.192 -5.64,7.07 -8.75,8.625 -3.09,1.582 -7.92,2.473 -14.47,2.676 l 1.14,3.867 h 35.47"
         style="fill:#231f20;fill-opacity:1;fill-rule:nonzero;stroke:none"
         id="path32" />
      <path
         d="m 2270.74,150.496 -10.57,-45.926 h -3.77 l -0.42,11.504 c -0.34,4.192 -1.14,7.918 -2.4,11.192 -1.26,3.269 -3.14,6.113 -5.65,8.535 -2.51,2.39 -5.68,4.277 -9.52,5.652 -3.84,1.34 -8.08,2.031 -12.76,2.031 -12.48,0 -23.41,-3.425 -32.75,-10.254 -11.93,-8.71 -21.27,-21.023 -28.03,-36.9292 -5.58,-13.1094 -8.37,-26.3906 -8.37,-39.8555 0,-13.7344 4,-24.707 12.03,-32.9062 8.02,-8.1993 18.44,-12.2891 31.28,-12.2891 9.7,0 18.32,2.1719 25.9,6.4805 7.56,4.3203 14.58,10.9883 21.07,19.9804 h 4.92 c -7.67,-12.1992 -16.19,-21.1718 -25.53,-26.9414 -9.34,-5.73825 -20.53,-8.62106 -33.58,-8.62106 -11.59,0 -21.83,2.42187 -30.76,7.27344 -8.92,4.84762 -15.72,11.65622 -20.4,20.44922 -4.68,8.7891 -7.01,18.2383 -7.01,28.3516 0,15.4765 4.16,30.5468 12.45,45.1953 8.29,14.648 19.69,26.152 34.15,34.52 14.48,8.371 29.07,12.558 43.79,12.558 6.91,0 14.65,-1.648 23.23,-4.922 3.76,-1.386 6.48,-2.09 8.15,-2.09 1.68,0 3.14,0.344 4.4,1.047 1.25,0.703 3.35,2.688 6.28,5.965 h 3.87"
         style="fill:#231f20;fill-opacity:1;fill-rule:nonzero;stroke:none"
         id="path34" />
      <path
         d="m 2335,9.26172 -1.15,-3.87109 h -58.37 l 1.46,3.87109 c 5.86,0.12891 9.73,0.62891 11.61,1.45708 3.06,1.1796 5.33,2.832 6.8,4.9218 2.3,3.2813 4.68,9.1407 7.11,17.5782 l 24.7,85.5822 c 2.09,7.105 3.13,12.469 3.13,16.101 0,1.817 -0.44,3.352 -1.36,4.61 -0.91,1.25 -2.28,2.207 -4.14,2.871 -1.83,0.664 -5.45,0.996 -10.82,0.996 l 1.26,3.867 h 54.82 l -1.16,-3.867 c -4.46,0.078 -7.76,-0.418 -9.93,-1.465 -3.14,-1.387 -5.53,-3.379 -7.17,-5.969 -1.64,-2.578 -3.74,-8.289 -6.33,-17.144 l -24.58,-85.5822 c -2.23,-7.879 -3.35,-12.8985 -3.35,-15.0704 0,-1.7382 0.43,-3.2265 1.32,-4.4492 0.86,-1.2109 2.25,-2.1484 4.18,-2.8086 1.91,-0.6797 5.9,-1.21091 11.97,-1.62888"
         style="fill:#231f20;fill-opacity:1;fill-rule:nonzero;stroke:none"
         id="path36" />
      <path
         d="m 2471.04,5.39063 h -105.15 l 1.47,3.87109 c 5.57,0.12891 9.31,0.59766 11.19,1.35938 2.93,1.25 5.1,2.9102 6.49,4.918 2.17,3.2109 4.47,8.9922 6.9,17.3593 l 25.01,86.3126 c 2.1,7.117 3.14,12.352 3.14,15.691 0,2.649 -0.96,4.707 -2.87,6.172 -1.92,1.465 -5.53,2.196 -10.84,2.196 -1.17,0 -2.11,0.031 -2.82,0.109 l 1.26,3.867 h 57.85 l -0.84,-3.867 c -6.48,0 -11.08,-0.625 -13.8,-1.887 -2.72,-1.25 -5,-3.316 -6.81,-6.172 -1.25,-1.882 -3.31,-7.742 -6.17,-17.578 l -24.58,-84.8436 c -1.89,-6.4101 -2.83,-10.8789 -2.83,-13.3867 0,-1.6719 0.94,-3.2734 2.83,-4.8125 1.18,-1.0508 3.87,-1.5703 8.05,-1.5703 h 13.71 c 9.97,0 17.89,1.25 23.74,3.7617 4.33,1.8907 8.3,4.711 11.93,8.4805 1.96,2.0898 5.41,7.3008 10.36,15.5898 l 2.72,4.6993 h 3.87 L 2471.04,5.39063"
         style="fill:#231f20;fill-opacity:1;fill-rule:nonzero;stroke:none"
         id="path38" />
      <path
         d="M 603.426,654.465 H 243.27 l 7.925,46.433 h 3.403 c 10.191,0 19.812,2.266 28.308,5.665 19.821,8.488 22.653,30.578 25.485,49.824 l 36.812,212.351 v 3.41 c 0,6.219 -2.269,9.629 -7.93,13.582 -7.929,5.665 -20.953,7.922 -30.585,7.922 l 7.929,46.458 H 643.625 L 675.34,914.949 635.699,901.926 c -25.48,57.195 -67.945,91.726 -131.941,91.726 -13.59,0 -39.641,-1.691 -50.395,-11.308 -10.761,-10.196 -13.593,-31.719 -15.859,-45.313 l -9.625,-52.656 h 40.199 c 26.621,0 41.344,32.832 47.008,59.453 h 40.766 L 525.844,772.813 h -40.211 v 15.285 c 0,43.613 -20.953,47.578 -65.684,47.578 L 400.691,722.977 v -2.832 c 0,-17.547 30.02,-19.247 44.176,-19.247 81.547,0 129.676,40.196 184.61,100.801 l 37.367,-19.836 -63.418,-127.398"
         style="fill:#52bf47;fill-opacity:1;fill-rule:nonzero;stroke:none"
         id="path40" />
      <path
         d="M 603.426,654.465 H 243.27 l 7.925,46.433 h 3.403 c 10.191,0 19.812,2.266 28.308,5.665 19.821,8.488 22.653,30.578 25.485,49.824 l 36.812,212.351 v 3.41 c 0,6.219 -2.269,9.629 -7.93,13.582 -7.929,5.665 -20.953,7.922 -30.585,7.922 l 7.929,46.458 H 643.625 L 675.34,914.949 635.699,901.926 c -25.48,57.195 -67.945,91.726 -131.941,91.726 -13.59,0 -39.641,-1.691 -50.395,-11.308 -10.761,-10.196 -13.593,-31.719 -15.859,-45.313 l -9.625,-52.656 h 40.199 c 26.621,0 41.344,32.832 47.008,59.453 h 40.766 L 525.844,772.813 h -40.211 v 15.285 c 0,43.613 -20.953,47.578 -65.684,47.578 L 400.691,722.977 v -2.832 c 0,-17.547 30.02,-19.247 44.176,-19.247 81.547,0 129.676,40.196 184.61,100.801 l 37.367,-19.836 z"
         style="fill:none;stroke:#231f20;stroke-width:5;stroke-linecap:butt;stroke-linejoin:miter;stroke-miterlimit:2.6131;stroke-dasharray:none;stroke-opacity:1"
         id="path42" />
      <path
         d="m 854.816,863.43 c 22.09,0 43.043,1.113 62.864,14.148 20.953,13.02 36.238,39.629 36.238,64.551 0,39.648 -25.477,51.523 -61.723,51.523 -44.168,0 -44.168,-9.617 -50.961,-48.125 L 827.074,863.43 Z M 803.289,724.668 v -3.391 c 0,-17.554 26.051,-20.379 45.875,-20.379 l -8.496,-46.433 H 645.297 l 7.926,46.433 h 11.328 c 6.797,1.133 19.816,3.954 25.48,7.364 17.555,10.195 19.258,30.578 22.653,48.125 l 36.804,212.351 c 0,1.133 0.575,2.844 0.575,3.977 0,16.414 -20.958,20.937 -44.743,20.937 l 7.93,46.458 h 189.141 c 28.882,0 69.648,0 96.836,-9.07 39.073,-12.46 59.453,-43.599 59.453,-84.368 0,-44.746 -24.35,-87.777 -63.422,-109.301 -40.199,-21.519 -87.774,-22.652 -131.945,-22.652 h -45.297 l -14.727,-90.051"
         style="fill:#52bf47;fill-opacity:1;fill-rule:nonzero;stroke:none"
         id="path44" />
      <path
         d="m 854.816,863.43 c 22.09,0 43.043,1.113 62.864,14.148 20.953,13.02 36.238,39.629 36.238,64.551 0,39.648 -25.477,51.523 -61.723,51.523 -44.168,0 -44.168,-9.617 -50.961,-48.125 L 827.074,863.43 Z M 803.289,724.668 v -3.391 c 0,-17.554 26.051,-20.379 45.875,-20.379 l -8.496,-46.433 H 645.297 l 7.926,46.433 h 11.328 c 6.797,1.133 19.816,3.954 25.48,7.364 17.555,10.195 19.258,30.578 22.653,48.125 l 36.804,212.351 c 0,1.133 0.575,2.844 0.575,3.977 0,16.414 -20.958,20.937 -44.743,20.937 l 7.93,46.458 h 189.141 c 28.882,0 69.648,0 96.836,-9.07 39.073,-12.46 59.453,-43.599 59.453,-84.368 0,-44.746 -24.35,-87.777 -63.422,-109.301 -40.199,-21.519 -87.774,-22.652 -131.945,-22.652 h -45.297 z"
         style="fill:none;stroke:#231f20;stroke-width:5;stroke-linecap:butt;stroke-linejoin:miter;stroke-miterlimit:2.6131;stroke-dasharray:none;stroke-opacity:1"
         id="path46" />
      <path
         d="m 1426.18,910.43 h -43.04 c -14.72,55.488 -63.99,88.34 -120.62,88.34 -26.05,0 -71.91,-13.602 -71.91,-45.891 0,-11.871 5.09,-20.379 14.72,-27.164 9.62,-6.797 41.34,-14.172 53.23,-17.563 l 57.76,-15.293 c 24.35,-6.226 55.5,-15.281 75.89,-30.574 24.35,-19.25 38.5,-47.566 38.5,-78.711 0,-92.304 -100.8,-138.738 -181.21,-138.738 -42.47,0 -88.34,10.762 -124.02,35.105 l -11.88,-25.476 h -37.38 l -26.05,144.961 44.17,7.371 c 20.38,-66.27 71.35,-110.996 142.7,-110.996 32.85,0 82.68,14.719 82.68,55.488 0,35.676 -30.01,43.047 -57.76,49.844 l -60.59,14.148 c -25.48,6.235 -56.63,14.153 -77.58,30.578 -26.05,19.246 -38.51,48.711 -38.51,79.856 0,38.492 20.95,72.488 52.09,93.435 34.55,22.65 73.62,30.58 114.39,30.58 42.48,0 84.94,-11.9 121.19,-33.99 l 11.89,24.37 h 35.68 l 5.66,-129.68"
         style="fill:#52bf47;fill-opacity:1;fill-rule:nonzero;stroke:none"
         id="path48" />
      <path
         d="m 1426.18,910.43 h -43.04 c -14.72,55.488 -63.99,88.34 -120.62,88.34 -26.05,0 -71.91,-13.602 -71.91,-45.891 0,-11.871 5.09,-20.379 14.72,-27.164 9.62,-6.797 41.34,-14.172 53.23,-17.563 l 57.76,-15.293 c 24.35,-6.226 55.5,-15.281 75.89,-30.574 24.35,-19.25 38.5,-47.566 38.5,-78.711 0,-92.304 -100.8,-138.738 -181.21,-138.738 -42.47,0 -88.34,10.762 -124.02,35.105 l -11.88,-25.476 h -37.38 l -26.05,144.961 44.17,7.371 c 20.38,-66.27 71.35,-110.996 142.7,-110.996 32.85,0 82.68,14.719 82.68,55.488 0,35.676 -30.01,43.047 -57.76,49.844 l -60.59,14.148 c -25.48,6.235 -56.63,14.153 -77.58,30.578 -26.05,19.246 -38.51,48.711 -38.51,79.856 0,38.492 20.95,72.488 52.09,93.435 34.55,22.65 73.62,30.58 114.39,30.58 42.48,0 84.94,-11.9 121.19,-33.99 l 11.89,24.37 h 35.68 z"
         style="fill:none;stroke:#231f20;stroke-width:5;stroke-linecap:butt;stroke-linejoin:miter;stroke-miterlimit:2.6131;stroke-dasharray:none;stroke-opacity:1"
         id="path50" />
      <path
         d="m 1688.9,997.625 c -42.47,0 -75.88,-33.984 -93.43,-70.223 -18.69,-37.929 -27.76,-81.543 -27.76,-124.011 0,-49.828 20.96,-102.493 78.72,-102.493 90.04,0 124.01,118.348 124.01,190.829 0,51.535 -20.95,105.898 -81.54,105.898 z m 119.48,-285.398 c -44.16,-44.18 -104.19,-67.391 -165.91,-67.391 -105.34,0 -179.52,69.09 -179.52,175.547 0,57.762 24.36,120.055 64.56,161.394 41.91,43.023 104.76,67.953 164.78,67.953 104.77,0 182.92,-66.261 182.92,-173.863 0,-59.449 -24.92,-121.734 -66.83,-163.64"
         style="fill:#52bf47;fill-opacity:1;fill-rule:nonzero;stroke:none"
         id="path52" />
      <path
         d="m 1688.9,997.625 c -42.47,0 -75.88,-33.984 -93.43,-70.223 -18.69,-37.929 -27.76,-81.543 -27.76,-124.011 0,-49.828 20.96,-102.493 78.72,-102.493 90.04,0 124.01,118.348 124.01,190.829 0,51.535 -20.95,105.898 -81.54,105.898 z m 119.48,-285.398 c -44.16,-44.18 -104.19,-67.391 -165.91,-67.391 -105.34,0 -179.52,69.09 -179.52,175.547 0,57.762 24.36,120.055 64.56,161.394 41.91,43.023 104.76,67.953 164.78,67.953 104.77,0 182.92,-66.261 182.92,-173.863 0,-59.449 -24.92,-121.734 -66.83,-163.64 z"
         style="fill:none;stroke:#231f20;stroke-width:5;stroke-linecap:butt;stroke-linejoin:miter;stroke-miterlimit:2.6131;stroke-dasharray:none;stroke-opacity:1"
         id="path54" />
      <path
         d="m 2016.75,967.617 -41.91,-242.949 v -3.391 c 0,-17.554 26.62,-20.379 47,-20.379 l -8.5,-46.433 h -150.63 l 7.93,46.433 c 42.47,0 48.71,18.68 54.93,55.489 l 36.81,212.351 c 0,1.133 0.57,2.844 0.57,3.977 0,16.414 -20.96,20.937 -40.21,20.937 l 8.49,46.458 h 169.33 l 25.48,-214.063 104.19,214.063 h 173.86 l -8.5,-46.458 c -12.46,0 -19.83,-0.547 -31.14,-5.644 -20.4,-9.641 -22.66,-30.028 -26.05,-49.844 l -36.81,-212.922 c 0,-1.121 -0.57,-2.265 -0.57,-3.394 0,-17.563 24.34,-20.95 43.03,-20.95 l -8.49,-46.433 h -195.37 l 8.49,46.433 c 13.6,0 24.37,1.7 35.11,5.665 19.83,8.488 22.66,30.578 26.05,49.824 l 36.81,211.23 -150.63,-313.152 h -38.5 l -40.77,313.152"
         style="fill:#52bf47;fill-opacity:1;fill-rule:nonzero;stroke:none"
         id="path56" />
      <path
         d="m 2016.75,967.617 -41.91,-242.949 v -3.391 c 0,-17.554 26.62,-20.379 47,-20.379 l -8.5,-46.433 h -150.63 l 7.93,46.433 c 42.47,0 48.71,18.68 54.93,55.489 l 36.81,212.351 c 0,1.133 0.57,2.844 0.57,3.977 0,16.414 -20.96,20.937 -40.21,20.937 l 8.49,46.458 h 169.33 l 25.48,-214.063 104.19,214.063 h 173.86 l -8.5,-46.458 c -12.46,0 -19.83,-0.547 -31.14,-5.644 -20.4,-9.641 -22.66,-30.028 -26.05,-49.844 l -36.81,-212.922 c 0,-1.121 -0.57,-2.265 -0.57,-3.394 0,-17.563 24.34,-20.95 43.03,-20.95 l -8.49,-46.433 h -195.37 l 8.49,46.433 c 13.6,0 24.37,1.7 35.11,5.665 19.83,8.488 22.66,30.578 26.05,49.824 l 36.81,211.23 -150.63,-313.152 h -38.5 z"
         style="fill:none;stroke:#231f20;stroke-width:5;stroke-linecap:butt;stroke-linejoin:miter;stroke-miterlimit:2.6131;stroke-dasharray:none;stroke-opacity:1"
         id="path58" />
      <path
         d="M 606.801,207.266 H 246.645 l 7.929,46.433 h 3.399 c 10.195,0 19.82,2.278 28.312,5.664 19.817,8.489 22.649,30.578 25.481,49.825 l 36.812,212.367 v 3.394 c 0,6.223 -2.269,9.629 -7.93,13.598 -7.925,5.664 -20.953,7.918 -30.585,7.918 l 7.929,46.445 h 329.012 l 31.715,-125.144 -39.645,-13.039 c -25.48,57.199 -67.949,91.738 -131.941,91.738 -13.586,0 -39.637,-1.692 -50.395,-11.32 -10.761,-10.196 -13.593,-31.707 -15.859,-45.309 l -9.625,-52.656 h 40.203 c 26.617,0 41.34,32.84 47.004,59.453 h 40.769 l -30.007,-171.02 h -40.211 v 15.293 c 0,43.606 -20.953,47.571 -65.684,47.571 L 404.07,275.793 v -2.844 c 0,-17.551 30.016,-19.25 44.168,-19.25 81.551,0 129.68,40.207 184.614,100.805 L 670.223,334.68 606.801,207.266"
         style="fill:#52bf47;fill-opacity:1;fill-rule:nonzero;stroke:none"
         id="path60" />
      <path
         d="M 606.801,207.266 H 246.645 l 7.929,46.433 h 3.399 c 10.195,0 19.82,2.278 28.312,5.664 19.817,8.489 22.649,30.578 25.481,49.825 l 36.812,212.367 v 3.394 c 0,6.223 -2.269,9.629 -7.93,13.598 -7.925,5.664 -20.953,7.918 -30.585,7.918 l 7.929,46.445 h 329.012 l 31.715,-125.144 -39.645,-13.039 c -25.48,57.199 -67.949,91.738 -131.941,91.738 -13.586,0 -39.637,-1.692 -50.395,-11.32 -10.761,-10.196 -13.593,-31.707 -15.859,-45.309 l -9.625,-52.656 h 40.203 c 26.617,0 41.34,32.84 47.004,59.453 h 40.769 l -30.007,-171.02 h -40.211 v 15.293 c 0,43.606 -20.953,47.571 -65.684,47.571 L 404.07,275.793 v -2.844 c 0,-17.551 30.016,-19.25 44.168,-19.25 81.551,0 129.68,40.207 184.614,100.805 l 37.371,-19.824 z"
         style="fill:none;stroke:#231f20;stroke-width:5;stroke-linecap:butt;stroke-linejoin:miter;stroke-miterlimit:2.6131;stroke-dasharray:none;stroke-opacity:1"
         id="path62" />
      <path
         d="m 738.148,487.012 c -5.097,34.543 -7.363,52.097 -45.308,59.453 l 7.93,46.445 h 175.546 l -7.929,-46.445 c -20.387,0 -37.367,-1.121 -37.367,-23.211 0,-7.363 1.128,-15.859 2.257,-22.656 l 26.051,-174.985 82.11,181.782 v 1.14 c 0,27.18 -17.551,33.965 -41.336,37.93 l 7.929,46.445 h 178.379 l -7.93,-46.445 c -16.99,0 -43.6,-1.692 -43.6,-22.078 l 1.13,-10.766 27.18,-188.57 79.28,175.547 c 2.83,6.797 10.2,20.379 10.2,27.754 0,17.554 -29.45,18.113 -41.91,18.113 l 8.5,46.445 h 150.06 l -7.93,-46.445 c -43.04,0 -52.09,-18.684 -68.52,-54.356 L 1054.13,207.266 H 983.348 L 952.199,422.449 848.566,207.266 h -69.082 l -41.336,279.746"
         style="fill:#52bf47;fill-opacity:1;fill-rule:nonzero;stroke:none"
         id="path64" />
      <path
         d="m 738.148,487.012 c -5.097,34.543 -7.363,52.097 -45.308,59.453 l 7.93,46.445 h 175.546 l -7.929,-46.445 c -20.387,0 -37.367,-1.121 -37.367,-23.211 0,-7.363 1.128,-15.859 2.257,-22.656 l 26.051,-174.985 82.11,181.782 v 1.14 c 0,27.18 -17.551,33.965 -41.336,37.93 l 7.929,46.445 h 178.379 l -7.93,-46.445 c -16.99,0 -43.6,-1.692 -43.6,-22.078 l 1.13,-10.766 27.18,-188.57 79.28,175.547 c 2.83,6.797 10.2,20.379 10.2,27.754 0,17.554 -29.45,18.113 -41.91,18.113 l 8.5,46.445 h 150.06 l -7.93,-46.445 c -43.04,0 -52.09,-18.684 -68.52,-54.356 L 1054.13,207.266 H 983.348 L 952.199,422.449 848.566,207.266 h -69.082 z"
         style="fill:none;stroke:#231f20;stroke-width:5;stroke-linecap:butt;stroke-linejoin:miter;stroke-miterlimit:2.6131;stroke-dasharray:none;stroke-opacity:1"
         id="path66" />
      <path
         d="m 1592.06,207.266 h -360.15 l 7.93,46.433 h 3.4 c 10.19,0 19.81,2.278 28.31,5.664 19.82,8.489 22.65,30.578 25.48,49.825 l 36.81,212.367 v 3.394 c 0,6.223 -2.27,9.629 -7.93,13.598 -7.93,5.664 -20.95,7.918 -30.58,7.918 l 7.93,46.445 h 329 l 31.72,-125.144 -39.64,-13.039 c -25.48,57.199 -67.95,91.738 -131.94,91.738 -13.59,0 -39.64,-1.692 -50.4,-11.32 -10.76,-10.196 -13.59,-31.707 -15.86,-45.309 l -9.62,-52.656 h 40.2 c 26.62,0 41.34,32.84 47,59.453 h 40.78 l -30.02,-171.02 h -40.21 v 15.293 c 0,43.606 -20.95,47.571 -65.68,47.571 l -19.26,-112.684 v -2.844 c 0,-17.551 30.02,-19.25 44.17,-19.25 81.55,0 129.68,40.207 184.61,100.805 l 37.37,-19.824 -63.42,-127.414"
         style="fill:#52bf47;fill-opacity:1;fill-rule:nonzero;stroke:none"
         id="path68" />
      <path
         d="m 1592.06,207.266 h -360.15 l 7.93,46.433 h 3.4 c 10.19,0 19.81,2.278 28.31,5.664 19.82,8.489 22.65,30.578 25.48,49.825 l 36.81,212.367 v 3.394 c 0,6.223 -2.27,9.629 -7.93,13.598 -7.93,5.664 -20.95,7.918 -30.58,7.918 l 7.93,46.445 h 329 l 31.72,-125.144 -39.64,-13.039 c -25.48,57.199 -67.95,91.738 -131.94,91.738 -13.59,0 -39.64,-1.692 -50.4,-11.32 -10.76,-10.196 -13.59,-31.707 -15.86,-45.309 l -9.62,-52.656 h 40.2 c 26.62,0 41.34,32.84 47,59.453 h 40.78 l -30.02,-171.02 h -40.21 v 15.293 c 0,43.606 -20.95,47.571 -65.68,47.571 l -19.26,-112.684 v -2.844 c 0,-17.551 30.02,-19.25 44.17,-19.25 81.55,0 129.68,40.207 184.61,100.805 l 37.37,-19.824 z"
         style="fill:none;stroke:#231f20;stroke-width:5;stroke-linecap:butt;stroke-linejoin:miter;stroke-miterlimit:2.6131;stroke-dasharray:none;stroke-opacity:1"
         id="path70" />
      <path
         d="m 1981.62,207.266 h -336.37 l 7.93,46.433 c 11.89,0 22.65,1.699 32.28,5.664 20.39,8.489 22.65,30.578 26.05,49.825 l 36.24,212.367 c 0,1.133 0.56,2.832 0.56,3.972 0,16.407 -20.95,20.938 -43.03,20.938 l 7.93,46.445 h 201.59 l -7.92,-46.445 c -16.43,0 -22.65,0 -35.68,-5.652 -20.95,-9.641 -22.66,-30.024 -26.05,-49.844 l -37.94,-218.586 v -1.692 c 0,-12.461 20.95,-16.992 30.58,-16.992 39.07,0 69.09,12.461 101.93,35.11 32.28,22.089 44.17,39.082 69.09,71.914 l 39.07,-20.957 -66.26,-132.5"
         style="fill:#52bf47;fill-opacity:1;fill-rule:nonzero;stroke:none"
         id="path72" />
      <path
         d="m 1981.62,207.266 h -336.37 l 7.93,46.433 c 11.89,0 22.65,1.699 32.28,5.664 20.39,8.489 22.65,30.578 26.05,49.825 l 36.24,212.367 c 0,1.133 0.56,2.832 0.56,3.972 0,16.407 -20.95,20.938 -43.03,20.938 l 7.93,46.445 h 201.59 l -7.92,-46.445 c -16.43,0 -22.65,0 -35.68,-5.652 -20.95,-9.641 -22.66,-30.024 -26.05,-49.844 l -37.94,-218.586 v -1.692 c 0,-12.461 20.95,-16.992 30.58,-16.992 39.07,0 69.09,12.461 101.93,35.11 32.28,22.089 44.17,39.082 69.09,71.914 l 39.07,-20.957 z"
         style="fill:none;stroke:#231f20;stroke-width:5;stroke-linecap:butt;stroke-linejoin:miter;stroke-miterlimit:2.6131;stroke-dasharray:none;stroke-opacity:1"
         id="path74" />
      <path
         d="m 2349.7,207.266 h -336.39 l 7.93,46.433 c 11.9,0 22.66,1.699 32.29,5.664 20.38,8.489 22.64,30.578 26.05,49.825 l 36.24,212.367 c 0,1.133 0.56,2.832 0.56,3.972 0,16.407 -20.95,20.938 -43.04,20.938 l 7.92,46.445 h 201.6 l -7.92,-46.445 c -16.43,0 -22.66,0 -35.67,-5.652 -20.96,-9.641 -22.66,-30.024 -26.05,-49.844 l -37.95,-218.586 v -1.692 c 0,-12.461 20.95,-16.992 30.58,-16.992 39.08,0 69.09,12.461 101.94,35.11 32.27,22.089 44.16,39.082 69.07,71.914 l 39.09,-20.957 -66.25,-132.5"
         style="fill:#52bf47;fill-opacity:1;fill-rule:nonzero;stroke:none"
         id="path76" />
      <path
         d="m 2349.7,207.266 h -336.39 l 7.93,46.433 c 11.9,0 22.66,1.699 32.29,5.664 20.38,8.489 22.64,30.578 26.05,49.825 l 36.24,212.367 c 0,1.133 0.56,2.832 0.56,3.972 0,16.407 -20.95,20.938 -43.04,20.938 l 7.92,46.445 h 201.6 l -7.92,-46.445 c -16.43,0 -22.66,0 -35.67,-5.652 -20.96,-9.641 -22.66,-30.024 -26.05,-49.844 l -37.95,-218.586 v -1.692 c 0,-12.461 20.95,-16.992 30.58,-16.992 39.08,0 69.09,12.461 101.94,35.11 32.27,22.089 44.16,39.082 69.07,71.914 l 39.09,-20.957 z"
         style="fill:none;stroke:#231f20;stroke-width:5;stroke-linecap:butt;stroke-linejoin:miter;stroke-miterlimit:2.6131;stroke-dasharray:none;stroke-opacity:1"
         id="path78" />
      <path
         d="m 135.863,714.961 c -25.461,0 -47.2497,-5.742 -64.7771,-17.051 -18.0742,-11.648 -28.0078,-26.308 -29.5156,-43.555 -0.9336,-10.683 1.9141,-20.769 8.4688,-29.968 4.1093,-5.813 9.5312,-10.989 16.1836,-15.473 C 49.9258,604.414 35.9453,596.797 24.5391,586.191 10.0078,572.703 1.83984,556.77 0.273438,538.84 -1.45313,519.109 5.01953,502.605 19.5039,489.785 c 14.1719,-12.558 34.0234,-18.926 59.0039,-18.926 20.6602,0 37.4962,1.954 50.0472,5.789 12.687,3.911 24.453,10.149 34.965,18.54 9.062,7.285 17.523,16.531 25.16,27.507 7.105,10.235 13.668,22.11 19.519,35.332 15.051,2.442 28.879,8.059 41.145,16.707 13.629,9.621 21.011,19.868 21.937,30.442 l 0.477,5.437 h -5.457 -2.289 -2.477 l -1.504,-1.968 c -2.523,-3.325 -6.761,-6.04 -12.582,-8.059 -6.238,-2.18 -13.207,-3.281 -20.719,-3.281 -1.429,0 -3.019,0.031 -4.789,0.144 l -2.914,0.156 -5.668,0.293 c -3.898,0.403 -7.004,0.688 -9.078,0.786 -2.101,0.105 -4.211,0.164 -6.32,0.164 -19.547,0 -36.781,-4.18 -51.223,-12.434 -14.703,-8.379 -25.011,-19.961 -30.64,-34.422 l -2.356,-6.047 6.442,-0.742 2.636,-0.301 2.618,-0.3 1.722,1.992 c 3.426,3.933 7.742,6.883 13.199,9.004 5.543,2.129 12.278,3.211 19.993,3.211 1.957,0 4.031,-0.047 6.234,-0.149 2.215,-0.097 5.664,-0.347 10.352,-0.769 1.14,-0.188 2.226,-0.352 3.21,-0.481 -6.043,-14.812 -14.464,-26.472 -25.101,-34.707 -11.961,-9.273 -26.02,-13.973 -41.777,-13.973 -10.887,0 -19.6489,3.465 -26.7856,10.606 -7.0078,7.031 -9.9961,15.254 -9.1328,25.137 0.9804,11.218 7.2187,21.98 18.5351,31.992 11.8083,10.449 28.5003,19.172 49.6213,25.918 l 0.226,9.441 c -14.621,5.489 -25.773,12.485 -33.148,20.793 -7.074,7.981 -10.133,16.223 -9.348,25.196 0.817,9.367 5.266,17.082 13.59,23.593 8.547,6.68 18.742,9.922 31.164,9.922 6.672,0 11.567,-1.523 14.551,-4.543 2.895,-2.945 4.066,-7.183 3.562,-12.93 -0.335,-3.828 -2.218,-8.21 -5.605,-13.035 -3.156,-4.519 -6.359,-7.187 -9.52,-7.929 l -8.515,-1.993 6.039,-6.328 c 3.082,-3.222 6.793,-5.664 11.039,-7.257 4.023,-1.543 8.602,-2.333 13.555,-2.333 9.933,0 17.972,2.93 23.902,8.704 5.836,5.664 9.27,13.855 10.18,24.336 1.312,15.007 -4.981,26.851 -18.703,35.222 -12.825,7.781 -30.524,11.719 -52.614,11.719 z m 0,-5 c 21.309,0 37.957,-3.684 50.008,-10.984 12.031,-7.336 17.473,-17.493 16.328,-30.52 -0.808,-9.269 -3.707,-16.355 -8.691,-21.191 -4.988,-4.864 -11.789,-7.286 -20.41,-7.286 -4.321,0 -8.25,0.657 -11.801,2.024 -3.563,1.324 -6.625,3.348 -9.176,6.016 4.41,1.035 8.567,4.332 12.473,9.929 3.91,5.567 6.074,10.711 6.492,15.469 0.633,7.234 -1.043,12.852 -4.988,16.887 -3.969,4.011 -9.996,6.023 -18.106,6.023 -13.449,0 -24.859,-3.652 -34.246,-10.984 -9.383,-7.336 -14.5468,-16.36 -15.4921,-27.09 -0.9023,-10.332 2.6331,-19.984 10.5941,-28.957 7.957,-8.965 19.672,-16.348 35.136,-22.149 -21.906,-7.003 -39.05,-16.003 -51.4059,-26.933 -12.3633,-10.938 -19.1015,-22.703 -20.207,-35.305 -0.9922,-11.347 2.5391,-21.043 10.5781,-29.109 8.0352,-8.035 18.1448,-12.071 30.3208,-12.071 16.976,0 31.929,5.02 44.843,15.02 12.91,10.012 22.602,24.414 29.078,43.191 -1.269,0 -2.597,0.051 -3.98,0.149 -1.395,0.129 -3.34,0.383 -5.828,0.781 -4.793,0.43 -8.313,0.684 -10.578,0.781 -2.282,0.11 -4.43,0.157 -6.453,0.157 -8.372,0 -15.641,-1.18 -21.805,-3.555 -6.164,-2.395 -11.219,-5.852 -15.16,-10.383 l -2.633,0.305 c 5.23,13.426 14.719,24.062 28.465,31.902 13.722,7.832 29.972,11.77 48.742,11.77 2.027,0 4.055,-0.059 6.07,-0.157 2.016,-0.097 5.043,-0.378 9.063,-0.781 3.789,-0.207 6.621,-0.351 8.515,-0.449 1.891,-0.125 3.594,-0.156 5.121,-0.156 8.114,0 15.563,1.179 22.364,3.554 6.797,2.371 11.769,5.618 14.918,9.754 h 2.289 c -0.793,-9.097 -7.41,-18.015 -19.844,-26.785 -12.418,-8.769 -26.336,-14.187 -41.727,-16.262 -6.039,-14.031 -12.769,-26.375 -20.152,-37.007 -7.398,-10.637 -15.461,-19.457 -24.18,-26.465 -10.097,-8.059 -21.195,-13.938 -33.308,-17.656 -12.102,-3.711 -28.3127,-5.579 -48.5822,-5.579 -23.8398,0 -42.4062,5.899 -55.6875,17.664 -13.30077,11.77 -19.15624,26.711 -17.56639,44.883 1.46484,16.731 9.03129,31.446 22.68749,44.121 13.6641,12.707 31.0352,20.813 52.1406,24.321 -11.4609,5.371 -20.1172,12.168 -25.9726,20.437 -5.8828,8.262 -8.3867,17.129 -7.5547,26.629 1.3672,15.676 10.4414,28.957 27.2461,39.797 16.7773,10.828 37.4762,16.25 62.0622,16.25"
         style="fill:#000000;fill-opacity:1;fill-rule:nonzero;stroke:none"
         id="path80" />
      <path
         d="m 2596.65,321.965 c 4.77,-7.981 9.84,-15.852 14.92,-23.613 48.89,-75.723 111.87,-142.637 187.07,-196.293 l 119.01,-84.8285 119.01,84.8285 c 75.2,53.656 138.08,120.57 186.97,196.293 5.07,7.761 10.15,15.632 14.91,23.613 l -320.89,434.414 -321,-434.414"
         style="fill:#ffffff;fill-opacity:1;fill-rule:nonzero;stroke:none"
         id="path82" />
      <path
         d="m 2675.64,201.672 c -4.42,-5.902 -76.4,91.277 -74.91,93.894 0.41,0.711 23.14,-7.003 31.92,-1.347 16.91,10.926 23.87,29.375 30.15,44.121 6.28,14.758 19.38,50.539 49.42,55.183 30.03,4.653 45.59,-28.14 58.14,-52.742 12.56,-24.609 23.48,-48.105 42.58,-49.465 19.11,-1.367 33.32,4.375 48.6,41.274 15.29,36.883 35.76,71.863 73.16,53.015 37.4,-18.867 42.21,-97.558 75.62,-94.011 33.39,3.543 44.69,59.761 63.61,86.082 18.91,26.328 56.63,34.59 75.62,-11.477 21.18,-51.414 72.95,-65.34 84.96,-66.265 2.95,-0.239 -68.47,-96.68 -79.41,-98.789 -10.95,-2.102 -12.58,31.316 -33.14,40.476 -20.57,9.188 -40.27,4.141 -49.8,-24.844 -18.43,-56.101 -64.44,-116.562 -109.87,-29.343 -22.26,42.695 -38.64,65.386 -62.71,55.281 -24.11,-10.125 -54.59,-179.7384 -127,-62.024 -30.13,48.965 -30.5,67.278 -58.75,63.032 -26.72,-6.575 -36.42,-39.668 -38.19,-42.051 v 0"
         style="fill:#1a67bb;fill-opacity:1;fill-rule:evenodd;stroke:none"
         id="path84" />
      <path
         d="m 2787.79,571.727 c 0.72,0.929 8.57,-22.418 28.25,-24.676 37.48,-4.324 49.2,63.847 69.88,83.679 54.05,51.915 79.79,-37.988 101.95,-68.035 25.61,-34.687 55.98,10.782 56.55,10.047 l 64.64,-83.355 c 0.54,-0.696 -12.93,19.519 -33.79,-22.383 -20.86,-41.926 -28.99,-59.211 -52.14,-64.27 -23.16,-5.05 -41.09,16.973 -51.04,34.883 -9.56,17.188 -27.9,52.879 -47.73,58.028 -19.84,5.136 -34.34,-12.09 -43.51,-28.614 -9.19,-16.523 -23.74,-53.801 -44.57,-64.336 -20.83,-10.547 -39.86,-1.386 -58.43,26.856 -18.58,28.222 -27.94,57.597 -37.8,61.992 -11.01,4.895 -14.32,-1.926 -13.76,0.461 l 61.5,79.723 v 0"
         style="fill:#1a67bb;fill-opacity:1;fill-rule:evenodd;stroke:none"
         id="path86" />
      <path
         d="m 3213.05,301.406 c -47.2,-73.105 -107.9,-137.707 -180.5,-189.504 L 2917.65,30 l -114.9,81.902 c -72.6,51.797 -133.4,116.399 -180.6,189.504 -4.9,7.5 -9.8,15.098 -14.4,22.805 l 309.9,419.391 309.8,-419.391 c -4.6,-7.707 -9.5,-15.305 -14.4,-22.805 z M 2484.85,1045 V 691.809 c 0,-240.403 115.9,-465.903 310.9,-604.9067 L 2917.65,0 l 121.9,86.9023 c 195,139.0037 310.9,364.5037 310.9,604.9067 V 1045 h -865.6"
         style="fill:#52bf47;fill-opacity:1;fill-rule:nonzero;stroke:none"
         id="path88" />
      <path
         d="m 2770.07,838.477 c 1.04,-6.321 0.99,-13.743 3.16,-18.946 16.7,5.899 39.95,5.282 47.35,20.52 -16.3,5.054 -30.95,-4.692 -50.51,-1.574"
         style="fill:#fee84f;fill-opacity:1;fill-rule:nonzero;stroke:none"
         id="path90" />
      <path
         d="m 2768.49,862.156 c 18.17,2.348 32.97,8.059 36.31,25.254 -13.16,-3.172 -25.34,-7.293 -42.63,-6.316 1.63,-6.785 3.09,-13.75 6.32,-18.938"
         style="fill:#fee84f;fill-opacity:1;fill-rule:nonzero;stroke:none"
         id="path92" />
      <path
         d="m 2754.27,904.766 c 8.15,8.164 17.64,15 22.11,26.843 -11.68,-3.062 -24.45,-5.015 -34.73,-9.48 3.37,-6.621 5.97,-14.004 12.62,-17.363"
         style="fill:#fee84f;fill-opacity:1;fill-rule:nonzero;stroke:none"
         id="path94" />
      <path
         d="m 2732.18,939.504 c 7.5,0.918 8.41,8.426 11.05,14.207 -8.07,0.176 -11.27,-4.539 -17.36,-6.316 0.96,-3.743 2.11,-7.336 6.31,-7.891"
         style="fill:#fee84f;fill-opacity:1;fill-rule:nonzero;stroke:none"
         id="path96" />
      <path
         d="m 2722.71,963.184 c -6.83,2.39 -8.52,-7.215 -3.15,-7.899 0.65,3.008 3.38,3.961 3.15,7.899"
         style="fill:#fee84f;fill-opacity:1;fill-rule:nonzero;stroke:none"
         id="path98" />
      <path
         d="m 2697.45,923.711 c 0,3.152 0,6.316 0,9.473 3.3,0.664 4.17,-1.082 6.32,-1.575 0.88,10.891 -4.02,15.989 -7.9,22.102 11.36,1.355 16.2,-17.461 15.78,-33.152 -6.3,-0.5 -11.65,-0.071 -14.2,3.152 z m -48.93,-26.836 c -0.72,-7.996 11.14,-14.629 18.94,-15.781 -16.22,-17.715 -25.74,8.879 -34.72,17.363 6.25,5.305 13.61,9.512 25.25,9.473 7.13,-3.899 8.13,-13.953 20.51,-12.637 -6.13,-17.102 -23.68,4.395 -29.98,1.582 z m -83.67,-78.926 c -9.29,-0.847 -16.03,0.801 -15.79,9.473 6.87,0.078 7.25,-2.363 11.06,1.582 2.58,9.121 -8.39,10.586 -4.75,15.781 14.77,0.41 16.48,-18.293 9.48,-26.836 z m 52.09,-113.652 c -4.59,-7.676 -7.09,-18.203 -11.04,-23.684 -7.66,-10.547 -24.84,-12.508 -28.42,-23.679 17.35,-7.852 32.87,6.699 42.62,6.32 1.21,-9.113 -7.96,-7.856 -6.31,-17.375 33.94,3.418 41.67,33.047 47.35,64.726 26.03,-22.714 -16.96,-45.632 -18.94,-71.035 -2.02,-25.691 18.18,-25.195 25.26,-44.199 1.86,-5.019 -0.65,-12.937 3.15,-17.363 36.03,22.09 -22.95,61.125 6.31,85.246 -3.16,-25.805 10.45,-34.809 14.22,-53.684 13.28,3.621 1.57,26.043 4.73,33.157 9.17,-0.305 6.79,-12.161 14.22,-14.211 12.11,21.882 -4.79,60.886 4.73,83.664 1.66,-7.27 7.89,-9.973 11.05,-15.774 -8.33,-15.254 -9.96,-53.32 4.73,-63.152 9.05,3.562 2.96,22.305 9.47,28.418 4.38,-17.192 9.84,-33.313 28.42,-36.313 0.88,13.032 -11.28,21.329 -6.32,33.157 6.11,-5.989 8.64,-15.567 23.68,-12.637 -45.66,60.937 1.49,209.863 -52.09,265.207 -8.34,-6.699 -1.34,-19.984 -9.47,-25.258 -4.06,5.41 -6.5,12.453 -9.47,18.938 3.59,2.187 9.84,1.726 9.47,7.902 3.8,26.656 -15.57,43.219 -28.42,58.406 -3.85,11.953 -10.32,21.258 -22.1,25.254 -4.38,-27.121 17.37,-49.863 12.62,-77.344 -6.11,2.825 -5.82,12.071 -11.04,15.782 -13.8,-7.786 -30.19,-12.981 -48.94,-15.782 -6.87,-39.367 -64.61,-49.148 -82.08,-72.617 -10.63,-14.258 -2.01,-33.547 11.04,-39.465 16.18,1.719 24.52,11.274 41.05,12.629 1.4,-2.812 4.41,-4.011 3.15,-9.472 -14.33,-1.973 -27.99,-4.621 -31.56,-17.375 18.58,-15.106 33.89,7.543 42.62,17.375 9.92,-4.305 16.46,-0.782 28.42,0 41.88,2.746 77.03,-7.579 80.51,23.679 14.16,-34.539 -35.05,-32.05 -64.73,-33.152 0.51,-10.195 3.31,-24.231 0,-31.582 -9.01,-19.871 -26.91,-46.301 -37.89,-64.707"
         style="fill:#fee84f;fill-opacity:1;fill-rule:nonzero;stroke:none"
         id="path100" />
      <path
         d="m 2678.5,947.395 c -5.88,13.062 -15.7,30.593 -31.56,28.414 6.78,-10.039 9.95,-23.731 15.78,-34.723 7.06,0.293 13.01,1.719 15.78,6.309"
         style="fill:#fee84f;fill-opacity:1;fill-rule:nonzero;stroke:none"
         id="path102" />
      <path
         d="m 2774.8,799.004 c 0,-6.32 0,-12.625 0,-18.945 16.93,-5.938 41.58,-0.586 52.09,9.484 -17.75,2.793 -34.66,6.387 -52.09,9.461"
         style="fill:#fee84f;fill-opacity:1;fill-rule:nonzero;stroke:none"
         id="path104" />
      <path
         d="m 2781.11,683.77 c 12.01,3.789 26.56,5.019 34.74,12.636 -15.43,1.953 -23.71,11.028 -39.47,12.625 0.05,-9.949 1.08,-18.914 4.73,-25.261"
         style="fill:#fee84f;fill-opacity:1;fill-rule:nonzero;stroke:none"
         id="path106" />
      <path
         d="m 2774.8,756.379 c -0.79,-5.891 -0.9,-15.344 1.58,-22.094 15.4,4.516 31.36,-1.023 41.04,9.465 -16.5,1.914 -27.04,9.797 -42.62,12.629"
         style="fill:#fee84f;fill-opacity:1;fill-rule:nonzero;stroke:none"
         id="path108" />
      <path
         d="m 3199.44,934.766 c 7.79,1.484 10.66,6.804 6.32,12.629 3.7,3.66 9.55,5.171 9.48,12.636 -8.92,-1.633 -13.42,-7.66 -20.53,-11.054 -0.6,-6.926 4.5,-8.118 4.73,-14.211"
         style="fill:#fee84f;fill-opacity:1;fill-rule:nonzero;stroke:none"
         id="path110" />
      <path
         d="m 3237.33,851.102 c 8.26,-0.379 11.94,3.839 18.95,4.738 1.83,13.918 20.96,10.586 22.1,25.254 -14.01,-3.899 -31.7,-4.09 -47.36,-6.309 1.84,-8.152 5.07,-14.922 6.31,-23.683"
         style="fill:#fee84f;fill-opacity:1;fill-rule:nonzero;stroke:none"
         id="path112" />
      <path
         d="m 3183.66,961.602 c 0.27,-10.332 16.67,-7.059 12.63,4.734 -6.16,0.363 -8.19,-3.398 -12.63,-4.734"
         style="fill:#fee84f;fill-opacity:1;fill-rule:nonzero;stroke:none"
         id="path114" />
      <path
         d="m 3249.95,739.023 c 1.83,-8.171 2.65,-17.363 6.33,-23.679 12.32,-5.051 24.73,0.886 26.83,11.051 7,0.375 11.27,3.457 12.64,9.472 -18.72,-3.277 -33.19,5.539 -45.8,3.156"
         style="fill:#fee84f;fill-opacity:1;fill-rule:nonzero;stroke:none"
         id="path116" />
      <path
         d="m 3243.64,811.633 c 21.55,-1.555 28.17,11.812 39.47,20.523 -12.76,-1.453 -26.43,-1.98 -41.04,-1.57 -1.08,-4.109 -0.6,-13.606 1.57,-18.953"
         style="fill:#fee84f;fill-opacity:1;fill-rule:nonzero;stroke:none"
         id="path118" />
      <path
         d="m 3295.75,691.672 c -9.99,-1.613 -22.66,-0.527 -31.58,-3.164 4.06,-8.574 4.6,-20.649 14.21,-23.684 0.41,2.227 3.45,1.809 4.73,3.164 1.54,6.289 -4.71,4.746 -3.16,11.043 8.45,1.028 14.5,4.426 15.8,12.641"
         style="fill:#fee84f;fill-opacity:1;fill-rule:nonzero;stroke:none"
         id="path120" />
      <path
         d="m 3215.24,909.504 c -0.07,-8.996 7.23,-10.637 7.89,-18.938 15.86,3.055 20.21,17.664 26.82,29.993 -15.71,4.773 -22.11,-8.071 -34.71,-11.055"
         style="fill:#fee84f;fill-opacity:1;fill-rule:nonzero;stroke:none"
         id="path122" />
      <path
         d="m 3286.26,783.223 c -16.07,-0.285 -26.74,4.843 -41.04,6.32 -1.1,-10.051 2.67,-15.227 1.58,-25.266 15.05,-1.433 29.02,10.645 39.46,18.946"
         style="fill:#fee84f;fill-opacity:1;fill-rule:nonzero;stroke:none"
         id="path124" />
      <path
         d="m 3178.92,917.395 c -9.75,-1.836 -13.43,2.363 -15.78,7.898 -1.13,5.84 6.74,2.715 7.89,6.316 -2.43,14.934 -12.25,22.493 -15.78,36.309 11.71,-12.176 26.58,-28.895 23.67,-50.523 z m -71.03,-23.665 c 0.27,-9.738 11.17,-8.82 17.36,-12.636 -4.2,-8.274 -14.9,-8.914 -22.09,-3.164 0.72,10.742 -4.93,15.078 -9.48,20.527 11.84,-1.387 15.5,7.52 23.68,6.309 8.79,-1.289 11,-15.43 23.67,-14.2 -11.06,-15.253 -22.04,8.946 -33.14,3.164 z m -93.14,-88.41 c 0.07,2.883 -8.11,5.344 -3.16,7.895 0.22,6.609 13.05,0.633 14.2,6.316 0.74,8.098 -5.03,9.707 -6.3,15.782 1.05,0 2.09,0 3.15,0 8.7,-2.352 11.18,-10.918 11.04,-22.098 -4.55,-4.387 -8.53,-9.348 -18.93,-7.895 z m 268.36,-172.066 c -31.05,38.223 -42.88,101.582 -47.36,167.332 -2.92,42.684 -11.48,84.98 -36.31,108.918 -3.08,-3.75 0.95,-14.641 -4.73,-15.774 -4.17,3.731 -9.52,6.258 -11.05,12.618 3.96,1.816 4.96,6.621 7.9,9.472 4.08,23.02 -9.72,28.868 -17.38,39.465 -10.07,13.922 -18.87,32.926 -34.72,37.887 -1.05,0 -2.12,0 -3.15,0 11.08,-25.371 17.99,-61.973 20.51,-86.824 -10.73,2.429 -11.94,14.367 -14.2,25.261 -21.16,-2.527 -36.55,-10.808 -58.42,-12.625 -5.94,-25.312 -30.76,-46.379 -55.24,-64.726 -12.91,-9.668 -30.97,-15.672 -29.99,-34.727 1.76,-34.758 41.68,-30.929 63.13,-17.375 5.74,-16.363 -18.31,-14.898 -23.67,-25.254 16.57,-21.472 35.55,12.102 44.2,23.684 15.95,-2.246 29.25,4.609 50.51,7.891 29.11,4.5 44.27,8.183 48.93,30 12.18,-32.344 -28.16,-39.075 -55.24,-42.625 -0.49,-7.856 0.23,-14.485 1.58,-20.532 -12.56,-19.422 -24.79,-44.859 -33.16,-67.871 -3.16,-8.719 -4.41,-20.097 -7.89,-26.836 -7.21,-13.953 -29.92,-18.789 -26.84,-33.152 7.05,3.477 17.76,3.293 28.42,3.152 5.7,2.676 8.3,15.239 15.78,11.059 2.7,-11.652 -8.53,-9.348 -7.89,-18.945 32.35,-7.434 31.64,31.375 44.2,48.945 4.95,-1.379 8.73,-3.93 11.06,-7.902 -5.29,-14.981 -18.45,-23.079 -22.11,-36.309 -10.51,-38.008 30.04,-50.75 41.05,-77.356 31.37,23.672 -21.9,42.344 -15.78,69.465 10.74,-12.39 20.49,-25.8 31.57,-37.89 7.44,8.547 0.04,19.609 -3.16,26.836 7.67,1.367 8.09,-4.512 15.78,-3.157 0.91,13.442 -11.34,93.301 9.48,64.731 -11.83,-24.336 -4.77,-63.75 22.1,-67.883 -0.44,6.465 -7.27,14.773 -3.17,20.52 13.11,-13.75 12.41,-41.262 44.21,-36.313 0.9,12.149 -17.39,18.254 -20.51,31.574 7.85,-4.492 20.2,-8.425 31.56,-4.734"
         style="fill:#fee84f;fill-opacity:1;fill-rule:nonzero;stroke:none"
         id="path126" />
      <path
         d="m 3126.83,939.504 c 7.1,0.777 14.71,1.055 15.79,7.891 -5.38,13.589 -17.68,20.222 -28.42,28.414 2.1,-14.207 11.95,-20.664 12.63,-36.305"
         style="fill:#fee84f;fill-opacity:1;fill-rule:nonzero;stroke:none"
         id="path128" />
      <path
         d="m 3125.25,986.863 c -1.67,-4.187 -1.18,-8.984 4.73,-9.472 -0.8,3.925 0.06,9.523 -4.73,9.472"
         style="fill:#fee84f;fill-opacity:1;fill-rule:nonzero;stroke:none"
         id="path130" />
    </g>
  </g>
</svg>
