<?xml version="1.0" encoding="UTF-8"?>
<svg width="227px" height="65px" viewBox="0 0 227 65" version="1.1" xmlns="http://www.w3.org/2000/svg" xmlns:xlink="http://www.w3.org/1999/xlink">
    <!-- Generator: Sketch 63.1 (92452) - https://sketch.com -->
    <title>logo--gatesheadcouncil</title>
    <desc>Created with Sketch.</desc>
    <defs>
        <polygon id="path-1" points="0.257913994 0.351552434 173.942631 0.351552434 173.942631 25.2813114 0.257913994 25.2813114"></polygon>
    </defs>
    <g id="logo--gatesheadcouncil" stroke="none" stroke-width="1" fill="none" fill-rule="evenodd">
        <g id="Group-12" transform="translate(51.000000, 6.000000)">
            <g id="Group-11">
                <g id="Group-10" transform="translate(0.780702, 0.134375)">
                    <path d="M22.3240486,54.1047117 L20.814034,51.6158179 C19.1972318,53.3327586 16.6817897,54.5610596 13.4113404,54.5610596 C8.09256677,54.5610596 4.17514671,50.8091361 4.17514671,45.128853 C4.17514671,39.4479606 8.0563464,35.6972556 13.4113404,35.6972556 C16.8610181,35.6972556 19.6287537,37.4495343 20.5985853,38.6424973 L22.073004,35.907456 C20.7072464,34.6103067 17.9032904,32.7166759 13.2683324,32.7166759 C6.15227917,32.7166759 0.581211996,37.6609532 0.581211996,45.1989198 C0.581211996,52.7368864 6.00802219,57.6805544 13.2314875,57.6805544 C17.9395107,57.6805544 20.7790626,55.7881421 22.3240486,54.1047117 L22.3240486,54.1047117 Z M41.4790025,48.9849628 C41.4790025,43.8317037 37.5253621,40.2899805 32.4582576,40.2899805 C27.3549328,40.2899805 23.4025413,43.8317037 23.4025413,48.9849628 C23.4025413,54.1747785 27.3549328,57.6458256 32.4582576,57.6458256 C37.5253621,57.6458256 41.4790025,54.1747785 41.4790025,48.9849628 L41.4790025,48.9849628 Z M37.9931044,48.8807766 C37.9931044,52.1763521 35.8723395,54.77126 32.4582576,54.77126 C29.0079554,54.77126 26.8884394,52.1763521 26.8884394,48.8807766 C26.8884394,45.6199297 29.0079554,43.0238033 32.4582576,43.0238033 C35.8723395,43.0238033 37.9931044,45.6199297 37.9931044,48.8807766 L37.9931044,48.8807766 Z M58.8017054,57.2601537 L58.8017054,40.5708569 L55.3507787,40.5708569 L55.3507787,49.5113775 C55.3507787,52.3158764 54.1299025,54.8413268 51.1098733,54.8413268 C48.0554971,54.8413268 47.5527834,52.7015483 47.5527834,50.4228549 L47.5527834,40.5708569 L44.1387015,40.5708569 L44.1387015,50.5635977 C44.1387015,54.7005839 45.3957981,57.6458256 50.1400417,57.6458256 C52.5480716,57.6458256 54.4877347,56.4888099 55.4232194,54.8766648 L55.4594398,57.2601537 L58.8017054,57.2601537 Z M77.596329,57.2601537 L77.596329,47.4075464 C77.596329,43.4100845 76.3392325,40.2899805 71.4869523,40.2899805 C69.0077306,40.2899805 67.1748551,41.5877391 66.2762153,43.2352222 L66.1681787,43.2352222 L66.2043991,40.6061949 L62.7540968,40.6061949 L62.7540968,57.2601537 L66.2043991,57.2601537 L66.2043991,48.8807766 C66.2043991,45.6887779 67.3903038,43.0597506 70.588937,43.0597506 C73.6433131,43.0597506 74.1460268,45.1635818 74.1460268,47.9692992 L74.1460268,57.2601537 L77.596329,57.2601537 Z M95.7090106,55.1215939 L94.4868855,52.6668196 C94.4868855,52.6668196 92.6184141,54.77126 89.2748995,54.77126 C85.9694788,54.77126 83.7419262,52.3512144 83.7419262,48.8454385 C83.7419262,45.3384441 86.2567437,43.0950887 89.2748995,43.0950887 C92.2949287,43.0950887 93.8036944,44.5683188 94.3782244,45.128853 L95.600974,42.6734694 C95.4204966,42.4638784 93.5526498,40.2899805 88.988259,40.2899805 C84.4607131,40.2899805 80.2554036,43.5861654 80.2554036,48.9508433 C80.2554036,54.279574 84.2802358,57.6458256 88.8814714,57.6458256 C93.4446132,57.6458256 95.2062969,55.6120613 95.7090106,55.1215939 L95.7090106,55.1215939 Z M102.645211,35.1355029 C102.645211,33.9437584 101.709726,33.0670098 100.415785,33.0670098 C99.0862476,33.0670098 98.1520119,33.9437584 98.1520119,35.1355029 C98.1520119,36.3284659 99.0862476,37.2046052 100.415785,37.2046052 C101.709726,37.2046052 102.645211,36.3284659 102.645211,35.1355029 L102.645211,35.1355029 Z M98.690946,57.260763 L102.141248,57.260763 L102.141248,40.6061949 L98.690946,40.6061949 L98.690946,57.260763 Z M106.417125,57.2601537 L109.831207,57.2601537 L109.831207,33.0670098 L106.417125,33.0670098 L106.417125,57.2601537 Z" id="Fill-5" fill="#FEFEFE"></path>
                    <g id="Group-9">
                        <mask id="mask-2" fill="white">
                            <use xlink:href="#path-1"></use>
                        </mask>
                        <g id="Clip-8"></g>
                        <path d="M24.1926449,21.1431067 L24.1926449,11.1150278 L13.3034286,11.1150278 L13.3034286,15.4274856 L18.5147901,15.4274856 L18.5147901,19.0039376 C18.5147901,19.0039376 17.3638567,20.5472345 13.339649,20.5472345 C9.31419233,20.5472345 6.15177958,17.7067883 6.15177958,12.797849 C6.15177958,7.88951901 9.24237608,5.04968211 13.2309879,5.04968211 C16.6094739,5.04968211 18.5510105,6.69777454 19.5932828,7.81884296 L23.4376376,4.55860539 C22.6476589,3.7171948 19.808107,0.351552434 13.2309879,0.351552434 C6.29603656,0.351552434 0.257227056,4.73407697 0.257227056,12.797849 C0.257227056,20.8628396 6.29603656,25.2813114 13.1591717,25.2813114 C19.9873354,25.2813114 22.9349239,22.2306649 24.1926449,21.1431067 L24.1926449,21.1431067 Z M44.1019816,24.8950303 L44.1019816,15.1472185 C44.1019816,9.53761145 40.902724,7.29364678 35.3685017,7.29364678 C32.0624564,7.29364678 29.2947208,8.31052895 27.7859551,9.04592546 L29.2947208,12.6924442 C30.1939851,12.13191 32.457758,11.1503659 34.721531,11.1503659 C37.0221488,11.1503659 38.351686,12.096572 38.351686,13.9207453 L38.351686,14.3064172 L33.8953319,14.4812795 C30.624258,14.6220223 26.9947274,15.9191716 26.9947274,19.7752814 C26.9947274,23.6320005 30.3007727,25.2813114 33.4275896,25.2813114 C36.3033618,25.2813114 37.7396867,23.8080813 38.494694,23.0714663 L38.6033551,24.8950303 L44.1019816,24.8950303 Z M38.3866574,17.2863876 L38.3866574,20.1262245 C38.0282007,20.7220968 36.9859284,21.7036409 35.4403179,21.7036409 C33.8591115,21.7036409 32.745023,20.8981776 32.745023,19.5656903 C32.745023,18.2685411 33.7872953,17.531926 35.5483545,17.4618592 L38.3866574,17.2863876 Z M57.8295008,11.8869809 L57.8295008,7.64458993 L53.9114562,7.64458993 L53.9114562,2.94585099 L48.1255648,2.94585099 L48.1255648,7.64458993 L45.6107472,7.64458993 L45.6107472,11.8869809 L48.1255648,11.8869809 L48.1255648,18.5835369 C48.1255648,22.5456608 49.0966453,25.2813114 53.696632,25.2813114 C55.7811765,25.2813114 57.3617584,24.8249635 57.7932804,24.7195587 L57.5060154,20.3364249 C57.5060154,20.3364249 56.6791919,20.6514207 55.7811765,20.6514207 C54.0194928,20.6514207 53.9114562,19.6010284 53.9114562,18.0924602 L53.9114562,11.8869809 L57.8295008,11.8869809 Z M77.3435359,15.7430907 C77.3435359,10.6952364 73.7133808,7.29364678 68.4664234,7.29364678 C63.2188416,7.29364678 58.9067444,10.5544936 58.9067444,16.2695055 C58.9067444,21.983908 62.8953563,25.2813114 68.3583868,25.2813114 C73.8570133,25.2813114 76.1926025,22.8966039 76.7683814,22.475594 L74.503984,19.5656903 C73.497932,20.2316293 71.4852037,21.2137828 69.1852104,21.2137828 C66.8496212,21.2137828 64.9093336,20.0908865 64.6564155,17.6019928 L77.2710951,17.6019928 C77.2710951,17.6019928 77.3435359,16.5851106 77.3435359,15.7430907 L77.3435359,15.7430907 Z M71.9891664,14.4106034 L64.6926359,14.4106034 C64.7644521,12.7631203 65.9859528,10.9401655 68.3583868,10.9401655 C70.7664168,10.9401655 71.952946,12.833187 71.9891664,14.4106034 L71.9891664,14.4106034 Z M93.1193792,19.5656903 C93.1193792,15.7430907 89.9213706,14.8316134 86.8669945,13.955474 C85.6442448,13.6051401 84.2784872,13.1841302 84.2784872,12.2726528 C84.2784872,11.3611755 85.0334945,11.0108416 86.3992521,11.0108416 C87.8374505,11.0108416 89.8495544,11.9217097 90.8562308,12.6924442 L92.7253266,9.39686862 C91.7186502,8.59079605 89.6341056,7.25830875 85.9327588,7.25830875 C82.230163,7.25830875 79.2113827,9.32741112 79.2113827,12.6924442 C79.2113827,16.2695055 81.79989,17.2863876 84.7462295,18.0217841 C85.3925757,18.233203 87.981083,18.7937372 87.981083,19.9160242 C87.981083,21.0377019 86.9750311,21.3880358 85.5374572,21.3880358 C84.0992588,21.3880358 81.7274493,20.4771677 80.2898754,19.2854232 L78.134139,22.6163368 C80.1468674,24.4740203 82.9489499,25.2813114 85.6092734,25.2813114 C89.2743999,25.2813114 93.1193792,23.7026765 93.1193792,19.5656903 L93.1193792,19.5656903 Z M112.957524,24.8950303 L112.957524,14.6908705 C112.957524,10.4838176 111.627987,7.29364678 106.489066,7.29364678 C103.864963,7.29364678 102.17572,8.55545803 101.27708,10.0981457 C101.27708,10.0981457 101.313925,8.20512414 101.313925,6.45162691 L101.313925,0.701886316 L95.5636295,0.701886316 L95.5636295,24.8950303 L101.313925,24.8950303 L101.313925,16.4090297 C101.313925,13.8500692 102.068308,11.8869809 104.476338,11.8869809 C106.884368,11.8869809 107.171633,13.7093264 107.171633,15.8131575 L107.171633,24.8950303 L112.957524,24.8950303 Z M133.585648,15.7430907 C133.585648,10.6952364 129.955493,7.29364678 124.70916,7.29364678 C119.461578,7.29364678 115.149481,10.5544936 115.149481,16.2695055 C115.149481,21.983908 119.138093,25.2813114 124.601123,25.2813114 C130.099125,25.2813114 132.435339,22.8966039 133.009869,22.475594 L130.746096,19.5656903 C129.740044,20.2316293 127.72794,21.2137828 125.427947,21.2137828 C123.092358,21.2137828 121.150197,20.0908865 120.899152,17.6019928 L133.513832,17.6019928 C133.513832,17.6019928 133.585648,16.5851106 133.585648,15.7430907 L133.585648,15.7430907 Z M128.230029,14.4106034 L120.935372,14.4106034 C121.007813,12.7631203 122.228689,10.9401655 124.601123,10.9401655 C127.008529,10.9401655 128.195682,12.833187 128.230029,14.4106034 L128.230029,14.4106034 Z M152.093006,24.8950303 L152.093006,15.1472185 C152.093006,9.53761145 148.894373,7.29364678 143.360776,7.29364678 C140.053481,7.29364678 137.285746,8.31052895 135.77698,9.04592546 L137.285746,12.6924442 C138.185634,12.13191 140.449407,11.1503659 142.714429,11.1503659 C145.013798,11.1503659 146.343335,12.096572 146.343335,13.9207453 L146.343335,14.3064172 L141.886357,14.4812795 C138.617156,14.6220223 134.986377,15.9191716 134.986377,19.7752814 C134.986377,23.6320005 138.293047,25.2813114 141.419239,25.2813114 C144.295011,25.2813114 145.732585,23.8080813 146.486343,23.0714663 L146.59438,24.8950303 L152.093006,24.8950303 Z M146.379556,17.2863876 L146.379556,20.1262245 C146.01985,20.7220968 144.977578,21.7036409 143.431343,21.7036409 C141.850761,21.7036409 140.736672,20.8981776 140.736672,19.5656903 C140.736672,18.2685411 141.778945,17.531926 143.540004,17.4618592 L146.379556,17.2863876 Z M173.942631,24.8950303 L173.942631,0.701886316 L168.192335,0.701886316 L168.192335,9.71247375 C167.617805,8.87106316 165.82115,7.29364678 162.586921,7.29364678 C157.447376,7.29364678 154.213147,11.1850946 154.213147,16.2695055 C154.213147,21.353307 157.447376,25.2813114 162.586921,25.2813114 C164.959355,25.2813114 167.078247,24.4039536 168.407784,22.6504563 L168.516445,22.6163368 L168.480225,24.8950303 L173.942631,24.8950303 Z M168.372813,16.1994387 C168.372813,18.8644133 166.719165,20.6867588 164.239944,20.6867588 C161.760098,20.6867588 160.070855,18.8644133 160.070855,16.1994387 C160.070855,13.5344641 161.760098,11.7109001 164.239944,11.7109001 C166.719165,11.7109001 168.372813,13.5344641 168.372813,16.1994387 L168.372813,16.1994387 Z" id="Fill-7" fill="#FEFEFE" mask="url(#mask-2)"></path>
                    </g>
                </g>
            </g>
        </g>
        <path d="M42.5695,29.4506892 C41.4088846,25.4596645 41.7479231,23.9599316 42.0475385,21.4314564 C42.1358462,20.6908858 42.4654231,19.0052356 42.4417692,17.6836735 C42.4181154,16.3621113 42.5237692,14.2225131 41.2086154,11.6615023 C39.5465385,8.41879474 36.9414615,7.34357303 35.8328846,6.95159739 C34.3316538,6.41708516 30.3436154,5.48904798 28.9748462,5.18848168 C23.5533846,4.00016027 22.5094615,2 22.5094615,2 C22.5094615,2 21.4718462,4.00016027 16.0440769,5.18848168 C14.6753077,5.48904798 10.6825385,6.41708516 9.18603846,6.95159739 C8.08219231,7.34357303 5.47238462,8.41879474 3.81030769,11.6615023 C2.49515385,14.2225131 2.59923077,16.360562 2.57715385,17.6836735 C2.55507692,19.0067849 2.88307692,20.6908858 2.97138462,21.4314564 C3.271,23.9599316 3.61161538,25.4596645 2.44942308,29.4506892 L2,31 L43,31 L42.5695,29.4506892 Z M36,18 L23,16.3155531 L10,18 L10,14.6479506 L23,12 L36,14.6479506 L36,18 Z M2,35 L2,61.6372226 L4.39274448,64 L6.77444795,61.6372226 L6.77444795,58.4492738 L11.0583596,58.4492738 L11.0583596,61.6372226 L13.4511041,64 L15.8328076,61.6372226 L15.8328076,58.4492738 L20.1167192,58.4492738 L20.1167192,61.6372226 L22.5094637,64 L24.8880126,61.6372226 L24.8880126,61.6372226 L24.8880126,58.4492738 L29.170347,58.4492738 L29.170347,61.6372226 L31.5646688,64 L33.944795,61.6372226 L33.944795,61.6372226 L33.944795,58.4492738 L38.2271293,58.4492738 L38.2271293,61.6372226 L40.6198738,64 L43,61.6372226 L43,35 L2,35 Z M11,54 L7,54 L7,49 L11,49 L11,54 Z M11,44 L7,44 L7,39 L11,39 L11,44 Z M20,54 L16,54 L16,49 L20,49 L20,54 Z M20,44 L16,44 L16,39 L20,39 L20,44 Z M29,54 L25,54 L25,49 L29,49 L29,54 Z M29,44 L25,44 L25,39 L29,39 L29,44 Z M38,54 L34,54 L34,49 L38,49 L38,54 Z M38,44 L34,44 L34,39 L38,39 L38,44 Z" id="Shape" fill="#FFFFFF" fill-rule="nonzero"></path>
    </g>
</svg>