<svg id="Layer_1" data-name="Layer 1" xmlns="http://www.w3.org/2000/svg" viewBox="0 0 945.57 263.21"><path d="M141.83,69.4l-55.2-6.67L31.42,69.4V56.18L86.63,45.71l55.2,10.47Zm29.53,48.65c-4.9-17.16-3.46-23.61-2.2-34.49.37-3.18,1.76-10.44,1.68-16.13s.34-14.87-5.22-25.91a39.8,39.8,0,0,0-22.71-20.25c-6.35-2.31-23.19-6.29-29-7.58C91,8.6,86.63,0,86.63,0S82.25,8.6,59.32,13.72C53.55,15,36.72,19,30.37,21.3A39.88,39.88,0,0,0,7.66,41.54c-5.56,11-5.12,20.22-5.22,25.91S3.72,80.38,4.12,83.58c1.26,10.86,2.7,17.31-2.21,34.49L0,124.71H173.25Z"/><path d="M20.22,199.79h18.1v19.65H20.22Zm38.27,0H76.58v19.65H58.49Zm38.26,0h18.1v19.65H96.75Zm38.24,0h18.09v19.65H135ZM20.22,160h18.1v19.65H20.22Zm38.27,0H76.58v19.65H58.49Zm38.26,0h18.1v19.65H96.75ZM135,160h18.09v19.65H135ZM.05,139.81V253.16l10.1,10,10-10V239.61h18.1v13.55l10.1,10,10-10V239.61h18.1v13.55l10.1,10,10-10h0V239.61h18.1v13.55l10.12,10,10-10h0V239.61H153v13.55l10.1,10,10-10V139.81Z"/><path d="M687.48,148.57H672.79V255.24h14.69ZM654.4,181.83H639.56v73.43H654.4Zm2.16-24.13c0-5.25-4-9.13-9.6-9.13s-9.73,3.86-9.73,9.13,4,9.13,9.73,9.13,9.6-3.88,9.6-9.13m-29.82,88.12L621.46,235A31,31,0,0,1,599,244.27c-14.21,0-23.81-10.67-23.81-26.12s10.83-25.36,23.81-25.36,19.49,6.51,22,9l5.27-10.83c-.78-.92-8.81-10.52-28.45-10.52-19.49,0-37.56,14.53-37.56,38.19,0,23.5,17.31,38.34,37.11,38.34,19.62,0,27.2-9,29.38-11.12m-77.92,9.44V211.81c0-17.63-5.41-31.4-26.28-31.4-10.68,0-18.54,5.72-22.43,13h-.47l.16-11.59H485v73.44H499.8V218.31c0-14.08,5.09-25.68,18.86-25.68,13.14,0,15.29,9.29,15.29,21.64v41h14.87Zm-80.86,0V181.67H453.12v39.42c0,12.35-5.25,23.5-18.26,23.5s-15.29-9.44-15.29-19.49V181.67H404.89v44.06c0,18.23,5.4,31.24,25.8,31.24,10.36,0,18.7-5.09,22.74-12.22l.16,10.51Zm-89.51-36.95c0,14.53-9.13,26-23.81,26-14.85,0-24-11.43-24-26,0-14.37,9.13-25.83,24-25.83,14.68,0,23.81,11.46,23.81,25.83m15,.45c0-22.72-17-38.35-38.81-38.35-21.95,0-38.95,15.61-38.95,38.35,0,22.89,17,38.18,38.95,38.18s38.81-15.29,38.81-38.18M311,241.34l-6.5-11c-6.95,7.58-17.79,13-31.84,13-22.87,0-39.74-16.55-39.74-41.6s16.71-41.59,39.74-41.59c14.84,0,26.75,7.73,30.92,13L310,161.08C304.07,155.37,292,147,272.07,147c-30.6,0-54.57,21.79-54.57,55s23.34,55,54.42,55c20.24,0,32.47-8.31,39.1-15.73"/><path d="M922.18,81.17c0,11.46-6.95,19.33-17.36,19.33S887.3,92.66,887.3,81.17s7.08-19.33,17.52-19.33,17.36,7.87,17.36,19.33m23.39,37.43V14.45H921.42V53.24c-2.42-3.62-10-10.41-23.55-10.41-21.59,0-35.17,16.76-35.17,38.63s13.58,38.79,35.17,38.79c10,0,18.85-3.78,24.44-11.33l.45-.16-.16,9.81h23ZM829.81,85.84V98.06a14.82,14.82,0,0,1-12.38,6.79c-6.64,0-11.33-3.46-11.33-9.2s4.38-8.76,11.78-9.05Zm24,32.76v-42c0-24.15-13.43-33.8-36.67-33.8a73.08,73.08,0,0,0-31.84,7.55l6.35,15.68c3.78-2.41,13.27-6.63,22.79-6.63s15.24,4.06,15.24,11.93V73L811,73.78c-13.74.6-29,6.18-29,22.79s13.9,23.7,27,23.7c12.07,0,18.13-6.34,21.27-9.52l.45,7.85ZM753.59,73.46H723c.32-7.08,5.43-14.95,15.4-14.95s15.08,8.18,15.23,14.95m22.48,5.74c0-21.74-15.24-36.37-37.27-36.37s-40.15,14-40.15,38.63,16.76,38.79,39.68,38.79c23.11,0,32.91-10.26,35.33-12.07l-9.5-12.53c-4.22,2.86-12.66,7.08-22.34,7.08s-18-4.83-19-15.55h53s.29-4.36.29-8m-86.63,39.4V74.67c0-18.13-5.58-31.84-27.17-31.84-11,0-18.12,5.43-21.9,12.06,0,0,.16-8.15.16-15.68V14.45H616.38V118.6h24.15V82.06c0-11,3.17-19.46,13.27-19.46s11.33,7.84,11.33,16.92v39.1h24.31ZM606.12,95.67c0-16.44-13.43-20.37-26.25-24.15C574.73,70,569,68.19,569,64.28s3.17-5.43,8.92-5.43c6,0,14.48,3.94,18.72,7.24L604.5,51.9c-4.23-3.46-13-9.2-28.54-9.2s-28.22,8.91-28.22,23.39c0,15.4,10.86,19.78,23.24,23,2.73.92,13.58,3.33,13.58,8.16s-4.22,6.34-10.25,6.34-16-3.93-22-9.05l-9,14.35c8.45,8,20.22,11.46,31.39,11.46,15.37,0,31.5-6.84,31.5-24.63M517.4,73.46H486.76c.32-7.08,5.43-14.95,15.4-14.95s15.08,8.18,15.24,14.95m22.47,5.74c0-21.74-15.23-36.37-37.26-36.37s-40.16,14-40.16,38.63,16.76,38.79,39.68,38.79c23.11,0,32.92-10.26,35.33-12.07l-9.52-12.53c-4.22,2.86-12.67,7.08-22.34,7.08s-18-4.83-19-15.55h53s.31-4.36.31-8M457.92,62.6V44.35H441.47V24.13H417.16V44.35H406.59V62.6h10.57V91.43c0,17,4.09,28.82,23.39,28.82a66,66,0,0,0,17.21-2.41L456.55,99a22.39,22.39,0,0,1-7.24,1.36c-7.39,0-7.84-4.51-7.84-11V62.6ZM376.27,85.84V98.06a14.76,14.76,0,0,1-12.38,6.79c-6.63,0-11.33-3.46-11.33-9.2s4.38-8.76,11.78-9.05Zm24,32.76v-42c0-24.15-13.43-33.8-36.69-33.8a73.16,73.16,0,0,0-31.84,7.55l6.35,15.68c3.77-2.41,13.27-6.63,22.79-6.63s15.23,4.06,15.23,11.93V73l-18.72.77c-13.74.6-29,6.18-29,22.79s13.87,23.7,27,23.7c12.07,0,18.12-6.34,21.27-9.52l.45,7.85Zm-83.61-16.16V59.3H270.92V77.87h21.9V93.26S288,99.9,271.08,99.9s-30.19-12.22-30.19-33.36,13-33.36,29.74-33.36a34.49,34.49,0,0,1,26.73,11.93l16.15-14C310.21,27.46,298.27,13,270.66,13c-29.14,0-54.5,18.85-54.5,53.58s25.36,53.73,54.18,53.73,41.05-13.13,46.32-17.83"/></svg>