<svg preserveAspectRatio="xMinYMid" aria-hidden="true" focusable="false" xmlns="http://www.w3.org/2000/svg" xmlns:xlink="http://www.w3.org/1999/xlink"  viewBox="0 0 124 86" width="124" height="86" xml:space="preserve"><style>*{fill: #fff}</style><path d="M15,79.4c-0.1,1,0.7,1.9,1.7,1.9c0.1,0,0.2,0,0.3,0c1.4,0,2.1-0.7,2.1-2c0-0.7-0.4-1.3-1-1.7l-1.8-1.3c-0.6-0.5-1-1.2-1-2 c0-1.2,0.6-2.4,1.6-3.1c1-0.8,2.2-1.3,3.5-1.3c1.6,0,2.4,0.4,2.4,1.1c0,0.5-0.4,1-1.1,1.4c-0.4-0.8-1.3-1.2-2.2-1.2 c-1.2,0-1.8,0.5-1.8,1.6c0,0.3,0.1,0.5,0.3,0.8c0.8,0.8,1.7,1.5,2.6,2.2c0.6,0.6,1,1.4,1,2.2c0,1.3-0.6,2.6-1.7,3.4 c-1.1,0.9-2.4,1.4-3.8,1.4c-0.7,0-1.4-0.1-2-0.4c-0.6-0.3-0.9-0.6-0.9-1C13.3,80.5,13.9,79.9,15,79.4z M25.8,78.3 c0,0.4-0.1,0.7-0.1,1c0,1.2,0.5,1.8,1.5,1.8c1.2-0.1,2.3-0.6,3.1-1.4c0.1,0.2,0.2,0.4,0.2,0.7c0,0.6-0.5,1.2-1.4,1.6 c-0.9,0.4-1.8,0.6-2.8,0.6c-2.2,0-3.4-1-3.4-2.9c0-1.8,0.6-3.6,1.8-5c1-1.4,2.6-2.2,4.3-2.2c1.4,0,2.1,0.6,2.1,1.8 c0,1.2-0.6,2.3-1.5,3C28.4,77.9,27.1,78.3,25.8,78.3z M25.9,77c1.9,0,2.8-0.8,2.8-2.4c0-0.7-0.2-1-0.7-1 C27.1,73.7,26.4,74.8,25.9,77z M34.4,82.2c-0.5,0.1-0.9,0.2-1.4,0.2c-0.8,0-1.2-0.3-1.2-0.9c0.1-0.8,0.2-1.6,0.5-2.3 c0.5-1.9,0.9-3.8,1-5.7c0-0.2,0-0.5-0.1-0.7c0.5-0.2,1.1-0.3,1.6-0.3c0.7,0,1.1,0.3,1.1,0.9c-0.1,1-0.3,2-0.6,2.9 c1.4-2.6,2.6-3.9,3.6-3.9c0.5,0,0.8,0.2,0.8,0.7c-0.1,1.1-0.5,2.1-1.3,2.9c-0.2-0.3-0.4-0.5-0.6-0.5c-0.6,0-1.3,0.8-2.2,2.5 c-0.7,1.1-1.1,2.3-1.2,3.6C34.3,81.8,34.3,82,34.4,82.2z M45.8,72.6c1.5,0.1,2.3,0.4,2.3,1.1s-0.7,2-2.1,4.2 c-0.8,1.4-1.9,2.8-3.1,3.9c-0.7,0.5-1.4,0.8-2.3,0.9v-0.8v-0.2c-0.1-1.6-0.2-3.1-0.4-4.6c-0.3-2.2-0.6-3.4-0.9-3.8 c0.6-0.4,1.3-0.7,2-0.7c0.8,0,1.2,0.6,1.3,1.9c0,0.4,0,0.8,0,1.3c0.1,1.5,0.1,2.9,0.1,4.2l1.9-3.1c0.7-1,1.1-2.1,1.2-3.3 C45.9,73.1,45.8,72.9,45.8,72.6z M49.4,72.9c0.6-0.2,1.2-0.3,1.8-0.4c0.7,0,1.1,0.3,1.1,0.8c0,0.3-0.1,0.6-0.1,0.9 c-0.6,2.1-1,4.2-1.2,6.3c0,0.5,0.1,1,0.4,1.4c-0.5,0.3-1,0.5-1.6,0.5c-0.9,0-1.4-0.4-1.4-1.3c0.1-1.3,0.3-2.5,0.6-3.7 c0.3-1.2,0.6-2.5,0.6-3.7C49.6,73.4,49.5,73.1,49.4,72.9z M52.6,71c-0.4,0.2-0.9,0.3-1.4,0.4c-0.6,0-1-0.2-1-0.5 c0-0.2,0-0.4,0.1-0.5c0-0.2,0.1-0.4,0.1-0.5c0-0.1,0-0.2-0.1-0.3c0.5-0.2,1-0.3,1.5-0.3c0.7,0,1,0.3,1,0.8 C52.8,70.3,52.8,70.7,52.6,71z M56.6,76.3c1.3-2.6,2.6-3.9,3.9-3.9c0.7-0.1,1.4,0.4,1.5,1.1c0,0.1,0,0.3,0,0.4 c-0.1,1.1-0.2,2.2-0.5,3.3c-0.3,1.1-0.5,2.2-0.5,3.3c0,0.5,0.1,1,0.4,1.4c-0.5,0.3-1.1,0.5-1.6,0.5c-0.6,0.1-1.2-0.3-1.3-1 c0-0.1,0-0.2,0-0.3c0-0.8,0.1-1.6,0.3-2.4c0.5-2.4,0.7-3.7,0.7-3.9s-0.1-0.4-0.2-0.4s-1,0.9-2,2.8c-0.9,1.3-1.4,2.8-1.6,4.3 c0,0.2,0,0.4,0.1,0.7c-0.5,0.1-0.9,0.2-1.4,0.2c-0.8,0-1.2-0.3-1.2-0.9c0-0.4,0.1-0.8,0.2-1.2l0.3-1.1c0.5-1.9,0.8-3.8,1-5.7 c0-0.3,0-0.5-0.1-0.8c0.5-0.2,1.1-0.3,1.6-0.3c0.7,0,1.1,0.3,1.1,0.9C57.1,74.4,56.9,75.4,56.6,76.3z M63.4,81.7 c0.5,1,1.6,1.7,2.7,1.7c0.6,0,1.1-0.2,1.5-0.6c0.4-0.4,0.8-2,1.3-4.8c-1.4,2.1-2.7,3.1-3.9,3.1s-1.8-0.9-1.8-2.6 c0-1.5,0.5-3,1.4-4.2c0.8-1.1,2-1.8,3.4-1.8c0.7,0,1.3,0.2,1.9,0.5c0.2-0.3,0.6-0.5,1-0.4c0.6,0,1.1,0.1,1.6,0.4 c-0.5,1.1-0.8,2.2-0.9,3.4c-0.2,2-0.7,4.1-1.4,6c-0.4,0.8-1,1.4-1.7,1.9c-0.8,0.5-1.7,0.7-2.7,0.7c-0.8,0-1.7-0.2-2.5-0.5 c-0.9-0.3-1.3-0.7-1.3-1.2S62.5,82.1,63.4,81.7z M69.5,75.1c-0.3-0.6-0.9-1.1-1.7-1.1c-0.6,0-1.1,0.4-1.5,1.3 c-0.4,0.9-0.6,1.9-0.5,2.9c0,0.5,0.1,0.8,0.4,0.8C67.1,78.9,68.2,77.6,69.5,75.1z M81.1,76.9c-0.4-3.2-1.2-5.1-2.3-5.7 c0.5-0.7,1.3-1.2,2.2-1.2c0.5,0,1,0.3,1.2,0.8c0.5,1.3,0.7,2.7,0.9,4.1c1.9-3.2,3.4-4.9,4.7-4.9c0.6,0,1,0.4,1.3,1.1 c-0.9,0.3-1.6,0.8-2.2,1.4c-1,1-1.9,2.1-2.7,3.3c-1,1.7-1.5,3.6-1.4,5.6c0,0.2,0,0.5,0.1,0.7c-0.6,0.3-1.2,0.4-1.9,0.5 c-0.7,0-1-0.2-1-0.7c0-0.4,0.1-0.8,0.2-1.2C80.6,79.5,80.9,78.2,81.1,76.9z M91.3,82.7c-0.9,0-1.8-0.3-2.4-0.9 c-0.6-0.7-1-1.6-0.9-2.5c0-1.7,0.6-3.3,1.6-4.6c0.9-1.3,2.3-2.1,3.9-2.1c0.9,0,1.8,0.3,2.4,1c0.6,0.7,0.9,1.6,0.9,2.5 c0,1.7-0.6,3.3-1.6,4.6C94.2,81.9,92.8,82.6,91.3,82.7z M91.8,81.2c0.7,0,1.2-0.6,1.6-1.8c0.4-1.2,0.6-2.4,0.6-3.6 c0-1.2-0.4-1.9-1.1-1.9s-1.2,0.6-1.7,1.8c-0.4,1.2-0.6,2.4-0.7,3.7C90.6,80.6,91,81.2,91.8,81.2z M104,72.8c0.5-0.1,0.9-0.2,1.4-0.2 c0.8,0,1.2,0.3,1.2,0.9c0,0.4-0.1,0.8-0.2,1.2l-0.3,1.2c-0.4,1.5-0.6,2.9-0.7,4.4c0,0.6,0.1,1.2,0.4,1.8c-0.4,0.4-0.9,0.6-1.5,0.5 c-1,0-1.5-0.6-1.5-1.7c0-0.7,0.1-1.4,0.2-2.2c-1.3,2.6-2.6,3.9-3.9,3.9c-0.7,0.1-1.4-0.4-1.5-1.2c0-0.1,0-0.3,0-0.4 c0.1-1.3,0.3-2.5,0.6-3.7c0.3-1.2,0.5-2.5,0.6-3.7c0-0.2,0-0.5-0.1-0.7c0.5-0.2,1.1-0.3,1.6-0.3c0.7,0,1.1,0.3,1.1,0.9 c0,0.4-0.1,0.8-0.2,1.2c-0.5,1.8-0.8,3.6-1,5.5c0,0.3,0.1,0.4,0.2,0.4c0.3,0,1-0.9,2-2.8c0.9-1.3,1.4-2.8,1.6-4.3 C104.1,73.2,104.1,73,104,72.8z M81.7,26.6c-0.1-0.1-0.1-0.2-0.2-0.3c-0.2-0.2-0.3-0.5-0.4-0.8c-0.6-1.6-1-3.3-1.4-5l-0.1-0.4 c-0.1-0.8-0.4-2.4-0.5-3.5l-0.7-7.2c0-0.8-0.8-4.8-0.8-5.2c-0.3-1.4-1.4-2.4-2.8-2.6c-0.4,0-0.6,0-1,0c-3.1,0-5.4,3.8-7,6.3 c-0.3,0.5-0.6,0.9-0.8,1.2s-0.8,1.3-1.2,1.9l-0.4,0.7c-0.5,0.9-1.3,2.3-2.1,3.6L59.8,20l-0.6-0.3l2.6-4.8c0.8-1.2,1.6-2.6,2.1-3.5 l0.4-0.7c0.3-0.6,1-1.5,1.2-1.9s0.5-0.8,0.8-1.2c1.7-2.7,4.1-6.7,7.5-6.7c0.3,0,0.6,0,1,0c1.7,0.2,3,1.5,3.4,3.1 c0,0,0.8,4.4,0.8,5.3l0.7,7.1c0.2,1.2,0.4,2.8,0.5,3.5l0.1,0.4c0.3,1.6,0.8,3.2,1.3,4.8v0.1c0.1,0.2,0.2,0.5,0.3,0.7 c0.1,0.1,0.1,0.2,0.2,0.4L81.7,26.6z M86.7,28.1l-0.2-0.6c1-0.4,1.9-0.9,2.7-1.6c3.7-3.9,7.1-8.1,10.3-12.4c1.8-2.4,3.7-4.9,5.6-7.1 l0,0l0,0c0.3-0.3,0.7-0.3,1,0c0.2,0.2,0.2,0.5,0.1,0.8c0,0.2-0.1,0.4-0.2,0.6l0,0v0.1l0,0c0.1-0.1,0.2-0.2,0.2-0.2 c0.3-0.4,0.6-0.6,0.8-0.6l0,0c1,0.1,1,0.8,1,1.1v0.1c-0.1,0.5-0.2,1-0.4,1.4c0.5,0.1,0.8,0.6,0.8,1.1c-0.3,0.9-0.7,1.7-1.2,2.5 c-0.1,0.1-0.2,0.3-0.2,0.4l0.2-0.1c0.4-0.1,0.8,0,1.1,0.3c0.2,0.2,0.4,0.4,0.4,0.7c-0.1,0.5-0.4,1-0.8,1.4l0.1,0.1l0,0 c0.2-0.1,0.4-0.2,0.6-0.2h0.1l0.1,0.1c0.3,0.2,0.4,0.5,0.4,0.9v0.1c0,0.7-1,2-2.4,3.6l-0.1,0.1h0.3c0.2,0,0.4,0.1,0.5,0.3 c0,0,0,0.1,0.3,0.2l0,0l0,0c0.1,0.1,0.2,0.2,0.2,0.3c0,0,0,0.1,0,0.1l0.3-0.2c0.9-0.8,1.2-1,1.5-0.9l0.2,0.1v0.2c0,0,0,0.1,0.1,0.1 c0.1,0.1,0.2,0.3,0.2,0.5c0,1-1.2,2.9-3.7,5.9L106,27c3.2-3.9,3.6-5.1,3.6-5.5c0,0,0,0-0.1-0.1l-0.1-0.1c-0.2,0.1-0.6,0.4-0.8,0.6 c-0.8,0.7-1.1,0.9-1.4,0.9c-0.1,0-0.1,0-0.2-0.1c-0.1-0.1-0.2-0.2-0.2-0.3c0-0.3,0.1-0.5,0.3-0.7l0,0c-0.2-0.1-0.3-0.2-0.4-0.4 c-0.4,0.1-0.7,0.2-1,0.4l-0.5-0.4c0.3-0.4,0.6-0.8,1-1.2c0.7-0.9,2.2-2.7,2.2-3.2v-0.1c0-0.2,0-0.2-0.1-0.3s-0.1,0-0.1,0.1 c-0.1,0.1-0.2,0.2-0.3,0.3l-0.4,0.2v-0.5c0-0.1,0-0.2,0-0.2l0,0c-0.1,0-0.2,0-0.3,0l-0.9,0.2l0.6-0.7c0.4-0.4,0.8-1,1-1.5 c0-0.1-0.1-0.2-0.1-0.2c-0.2-0.1-0.4-0.2-0.6-0.1c-0.3,0.2-0.6,0.5-0.8,0.7l-0.4,0.4l-0.5-0.4c0.3-0.6,0.7-1.4,1.1-2.1 c0.4-0.7,0.8-1.4,1.1-2.2c0-0.2-0.1-0.3-0.2-0.4c-0.1,0-0.1,0-0.2,0.1c-0.2,0.1-0.4,0.1-0.5-0.1c-0.1-0.1-0.1-0.2-0.1-0.4V9.9V9.8 c0.2-0.5,0.4-1.1,0.6-1.6V8.1c0-0.3,0-0.4-0.3-0.5c-0.1,0.1-0.3,0.3-0.4,0.4c-0.2,0.3-0.5,0.6-0.8,0.8L105.6,9l-0.1-0.4 c0-0.1,0-0.1,0-0.2l0,0c-0.1-0.1-0.2-0.2-0.2-0.3V8c0-0.2,0.1-0.4,0.2-0.6c0.1-0.1,0.1-0.2,0.1-0.3V7.1V7c0-0.1,0-0.1,0-0.2 c0,0-0.1,0-0.1,0c-1.8,2.2-3.7,4.7-5.5,7c-3.2,4.4-6.7,8.6-10.4,12.5l0,0C88.7,27.1,87.8,27.7,86.7,28.1z M107.5,22.3L107.5,22.3z  M81.2,49.9l-0.1-0.6c6.1-1,11.1-6.5,15.8-11.9l0.5,0.4C92.7,43.3,87.5,48.8,81.2,49.9z M74,48.3c-1.2-0.8-3.2-2.3-3.4-4.4v-0.1 c-0.2-1-0.6-2.2-0.9-3.8l0.6-0.1c0.3,1.6,0.6,2.9,0.9,3.8c0,0,0,0.1,0,0.1c0.2,1.9,2,3.3,3.1,4L74,48.3z M62.1,33.5l-0.6-0.3 c2.3-4.8,3.5-6.9,4.5-7c0.7-0.1,1.2,0.4,1.6,1.3l-0.6,0.3c-0.3-0.6-0.6-0.9-1-0.9C65.3,26.9,63.2,31.4,62.1,33.5z M54.5,48.1 l-0.5-0.3c1.8-2.9,3.6-6.3,4.8-8.6l0.6,0.3C58.1,41.7,56.3,45.1,54.5,48.1z M45.9,55.7c-1.5,0-4.5-1.1-5.2-3.8c0,0-2-8.3-2.9-12.6 l0.6-0.2c1,4.2,2.9,12.5,2.9,12.6C42,54,44.7,55,45.9,55c1.5-0.1,2.8-0.8,3.8-1.9l0.4,0.5C49.1,54.8,47.6,55.5,45.9,55.7z  M16.7,63.1c-0.1,0-0.1,0-0.2,0c-0.2-0.1-0.3-0.3-0.2-0.5C17.7,53,21,43.6,24,35.7c0.1-0.2,0.2-0.5,0.3-0.9C26,30,30.7,17,38.2,17 c2.3,0,4.3,3.5,5.7,10.4c0,0.2,0.1,0.3,0.1,0.4c0.2,0.7,0.4,1.5,0.6,2.4c0.1,0.5,0.2,1,0.4,1.5l-0.6,0.2c-0.1-0.5-0.3-1.1-0.4-1.6 c-0.2-0.9-0.4-1.7-0.6-2.4c0-0.1,0-0.2-0.1-0.4c-1.8-8.6-3.9-9.9-5.1-9.9c-7,0-11.8,13.1-13.3,17.4c-0.1,0.3-0.2,0.6-0.3,0.9 c-3,7.8-6.1,16.9-7.6,26.2c0.1-0.1,0.3-0.2,0.5-0.1c0.1-0.2,0.2-0.5,0.3-0.7s0.3-0.7,0.5-1l0.4-0.7l0.2,0.7H19c0.1,0,0.1,0,0.3-0.3 c0.1-0.2,0.2-0.4,0.4-0.7c0.3-0.3,0.6-0.6,0.9-0.9c0.3-0.2,0.6-0.5,0.8-0.8c1.1-2.2,2.2-4.6,3.3-6.9c1.6-3.5,3.2-6.9,4.5-9.1 c0.1-0.1,0.2-0.4,0.4-0.8s0.4-0.8,0.6-1.2l0.6,0.3c-0.2,0.5-0.4,0.9-0.6,1.2s-0.3,0.7-0.4,0.8c-1.3,2.2-2.8,5.5-4.5,9 c-1.1,2.4-2.2,4.8-3.3,7c-0.3,0.4-0.6,0.7-1,1c-0.3,0.2-0.6,0.5-0.8,0.8c-0.1,0.2-0.2,0.3-0.3,0.5C19.7,60.6,19.5,61,19,61 c-0.1,0-0.3,0-0.4,0c-0.1,0.2-0.2,0.4-0.2,0.5c-0.2,0.4-0.3,0.8-0.5,1.1c-0.1,0.1-0.2,0.2-0.4,0.2c-0.1,0-0.1,0-0.2-0.1 C17.1,63,16.9,63.1,16.7,63.1z M7.8,25.5L4,36c-0.5,1.5-1,1.5-2.3,1.8C1.2,37.8,1,38,1,38.4s0.3,0.5,0.8,0.5s1.5-0.1,3.3-0.1 c1,0,1.6,0.1,1.8,0.1c0.4,0,0.7-0.2,0.7-0.6c0-0.6-0.5-0.5-1.4-0.6c-0.6-0.1-0.9-0.4-0.9-0.9c0.1-1.1,0.4-2.1,0.8-3.1l2.6-7.5 l0.3,10.2c0,0.4,0,0.9,0,1.6s0.1,0.8,1.2,0.8h0.2c0.6,0,2.9-4.5,8.9-12.6l-2.7,10c-0.3,1-0.6,1.3-1.4,1.5s-1.2,0.1-1.2,0.7 c0,0.4,0.2,0.6,0.7,0.6c1-0.2,2.1-0.2,3.1-0.2c1.3,0,2.6,0.1,3.9,0.2c0.4,0,0.6-0.2,0.6-0.5c0-0.5-0.5-0.4-1-0.6s-0.7-0.4-0.7-0.7 c0-0.6,0.2-1.3,0.3-1.9l2.7-10c0.3-1.1,0.8-1.4,1.6-1.5c0.5-0.1,0.8-0.2,0.8-0.6s-0.2-0.5-0.8-0.5c-0.2,0-1.2,0.1-3.2,0.1h-1.4 c-0.3-0.1-0.7,0.1-0.8,0.4l-6.9,10l-0.3-9.9c0-0.5-0.2-0.6-0.8-0.6s-1,0.1-1.6,0.1c-1.1,0-2.3-0.1-3.4-0.2c-0.5,0-0.7,0.2-0.7,0.6 c0,0.6,0.5,0.5,1,0.6s0.7,0.3,0.7,0.8C8.1,24.7,8,25.1,7.8,25.5L7.8,25.5z M46.6,48.4c-0.7,0-1.3,0.2-1.9,0.6 c-0.6,0.4-0.9,1.1-0.9,1.8c0,0.7,0.3,1.4,0.8,1.8c0.5,0.4,1.2,0.6,1.8,0.6c0.5,0,1-0.1,1.5-0.4c0.1-0.1,0.1-0.2,0.1-0.4v-0.1 c0-0.1,0-0.3,0-0.4s0-0.2-0.1-0.2s-0.2,0.2-0.4,0.5c-0.2,0.4-0.7,0.7-1.2,0.6c-0.4,0-0.8-0.2-1.1-0.5c-0.4-0.5-0.6-1.1-0.6-1.7 c0-0.6,0.2-1.2,0.6-1.7c0.3-0.3,0.7-0.5,1.2-0.5c0.5,0,0.9,0.3,1.2,0.7c0.1,0.2,0.2,0.3,0.3,0.3s0.1,0,0.1-0.1c0-0.4,0-0.7-0.1-0.8 C47.5,48.5,47.1,48.4,46.6,48.4L46.6,48.4z M63.6,49.4l3,3.9c0.1,0.1,0.1,0.1,0.2,0.1c0.1,0,0.2-0.1,0.2-0.2v-3.7 c0-0.5,0-0.7,0.4-0.7h0.1c0.1,0,0.1,0,0.1-0.1s-0.1-0.1-0.2-0.1s-0.3,0-0.6,0h-0.6c-0.2,0-0.2,0-0.2,0.1s0.1,0.1,0.2,0.1 c0.3,0,0.5,0,0.5,0.2c0,0.2,0,0.3,0,0.5v2.3v0.1l0,0l-2.4-3.2c-0.1-0.1-0.1-0.1-0.1-0.1h-1.2c-0.1,0-0.1,0-0.1,0.1s0.1,0.1,0.4,0.1 s0.2,0.1,0.2,0.3v3c0,0.6,0,0.8-0.4,0.8h-0.1c-0.1,0-0.2,0-0.2,0.1s0.1,0.1,0.2,0.1s0.4,0,0.6,0s0.5,0,0.6,0s0.2,0,0.2-0.1 s-0.1-0.1-0.2-0.1H64c-0.4,0-0.4-0.2-0.4-0.7L63.6,49.4L63.6,49.4L63.6,49.4z M71.8,48.5c-0.7,0-1.3,0.2-1.9,0.6 c-0.6,0.4-0.9,1.1-0.9,1.8c0,0.7,0.3,1.4,0.8,1.8c0.5,0.4,1.2,0.6,1.8,0.6c0.5,0,1-0.1,1.5-0.4c0.1-0.1,0.1-0.2,0.1-0.4v-0.1 c0-0.1,0-0.3,0-0.4s0-0.2-0.1-0.2s-0.2,0.2-0.4,0.5c-0.2,0.4-0.7,0.7-1.2,0.6c-0.4,0-0.8-0.2-1.1-0.5c-0.4-0.5-0.6-1.1-0.5-1.7 c0-0.6,0.2-1.2,0.6-1.7c0.3-0.3,0.7-0.5,1.2-0.5c0.5,0,0.9,0.3,1.2,0.7c0.1,0.2,0.2,0.3,0.3,0.3s0.1,0,0.1-0.1 c0-0.4-0.1-0.7-0.1-0.8C72.7,48.6,72.3,48.5,71.8,48.5L71.8,48.5z M32.5,34.1c6.2-0.6,9-1.6,9.1-4.4c0-1.7-1.4-2.9-3.8-2.9 c-2.4,0-4.8,0.9-6.6,2.5c-1.7,1.3-2.8,3.4-2.9,5.6c0,2.8,1.9,4.5,4.7,4.6c2.3,0,4.4-1,6-2.7c0.4-0.3,0.6-0.7,0.8-1.2 c0-0.2-0.1-0.3-0.3-0.3c0,0-0.1,0-0.1,0c-0.3,0-0.6,0.4-1.2,0.8c-0.9,0.9-2,1.4-3.3,1.6c-1.6,0-2.6-1.1-2.6-3 C32.4,34.5,32.4,34.3,32.5,34.1L32.5,34.1z M32.7,33.1c1-3.5,2.8-5.3,4.2-5.3c0.5,0,0.9,0.4,0.9,1.1C37.7,30.9,35.7,33.1,32.7,33.1 L32.7,33.1z M55.4,27.7c0.6,0,1,0.4,1,1.2c0,0.9-0.8,2.7-2.6,5c-1.3,1.6-2.2,2.5-3.1,2.5c-0.6,0-0.9-0.4-0.9-1.2 c0.2-1.8,1-3.6,2.2-5C53.2,28.6,54.3,27.8,55.4,27.7L55.4,27.7z M55,33.7L54.5,36c-0.2,0.7-0.3,1.4-0.3,2.1 c-0.1,0.7,0.5,1.3,1.1,1.4c0.1,0,0.1,0,0.2,0c1.6-0.1,3.1-0.8,4.2-2c0.7-0.6,1.2-1.3,1.5-2.1c0-0.2-0.1-0.3-0.3-0.3 c-0.4,0-0.5,0.4-1,1c-0.6,0.7-1.1,1.1-1.5,1.1c-0.2,0-0.2-0.2-0.2-0.5c0.8-3.7,1.9-7.3,3.2-10.9l1.5-4.1c0.1-0.2,0.1-0.3,0.1-0.5 c0-0.2-0.2-0.3-0.3-0.3c-1.6,0.6-3.3,0.9-5,0.9c-0.8,0-1.2,0-1.2,0.6c0,0.2,0.2,0.3,0.6,0.4c0.7,0.2,1.1,0.2,1.1,0.5 c0,0.4-0.1,0.8-0.3,1.2l-1.1,3c-0.7-0.3-1.5-0.5-2.2-0.5c-2.5,0.2-4.7,1.3-6.4,3.1c-1.8,1.6-2.8,3.8-2.9,6.2c0,2,1.1,3.3,2.6,3.3 C50,39.4,52.3,37.5,55,33.7L55,33.7z M60.4,50v1.5c0,0.4,0,0.8-0.2,1.2c-0.3,0.3-0.7,0.5-1.1,0.5c-1,0-1.2-0.4-1.2-1.4v-2.6 c0-0.3,0-0.3,0.2-0.3s0.4,0,0.4-0.1s0-0.1-0.1-0.1c-0.3,0-0.6,0.1-0.9,0.1c-0.3,0-0.6,0-0.9-0.1c-0.1,0-0.1,0-0.1,0.1 s0.2,0.1,0.4,0.1s0.2,0.1,0.2,0.3v2.6c0,0.4,0,0.7,0.2,1.1c0.4,0.4,1,0.6,1.6,0.5c0.6,0.1,1.1-0.1,1.5-0.5c0.2-0.4,0.3-0.9,0.2-1.3 v-1.6c0-0.6,0-0.9,0.2-1s0.5,0,0.5-0.1s-0.1-0.1-0.2-0.1h-0.7c-0.3,0-0.5,0-0.6,0s-0.2,0-0.2,0.1s0.3,0.1,0.5,0.2s0.2,0.3,0.2,0.9 L60.4,50L60.4,50z M52.4,48.4c-0.6,0-1.3,0.2-1.8,0.6c-1,0.9-1.1,2.4-0.2,3.4c0.1,0.1,0.2,0.2,0.2,0.2c0.5,0.4,1.1,0.7,1.7,0.7 c0.6,0,1.3-0.2,1.8-0.6c0.5-0.4,0.8-1.1,0.8-1.8c0-0.7-0.3-1.4-0.8-1.8C53.7,48.7,53.1,48.4,52.4,48.4L52.4,48.4z M52.4,53.1 c-1,0-1.7-0.9-1.7-2.3s0.7-2.1,1.6-2.1S54,49.5,54,51S53.3,53.1,52.4,53.1L52.4,53.1z M78.4,34.8l2-6.7c0-0.1,0-0.2,0-0.2 c0-0.2-0.1-0.3-0.4-0.3h-2.5c-0.4,0-0.7,0.2-0.9,0.5c-0.3,1.3-0.8,2.5-1.3,3.7c-1.8,3.9-4.2,5.9-4.8,5.8c-0.2,0-0.4-0.1-0.5-0.4 c0,0,0-0.1,0-0.1c0-0.5,0.2-0.9,0.3-1.4l1.6-4.2c0.4-0.9,0.6-1.8,0.8-2.7c0-1.1-0.6-1.7-1.8-1.7c-1.4,0.1-2.8,0.7-3.7,1.7 c-0.6,0.5-1.1,1.2-1.4,1.9c0,0.2,0.1,0.3,0.3,0.3c0.5,0,0.7-0.6,1.2-1.1c0.4-0.5,0.9-0.8,1.4-1C69,29,69,29,69,29.2 c0,0.7-0.2,1.4-0.6,2L66.9,35c-0.3,0.7-0.5,1.5-0.5,2.3c0,1.4,0.7,2.1,2.2,2.1c2.2,0,4.3-1.8,6.6-5.4l-0.3,1.4 c-0.2,0.8-0.3,1.5-0.3,2.3c0,1,0.7,1.7,2.1,1.7c2.4-0.1,4.5-1.3,5.8-3.3c2.2-2.8,3.2-5.5,3.2-7s-0.7-2.1-1.7-2.1 c-0.8-0.1-1.4,0.5-1.5,1.3c0,0.1,0,0.1,0,0.2c0,1,1.1,1.9,1.1,3.1c-0.3,1.9-1.2,3.6-2.6,5c-0.5,0.7-1.2,1.1-2.1,1.3 c-0.4,0-0.8-0.4-0.8-1.1C78.1,36.1,78.2,35.5,78.4,34.8L78.4,34.8z M99.2,33.9l-0.6,2.2c-0.2,0.7-0.4,1.5-0.4,2.2 c0,0.7,0.6,1.2,1.2,1.2c0,0,0.1,0,0.1,0c1.6-0.1,3.1-0.8,4.2-2c0.7-0.6,1.2-1.3,1.5-2.1c0-0.2-0.1-0.3-0.3-0.3c-0.4,0-0.5,0.5-1,1 s-0.9,0.9-1.3,0.9s-0.4-0.2-0.4-0.6c0-0.3,0.1-0.7,0.2-1l2.5-7.5c0.1-0.2,0.1-0.4,0.2-0.6c0-0.3-0.2-0.3-0.8-0.3H102 c-0.4,0-0.5,0-0.7,0.4l-0.3,0.5c-0.7-0.4-1.4-0.7-2.2-0.7c-2.1,0-4.6,1.1-6.8,3.4c-1.7,1.5-2.7,3.6-2.8,5.9c0,2,1.1,3.2,2.7,3.2 C94.1,39.5,96.5,37.6,99.2,33.9L99.2,33.9z M99.4,27.9c0.7,0,1.1,0.5,1.1,1.3s-0.8,2.7-2.8,5.2c-1.3,1.7-2.3,2.6-3.3,2.6 c-0.6,0-1-0.5-1-1.3c0.3-2,1.2-3.8,2.4-5.3C97.1,28.7,98.3,27.9,99.4,27.9L99.4,27.9z M116.7,37.2v-1.6c-0.1-5.9-0.4-8.5-2.8-8.5 c-1.4,0-2.7,0.8-3.4,1.9c-0.5,0.5-0.8,1.1-1,1.8c0,0.3,0.1,0.4,0.3,0.4c0.5,0,0.6-0.5,1-1.1s0.6-0.8,0.9-0.8c0.6,0,0.8,0.8,1.1,2.3 c0.4,1.9,0.5,3.9,0.5,5.9c0,3.9-1.6,5.9-3,5.9c-0.5,0-0.8-0.4-1.5-1c-0.4-0.3-0.8-0.4-1.2-0.4c-0.8-0.1-1.4,0.5-1.5,1.2 c0,0,0,0.1,0,0.1c0,1,0.8,1.7,2.2,1.7c3.2,0,5.8-2.7,9.6-7.5c3-3.8,4.5-6.5,4.5-8.3c0-1.2-0.6-1.9-1.5-1.9c-0.9,0-1.6,0.7-1.6,1.6 c0,0,0,0.1,0,0.1c0,0.7,0.6,1.7,0.6,2.8S118.8,34.8,116.7,37.2L116.7,37.2z M76.4,52.5v-3.4c0-0.2,0-0.3,0.2-0.3s0.4,0,0.4-0.1 s0-0.1-0.1-0.1c-0.6,0.1-1.2,0.1-1.8,0c-0.1,0-0.1,0-0.1,0.1s0.2,0.1,0.4,0.1s0.2,0.1,0.2,0.3v3.3c0,0.3,0,0.4-0.3,0.5 s-0.3,0-0.3,0.1s0.1,0.1,0.2,0.1s0.4,0,0.9,0s0.8,0,0.9,0s0.2,0,0.2-0.1s-0.2-0.1-0.3-0.1S76.4,52.9,76.4,52.5L76.4,52.5z  M79.9,52.5v-3.3c0-0.3,0-0.3,0.2-0.3s0.4,0,0.4-0.1s0-0.1-0.1-0.1c-0.3,0-0.6,0.1-0.9,0.1c-0.3,0-0.6,0-0.9-0.1 c-0.1,0-0.1,0-0.1,0.1s0.1,0.1,0.3,0.1S79,49,79,49.2v3.3c0,0.3,0,0.4-0.3,0.5s-0.3,0-0.3,0.1s0.1,0.1,0.2,0.1s0.4,0,0.9,0 c1,0,1.8,0.1,2.2,0.1c0.2,0,0.2,0,0.2-0.2l0.1-0.7c0,0,0-0.1,0-0.1c0,0,0-0.1-0.1-0.1s-0.2,0.3-0.6,0.6c-0.2,0.2-0.5,0.3-0.9,0.3 C80.1,53.1,79.9,52.9,79.9,52.5L79.9,52.5z"/></svg>
