<?xml version="1.0" encoding="UTF-8"?><svg width="563px" height="388px" viewBox="0 0 563 388" version="1.1" xmlns="http://www.w3.org/2000/svg" xmlns:xlink="http://www.w3.org/1999/xlink"><g id="MEDCouncil-2spotstrapline" stroke="none" stroke-width="1" fill="none" fill-rule="evenodd"><path d="M338.053,0.084 C339.479,0.084 340.672,0.123 342.56,0.255 C349.685,0.755 355.648,7.597 356.881,13.493 C356.925,13.703 360.875,34.106 360.875,38.029 L364.296,71.082 C365.185,77.755 366.81,87.255 367.153,89.382 C367.447,91.213 371.997,109.831 373.453,112.214 C374.356,114.781 374.939,115.188 376.036,117.21 C379.897,124.334 383.128,125.615 387.979,125.615 C394.683,125.615 404.086,120.763 410.402,115.77 C436.559,89.111 459.58,54.182 483.713,24.681 C483.713,24.681 485.362,23.504 486.368,24.681 C486.989,25.407 486.368,27.116 486.368,27.116 C486.404,28.543 484.692,29.755 484.692,31.182 C484.692,32.608 484.609,31.55 484.931,32.041 C484.931,32.041 485.263,31.752 485.547,31.182 C485.833,31.752 485.233,32.766 485.593,33.753 C487.802,32.503 490.678,27.991 491.743,28.055 C495.164,28.534 494.962,30.397 494.962,32.037 C494.962,33.464 493.23,37.564 492.104,40.254 C491.944,41.502 492.646,40.211 494.072,40.211 C495.498,40.211 496.674,42.308 496.674,43.735 C496.674,45.161 489.801,56.978 486.304,64.059 C487.672,62.898 491.285,58.582 492.68,58.285 C494.935,57.805 497.815,59.212 497.815,61.423 C497.815,62.85 494.9,66.737 492.674,69.35 C494.993,68.932 495.682,69.737 495.864,71.412 C496.832,70.868 496.372,69.162 498.822,69.169 C500.31,70.37 500.097,71.124 500.097,72.55 C500.097,76.9 486.313,91.341 485.157,93.725 C486.531,92.568 489.828,91.379 491.254,91.379 C492.68,91.379 490.965,92.566 494.377,93.857 C495.741,94.867 490.965,97.053 493.086,98.253 C493.785,99.469 502.667,90.24 503.928,90.836 C504.092,92.235 505.233,92.235 505.233,93.662 C505.233,101.936 480.552,129.445 477.556,132.726 C441.538,172.24 408.091,225.47 362.587,225.47 C350.819,225.47 326.451,213.158 324.929,197.796 C324.908,197.583 320.707,182.844 311.805,135.315 C311.32,132.721 309.018,116.967 302.106,117.627 C289.538,118.827 246.759,251.717 208.815,251.717 C202.039,251.717 189.216,246.547 186.277,235.455 C186.223,235.249 172.236,177.13 170.301,166.983 C169.299,161.729 165.016,150.884 160.602,150.722 C148.983,150.294 134.371,185.717 132.14,189.579 C122.313,206.59 109.29,237.649 96.453,263.683 C95.739,265.181 89.93,269.44 88.218,271.58 C86.15,274.219 86.283,276.823 83.858,276.823 C82.432,276.823 81.891,276.666 81.564,275.682 C80.108,278.397 78.978,281.801 77.161,285.308 C77.161,285.308 76.772,285.985 76.447,284.596 C76.308,284.005 75.555,284.601 74.84,285.308 C72.497,287.629 72.795,285.308 72.795,285.308 C78.94,243.972 92.674,202.283 108.151,161.2 C114,145.509 136.494,75.403 172.583,75.403 C189.344,75.403 197.293,121.354 198.031,124.099 C202.461,140.585 210.19,176.355 215.803,177.006 C224.933,180.371 235.796,158.317 239.505,149.188 C241.716,143.696 245.927,134.916 247.929,130.342 L283.49,64.712 C288.404,56.937 293.428,47.969 295.259,44.876 C296.884,42.13 299.631,37.791 300.804,36.051 C307.405,26.259 319.866,0.084 338.053,0.084" id="Fill-1" fill="#6DC8E6"></path>        <path d="M31.799,113.468 L14.04,162.306 C11.52,169.385 9.6,169.385 3.6,170.465 C1.32,170.825 0,171.425 0,173.345 C0,174.905 1.32,175.865 3.84,175.865 C5.64,175.865 10.68,175.265 18.959,175.265 C23.52,175.265 26.399,175.745 27.479,175.745 C29.519,175.745 30.839,174.545 30.839,173.105 C30.839,170.346 28.319,170.945 24.479,170.465 C21.719,170.105 20.279,168.666 20.279,166.266 C20.279,163.746 21.6,158.946 24.12,151.746 L36.239,116.707 L37.799,163.866 C37.799,165.545 38.039,168.065 38.039,171.425 C38.039,175.145 38.639,175.265 43.559,175.265 C43.918,175.265 44.158,175.265 44.519,175.265 C47.158,175.265 58.078,154.146 85.917,116.707 L73.557,163.266 C72.357,167.826 70.797,169.385 67.078,170.105 C63.958,170.706 61.678,170.465 61.678,173.225 C61.678,174.905 62.638,175.865 64.798,175.865 C65.877,175.865 70.558,174.665 78.957,174.665 C89.397,174.665 95.397,175.745 97.076,175.745 C98.997,175.745 99.956,174.905 99.956,173.225 C99.956,170.706 97.796,171.306 95.276,170.585 C93.236,169.985 92.157,168.786 92.157,167.465 C92.157,166.266 92.517,163.266 93.716,158.706 L106.076,112.388 C107.396,107.348 109.556,105.908 113.516,105.308 C116.036,104.948 117.355,104.348 117.355,102.428 C117.355,100.749 116.156,100.028 113.636,100.028 C112.796,100.028 107.876,100.388 98.636,100.388 L92.157,100.388 C90.237,100.388 89.397,100.628 88.317,102.188 L56.518,148.866 L55.198,103.028 C55.078,100.628 54.118,100.028 51.478,100.028 C49.438,100.028 46.918,100.388 44.158,100.388 C35.159,100.388 29.879,99.308 28.319,99.308 C26.04,99.308 24.959,100.388 24.959,102.068 C24.959,104.708 27.239,104.228 29.639,104.828 C32.039,105.428 32.879,106.268 32.879,108.428 C32.879,109.868 32.519,111.428 31.799,113.468" id="Fill-2" fill="#FFFFFF"></path>        <path d="M147.039,148.626 C151.839,132.307 160.119,123.787 166.478,123.787 C168.758,123.787 170.558,125.827 170.558,129.067 C170.558,138.547 161.199,148.626 147.519,148.626 C147.399,148.626 147.159,148.626 147.039,148.626 Z M146.199,153.306 C174.758,150.426 188.197,145.986 188.197,132.787 C188.197,124.748 181.718,119.468 170.678,119.468 C159.639,119.468 148.359,123.667 140.08,130.987 C131.32,138.667 126.88,147.786 126.88,156.906 C126.88,169.746 135.64,178.025 148.959,178.025 C159.159,178.025 169.238,173.585 176.918,165.545 C179.317,163.026 180.397,160.866 180.397,160.026 C180.397,158.946 179.797,158.466 178.838,158.466 C177.278,158.466 175.958,160.386 173.438,162.426 C167.678,167.226 162.998,169.746 158.199,169.746 C150.639,169.746 146.079,164.826 146.079,156.066 C146.079,155.226 146.079,154.266 146.199,153.306 Z" id="Fill-3" fill="#FFFFFF"></path>        <path d="M250.823,151.146 L248.542,161.706 C247.583,165.786 246.982,168.906 246.982,171.306 C246.982,175.145 249.382,177.545 253.343,177.545 C259.582,177.545 266.542,174.425 272.902,168.186 C277.821,163.386 279.981,158.946 279.981,158.226 C279.981,157.266 279.501,156.666 278.781,156.666 C276.981,156.666 276.261,158.706 274.102,161.226 C271.342,164.466 269.061,166.145 266.902,166.145 C265.942,166.145 265.822,165.426 265.822,163.746 C265.822,162.186 269.662,144.307 280.821,113.228 L287.781,94.148 C288.141,93.068 288.26,92.349 288.26,91.989 C288.26,91.389 287.542,90.669 286.701,90.669 C285.142,90.669 278.542,94.869 263.542,94.869 C260.062,94.869 258.142,94.869 258.142,97.628 C258.142,98.588 259.102,99.068 260.902,99.428 C264.142,100.148 265.822,100.268 265.822,101.828 C265.822,103.148 265.222,105.068 264.382,107.468 L259.342,121.627 C255.863,120.188 252.502,119.347 249.022,119.347 C239.783,119.347 228.744,124.267 219.264,133.627 C210.264,142.506 205.824,152.226 205.824,162.426 C205.824,171.785 210.864,177.545 217.824,177.545 C227.423,177.545 237.983,168.666 250.823,151.146 Z M252.502,123.427 C255.502,123.427 257.182,125.347 257.182,128.827 C257.182,133.027 253.462,141.307 244.943,151.986 C238.943,159.546 234.743,163.506 230.783,163.506 C228.143,163.506 226.584,161.466 226.584,157.746 C226.584,152.587 229.703,143.946 236.903,134.347 C242.303,127.027 247.703,123.427 252.502,123.427 Z" id="Fill-4" fill="#FFFFFF"></path>        <path d="M359.56,155.826 L368.8,124.627 C368.92,124.147 369.039,123.787 369.039,123.427 C369.039,122.467 368.44,122.107 367.12,122.107 L355.48,122.107 C353.321,122.107 352.121,122.827 351.401,124.507 C350.44,127.027 349.241,133.147 345.401,141.547 C337.241,159.546 326.202,168.786 323.322,168.786 C322.001,168.786 321.162,168.065 321.162,166.746 C321.162,165.786 321.642,163.026 322.721,160.266 L330.281,140.707 C332.442,135.067 333.761,130.867 333.761,127.987 C333.761,122.947 330.881,120.188 325.242,120.188 C319.482,120.188 313.482,122.947 307.962,128.227 C303.403,132.547 301.363,136.507 301.363,137.227 C301.363,138.067 301.962,138.667 302.563,138.667 C304.842,138.667 305.803,136.027 308.202,133.627 C311.322,130.387 313.961,128.947 314.921,128.947 C315.522,128.947 315.522,129.307 315.522,130.147 C315.522,133.147 314.322,136.027 313.001,139.267 L305.922,156.906 C304.243,160.986 303.642,164.706 303.642,167.826 C303.642,174.305 307.002,177.545 313.722,177.545 C324.162,177.545 333.761,169.265 344.441,152.346 L343,158.826 C342.042,163.145 341.441,166.625 341.441,169.625 C341.441,174.425 344.921,177.545 351.281,177.545 C360.64,177.545 370.48,172.385 378.4,162.186 C388.599,149.106 393.038,136.387 393.038,129.907 C393.038,124.027 389.559,120.188 385.119,120.188 C381.039,120.188 378.16,122.827 378.16,126.907 C378.16,131.587 383.08,135.907 383.08,141.187 C383.08,145.626 379.119,155.586 371.08,164.466 C367.48,168.425 363.88,170.346 361.48,170.346 C359.44,170.346 358,168.545 358,165.426 C358,163.506 358.36,159.906 359.56,155.826" id="Fill-5" fill="#FFFFFF"></path>        <path d="M456.846,123.787 C460.206,123.787 462.006,125.947 462.006,129.787 C462.006,133.507 458.166,142.506 449.167,154.146 C443.047,162.186 438.488,166.386 433.807,166.386 C430.928,166.386 429.008,164.106 429.008,160.266 C429.008,155.226 432.488,145.866 440.288,135.427 C446.047,127.627 451.686,123.787 456.846,123.787 Z M455.887,151.386 L453.126,161.706 C452.166,165.065 451.327,168.306 451.327,172.025 C451.327,175.025 453.726,177.425 457.686,177.425 C464.046,177.425 470.885,174.425 477.246,168.186 C482.165,163.386 484.326,158.946 484.326,158.226 C484.326,157.266 483.845,156.666 483.125,156.666 C481.326,156.666 480.606,158.946 478.446,161.226 C476.046,163.866 474.125,165.306 472.205,165.306 C471.005,165.306 470.406,164.346 470.406,162.666 C470.406,161.346 470.526,159.666 471.125,157.986 L482.766,123.188 C483.246,121.748 483.485,120.788 483.485,120.188 C483.485,118.868 482.526,118.748 480.005,118.748 L470.286,118.748 C469.806,118.748 469.326,118.748 468.965,118.748 C467.286,118.748 466.447,118.868 465.606,120.427 L464.406,122.587 C461.406,120.547 457.926,119.707 453.967,119.707 C444.007,119.707 432.608,125.107 422.288,135.547 C413.648,144.307 409.208,153.906 409.208,162.906 C409.208,172.265 414.248,177.785 421.928,177.785 C432.368,177.785 443.407,168.906 455.887,151.386 Z" id="Fill-6" fill="#FFFFFF"></path>        <path d="M537.096,166.746 L536.976,159.426 C536.616,132.187 535.056,119.828 523.896,119.828 C518.016,119.828 512.617,122.827 508.057,128.467 C504.817,132.547 503.497,135.787 503.497,136.627 C503.497,137.947 503.977,138.547 504.817,138.547 C507.097,138.547 507.457,136.387 509.257,133.387 C510.697,130.987 512.017,129.667 513.456,129.667 C516.096,129.667 517.057,133.387 518.497,140.347 C519.936,147.546 521.016,157.146 521.016,167.585 C521.016,185.465 513.577,194.944 506.977,194.944 C504.697,194.944 503.017,192.904 500.017,190.265 C498.577,189.064 496.417,188.225 494.257,188.225 C490.178,188.225 487.178,190.865 487.178,194.464 C487.178,198.904 491.017,202.144 497.377,202.144 C512.017,202.144 524.136,189.785 541.895,167.226 C555.695,149.587 562.774,136.987 562.774,128.707 C562.774,123.188 560.134,119.828 555.935,119.828 C551.375,119.828 548.375,123.188 548.375,127.747 C548.375,131.107 551.255,135.547 551.255,140.947 C551.255,146.346 546.696,155.106 537.096,166.746" id="Fill-7" fill="#FFFFFF"></path>        <path d="M212.095,219.532 C208.763,219.532 205.704,220.585 203.426,222.489 C200.74,224.733 199.313,227.657 199.313,230.853 C199.313,233.98 200.774,237.176 203.29,239.317 C205.432,241.153 208.39,242.207 211.721,242.207 C214.951,242.207 217.33,241.425 218.486,240.439 C219.031,239.963 219.064,239.454 219.064,238.638 C219.064,238.536 219.064,238.434 219.064,238.332 C219.064,237.652 219.166,237.04 219.166,236.496 C219.166,235.952 219.031,235.68 218.69,235.68 C218.146,235.68 217.841,236.632 216.956,238.127 C215.801,240.099 213.965,241.119 211.585,241.119 C209.545,241.119 207.913,240.303 206.417,238.604 C204.616,236.564 203.698,233.98 203.698,230.853 C203.698,227.691 204.786,224.767 206.452,222.931 C207.879,221.367 209.851,220.449 211.823,220.449 C214.237,220.449 215.631,221.537 217.229,223.543 C217.874,224.359 218.282,224.903 218.656,224.903 C218.86,224.903 218.962,224.699 218.962,224.291 C218.962,222.251 218.69,221.027 218.351,220.755 C217.807,220.348 215.392,219.532 212.095,219.532" id="Fill-8" fill="#FFFFFF"></path>        <path d="M239.018,241.221 C234.599,241.221 231.233,237.074 231.233,230.376 C231.233,224.223 234.395,220.483 238.644,220.483 C243.063,220.483 246.429,224.631 246.429,231.328 C246.429,237.482 243.267,241.221 239.018,241.221 Z M238.882,219.532 C235.754,219.532 232.898,220.585 230.723,222.489 C228.207,224.699 226.881,227.657 226.881,230.853 C226.881,234.048 228.207,236.972 230.723,239.215 C232.865,241.119 235.72,242.207 238.78,242.207 C241.942,242.207 244.797,241.119 246.939,239.215 C249.455,236.972 250.781,234.048 250.781,230.853 C250.781,227.657 249.455,224.733 246.939,222.489 C244.797,220.585 241.942,219.532 238.882,219.532 Z" id="Fill-9" fill="#FFFFFF"></path>        <path d="M275.951,226.603 L275.951,233.436 C275.951,235.918 275.951,237.618 275.203,238.773 C274.319,240.133 272.449,240.983 270.103,240.983 C265.582,240.983 264.392,239.147 264.392,234.66 L264.392,222.795 C264.392,221.605 264.494,221.401 265.548,221.231 C266.534,221.027 267.316,221.265 267.316,220.62 C267.316,220.348 267.078,220.143 266.67,220.143 C266.262,220.143 264.868,220.416 262.455,220.416 C260.04,220.416 258.647,220.143 258.239,220.143 C257.831,220.143 257.627,220.348 257.627,220.62 C257.627,221.265 258.307,220.959 259.361,221.231 C260.415,221.367 260.517,221.605 260.517,222.795 L260.517,233.13 C260.517,233.742 260.517,234.286 260.517,234.83 C260.517,236.904 260.619,238.468 261.672,239.726 C263.1,241.425 265.514,242.207 268.948,242.207 C272.449,242.207 274.761,241.391 276.087,239.624 C277.209,238.094 277.209,236.156 277.209,233.504 L277.209,226.603 C277.209,226.399 277.209,226.195 277.209,225.991 C277.209,223.169 277.243,221.741 278.127,221.265 C278.874,220.857 280.303,221.401 280.303,220.62 C280.303,220.348 280.031,220.143 279.589,220.143 C278.874,220.143 277.821,220.246 276.427,220.246 C275.101,220.246 274.149,220.143 273.605,220.143 C273.163,220.143 272.891,220.348 272.891,220.62 C272.891,221.401 274.251,220.925 274.999,221.265 C275.883,221.741 275.951,222.931 275.951,225.515 C275.951,225.855 275.951,226.195 275.951,226.603" id="Fill-10" fill="#FFFFFF"></path>        <path d="M290.95,223.713 L304.956,241.936 C305.229,242.309 305.466,242.479 305.705,242.479 C306.079,242.479 306.384,242.071 306.384,241.629 L306.384,226.603 C306.384,225.821 306.384,225.141 306.384,224.529 C306.384,222.082 306.521,221.095 308.084,221.095 C308.288,221.095 308.458,221.095 308.594,221.095 C308.968,221.095 309.138,220.994 309.138,220.653 C309.138,220.348 308.797,220.109 308.186,220.109 C307.575,220.109 306.69,220.246 305.569,220.246 C304.48,220.246 303.495,220.143 302.645,220.143 C301.897,220.143 301.556,220.348 301.556,220.653 C301.556,220.925 301.863,221.129 302.305,221.129 C303.699,221.129 304.48,221.265 304.651,221.979 C304.787,222.523 304.787,223.271 304.787,224.291 C304.787,224.699 304.787,225.141 304.787,225.617 L304.787,234.932 C304.787,235.136 304.718,235.306 304.651,235.306 C304.617,235.306 304.583,235.306 304.549,235.272 L293.194,220.483 C292.956,220.177 292.786,220.143 292.581,220.143 C292.48,220.143 292.377,220.143 292.242,220.143 L287.006,220.143 C286.598,220.143 286.395,220.313 286.395,220.62 C286.395,221.231 287.04,220.994 288.197,221.197 C289.114,221.367 289.216,221.673 289.216,222.795 L289.216,235.102 C289.216,235.782 289.216,236.36 289.216,236.904 C289.216,239.624 289.08,240.541 287.312,240.541 C287.142,240.541 287.006,240.541 286.938,240.541 C286.395,240.541 286.156,240.677 286.156,241.017 C286.156,241.391 286.497,241.595 287.21,241.595 C287.958,241.595 288.875,241.459 289.896,241.459 C291.018,241.459 292.004,241.595 292.82,241.595 C293.568,241.595 293.942,241.391 293.942,241.017 C293.942,240.677 293.669,240.541 293.125,240.541 C292.888,240.541 292.717,240.575 292.581,240.575 C290.881,240.575 290.711,239.828 290.711,237.346 C290.711,236.734 290.711,235.986 290.711,235.102 L290.711,224.053 C290.711,223.849 290.78,223.679 290.847,223.679 C290.881,223.679 290.917,223.679 290.95,223.713" id="Fill-11" fill="#FFFFFF"></path>        <path d="M328.867,219.532 C325.535,219.532 322.476,220.585 320.198,222.489 C317.512,224.733 316.084,227.657 316.084,230.853 C316.084,233.98 317.546,237.176 320.061,239.317 C322.204,241.153 325.161,242.207 328.493,242.207 C331.722,242.207 334.102,241.425 335.258,240.439 C335.802,239.963 335.836,239.454 335.836,238.638 C335.836,238.536 335.836,238.434 335.836,238.332 C335.836,237.652 335.938,237.04 335.938,236.496 C335.938,235.952 335.802,235.68 335.462,235.68 C334.918,235.68 334.613,236.632 333.728,238.127 C332.572,240.099 330.737,241.119 328.357,241.119 C326.317,241.119 324.685,240.303 323.189,238.604 C321.388,236.564 320.469,233.98 320.469,230.853 C320.469,227.691 321.557,224.767 323.223,222.931 C324.651,221.367 326.622,220.449 328.594,220.449 C331.008,220.449 332.403,221.537 334,223.543 C334.646,224.359 335.054,224.903 335.428,224.903 C335.632,224.903 335.734,224.699 335.734,224.291 C335.734,222.251 335.462,221.027 335.122,220.755 C334.579,220.348 332.164,219.532 328.867,219.532" id="Fill-12" fill="#FFFFFF"></path>        <path d="M350.113,238.366 L350.113,222.795 C350.113,221.605 350.214,221.367 351.201,221.197 C352.322,220.994 353.001,221.231 353.001,220.62 C353.001,220.348 352.797,220.143 352.39,220.143 C351.982,220.143 350.588,220.416 348.174,220.416 C345.76,220.416 344.367,220.143 343.959,220.143 C343.551,220.143 343.347,220.348 343.347,220.62 C343.347,221.231 344.027,220.994 345.149,221.197 C346.134,221.367 346.237,221.605 346.237,222.795 L346.237,238.366 C346.237,239.895 346.203,240.167 344.876,240.439 C343.959,240.609 343.245,240.405 343.245,241.017 C343.245,241.357 343.551,241.561 344.163,241.561 C344.639,241.561 345.964,241.357 348.174,241.357 C350.384,241.357 351.71,241.561 352.186,241.561 C352.797,241.561 353.104,241.357 353.104,241.017 C353.104,240.405 352.39,240.609 351.472,240.439 C350.147,240.167 350.113,239.895 350.113,238.366" id="Fill-13" fill="#FFFFFF"></path>        <path d="M366.425,238.366 L366.425,222.795 C366.425,221.605 366.529,221.367 367.514,221.197 C368.635,220.994 369.316,221.231 369.316,220.62 C369.316,220.348 369.112,220.143 368.704,220.143 C368.262,220.143 366.902,220.416 364.488,220.416 C362.109,220.416 360.817,220.143 360.476,220.143 C360.102,220.143 359.899,220.348 359.899,220.62 C359.899,221.231 360.51,220.994 361.564,221.197 C362.516,221.401 362.55,221.673 362.55,222.795 L362.55,238.366 C362.55,239.895 362.516,240.167 361.19,240.439 C360.272,240.609 359.559,240.405 359.559,241.017 C359.559,241.357 359.865,241.561 360.476,241.561 C360.953,241.561 362.279,241.357 364.488,241.357 C369.316,241.357 372.749,241.664 374.721,241.664 C375.538,241.664 375.502,241.425 375.639,240.507 L376.08,237.312 C376.116,237.108 376.116,236.938 376.116,236.802 C376.116,236.564 376.046,236.428 375.741,236.428 C375.265,236.428 374.654,237.618 373.157,239.114 C372.239,240.031 370.778,240.575 369.145,240.575 C367.343,240.575 366.425,239.793 366.425,238.366" id="Fill-14" fill="#FFFFFF"></path>        <path d="M65.06,363 C65.349,368.918 68.485,371.875 74.47,371.875 C81.075,371.875 84.38,368.816 84.38,362.699 C84.38,359.801 82.899,357.135 79.94,354.701 C77.202,352.666 74.454,350.629 71.694,348.594 C68.733,345.939 67.255,342.875 67.255,339.4 C67.255,333.428 69.513,328.471 74.028,324.533 C78.544,320.596 83.997,318.625 90.388,318.625 C97.798,318.625 101.505,320.264 101.505,323.541 C101.505,325.777 99.839,328.014 96.507,330.25 C94.44,326.584 91.075,324.75 86.411,324.75 C80.724,324.75 77.88,327.178 77.88,332.033 C77.88,333.207 78.3,334.391 79.144,335.586 C79.987,336.781 83.981,340.1 91.128,345.541 C94.212,348.551 95.755,351.969 95.755,355.797 C95.755,361.883 93.147,367.104 87.937,371.463 C82.724,375.822 76.853,378 70.325,378 C67.071,378 64.017,377.395 61.161,376.184 C58.306,374.973 56.88,373.379 56.88,371.4 C56.88,368.111 59.606,365.312 65.06,363" id="Fill-15" fill="#FFFFFF"></path>        <path d="M115.541,352.125 C124.254,351.973 128.611,348.295 128.611,341.096 C128.611,338.033 127.516,336.5 125.328,336.5 C121.146,336.5 117.885,341.709 115.541,352.125 Z M114.91,357.875 C114.711,359.668 114.611,361.168 114.611,362.377 C114.611,368.043 116.859,370.875 121.359,370.875 C125.527,370.875 130.336,368.668 135.785,364.25 C136.336,365.404 136.611,366.426 136.611,367.312 C136.611,370.221 134.455,372.647 130.143,374.588 C125.83,376.529 121.516,377.5 117.203,377.5 C106.809,377.5 101.611,372.969 101.611,363.902 C101.611,355.369 104.391,347.648 109.949,340.738 C115.508,333.83 122.184,330.375 129.979,330.375 C136.4,330.375 139.611,333.09 139.611,338.516 C139.611,344.273 137.262,348.891 132.564,352.365 C127.867,355.842 121.982,357.678 114.91,357.875 Z" id="Fill-16" fill="#FFFFFF"></path>        <path d="M155.009,376.184 C152.927,376.811 150.734,377.125 148.429,377.125 C144.663,377.125 142.781,375.758 142.781,373.022 C142.781,371.486 143.484,367.906 144.894,362.277 C148.068,349.578 149.656,340.715 149.656,335.687 C149.656,334.576 149.447,333.453 149.031,332.318 C151.956,331.273 154.486,330.75 156.621,330.75 C160.007,330.75 161.703,332.162 161.703,334.984 C161.703,336.812 160.843,341.299 159.124,348.447 C165.691,336.4 171.189,330.375 175.619,330.375 C177.976,330.375 179.156,331.494 179.156,333.732 C179.156,337.986 177.134,342.451 173.093,347.125 C172.054,345.625 171.105,344.875 170.246,344.875 C167.374,344.875 164.023,348.691 160.191,356.32 C156.359,363.949 154.445,369.555 154.445,373.137 C154.445,373.982 154.632,374.998 155.009,376.184" id="Fill-17" fill="#FFFFFF"></path>        <path d="M207.692,331.25 C214.756,331.473 218.289,333.119 218.289,336.189 C218.289,339.086 215.069,345.518 208.631,355.486 C202.194,365.455 197.487,371.574 194.51,373.84 C191.534,376.105 188.022,377.492 183.973,378 L184.039,374.383 C184.039,374.008 184.039,373.621 184.039,373.223 C184.039,368.953 183.334,361.787 181.924,351.721 C180.514,341.656 179.094,335.795 177.664,334.135 C180.735,331.879 183.873,330.75 187.077,330.75 C190.745,330.75 192.7,333.67 192.944,339.51 C193.01,341.479 193.086,343.437 193.176,345.383 C193.508,352.461 193.741,358.932 193.873,364.793 L202.497,350.275 C206.358,343.205 208.289,338.023 208.289,334.73 C208.289,333.869 208.09,332.709 207.692,331.25" id="Fill-18" fill="#FFFFFF"></path>        <path d="M239.406,323.805 C237.051,324.936 234.892,325.5 232.934,325.5 C229.984,325.5 228.51,324.68 228.51,323.039 C228.51,322.484 228.619,321.654 228.84,320.545 C229.059,319.437 229.17,318.605 229.17,318.051 C229.17,317.676 229.025,317.221 228.74,316.687 C231.58,315.647 233.979,315.125 235.939,315.125 C239.152,315.125 240.76,316.355 240.76,318.816 C240.76,319.902 240.309,321.566 239.406,323.805 Z M224.51,332.447 C227.572,331.316 230.359,330.75 232.867,330.75 C236.24,330.75 237.928,332.037 237.928,334.609 C237.928,335.764 237.713,337.172 237.287,338.836 C233.549,353.234 231.682,363.051 231.682,368.285 C231.682,370.814 232.346,372.947 233.674,374.686 C231.111,376.312 228.631,377.125 226.232,377.125 C221.916,377.125 219.76,375.117 219.76,371.1 C219.76,367.615 220.717,361.867 222.635,353.855 C224.551,345.844 225.51,340.094 225.51,336.609 C225.51,335.211 225.176,333.824 224.51,332.447 Z" id="Fill-19" fill="#FFFFFF"></path>        <path d="M258.059,348.428 C264.013,336.393 270.065,330.375 276.218,330.375 C280.886,330.375 283.221,332.746 283.221,337.484 C283.221,340.852 282.409,345.936 280.784,352.736 C279.159,359.537 278.347,364.633 278.347,368.022 C278.347,370.746 279.013,372.973 280.347,374.699 C277.784,376.316 275.257,377.125 272.761,377.125 C268.573,377.125 266.479,375.113 266.479,371.09 C266.479,368.113 266.927,364.432 267.825,360.045 C270.091,348.994 271.226,342.914 271.226,341.807 C271.226,340.604 270.849,340 270.099,340 C268.663,340 265.522,344.332 260.675,352.992 C255.827,361.652 253.405,368.375 253.409,373.158 C253.409,374.004 253.597,375.016 253.974,376.191 C251.716,376.812 249.534,377.125 247.433,377.125 C243.624,377.125 241.722,375.75 241.722,372.996 C241.722,371.576 241.999,369.779 242.556,367.604 L243.892,362.277 C247.028,349.094 248.597,340.262 248.597,335.777 C248.597,334.557 248.388,333.402 247.972,332.314 C250.893,331.272 253.419,330.75 255.552,330.75 C258.911,330.75 260.593,332.154 260.593,334.963 C260.593,336.52 259.747,341.008 258.059,348.428" id="Fill-20" fill="#FFFFFF"></path>        <path d="M317.836,342.477 C315.465,338.992 312.909,337.25 310.163,337.25 C307.305,337.25 305.051,339.225 303.403,343.172 C301.752,347.121 300.928,351.619 300.928,356.67 C300.928,359.141 301.614,360.375 302.987,360.375 C306.729,360.375 311.68,354.41 317.836,342.477 Z M289.561,373.375 C292.944,378.707 297.131,381.375 302.127,381.375 C305.045,381.375 307.348,380.404 309.039,378.467 C310.731,376.529 312.702,369.055 314.954,356.047 C308.383,365.6 302.368,370.375 296.907,370.375 C291.42,370.375 288.678,366.352 288.678,358.303 C288.678,350.897 290.78,344.389 294.983,338.783 C299.186,333.178 304.518,330.375 310.979,330.375 C314.141,330.375 317.061,331.166 319.739,332.744 C320.581,331.416 322.2,330.75 324.594,330.75 C326.989,330.75 329.516,331.328 332.178,332.48 C330.34,335.852 328.891,341.098 327.829,348.215 C325.571,363.207 323.467,372.549 321.522,376.24 C319.575,379.932 316.827,382.814 313.276,384.891 C309.725,386.963 305.582,388 300.848,388 C297.264,388 293.465,387.227 289.45,385.684 C285.434,384.139 283.428,382.275 283.428,380.092 C283.428,377.355 285.471,375.117 289.561,373.375 Z" id="Fill-21" fill="#FFFFFF"></path>        <path d="M371.852,350.787 C369.778,335.992 366.225,327.256 361.196,324.58 C364.631,320.777 368.067,318.875 371.504,318.875 C374.082,318.875 376.01,320.062 377.288,322.436 C378.565,324.811 379.918,331.154 381.352,341.467 C389.969,326.24 397.153,318.625 402.907,318.625 C405.616,318.625 407.67,320.297 409.071,323.639 C405.602,324.635 402.157,326.883 398.735,330.379 C394.934,334.273 390.821,339.393 386.397,345.734 C381.973,352.076 379.764,360.758 379.772,371.779 C379.772,372.953 380.004,374.016 380.469,374.967 C377.079,376.406 374.141,377.125 371.657,377.125 C368.598,377.125 367.071,376.064 367.071,373.941 C367.071,372.527 367.358,370.691 367.934,368.434 C369.372,362.949 370.678,357.068 371.852,350.787" id="Fill-22" fill="#FFFFFF"></path>        <path d="M421.176,370.875 C424.248,370.875 426.758,368.072 428.704,362.465 C430.649,356.859 431.622,351.24 431.622,345.611 C431.622,339.871 429.918,337 426.516,337 C423.375,337 420.817,339.772 418.838,345.311 C416.86,350.852 415.872,356.502 415.872,362.264 C415.872,368.006 417.639,370.875 421.176,370.875 Z M418.881,377.5 C414.209,377.5 410.455,376.047 407.622,373.137 C404.788,370.227 403.372,366.383 403.372,361.604 C403.372,353.838 405.877,346.693 410.893,340.166 C415.909,333.639 421.903,330.375 428.877,330.375 C433.416,330.375 437.09,331.854 439.903,334.807 C442.715,337.76 444.122,341.57 444.122,346.238 C444.122,353.937 441.623,361.074 436.631,367.645 C431.639,374.215 425.721,377.5 418.881,377.5 Z" id="Fill-23" fill="#FFFFFF"></path>        <path d="M477.95,331.68 C480.051,331.061 482.221,330.75 484.457,330.75 C488.264,330.75 490.168,332.127 490.168,334.879 C490.168,336.322 489.903,338.119 489.372,340.272 L488.008,345.598 C485.948,354.365 484.918,361.246 484.918,366.238 C484.918,369.436 485.5,372.221 486.668,374.596 C484.664,376.283 482.403,377.125 479.887,377.125 C475.188,377.125 472.84,374.537 472.84,369.359 C472.84,366.582 473.174,363.258 473.842,359.391 C467.819,371.465 461.764,377.5 455.676,377.5 C451.004,377.5 448.668,375.119 448.668,370.355 C448.668,366.857 449.606,361.1 451.481,353.08 C453.356,345.061 454.293,339.279 454.293,335.734 C454.293,334.539 454.084,333.398 453.668,332.312 C456.6,331.272 459.147,330.75 461.307,330.75 C464.68,330.75 466.368,332.158 466.368,334.975 C466.368,335.928 466.057,337.77 465.438,340.496 C462.272,354.492 460.69,363.008 460.69,366.045 C460.69,367.266 461.053,367.875 461.784,367.875 C463.196,367.875 466.336,363.539 471.207,354.865 C476.079,346.193 478.514,339.471 478.514,334.701 C478.514,333.861 478.325,332.854 477.95,331.68" id="Fill-24" fill="#FFFFFF"></path>    </g></svg>
