<svg id="Layer_1" data-name="Layer 1" xmlns="http://www.w3.org/2000/svg" viewBox="0 0 500 100"><defs><style>.cls-1{fill:none;stroke:#fff;stroke-miterlimit:3.86;stroke-width:1.33px;}.cls-2,.cls-3{fill:#fff;}.cls-3{fill-rule:evenodd;}</style></defs><title>NCC Logo White</title><path class="cls-1" d="M384.09,92.61V46.17l-4.95-7.51V30l2.22-1v7.26l2.56-1.13V27.64l2.3-1V33.9l2.64-1.38V25.26l2.3-1.12V92.61Zm0-46.32,6.81-3.38m15.78,49.7V24.76l-4.95-7.51V8.61l2.22-1v7.26l2.56-1.12V6.23l2.3-1V12.5l2.64-1.38V3.86l2.3-1.13V92.61Zm-.17-47.07-3.07,1.88v6l-3.92,2.13V49.42l-3.92,2V92.67m-4.27-.06h15.26m-8-46.09-7.33-3.63m7.33,6.78V45.92l4.94-7.51V29.77l-2.21-1V36l-2.56-1.13V27.39l-2.3-1v7.26l-2.65-1.38V25l-2.3-1.13M386.07,68.8s.19-3.93,1.57-4.73,1.56,3.09,1.56,3.09v9.31l-3.13,1.63Zm14-1.42s.19-3.92,1.56-4.72,1.57,3.09,1.57,3.09v9.3l-3.13,1.64Zm43.76,25.23V46.17l4.94-7.51V30l-2.22-1v7.26L444,35.15V27.64l-2.29-1V33.9L439,32.52V25.26l-2.3-1.12V92.61Zm0-46.32L437,42.91m-15.59,2.63,3.06,1.88v6l3.93,2.13V49.42l3.92,2V92.54m4.26.07H421.3m8-46.57,7.33-3.63m-7.33,7.26V45.92l-4.94-7.51V29.77l2.22-1V36l2.55-1.13V27.39l2.3-1v7.26l2.65-1.38V25l2.3-1.13M414.15,92.61h7.06V24.76l5-7.51V8.61l-2.22-1v7.26l-2.55-1.12V6.23l-2.3-1V12.5l-2.65-1.38V3.86l-2.3-1.13M407,24.5l6.82-3.38M421,24.5l-6.81-3.38m-30.1,42.55,6.81-3.37m-6.81,21.46,6.81-3.38m15.7-20.69-11,6.19-4.19-3.58M406.6,75.58l-11,6.19-4.19-3.58M407,53l6.82-3.38M407,71l6.82-3.37M441.7,68.8s-.19-3.93-1.57-4.73-1.56,3.09-1.56,3.09v9.31l3.13,1.63Zm-14-1.42s-.19-3.92-1.56-4.72-1.57,3.09-1.57,3.09v9.3l3.13,1.64Zm16-3.71-6.82-3.37m6.82,21.46-6.82-3.38M421.17,57.69l11,6.19,4.19-3.58M421.17,75.58l11,6.19,4.19-3.58M420.8,53,414,49.57M420.8,71,414,67.66"/><path class="cls-2" d="M93,1a2.28,2.28,0,0,1,.7.26,1.75,1.75,0,0,1,1.21,1.36c0,1.38-2.43,3-3.54,3.26a28.68,28.68,0,0,1,2.82,8.25A64.51,64.51,0,0,1,94.91,21l.2,24.17c-.3,1.78-.59,3.54-.93,5.29a1,1,0,0,0-.23.23,19.37,19.37,0,0,1-1.73,4.82c-.45.77-3.79,3.56-5,3.56H85.93c-.24,0-.5.39-.74.39-.57,0-.72-.35-1-.59-.08,0-.23.2-.48.2a1.12,1.12,0,0,1-1-1.13,1.17,1.17,0,0,1,.59-.89,26.91,26.91,0,0,1-1.6-2.43c-.86-1.8-2.12-3.4-3.18-5.24a49.79,49.79,0,0,1-4.78-10.68,47.8,47.8,0,0,0-2-4.71c-1-2.4-2.53-5.41-3.64-7.7-.75-1.56-1.46-3.13-2.41-4.77a79.76,79.76,0,0,0-7.1-10.2c-.06.09,0-.05,0,.2s.26.6.36.84A12.83,12.83,0,0,1,59.17,14a30.4,30.4,0,0,1,.7,3.16c0,.28.11.69.19,1.07s.26.78.33,1.18c.41,2.15.61,4.33.83,6.49a82.79,82.79,0,0,1,.15,8.86,2.08,2.08,0,0,1-.13.3c0,.87.2,6.37-.22,15.9-.1,2.3,2.56,4,3.29,5,.11.14,0,.43.16.58.39.56,1.17.22,1.17.92a.76.76,0,0,1-.69.73c-.25,0-.34-.14-.55-.17-.42-.06-1-.44-1.67-.51a9.23,9.23,0,0,0-3.63.1c-.24,0-4.91.58-5.15.58a4.24,4.24,0,0,1-2.41-.53,1.55,1.55,0,0,1-.54-.89c0-.25.1-.22.16-.31.34-1.21,1.44-2.29,2.15-3.57a.65.65,0,0,0,.1.2c.18-.12.44-.35.44-.53V43.39l1.77-13V26.87c0-.24.19-1.85.29-2.74L54.63,12.8a2.79,2.79,0,0,1,0-2c-.09-.08-.27,0-.37,0s-.22-.26-.47-.26,0,.2-.3.2c-.76,0-1.12-1.39-1.12-1.53,0-.7.29-1,.95-1.69,0-.09-.07,0-.07-.27,0-.62.74-1,1.13-1s.64.29.88.29.45-.2.69-.2c.85,0,1.25,1,1.68,1.82.18.33.14.91.35,1.26a14.13,14.13,0,0,0,1.18,1.56c.28.37.91.87,1.21,1.31,1.34,1.9,3,3.94,4.43,6.08a123.38,123.38,0,0,1,8,14.65c2.32,4.8,4.4,10.18,7.65,15,.88,1.29,3.39,4.61,5,5.17a35.28,35.28,0,0,0,2.33-9.29l-.1-22.3c-.1-.68-.29-2.75-.29-3s-.15-.64-.17-.94a47.52,47.52,0,0,0-1-5.39c-.1-.5-.43-1-.53-1.42a4.83,4.83,0,0,0-1-2.2,4.24,4.24,0,0,0-1.42-1,24.87,24.87,0,0,0-3.56-.9c-.25,0-.74.2-1.12.22-.08.06-.19.16-.3.23a11.94,11.94,0,0,0-1.78.14c-.27,0-1.16-.32-1.3-.83a12.08,12.08,0,0,1-.32-1.63c0-1,.39-1.38,1.13-1.38.24,0,.64.2.89.2s.06-.2.3-.2h8.23c.25,0,.18-.08.29-.16A16,16,0,0,0,90,1.52a3.77,3.77,0,0,1,1.4-.42C92.4,1,92.75,1,93,1"/><path class="cls-2" d="M326.56,1.29c.24,0,.93.1,1.31.13a13.37,13.37,0,0,1,.84,1.18V4.9A4.49,4.49,0,0,0,328,7.14l.2,7.47c0,.1.19.26.19.5v1.35a.92.92,0,0,0,.3.68V52.5c0,.25-.2-.07-.2.17s.05.1.19.13c-.11.16-.29.27-.29.51s.46.6.67.71c1.05.58,2.54.71,3.69,1.24.31.13.63.67.86,1,1,1.28,1.17,1.15,1.17,2,0,.54.09.74-.65,1.43a1.22,1.22,0,0,1-.69.34h-1l-7.56-2c-.68.1-1.81.59-2.06.59a3,3,0,0,1-2.21-2.16c0-1,1.84-2.35,2.43-2.93,0-.09-.07,0-.07-.26V51c0-.25.29-2,.3-2.23V33.07l-.2-13.55L322.43,11V6.67l-.15-.17c-.37.28-1.1.18-1.6.66a3.18,3.18,0,0,1-.16,1.18c-.11.22-.46.41-.67.62h-1.19a2,2,0,0,1-1-1,9.92,9.92,0,0,1-.32-1.35c0-1.12,1.89-2.61,2.91-3a21.63,21.63,0,0,0,2.62-1c2-1,2.11-1.35,3.71-1.35"/><path class="cls-2" d="M300.55,1.9h.55a1.93,1.93,0,0,0,.21.52l-2.65,11,.08.65a34.23,34.23,0,0,1,4.19-.7c1.46-.15,2-.1,3.14-.2l14.06-1.77a1.73,1.73,0,0,1,1.41,1.53A2.19,2.19,0,0,1,321.2,14a3,3,0,0,1-.87.41c-1.16.22-3.31.53-3.56.53h-3.18c-.24,0-.18-.11-.27-.2h-4.09c-.24,0-7,.93-10.52,1.4-.11,0-.27.17-.43.25-.61,3.62-1.69,10.83-1.69,11.08s-.58,3.64-.88,5.5L295,40.05v6.47a7.44,7.44,0,0,0,.51,1.86c1.61,3.39,4.86,3.62,7.7,4.19l6.72.3c.25,0,.54-.32.83-.37s.7-.09,1-.16c.1,0,.27-.29.48-.42a3.06,3.06,0,0,1,1.25-.42,2.2,2.2,0,0,1,2.06,1.86c0,.6-.56,1.87-1.62,1.87a1,1,0,0,1-.57-.2,6.05,6.05,0,0,1,0,1.33c-.43,3.15-4.1,2.39-6.13,3a24.52,24.52,0,0,0-3.94,0A23.21,23.21,0,0,1,295.27,57a15.64,15.64,0,0,1-1.31-1c-2.76-2-3.87-5.39-4.24-8.31l.19-8.26c0-.1.11-.22.17-.31.79-7.31,2.15-15.23,4.91-22.38a.33.33,0,0,0,0-.25,7.76,7.76,0,0,1-1.55.56c-1.15.19-3.41.53-3.66.53h-1.54c-.25,0-.26.19-.51.19-.65,0-1.32-.45-1.32-1,0-.25.05-.7.25-.76a20.15,20.15,0,0,1,3.92-.85c.77-.11,2.13-.36,2.37-.36h2.53c.35,0,.35-.35.49-.63s.34-.84.49-1.2c.81-2,1.69-3.92,2.39-5.9a50.56,50.56,0,0,1,1.73-5.12"/><path class="cls-3" d="M241.68,22.91c-5.36,0-11.37,4.68-15,9.28-.21.26-.39.72-.56,1a22.32,22.32,0,0,0-4,10,.57.57,0,0,0-.15.39v3.66a1.35,1.35,0,0,0,.15.49c.08.37,1.34,6.43,4,6.43a3.09,3.09,0,0,0,1.62-.64c1.51-1.45,3.91-3.46,5.37-5.18,2.25-2.64,5.7-5.76,7.89-8.78.41-.56,2.41-2.34,2.41-3.54V35l1.87-10.18c-.28-1.23-2.46-1.86-3.54-1.86m5.86-2.85h.86c1,0,1.24,1.72,1.24,2.12v3.43l-.5,4.13-.49,14.74a40.94,40.94,0,0,0-.88,7c0,.24.19,2.65.19,2.89a2.24,2.24,0,0,1-2.45,2.21c-.54,0-1.54-.22-1.83-.79a1.41,1.41,0,0,1-.82.3,2.15,2.15,0,0,1-2.16-2.06,3.87,3.87,0,0,1,1.12-1.83c.35-.27,1.14-.49,1.14-1a3.86,3.86,0,0,0-.17-.63c0-.29.07-.6,0-5a13,13,0,0,0-2,2.2C237.7,50.67,234,54.1,230,56.26a7.26,7.26,0,0,1-2.13.56s-.07,0-.09.17h-2.18c-.37,0-1.78-1.1-2-1.22C222.49,55,220,49.49,220,47.91c0-.25-.2-2.07-.2-2.31,0-8.94,6.39-17.36,15.65-22.66a13.21,13.21,0,0,1,6.46-1.51,8.67,8.67,0,0,1,3.87.89c.17-.18.43-.34.51-.56s0-.7.16-1a3,3,0,0,1,1.12-.72"/><path class="cls-2" d="M241.68,22.91c-5.36,0-11.37,4.68-15,9.28-.21.26-.39.72-.56,1a22.32,22.32,0,0,0-4,10,.57.57,0,0,0-.15.39v3.66a1.35,1.35,0,0,0,.15.49c.08.37,1.34,6.43,4,6.43a3.09,3.09,0,0,0,1.62-.64c1.51-1.45,3.91-3.46,5.37-5.18,2.25-2.64,5.7-5.76,7.89-8.78.41-.56,2.41-2.34,2.41-3.54V35l1.87-10.18c-.28-1.23-2.46-1.86-3.54-1.86m5.86-2.85h.86c1,0,1.24,1.72,1.24,2.12v3.43l-.5,4.13-.49,14.74a40.94,40.94,0,0,0-.88,7c0,.24.19,2.65.19,2.89a2.24,2.24,0,0,1-2.45,2.21c-.54,0-1.54-.22-1.83-.79a1.41,1.41,0,0,1-.82.3,2.15,2.15,0,0,1-2.16-2.06,3.87,3.87,0,0,1,1.12-1.83c.35-.27,1.14-.49,1.14-1a3.86,3.86,0,0,0-.17-.63c0-.29.07-.6,0-5a13,13,0,0,0-2,2.2C237.7,50.67,234,54.1,230,56.26a7.26,7.26,0,0,1-2.13.56s-.07,0-.09.17h-2.18c-.37,0-1.78-1.1-2-1.22C222.49,55,220,49.49,220,47.91c0-.25-.2-2.07-.2-2.31,0-8.94,6.39-17.36,15.65-22.66a13.21,13.21,0,0,1,6.46-1.51,8.67,8.67,0,0,1,3.87.89c.17-.18.43-.34.51-.56s0-.7.16-1a3,3,0,0,1,1.12-.72"/><path class="cls-2" d="M272.49,21h3.71a11.67,11.67,0,0,1,2.37.2c1.85.29,4.27.69,5.75,2.17.49.49.68.47.68,1.12a1.27,1.27,0,0,1-.66,1.29,1.38,1.38,0,0,1-1.45,1.51,1.48,1.48,0,0,1-1.29-.75,1.82,1.82,0,0,1-.16-.75,8.84,8.84,0,0,0-1.8-.76h-1.25c-.55,0-1.44-.49-1.44-1,0-.25.49-.74.49-1,0-.52-1.83-.54-1.87-.54a16.58,16.58,0,0,0-7.2,2c-1,.51-1.87,1.26-2.78,1.8s-1.81,1-1.81,2.11a2.21,2.21,0,0,0,1.34,1.73,67.7,67.7,0,0,0,7.26,1.57c.68.11,1.51.09,2.17.26,3.37.91,7.17,2.15,10.1,5a7.58,7.58,0,0,1,.55,2.37c0,6.69-9.66,15.2-16.05,16.58-.71.15-2,.56-2.28.56H262a11.55,11.55,0,0,1-1.5-.56,48.43,48.43,0,0,1-8-3.41,3.76,3.76,0,0,1-.81-1.56c-.08-.29.08-.69,0-1s-.32-.41-.52-.67a2.31,2.31,0,0,1-.23-1.11c0-.72-.11-.57.53-1.4.19-.26.59-.2.87-.35s.36-.43.61-.82a3.33,3.33,0,0,1,.94-.42c.88,0,1.79,1.06,2,1.62a1.8,1.8,0,0,1,.16,1,6.79,6.79,0,0,0,.84.63c.94.39,2.12.6,3.14,1,2,.86,3.55,1.74,5.43,1.74.25,0,3.39-.49,4.67-.53,1.47,0,2.88-1,4.4-1.7.26-.13.71-.2,1-.36A18.48,18.48,0,0,0,277.75,47c1.68-1.4,4.7-5.26,4.7-7.69,0-1.35-2.08-2.22-2.92-2.68a6.71,6.71,0,0,0-1-.25,81.22,81.22,0,0,0-10.21-3,18.54,18.54,0,0,1-4.63-1.58A5.54,5.54,0,0,1,261.82,28a2.82,2.82,0,0,1,.62-1.82c1-1.15,2.12-1.32,3.45-2.36,0,0,5.57-2.79,6.6-2.79"/><path class="cls-2" d="M205.92,21.24c1.94,0,2.36,1.71,2.36,2.94a22,22,0,0,1-.79,3.74c0,.27.17.16.54.53a1.87,1.87,0,0,1,.45,1.14,1.56,1.56,0,0,1-1.38,1.57c-1,0-.64-.34-1.92-1.13-.28-.17-.37-.71-.56-1.06-.55-1-.42-2.4-.65-3.62,0,0,.08-.08-.16-.08s-5.33,2.48-8,3.94a25.76,25.76,0,0,0-9.55,10,18.89,18.89,0,0,0-1.9,3.72,18.52,18.52,0,0,0-.81,5c0,2,.37,4.57,2.85,4.57,2.81,0,9.92-2.92,11.72-3.87,5.22-2.76,9.71-5.55,15.06-7.6a10,10,0,0,1,2.22-.51c.26-1.06.6-1.19,1.31-1.19.43,0,.86.09,1.34,1,.15.3.57.77.57,1v1.25c0,.25.3,1.24.3,1.49a5.27,5.27,0,0,1-.94,2.36,4,4,0,0,1-1,.69c-3.78,1.53-7.86,2.9-11.73,4.32-3.29,1.22-6.7,2.71-10,3.94-4.23,1.57-6,2.39-9.9,2.39-1.94,0-3,.35-5-2.21a6.11,6.11,0,0,1-1.09-3c0-.29.08-.69.05-1-.06-.09-.17-.06-.17-.31a23.52,23.52,0,0,1,.2-3.45,13.23,13.23,0,0,1,1.87-5s0-.06-.07-.15c-1.36.34-2.84,1.92-3.66,3-.1.15,0,.41-.05.58-.22.45-.23,1.13-.88,1.36a1.87,1.87,0,0,1-.5,0c-.66,0-1.13-.36-1.13-.93,0-.41.3-.61.6-.95.92-1.09,1.8-2.39,2.61-3.5.27-.37.55-.9.85-1.26,4.47-5,9.65-11.34,15.81-14.71,3.09-1.69,7-3.36,9.53-4.65a5.72,5.72,0,0,1,1.64-.42"/><path class="cls-2" d="M168.84,21.34c.24,0,1.36.63,2.06.75,1.65.26,3.44.16,6.78.33a2,2,0,0,1,1.21.43,1.18,1.18,0,0,1,.31.84,4.09,4.09,0,0,1-.44,1.32c-.36.65-1.3.79-2,1.29-.2.15-.95.41-1.1.89-.67,2.23-1.15,4.55-1.92,6.78-.69,2-1.67,4-2.36,6a112.22,112.22,0,0,0-3.93,12c-.05.27-.33.62-.43.93-.34,1-.63,2.76-1.51,3.52a7.32,7.32,0,0,1-1.65.63,5.56,5.56,0,0,1-1.44-.73c-.62-1.25-1.22-2.66-1.74-4-1.33-3.35-2-6.4-3-9.73-.5-1.52-1.36-3-1.9-4.61a49.29,49.29,0,0,0-2.54-6.75,13.36,13.36,0,0,0-1.3,3.2c-1.21,4.35-2.24,9-3,13.46a.92.92,0,0,1-.24.42c-.06.06,0,.3,0,.48a11.39,11.39,0,0,0-.63,1.07c-.32.9-1.25,6-3.07,6-.34,0-.83,0-.87-.91-.09-.09-.11-.23,0-1.49-.48-.77-1.15-1.69-1.7-2.64a19.76,19.76,0,0,1-1.22-2.17c-1.75-4.09-3.49-8.15-5.11-12.31a25.25,25.25,0,0,1-1.08-2.72,21,21,0,0,0-1.87-5.37h-1.43c-.55,0-1.44.12-1.44-.59s.72-.67,1.3-.72c.08-.14.17-.44.4-.53.86-.31,1.88-.41,2.75-.75a19,19,0,0,1,3.6-1.53c.73,0,1,1.34,1,1.37,0,2.08-1.86,1-1.86,2.46a11.1,11.1,0,0,0,.75,2.41c.38,1,6,15.47,7.75,15.47,1.17,0,1.4-3,1.45-3.21.16-.67.32-1.49.49-2.25.11-.51.44-1.07.53-1.57a85.51,85.51,0,0,1,2-8.56c.29-1,1.06-2.69,1.06-2.93s-.39-1.27-.49-2c-.09-.08-.1-.07-.34-.07s-.79.2-1,.2a1.75,1.75,0,0,1-1.77-1.52c0-.58,1.34-1.72,2-1.8.4,0,.79-.05,1.19-.05,2.55-.1,3.64-.46,5.89-.46,1.06,0,2.41.05,2.41,1.62,0,2.18-1.95,1.51-3.46,2.52a4,4,0,0,0-1.26,1.75,8.93,8.93,0,0,0,.84,1.5,11.38,11.38,0,0,1,.7,1.88c.7,2.05,1.48,4.11,2.25,5.79,1.11,2.41,1.88,5.07,2.92,7.56a34.66,34.66,0,0,0,1.62,3.22c.07,0,.13,0,.19-.07,1.43-4.33,7.5-20.26,7.5-21.45,0-.24-1-1-1.65-1.46s-1.6-1.07-1.6-2,1.13-1.17,1.53-1.17"/><path class="cls-2" d="M349.59,21.83c3.44,0,9.73,1.05,12.11,4.49a5.48,5.48,0,0,1,1.87.55c.39.26.5.92.63,1.37.07.09.27.29.33.39a16.1,16.1,0,0,1,1.09,1.67,2.64,2.64,0,0,1,0,.81c0,.41-.08,1.72-.74,1.72-.25,0-.59-.2-.84-.2s-.21.2-.45.2h-2.24c-.24,0-1.57.52-2.35.75-2,.55-4.06,1-6,1.44a22.84,22.84,0,0,1-2.56.62c-2.48.31-5,.6-7.46,1.14a8.66,8.66,0,0,0-2,.78c-.11,0-.17.22-.39.33a1.15,1.15,0,0,1-.57,0c-.72,0-1.17-.21-1.17-.94a1,1,0,0,1,1-.83c.25,0,.44.29.69.29s1.37-.6,2.05-.76c1.36-.32,2.87-.47,4.22-.74,2-.41,4.05-.91,6-1.38,1.67-.41,3.42-1,5.2-1.31a8.56,8.56,0,0,0,4.19-1.56c-.19-.37-.07-.93-.32-1.24-2.85-3.39-8.3-5-12.21-5-4.49,0-9.95,3.79-12.11,9a13.8,13.8,0,0,0-1.1,5.13c0,.25.1,1.62.12,2.4a1.17,1.17,0,0,1,.13.19c.25,1.88,1.73,3.61,3.24,5.61a11.56,11.56,0,0,0,2.87,2.78,13.18,13.18,0,0,0,7.49,1.7l2.79-.1a24.54,24.54,0,0,0,8.55-3.9,34.06,34.06,0,0,1,4.19-2.65,6,6,0,0,1-.3-1.11c0-.59.58-1.67,1.28-1.67s1.37,1.72,1.37,2.11-.27.28-.27.49a8.83,8.83,0,0,1,0,.89c-.05.42-.36.78-.36,1s.3,1.18.3,1.42a5.26,5.26,0,0,1-.44,1.89,8.67,8.67,0,0,1-2.83,2.3,22.88,22.88,0,0,1-8.27,3.25,21.7,21.7,0,0,1-3.46.57h-5a32.88,32.88,0,0,1-4.85-1.22,12.33,12.33,0,0,1-2.54-1.38c-3-2.13-6.36-6.2-7.05-9.92,0-.1-.17-.24-.17-.49V37.39c0-.25.16-.39.16-.58a13.24,13.24,0,0,1,1.35-4.54c1.53-3.35,5.48-6.94,7.85-8.31a12.69,12.69,0,0,1,6.9-2.13"/><path class="cls-2" d="M113,21.92a21.75,21.75,0,0,1,10.41,2.7c0,.08,0,.26.13.32a21,21,0,0,0,1.57,1.47c.15.12.49,0,.67.06a3.41,3.41,0,0,1,1.36.7c.3.29.32.91.46,1.27a4,4,0,0,0,.69.87c.2.26.42.57.63.89a2.31,2.31,0,0,1,.14,1.06c0,2-.44,1.67-2,1.67h-2.23c-.25,0-1.28.44-2,.65-1.85.56-3.85,1-5.81,1.43-.77.16-1.65.47-2.45.63-2.15.43-4.45.6-6.59,1a13.85,13.85,0,0,0-2.64.68c-.51.18-1.25.86-1.49.86s-.12-.1-.2-.13a1,1,0,0,1-1.42-.85c0-.71.77-.79,1-.79.09,0,.65,0,.71.31a25.34,25.34,0,0,1,6-1.56c2.77-.45,5.5-1.36,8.18-2,1.23-.27,2.52-.61,3.81-.89.58-.1,1.28-.19,1.86-.35.17-.05,1.73-.74,1.73-1.19,0-.25-.09-.64-.09-.89s-.6-.64-1-1c-2.47-2.49-5.71-3.35-8.55-3.92-.38-.07-.88-.16-1.26-.2,0,0,.13-.15-.11-.15h-2.93c-.24,0-.06.07-.11.14a11,11,0,0,0-2.72,1c-.43.32-1.09.43-1.57.75A18.35,18.35,0,0,0,105,28.22a16.59,16.59,0,0,0-4.67,7.33,9.91,9.91,0,0,0-.32,1.57v3.51c0,1.35,1.59,4.08,1.88,4.4.49.55,1,1.4,1.57,2.06a10.16,10.16,0,0,0,2.22,2.22A17.71,17.71,0,0,0,109.42,51a10.51,10.51,0,0,0,2.93.53,29.93,29.93,0,0,0,4.12-.2c.59,0,1.26-.4,1.87-.47,3.13-.44,7-3.7,9.9-5.59a3.34,3.34,0,0,1,1.06-.4,3.05,3.05,0,0,1-.3-1.2c0-.85.62-1.67,1.23-1.67s1.32,1.51,1.32,2c0,.25-.29,2-.29,2.26s-.2.1-.2.34.3,1,.3,1.23c0,2.54-1.26,2.89-3.79,4.77-.3.22-.89.39-1.15.55-2.8,1.79-5.85,2.08-8.76,2.74l-6.1.09c-1-.26-2.14-.31-3.25-.66a15.49,15.49,0,0,1-5.3-2.73c-3.2-2.88-5.91-6.56-6.13-9.82-.1-1.37-.1-2.35-.1-2.6s.1-2.92.32-4.28a11.84,11.84,0,0,1,.43-1.18,15.45,15.45,0,0,1,2.82-5.4,31.81,31.81,0,0,1,4.4-4.2A13.9,13.9,0,0,1,113,21.92"/><path class="cls-2" d="M199.43,84.85l4.11,1.3a9.29,9.29,0,0,1-3.14,5.11,9.93,9.93,0,0,1-12.46-1.19,11,11,0,0,1-2.69-7.82c0-3.49.9-6.21,2.71-8.14a9.28,9.28,0,0,1,7.12-2.9,8.74,8.74,0,0,1,6.26,2.28,8.23,8.23,0,0,1,2.14,3.87l-4.19,1a4.34,4.34,0,0,0-4.43-3.53,4.77,4.77,0,0,0-3.79,1.68q-1.45,1.68-1.45,5.43c0,2.66.48,4.54,1.43,5.67a4.66,4.66,0,0,0,3.73,1.69,4.31,4.31,0,0,0,2.91-1.07,6.26,6.26,0,0,0,1.74-3.38"/><path class="cls-2" d="M208.62,71.57h4V75.3h-4Zm0,5.79h4V92.57h-4Z"/><path class="cls-2" d="M225.21,77.36v3.21h-2.75V86.7a15.76,15.76,0,0,0,.08,2.17.85.85,0,0,0,.36.5,1.08,1.08,0,0,0,.68.2,5.43,5.43,0,0,0,1.62-.38l.34,3.12a8,8,0,0,1-3.18.6,5.11,5.11,0,0,1-2-.36,2.89,2.89,0,0,1-1.28-1,3.85,3.85,0,0,1-.57-1.57,18.81,18.81,0,0,1-.13-2.83V80.57h-1.84V77.36h1.84v-3l4-2.35v5.38Z"/><path class="cls-2" d="M227.57,77.36h4.28l3.64,10.8L239,77.36h4.17L237.83,92l-1,2.64a10.68,10.68,0,0,1-1,2,4.47,4.47,0,0,1-1.11,1.14,4.69,4.69,0,0,1-1.53.68,8,8,0,0,1-2,.24,10.76,10.76,0,0,1-2.28-.24l-.36-3.16a8.49,8.49,0,0,0,1.7.19,2.52,2.52,0,0,0,2.08-.82,5.73,5.73,0,0,0,1-2.1Z"/><path class="cls-2" d="M270.33,84.85l4.12,1.3a9.25,9.25,0,0,1-3.15,5.11,9.92,9.92,0,0,1-12.45-1.19,10.93,10.93,0,0,1-2.69-7.82c0-3.49.9-6.21,2.7-8.14a9.31,9.31,0,0,1,7.12-2.9,8.72,8.72,0,0,1,6.26,2.28,8.24,8.24,0,0,1,2.15,3.87l-4.2,1a4.34,4.34,0,0,0-4.43-3.53A4.77,4.77,0,0,0,262,76.51q-1.46,1.68-1.46,5.43c0,2.66.48,4.54,1.43,5.67a4.66,4.66,0,0,0,3.73,1.69,4.29,4.29,0,0,0,2.91-1.07,6.26,6.26,0,0,0,1.74-3.38"/><path class="cls-2" d="M278.59,84.75a8.2,8.2,0,0,1,1-3.88,6.8,6.8,0,0,1,2.8-2.87,8.32,8.32,0,0,1,4.05-1,7.59,7.59,0,0,1,5.65,2.24,8.41,8.41,0,0,1,0,11.39,7.52,7.52,0,0,1-5.6,2.27,9,9,0,0,1-4-.94,6.54,6.54,0,0,1-2.88-2.77,9.29,9.29,0,0,1-1-4.45m4.13.21a5,5,0,0,0,1.07,3.47,3.52,3.52,0,0,0,5.29,0,5.07,5.07,0,0,0,1.07-3.5,5,5,0,0,0-1.07-3.43,3.5,3.5,0,0,0-5.29,0A5,5,0,0,0,282.72,85"/><path class="cls-2" d="M308.92,92.57V90.29a5.83,5.83,0,0,1-2.19,1.92,6.07,6.07,0,0,1-2.85.7,5.57,5.57,0,0,1-2.75-.67,4,4,0,0,1-1.76-1.89,8.36,8.36,0,0,1-.55-3.37V77.36h4v7a19.32,19.32,0,0,0,.22,3.93,2.15,2.15,0,0,0,.81,1.14,2.43,2.43,0,0,0,1.49.42,3.18,3.18,0,0,0,1.85-.56,2.93,2.93,0,0,0,1.11-1.4,16.39,16.39,0,0,0,.3-4.11V77.36h4V92.57Z"/><path class="cls-2" d="M332.13,92.57h-4V84.8a12,12,0,0,0-.26-3.18A2.23,2.23,0,0,0,327,80.5a2.39,2.39,0,0,0-1.4-.41,3.28,3.28,0,0,0-1.88.57,2.86,2.86,0,0,0-1.13,1.52,12.94,12.94,0,0,0-.31,3.5v6.89h-4V77.36H322v2.23A6.1,6.1,0,0,1,327,77a6,6,0,0,1,2.43.48,4.05,4.05,0,0,1,1.67,1.23,4.45,4.45,0,0,1,.79,1.69,12.42,12.42,0,0,1,.22,2.7Z"/><path class="cls-2" d="M350.94,81.85l-4,.72a2.87,2.87,0,0,0-.9-1.79,2.78,2.78,0,0,0-1.85-.6,3,3,0,0,0-2.4,1,5.36,5.36,0,0,0-.89,3.47,6.12,6.12,0,0,0,.91,3.82,3,3,0,0,0,2.44,1.12,2.69,2.69,0,0,0,1.88-.65,3.88,3.88,0,0,0,1-2.24l3.95.67a7,7,0,0,1-2.36,4.11,7.3,7.3,0,0,1-4.69,1.39,7,7,0,0,1-5.32-2.1,8.19,8.19,0,0,1-2-5.83,8.23,8.23,0,0,1,2-5.87,7.07,7.07,0,0,1,5.39-2.1,7.35,7.35,0,0,1,4.42,1.2,6.62,6.62,0,0,1,2.35,3.64"/><path class="cls-2" d="M355.46,71.57h4V75.3h-4Zm0,5.79h4V92.57h-4Z"/><rect class="cls-2" x="365.08" y="71.57" width="4.02" height="21"/></svg>