<?xml version="1.0" encoding="UTF-8"?><svg id="a" xmlns="http://www.w3.org/2000/svg" viewBox="0 0 120 50"><defs><style>.b{opacity:.6;}.b,.c{fill:#fff;stroke-width:0px;}</style></defs><path class="c" d="m18.43,13.74h7.77c5.07,0,7.55,3.05,7.55,7.06s-2.5,7.08-7.56,7.08h-4.47v7.67h-3.29V13.74Zm7.47,11.35c3.22,0,4.55-1.82,4.55-4.29s-1.33-4.24-4.59-4.24h-4.13v8.53h4.17Z"/><path class="c" d="m40.11,35.55h-3.18V13.74h3.18v21.81Z"/><path class="c" d="m43.21,30.93c0-3.72,3.17-4.53,6.27-4.89,2.94-.34,4.13-.32,4.13-1.48v-.07c0-1.85-1.05-2.93-3.11-2.93s-3.33,1.12-3.8,2.28l-2.99-.68c1.06-2.98,3.79-4.17,6.75-4.17,2.6,0,6.35.95,6.35,5.71v10.86h-3.11v-2.24h-.13c-.61,1.23-2.13,2.6-4.83,2.6-3.11,0-5.53-1.77-5.53-4.98Zm10.42-1.28v-2.11c-.46.46-2.91.73-3.94.87-1.84.24-3.35.85-3.35,2.56,0,1.58,1.3,2.39,3.1,2.39,2.65,0,4.2-1.77,4.2-3.71Z"/><path class="c" d="m63.82,35.55h-3.18v-16.36h3.06v2.66h.2c.76-1.74,2.36-2.88,4.82-2.88,3.34,0,5.57,2.12,5.57,6.17v10.41h-3.18v-10.02c0-2.38-1.31-3.79-3.47-3.79s-3.81,1.49-3.81,4.1v9.71Z"/><polygon class="b" points="99.56 17.06 97.44 14.94 89 23.38 80.56 14.94 78.44 17.06 86.88 25.5 78.44 33.94 80.56 36.06 89 27.62 97.44 36.06 99.56 33.94 91.12 25.5 99.56 17.06"/></svg>