<?xml version="1.0" encoding="utf-8"?>
<!-- Generator: Adobe Illustrator 27.3.1, SVG Export Plug-In . SVG Version: 6.00 Build 0)  -->
<svg version="1.1" id="Layer_1" focusable="false" xmlns="http://www.w3.org/2000/svg" xmlns:xlink="http://www.w3.org/1999/xlink"
	 x="0px" y="0px" viewBox="0 0 439 84.2" style="enable-background:new 0 0 439 84.2;" xml:space="preserve">
<style type="text/css">
	.st0{fill:#FFFFFF;}
</style>
<g>
	<path class="st0" d="M280.4,57.9c-2.2-0.7-3.6-2.7-3.4-5v-2.6c0-2.7,2.2-4.9,5.7-4.1c3.8,1.1,7.7,1.7,11.7,1.8
		c4.8,0,6.9-0.9,6.9-3.3s-1.6-3-4.7-3.3c-14.7-1.3-18.8-5.2-18.8-14.9c0-9.5,6.1-15.8,20.5-15.8c5.4,0,10.9,0.8,13.2,1.5
		c2.2,0.7,3.7,2.7,3.6,5v2.6c0,2.7-2.4,4.9-5.9,4.1c-3.3-0.9-6.7-1.3-10.2-1.3c-4.2,0-6.6,0.9-6.6,3.3s1.5,3,4.6,3.3
		c14.7,1.3,18.8,5.2,18.8,14.9c0,9-5.3,15.8-21.1,15.8C289.9,59.8,285.1,59.1,280.4,57.9z"/>
	<path class="st0" d="M344.5,47c1.9,0,3.7-0.2,5.5-0.7c3.7-0.8,6,1.4,6,4.1v3.1c0,2.7-1.1,4.3-3.5,5c-3.1,0.9-6.3,1.4-9.5,1.3
		c-17.1,0-23.5-8.8-23.5-24.6s6.3-24.6,23.5-24.6c3.2-0.1,6.5,0.4,9.6,1.3c2.3,0.8,3.5,2.3,3.5,5V20c0,2.7-2.2,4.9-6,4.1
		c-1.8-0.4-3.6-0.7-5.5-0.6c-6.1,0-10.4,2.9-10.4,11.7S338.4,47,344.5,47z"/>
	<path class="st0" d="M358.4,35.2c0-14.5,4.7-24.6,21.9-24.6s21.9,10.1,21.9,24.6s-4.7,24.6-21.9,24.6S358.4,49.8,358.4,35.2z
		 M373.3,35.2c0,9.3,1.9,12.7,7,12.7s7-3.3,7-12.7s-1.9-12.7-7-12.7S373.3,25.9,373.3,35.2L373.3,35.2z"/>
	<path class="st0" d="M412,6.2c0-2.7,1.2-3.7,4.5-4.7l4.9-1.3c3.9-1,5.6,0.9,5.6,3.8v8h7.2c2.9,0,4.7,1.3,4.7,4.2V20
		c0,2.9-1.8,4-4.7,4H427v18.1c0,3.6,1.4,5.9,6.1,5.9h0.9c2-0.2,3.7,1.3,3.9,3.3c0,0.1,0,0.3,0,0.4v3.1c0.1,2.3-1.5,4.2-3.7,4.7
		c-1.4,0.3-2.8,0.4-4.2,0.4c-13.2,0-18-5.5-18-16.5V24h-3.5c-2.9,0-4.5-1.1-4.5-4v-2.1c0-2.4,1.1-3.6,3.8-4.4l4.2-1.1L412,6.2z"/>
	<path class="st0" d="M68,54.7c0,3-1.3,4.3-4.1,4.3h-6.6c-2.8,0-4.3-1.3-4.3-4.3V26.4c0-2.5-1.2-3.8-4.1-3.8c-2.5,0-4.9,0.9-6.9,2.5
		v29.7c0,3-1.7,4.3-4.6,4.3h-6.6C28,59,26,57.7,26,54.7V26.4c0-2.5-1.2-3.8-4.1-3.8c-2.5,0-4.9,0.9-6.9,2.5v29.7
		c0,3-1.3,4.3-4.2,4.3H4.3c-3,0-4.3-1.3-4.3-4.3V15.9C0,13,1.4,12,4.3,12h2.4c2.1,0,2.8,0.6,4.3,3.2c3.4-3,10-4.9,14.9-4.9
		c6.4,0,9.5,1.6,11,3.8c3.4-2.6,9.6-3.9,15.3-3.9c12.4,0,15.8,7.4,15.8,16V54.7z"/>
	<path class="st0" d="M93.9,78.6c-1.1,2.8-2.8,4.4-6.1,4.4h-5.5c-3.5,0-5.3-3.2-3.7-6.7l9.3-20.2L71.8,18.5C70.3,15,72.3,12,75.9,12
		H81c3.3,0,4.9,1.4,5.9,4.1l8.8,24.7l7.8-24.7c0.9-2.9,2.6-4.2,5.9-4.2h5.1c3.5,0,5.5,2.9,4.1,6.5L93.9,78.6z"/>
	<path class="st0" d="M163.4,23.2c0.3,1.7,0.5,3.5,0.5,5.2c0,12-6.7,18.3-21.4,18.3c-1.6,0-3.2,0-4.9-0.2c-0.4,0.5-0.7,1.1-0.7,1.8
		c0,1,0.6,1.5,1.9,1.7l18.4,2.4c10,1.3,12.9,6.3,12.9,14c0,12.8-14.8,17.8-29.3,17.8c-12,0-22.6-3.7-22.6-12.9
		c0-6.5,5-10.5,9.9-11.5c-2.8-1.5-4.5-4.5-4.4-7.7c0-2.7,2-6,5-8.2c-5.2-3-7.7-8.1-7.7-15.4c0-12,6.7-18,21.4-18
		c4.4,0,7.7-0.4,11.1,1.6h11.7c2.9,0,4.8,1,4.8,3.9v2c0,2.8-1.5,4-4.3,4.8L163.4,23.2z M135.9,62.4c-2.1,0.7-3.5,2.6-3.7,4.9
		c0,3.4,2.6,5.6,10.1,5.6c7.2,0,12.7-2.5,12.7-5.6c0-1.5-0.8-2.5-2.7-2.8L135.9,62.4z M142.5,35.5c4.7,0,6.9-2.4,6.9-7s-2.3-7-6.9-7
		s-6.9,2.4-6.9,7S137.8,35.5,142.5,35.5L142.5,35.5z"/>
	<path class="st0" d="M171.1,35.3c0-14.8,4.8-25.1,22.4-25.1s22.4,10.3,22.4,25.1s-4.8,25.1-22.4,25.1S171.1,50.2,171.1,35.3z
		 M186.3,35.3c0,9.5,1.9,12.9,7.1,12.9s7.1-3.4,7.1-12.9s-1.9-12.9-7.1-12.9S186.3,25.8,186.3,35.3L186.3,35.3z"/>
	<path class="st0" d="M239.4,60c-4,0-5.4-1.5-6.9-5.1l-14.8-36.2c-1.6-4,0.5-6.7,4-6.7h4.7c3.3,0,4.9,1.4,5.8,4.1l8.9,25l8.9-24.9
		c1-2.8,2.5-4.2,5.8-4.2h4.7c3.5,0,5.6,2.6,4,6.6l-15,36.4c-1.4,3.6-2.9,5-6.9,5H239.4z"/>
	<circle class="st0" cx="264.8" cy="53.4" r="6.2"/>
</g>
</svg>
