<?xml version="1.0" encoding="UTF-8"?>
<!DOCTYPE svg PUBLIC "-//W3C//DTD SVG 1.1//EN" "http://www.w3.org/Graphics/SVG/1.1/DTD/svg11.dtd">
<svg xmlns="http://www.w3.org/2000/svg" version="1.1" width="1234px" height="524px" style="shape-rendering:geometricPrecision; text-rendering:geometricPrecision; image-rendering:optimizeQuality; fill-rule:evenodd; clip-rule:evenodd" xmlns:xlink="http://www.w3.org/1999/xlink">
<g><path style="opacity:0.953" fill="#003299" d="M 435.5,116.5 C 444.173,116.334 452.84,116.5 461.5,117C 483.082,120.411 494.749,132.911 496.5,154.5C 485.833,154.5 475.167,154.5 464.5,154.5C 464.858,150.05 463.192,146.55 459.5,144C 451.929,140.18 444.262,139.847 436.5,143C 430.459,149.37 431.459,154.37 439.5,158C 452.354,161.046 465.02,164.713 477.5,169C 500.538,180.091 506.371,197.257 495,220.5C 485.959,231.773 474.125,237.94 459.5,239C 442.727,241.378 427.06,238.378 412.5,230C 401.659,221.483 396.325,210.317 396.5,196.5C 407.167,196.5 417.833,196.5 428.5,196.5C 429.004,206.172 434.004,212.005 443.5,214C 449.237,214.789 454.903,214.456 460.5,213C 467.507,210.307 469.674,205.473 467,198.5C 464.92,196.877 462.754,195.377 460.5,194C 449.167,190.667 437.833,187.333 426.5,184C 401.921,175.011 394.754,158.511 405,134.5C 413.123,125.023 423.289,119.023 435.5,116.5 Z"/></g>
<g><path style="opacity:0.94" fill="#003299" d="M 640.5,118.5 C 651.415,118.18 662.248,118.513 673,119.5C 687.197,157.089 701.197,194.756 715,232.5C 715.5,194.501 715.667,156.501 715.5,118.5C 725.5,118.5 735.5,118.5 745.5,118.5C 745.5,158.167 745.5,197.833 745.5,237.5C 724.823,237.833 704.156,237.5 683.5,236.5C 680.97,230.244 678.637,223.91 676.5,217.5C 662.85,216.501 649.183,216.167 635.5,216.5C 633.864,223.576 631.53,230.409 628.5,237C 617.839,237.5 607.172,237.667 596.5,237.5C 610.378,197.532 625.045,157.865 640.5,118.5 Z M 655.5,153.5 C 660.103,165.806 664.437,178.306 668.5,191C 660.507,191.5 652.507,191.666 644.5,191.5C 648.169,178.827 651.836,166.161 655.5,153.5 Z"/></g>
<g><path style="opacity:0.943" fill="#003299" d="M 754.5,118.5 C 764.5,118.5 774.5,118.5 784.5,118.5C 784.333,131.504 784.5,144.504 785,157.5C 798.57,145.708 813.07,144.541 828.5,154C 840.055,163.985 845.388,176.651 844.5,192C 845.461,209.155 839.461,223.155 826.5,234C 814.304,240.849 801.97,241.182 789.5,235C 787.333,232.833 785.167,230.667 783,228.5C 782.502,231.482 782.335,234.482 782.5,237.5C 773.167,237.5 763.833,237.5 754.5,237.5C 754.5,197.833 754.5,158.167 754.5,118.5 Z M 796.5,170.5 C 807.582,170.746 813.748,176.413 815,187.5C 816.476,196.593 814.643,204.926 809.5,212.5C 803.234,217.235 796.567,217.735 789.5,214C 786.333,210.845 784.499,207.012 784,202.5C 782.898,194.321 783.565,186.321 786,178.5C 788.539,174.49 792.039,171.824 796.5,170.5 Z"/></g>
<g><path style="opacity:1" fill="#0b3b9c" d="M 159.5,119.5 C 209.833,119.5 260.167,119.5 310.5,119.5C 308.167,122.167 305.833,124.833 303.5,127.5C 303.5,128.167 303.167,128.5 302.5,128.5C 257.5,128.5 212.5,128.5 167.5,128.5C 166.833,128.167 166.167,127.833 165.5,127.5C 163.091,125.098 161.091,122.431 159.5,119.5 Z"/></g>
<g><path style="opacity:1" fill="#fbbc2c" d="M 159.5,119.5 C 161.091,122.431 163.091,125.098 165.5,127.5C 152.31,126.804 139.31,127.971 126.5,131C 125.513,141.752 125.18,152.585 125.5,163.5C 122.14,160.806 119.14,157.806 116.5,154.5C 116.5,142.833 116.5,131.167 116.5,119.5C 130.833,119.5 145.167,119.5 159.5,119.5 Z"/></g>
<g><path style="opacity:1" fill="#fbbd2c" d="M 310.5,119.5 C 324.5,119.5 338.5,119.5 352.5,119.5C 352.5,131.5 352.5,143.5 352.5,155.5C 349.14,158.194 346.14,161.194 343.5,164.5C 344.384,152.034 343.051,139.867 339.5,128C 327.505,127.5 315.505,127.333 303.5,127.5C 305.833,124.833 308.167,122.167 310.5,119.5 Z"/></g>
<g><path style="opacity:0.95" fill="#003299" d="M 513.5,124.5 C 523.167,124.5 532.833,124.5 542.5,124.5C 542.5,133.167 542.5,141.833 542.5,150.5C 548.5,150.5 554.5,150.5 560.5,150.5C 560.5,156.833 560.5,163.167 560.5,169.5C 554.5,169.5 548.5,169.5 542.5,169.5C 542.333,183.171 542.5,196.837 543,210.5C 543.833,212.667 545.333,214.167 547.5,215C 551.821,215.499 556.154,215.666 560.5,215.5C 560.813,222.755 560.48,229.921 559.5,237C 550.024,238.263 540.691,238.263 531.5,237C 521.251,235.082 515.417,228.916 514,218.5C 513.5,202.17 513.333,185.837 513.5,169.5C 508.833,169.5 504.167,169.5 499.5,169.5C 499.5,163.167 499.5,156.833 499.5,150.5C 504.167,150.5 508.833,150.5 513.5,150.5C 513.5,141.833 513.5,133.167 513.5,124.5 Z"/></g>
<g><path style="opacity:1" fill="#1b49a2" d="M 167.5,128.5 C 212.5,128.5 257.5,128.5 302.5,128.5C 300.5,131.167 298.167,133.5 295.5,135.5C 254.833,135.5 214.167,135.5 173.5,135.5C 171.5,133.167 169.5,130.833 167.5,128.5 Z"/></g>
<g><path style="opacity:1" fill="#2954a6" d="M 173.5,135.5 C 214.167,135.5 254.833,135.5 295.5,135.5C 294.5,137.167 293.167,138.5 291.5,139.5C 253.5,139.5 215.5,139.5 177.5,139.5C 175.833,138.5 174.5,137.167 173.5,135.5 Z"/></g>
<g><path style="opacity:1" fill="#fcc918" d="M 165.5,127.5 C 166.167,127.833 166.833,128.167 167.5,128.5C 169.5,130.833 171.5,133.167 173.5,135.5C 174.5,137.167 175.833,138.5 177.5,139.5C 177.5,139.833 177.5,140.167 177.5,140.5C 164.427,138.42 152.76,141.42 142.5,149.5C 142,150.5 141.5,151.5 141,152.5C 140.5,161.494 140.334,170.494 140.5,179.5C 134.795,174.796 129.795,169.463 125.5,163.5C 125.18,152.585 125.513,141.752 126.5,131C 139.31,127.971 152.31,126.804 165.5,127.5 Z"/></g>
<g><path style="opacity:1" fill="#fcc917" d="M 303.5,127.5 C 315.505,127.333 327.505,127.5 339.5,128C 343.051,139.867 344.384,152.034 343.5,164.5C 338.472,169.86 333.472,175.193 328.5,180.5C 328.666,172.493 328.5,164.493 328,156.5C 326.368,150.07 322.868,144.903 317.5,141C 308.84,140.5 300.173,140.334 291.5,140.5C 291.5,140.167 291.5,139.833 291.5,139.5C 293.167,138.5 294.5,137.167 295.5,135.5C 298.167,133.5 300.5,131.167 302.5,128.5C 303.167,128.5 303.5,128.167 303.5,127.5 Z"/></g>
<g><path style="opacity:1" fill="#355fab" d="M 177.5,140.5 C 177.5,140.167 177.5,139.833 177.5,139.5C 215.5,139.5 253.5,139.5 291.5,139.5C 291.5,139.833 291.5,140.167 291.5,140.5C 289.5,142.5 287.5,144.5 285.5,146.5C 251.996,146.168 218.662,146.502 185.5,147.5C 182.833,145.167 180.167,142.833 177.5,140.5 Z"/></g>
<g><path style="opacity:1" fill="#fdd502" d="M 177.5,140.5 C 180.167,142.833 182.833,145.167 185.5,147.5C 201.472,165.473 217.805,183.14 234.5,200.5C 251.961,182.892 268.961,164.892 285.5,146.5C 287.5,144.5 289.5,142.5 291.5,140.5C 300.173,140.334 308.84,140.5 317.5,141C 322.868,144.903 326.368,150.07 328,156.5C 328.5,164.493 328.666,172.493 328.5,180.5C 310.039,200.797 291.372,220.963 272.5,241C 273.733,242.667 275.067,244.167 276.5,245.5C 289.496,259.829 302.829,273.829 316.5,287.5C 317.167,288.833 317.833,290.167 318.5,291.5C 311.636,309.002 301.969,324.668 289.5,338.5C 270.824,319.824 252.491,300.824 234.5,281.5C 216.478,300.52 198.478,319.52 180.5,338.5C 168.622,326.447 159.455,312.447 153,296.5C 152.187,294.564 151.687,292.564 151.5,290.5C 151.833,289.833 152.167,289.167 152.5,288.5C 166.207,275.128 179.207,261.128 191.5,246.5C 193.63,244.873 195.63,243.04 197.5,241C 178.294,220.63 159.294,200.13 140.5,179.5C 140.334,170.494 140.5,161.494 141,152.5C 141.5,151.5 142,150.5 142.5,149.5C 152.76,141.42 164.427,138.42 177.5,140.5 Z"/></g>
<g><path style="opacity:1" fill="#3e67ae" d="M 285.5,146.5 C 268.961,164.892 251.961,182.892 234.5,200.5C 217.805,183.14 201.472,165.473 185.5,147.5C 218.662,146.502 251.996,146.168 285.5,146.5 Z"/></g>
<g><path style="opacity:0.938" fill="#003299" d="M 887.5,147.5 C 899.359,147.093 910.692,149.26 921.5,154C 927.441,158.383 930.941,164.216 932,171.5C 932.333,189.833 932.667,208.167 933,226.5C 933.737,230.207 934.571,233.873 935.5,237.5C 925.828,237.666 916.161,237.5 906.5,237C 905.745,234.825 904.912,232.659 904,230.5C 892.455,239.258 879.621,241.758 865.5,238C 850.684,232.211 844.851,221.378 848,205.5C 851.082,196.751 857.082,191.085 866,188.5C 877.411,185.87 888.911,183.703 900.5,182C 905.398,178.478 905.731,174.478 901.5,170C 895.645,167.148 889.645,166.815 883.5,169C 880.495,171.346 878.495,174.346 877.5,178C 868.506,178.5 859.506,178.666 850.5,178.5C 851.191,164.939 857.858,155.773 870.5,151C 876.229,149.432 881.896,148.265 887.5,147.5 Z M 903.5,197.5 C 904.708,204.871 903.041,211.704 898.5,218C 891.553,221.461 884.719,221.295 878,217.5C 875.774,212.973 876.274,208.807 879.5,205C 887.436,201.925 895.436,199.425 903.5,197.5 Z"/></g>
<g><path style="opacity:0.93" fill="#003299" d="M 993.5,147.5 C 1013.63,146.483 1025.13,155.816 1028,175.5C 1028.5,196.164 1028.67,216.831 1028.5,237.5C 1018.5,237.5 1008.5,237.5 998.5,237.5C 998.667,218.497 998.5,199.497 998,180.5C 996.076,174.456 991.909,171.79 985.5,172.5C 978.243,172.719 973.743,176.386 972,183.5C 971.5,201.497 971.333,219.497 971.5,237.5C 961.5,237.5 951.5,237.5 941.5,237.5C 941.5,208.5 941.5,179.5 941.5,150.5C 951.167,150.5 960.833,150.5 970.5,150.5C 970.335,153.518 970.502,156.518 971,159.5C 977.239,152.966 984.739,148.966 993.5,147.5 Z"/></g>
<g><path style="opacity:0.94" fill="#003299" d="M 1069.5,147.5 C 1080.22,147.297 1090.55,149.13 1100.5,153C 1109.4,158.29 1114.06,166.123 1114.5,176.5C 1105.49,176.666 1096.49,176.5 1087.5,176C 1085.89,169.269 1081.56,166.436 1074.5,167.5C 1069.45,166.694 1065.78,168.527 1063.5,173C 1064.83,175.667 1066.83,177.667 1069.5,179C 1080.48,181.774 1091.48,184.441 1102.5,187C 1116.11,194.468 1120.27,205.635 1115,220.5C 1108.36,231.577 1098.53,237.744 1085.5,239C 1070.48,241.275 1056.48,238.609 1043.5,231C 1036.38,224.811 1033.05,216.977 1033.5,207.5C 1042.83,207.5 1052.17,207.5 1061.5,207.5C 1062.23,215.89 1066.89,220.223 1075.5,220.5C 1079.94,220.081 1083.77,218.414 1087,215.5C 1088.89,210.004 1087.06,206.504 1081.5,205C 1072.83,203 1064.17,201 1055.5,199C 1035.04,192.581 1029.54,179.748 1039,160.5C 1047.63,152.432 1057.8,148.098 1069.5,147.5 Z"/></g>
<g><path style="opacity:0.966" fill="#083699" d="M 116.5,154.5 C 119.14,157.806 122.14,160.806 125.5,163.5C 129.795,169.463 134.795,174.796 140.5,179.5C 159.294,200.13 178.294,220.63 197.5,241C 195.63,243.04 193.63,244.873 191.5,246.5C 175.5,229.5 159.5,212.5 143.5,195.5C 141.138,192.808 138.804,190.141 136.5,187.5C 132.537,183.036 128.37,178.702 124,174.5C 123.531,197.48 123.364,220.313 123.5,243C 125.041,264.206 129.708,284.706 137.5,304.5C 135.5,306.833 133.5,309.167 131.5,311.5C 123.764,295.444 118.931,278.444 117,260.5C 116.5,225.168 116.333,189.835 116.5,154.5 Z"/></g>
<g><path style="opacity:0.971" fill="#093699" d="M 352.5,155.5 C 352.667,191.502 352.5,227.502 352,263.5C 349.672,280.15 345.172,296.15 338.5,311.5C 336.5,310.167 334.833,308.5 333.5,306.5C 333.855,303.933 334.521,301.433 335.5,299C 335.355,298.228 335.022,297.561 334.5,297C 340.425,281.045 343.925,264.545 345,247.5C 345.833,223.493 345.666,199.493 344.5,175.5C 342.146,177.188 340.146,179.188 338.5,181.5C 336.529,183.808 334.529,186.142 332.5,188.5C 329.833,190.5 327.5,192.833 325.5,195.5C 310.2,211.637 295.033,227.97 280,244.5C 278.989,245.337 277.822,245.67 276.5,245.5C 275.067,244.167 273.733,242.667 272.5,241C 291.372,220.963 310.039,200.797 328.5,180.5C 333.472,175.193 338.472,169.86 343.5,164.5C 346.14,161.194 349.14,158.194 352.5,155.5 Z"/></g>
<g><path style="opacity:1" fill="#13429f" d="M 333.5,306.5 C 333.167,306.5 332.833,306.5 332.5,306.5C 331.079,303.991 329.412,301.657 327.5,299.5C 333.532,283.37 337.365,266.704 339,249.5C 339.83,226.663 339.663,203.996 338.5,181.5C 340.146,179.188 342.146,177.188 344.5,175.5C 345.666,199.493 345.833,223.493 345,247.5C 343.925,264.545 340.425,281.045 334.5,297C 335.022,297.561 335.355,298.228 335.5,299C 334.521,301.433 333.855,303.933 333.5,306.5 Z"/></g>
<g><path style="opacity:1" fill="#1846a1" d="M 136.5,187.5 C 135.338,206.996 135.171,226.662 136,246.5C 136.72,253.21 137.72,259.876 139,266.5C 140.757,275.87 143.591,284.87 147.5,293.5C 146.221,296.112 144.555,298.445 142.5,300.5C 140.833,301.833 139.167,303.167 137.5,304.5C 129.708,284.706 125.041,264.206 123.5,243C 123.364,220.313 123.531,197.48 124,174.5C 128.37,178.702 132.537,183.036 136.5,187.5 Z"/></g>
<g><path style="opacity:1" fill="#1e4ca3" d="M 338.5,181.5 C 339.663,203.996 339.83,226.663 339,249.5C 337.365,266.704 333.532,283.37 327.5,299.5C 326.167,298.5 324.833,297.5 323.5,296.5C 323.167,295.833 322.833,295.167 322.5,294.5C 327.377,279.535 330.877,264.202 333,248.5C 333.829,228.329 333.662,208.329 332.5,188.5C 334.529,186.142 336.529,183.808 338.5,181.5 Z"/></g>
<g><path style="opacity:1" fill="#2956a7" d="M 136.5,187.5 C 138.804,190.141 141.138,192.808 143.5,195.5C 140.083,227.002 143.083,258.002 152.5,288.5C 152.167,289.167 151.833,289.833 151.5,290.5C 150.167,291.5 148.833,292.5 147.5,293.5C 143.591,284.87 140.757,275.87 139,266.5C 137.72,259.876 136.72,253.21 136,246.5C 135.171,226.662 135.338,206.996 136.5,187.5 Z"/></g>
<g><path style="opacity:1" fill="#2c58a8" d="M 332.5,188.5 C 333.662,208.329 333.829,228.329 333,248.5C 330.877,264.202 327.377,279.535 322.5,294.5C 321.167,293.5 319.833,292.5 318.5,291.5C 317.833,290.167 317.167,288.833 316.5,287.5C 326.176,257.38 329.176,226.713 325.5,195.5C 327.5,192.833 329.833,190.5 332.5,188.5 Z"/></g>
<g><path style="opacity:1" fill="#3c65ae" d="M 143.5,195.5 C 159.5,212.5 175.5,229.5 191.5,246.5C 179.207,261.128 166.207,275.128 152.5,288.5C 143.083,258.002 140.083,227.002 143.5,195.5 Z"/></g>
<g><path style="opacity:1" fill="#3c65ae" d="M 325.5,195.5 C 329.176,226.713 326.176,257.38 316.5,287.5C 302.829,273.829 289.496,259.829 276.5,245.5C 277.822,245.67 278.989,245.337 280,244.5C 295.033,227.97 310.2,211.637 325.5,195.5 Z"/></g>
<g><path style="opacity:0.887" fill="#003299" d="M 414.5,262.5 C 428.035,260.248 436.535,265.581 440,278.5C 440.498,281.482 440.665,284.482 440.5,287.5C 435.5,287.5 430.5,287.5 425.5,287.5C 426.161,282.716 425.161,278.382 422.5,274.5C 419.097,272.813 416.264,273.48 414,276.5C 411.552,287.361 410.885,298.361 412,309.5C 412.489,312.982 413.655,316.149 415.5,319C 419.781,320.458 422.947,319.292 425,315.5C 426.015,311.56 426.515,307.56 426.5,303.5C 431.167,303.5 435.833,303.5 440.5,303.5C 442.144,324.689 432.477,333.523 411.5,330C 402.988,326.825 398.488,320.658 398,311.5C 397.113,299.784 397.446,288.117 399,276.5C 401.64,268.946 406.806,264.279 414.5,262.5 Z"/></g>
<g><path style="opacity:0.878" fill="#003299" d="M 887.5,262.5 C 905.321,260.657 914.321,268.657 914.5,286.5C 909.544,287.494 904.544,287.827 899.5,287.5C 899.965,283.208 899.132,279.208 897,275.5C 890.618,272.193 886.952,274.193 886,281.5C 885.333,291.5 885.333,301.5 886,311.5C 886.623,318.807 890.29,321.14 897,318.5C 899.235,313.777 900.069,308.777 899.5,303.5C 904.5,303.5 909.5,303.5 914.5,303.5C 914.553,327.266 903.22,335.433 880.5,328C 873.989,322.806 870.822,315.973 871,307.5C 870.224,298.126 870.558,288.793 872,279.5C 873.596,270.41 878.763,264.744 887.5,262.5 Z"/></g>
<g><path style="opacity:0.799" fill="#003299" d="M 443.5,263.5 C 448.167,263.5 452.833,263.5 457.5,263.5C 457.5,267.5 457.5,271.5 457.5,275.5C 452.833,275.5 448.167,275.5 443.5,275.5C 443.5,271.5 443.5,267.5 443.5,263.5 Z"/></g>
<g><path style="opacity:0.755" fill="#003299" d="M 659.5,263.5 C 664.5,263.5 669.5,263.5 674.5,263.5C 674.5,267.5 674.5,271.5 674.5,275.5C 669.821,275.666 665.155,275.499 660.5,275C 659.54,271.27 659.207,267.437 659.5,263.5 Z"/></g>
<g><path style="opacity:0.797" fill="#003299" d="M 768.5,263.5 C 773.167,263.5 777.833,263.5 782.5,263.5C 782.5,267.5 782.5,271.5 782.5,275.5C 777.833,275.5 773.167,275.5 768.5,275.5C 768.5,271.5 768.5,267.5 768.5,263.5 Z"/></g>
<g><path style="opacity:0.855" fill="#003299" d="M 1081.5,263.5 C 1085.83,263.5 1090.17,263.5 1094.5,263.5C 1094.5,267.5 1094.5,271.5 1094.5,275.5C 1090.17,275.5 1085.83,275.5 1081.5,275.5C 1081.5,271.5 1081.5,267.5 1081.5,263.5 Z"/></g>
<g><path style="opacity:0.897" fill="#003299" d="M 554.5,264.5 C 559.511,264.334 564.511,264.501 569.5,265C 577.846,268.529 580.679,274.696 578,283.5C 575.55,288.284 572.05,292.117 567.5,295C 570.333,298.5 573.167,302 576,305.5C 577.375,303.063 577.875,300.397 577.5,297.5C 581.833,297.5 586.167,297.5 590.5,297.5C 590.74,304.709 588.74,311.209 584.5,317C 586.957,320.961 589.624,324.794 592.5,328.5C 587.533,329.662 582.533,329.829 577.5,329C 576.333,327.833 575.167,326.667 574,325.5C 569.772,329.445 564.772,331.112 559,330.5C 543.423,330.041 536.756,322.041 539,306.5C 541.441,300.392 545.608,295.892 551.5,293C 541.359,282.063 542.359,272.563 554.5,264.5 Z M 559.5,273.5 C 566.375,273.307 568.209,276.307 565,282.5C 562.14,286.583 559.807,286.25 558,281.5C 557.133,278.479 557.633,275.812 559.5,273.5 Z M 556.5,302.5 C 558.017,302.511 559.184,303.177 560,304.5C 562.333,307.833 564.667,311.167 567,314.5C 567.749,315.635 567.583,316.635 566.5,317.5C 557.12,321.455 552.62,318.455 553,308.5C 553.926,306.308 555.093,304.308 556.5,302.5 Z"/></g>
<g><path style="opacity:0.897" fill="#003299" d="M 612.5,264.5 C 622.839,264.334 633.172,264.5 643.5,265C 649.492,267.659 653.325,272.159 655,278.5C 656.976,290.492 656.976,302.492 655,314.5C 653.577,322.254 649.077,327.088 641.5,329C 631.839,329.5 622.172,329.666 612.5,329.5C 612.5,307.833 612.5,286.167 612.5,264.5 Z M 627.5,275.5 C 630.85,275.335 634.183,275.502 637.5,276C 640.169,279.336 641.669,283.169 642,287.5C 643.246,297.438 642.246,307.105 639,316.5C 635.417,318.29 631.584,318.957 627.5,318.5C 627.5,304.167 627.5,289.833 627.5,275.5 Z"/></g>
<g><path style="opacity:0.896" fill="#003299" d="M 1100.5,264.5 C 1105.17,264.5 1109.83,264.5 1114.5,264.5C 1114.5,286.167 1114.5,307.833 1114.5,329.5C 1109.83,329.5 1105.17,329.5 1100.5,329.5C 1100.5,307.833 1100.5,286.167 1100.5,264.5 Z"/></g>
<g><path style="opacity:0.876" fill="#003299" d="M 464.5,266.5 C 469.167,266.5 473.833,266.5 478.5,266.5C 478.5,270.833 478.5,275.167 478.5,279.5C 485.422,279.188 492.256,279.521 499,280.5C 501.001,289.836 503.001,299.169 505,308.5C 507.693,299.01 509.526,289.343 510.5,279.5C 515.167,279.5 519.833,279.5 524.5,279.5C 520.533,300.235 515.033,320.569 508,340.5C 506.048,342.894 503.548,344.394 500.5,345C 496.514,345.499 492.514,345.666 488.5,345.5C 488.177,341.774 488.511,338.107 489.5,334.5C 494.257,335.781 497.257,333.948 498.5,329C 494.261,315.218 490.095,301.385 486,287.5C 483.894,289.291 481.394,289.958 478.5,289.5C 478.334,298.839 478.5,308.173 479,317.5C 481.106,319.291 483.606,319.958 486.5,319.5C 486.5,322.833 486.5,326.167 486.5,329.5C 479.7,331.322 473.2,330.655 467,327.5C 466.138,325.913 465.471,324.246 465,322.5C 464.5,311.505 464.333,300.505 464.5,289.5C 462.5,289.5 460.5,289.5 458.5,289.5C 458.5,286.167 458.5,282.833 458.5,279.5C 460.5,279.5 462.5,279.5 464.5,279.5C 464.5,275.167 464.5,270.833 464.5,266.5 Z"/></g>
<g><path style="opacity:0.883" fill="#003299" d="M 718.5,266.5 C 723.167,266.5 727.833,266.5 732.5,266.5C 732.5,270.833 732.5,275.167 732.5,279.5C 734.833,279.5 737.167,279.5 739.5,279.5C 739.5,282.833 739.5,286.167 739.5,289.5C 737.167,289.5 734.833,289.5 732.5,289.5C 732.334,299.172 732.5,308.839 733,318.5C 735.041,319.423 737.208,319.756 739.5,319.5C 739.5,322.833 739.5,326.167 739.5,329.5C 734.871,330.481 730.204,330.648 725.5,330C 723.413,329.208 721.579,328.041 720,326.5C 718.561,314.242 718.061,301.909 718.5,289.5C 716.5,289.5 714.5,289.5 712.5,289.5C 712.5,291.5 712.5,293.5 712.5,295.5C 708.167,295.5 703.833,295.5 699.5,295.5C 700.169,290 697.835,287.833 692.5,289C 688.524,291.617 688.524,294.284 692.5,297C 697.243,298.47 701.909,300.136 706.5,302C 712.588,306.252 714.754,312.085 713,319.5C 711.526,324.974 708.026,328.474 702.5,330C 696.083,330.87 689.749,330.536 683.5,329C 677.5,325.156 675.166,319.656 676.5,312.5C 680.5,312.5 684.5,312.5 688.5,312.5C 688.575,319.955 692.075,322.288 699,319.5C 699.814,317.098 699.647,314.765 698.5,312.5C 693.127,310.431 687.793,308.264 682.5,306C 675.523,299.209 674.69,291.709 680,283.5C 686.419,278.817 693.586,277.317 701.5,279C 706.598,280.433 710.098,283.6 712,288.5C 712.498,285.518 712.665,282.518 712.5,279.5C 714.5,279.5 716.5,279.5 718.5,279.5C 718.5,275.167 718.5,270.833 718.5,266.5 Z"/></g>
<g><path style="opacity:0.883" fill="#003299" d="M 827.5,266.5 C 832.167,266.5 836.833,266.5 841.5,266.5C 841.5,270.833 841.5,275.167 841.5,279.5C 843.833,279.5 846.167,279.5 848.5,279.5C 848.5,282.833 848.5,286.167 848.5,289.5C 846.167,289.5 843.833,289.5 841.5,289.5C 841.334,298.839 841.5,308.173 842,317.5C 843.754,319.25 845.921,319.917 848.5,319.5C 849.029,323.351 848.362,326.851 846.5,330C 840.655,331.138 835.155,330.305 830,327.5C 828.908,324.956 828.241,322.289 828,319.5C 827.5,309.506 827.334,299.506 827.5,289.5C 825.396,289.201 823.396,289.534 821.5,290.5C 822.393,293.084 822.726,295.751 822.5,298.5C 818.167,298.5 813.833,298.5 809.5,298.5C 809.805,293.858 807.971,290.525 804,288.5C 801.667,289.5 800,291.167 799,293.5C 798.333,301.167 798.333,308.833 799,316.5C 800.35,320.524 803.016,321.524 807,319.5C 808.759,316.392 809.592,313.059 809.5,309.5C 813.833,309.5 818.167,309.5 822.5,309.5C 822.156,327.318 813.156,334.151 795.5,330C 789.394,327.557 785.894,323.057 785,316.5C 784.333,308.833 784.333,301.167 785,293.5C 788.718,281.384 796.884,276.551 809.5,279C 815.159,279.996 818.993,283.162 821,288.5C 821.498,285.518 821.665,282.518 821.5,279.5C 823.5,279.5 825.5,279.5 827.5,279.5C 827.5,275.167 827.5,270.833 827.5,266.5 Z"/></g>
<g><path style="opacity:0.878" fill="#003299" d="M 760.5,278.5 C 762.833,278.5 765.167,278.5 767.5,278.5C 767.5,283.167 767.5,287.833 767.5,292.5C 763.786,291.495 760.119,291.995 756.5,294C 755.874,294.75 755.374,295.584 755,296.5C 754.5,307.495 754.333,318.495 754.5,329.5C 749.833,329.5 745.167,329.5 740.5,329.5C 740.5,312.833 740.5,296.167 740.5,279.5C 744.833,279.5 749.167,279.5 753.5,279.5C 753.34,281.199 753.506,282.866 754,284.5C 755.914,282.144 758.081,280.144 760.5,278.5 Z"/></g>
<g><path style="opacity:0.896" fill="#003299" d="M 929.5,278.5 C 948.422,276.755 957.088,285.422 955.5,304.5C 956.758,324.745 947.425,333.245 927.5,330C 921.836,327.668 918.336,323.501 917,317.5C 916.333,309.5 916.333,301.5 917,293.5C 918.491,286.183 922.658,281.183 929.5,278.5 Z M 933.5,288.5 C 938.189,287.684 940.689,289.684 941,294.5C 941.667,301.5 941.667,308.5 941,315.5C 939.593,320.35 936.593,321.683 932,319.5C 928.226,309.147 928.726,298.813 933.5,288.5 Z"/></g>
<g><path style="opacity:0.878" fill="#003299" d="M 1020.5,278.5 C 1027.74,277.07 1033.24,279.404 1037,285.5C 1038.45,300.095 1038.95,314.761 1038.5,329.5C 1033.83,329.5 1029.17,329.5 1024.5,329.5C 1024.67,317.162 1024.5,304.829 1024,292.5C 1021.42,288.943 1018.42,288.61 1015,291.5C 1013.58,304.106 1013.08,316.772 1013.5,329.5C 1008.9,329.8 1004.4,329.467 1000,328.5C 999.333,312.5 999.333,296.5 1000,280.5C 1004.4,279.533 1008.9,279.2 1013.5,279.5C 1013.34,280.873 1013.51,282.207 1014,283.5C 1015.97,281.45 1018.13,279.783 1020.5,278.5 Z"/></g>
<g><path style="opacity:0.877" fill="#003299" d="M 1054.5,278.5 C 1070.18,276.305 1078.18,282.972 1078.5,298.5C 1074.17,298.5 1069.83,298.5 1065.5,298.5C 1065.89,293.954 1064.23,290.621 1060.5,288.5C 1057.43,289.397 1055.6,291.397 1055,294.5C 1054.83,298 1054.67,301.5 1054.5,305C 1054.3,309.986 1054.96,314.819 1056.5,319.5C 1059.28,320.952 1061.78,320.619 1064,318.5C 1064.95,315.568 1065.45,312.568 1065.5,309.5C 1069.83,309.5 1074.17,309.5 1078.5,309.5C 1078.18,327.295 1069.18,334.128 1051.5,330C 1045.16,326.847 1041.66,321.68 1041,314.5C 1040.18,306.445 1040.51,298.445 1042,290.5C 1044.63,284.791 1048.8,280.791 1054.5,278.5 Z"/></g>
<g><path style="opacity:0.869" fill="#003299" d="M 443.5,279.5 C 448.167,279.5 452.833,279.5 457.5,279.5C 457.5,296.167 457.5,312.833 457.5,329.5C 452.833,329.5 448.167,329.5 443.5,329.5C 443.5,312.833 443.5,296.167 443.5,279.5 Z"/></g>
<g><path style="opacity:0.82" fill="#003299" d="M 660.5,279.5 C 665.167,279.5 669.833,279.5 674.5,279.5C 674.5,296.167 674.5,312.833 674.5,329.5C 669.57,329.803 664.737,329.469 660,328.5C 659.183,312.093 659.349,295.759 660.5,279.5 Z"/></g>
<g><path style="opacity:0.868" fill="#003299" d="M 768.5,279.5 C 773.167,279.5 777.833,279.5 782.5,279.5C 782.5,296.167 782.5,312.833 782.5,329.5C 777.833,329.5 773.167,329.5 768.5,329.5C 768.5,312.833 768.5,296.167 768.5,279.5 Z"/></g>
<g><path style="opacity:0.876" fill="#003299" d="M 958.5,279.5 C 962.833,279.5 967.167,279.5 971.5,279.5C 971.333,291.838 971.5,304.171 972,316.5C 973.666,319.379 976.166,320.212 979.5,319C 980.893,317.829 981.727,316.329 982,314.5C 982.5,302.838 982.667,291.171 982.5,279.5C 987.167,279.5 991.833,279.5 996.5,279.5C 996.5,296.167 996.5,312.833 996.5,329.5C 991.833,329.5 987.167,329.5 982.5,329.5C 982.649,328.448 982.483,327.448 982,326.5C 977.215,330.373 971.715,331.54 965.5,330C 962.333,328.833 960.167,326.667 959,323.5C 957.235,308.806 957.069,294.139 958.5,279.5 Z"/></g>
<g><path style="opacity:0.931" fill="#003299" d="M 1081.5,279.5 C 1085.83,279.5 1090.17,279.5 1094.5,279.5C 1094.5,296.167 1094.5,312.833 1094.5,329.5C 1090.17,329.5 1085.83,329.5 1081.5,329.5C 1081.5,312.833 1081.5,296.167 1081.5,279.5 Z"/></g>
<g><path style="opacity:0.949" fill="#093699" d="M 289.5,338.5 C 290.08,340.749 291.413,342.415 293.5,343.5C 296.167,346.833 299.167,349.833 302.5,352.5C 303.441,354.772 304.774,356.772 306.5,358.5C 286,379.651 262,395.651 234.5,406.5C 206.701,395.693 182.701,379.36 162.5,357.5C 166.5,354.167 170.167,350.5 173.5,346.5C 175.833,343.833 178.167,341.167 180.5,338.5C 198.478,319.52 216.478,300.52 234.5,281.5C 252.491,300.824 270.824,319.824 289.5,338.5 Z"/></g>
<g><path style="opacity:1" fill="#fdc918" d="M 151.5,290.5 C 151.687,292.564 152.187,294.564 153,296.5C 159.455,312.447 168.622,326.447 180.5,338.5C 178.167,341.167 175.833,343.833 173.5,346.5C 171.629,346.141 170.129,345.141 169,343.5C 158.15,330.478 149.316,316.144 142.5,300.5C 144.555,298.445 146.221,296.112 147.5,293.5C 148.833,292.5 150.167,291.5 151.5,290.5 Z"/></g>
<g><path style="opacity:1" fill="#3c66ae" d="M 277.5,339.5 C 276.118,342.394 274.118,344.894 271.5,347C 260.196,356.657 247.863,364.823 234.5,371.5C 217.867,363.859 203.534,353.192 191.5,339.5C 205.106,323.558 219.439,308.225 234.5,293.5C 249.561,308.225 263.894,323.558 277.5,339.5 Z"/></g>
<g><path style="opacity:1" fill="#fcca16" d="M 318.5,291.5 C 319.833,292.5 321.167,293.5 322.5,294.5C 322.833,295.167 323.167,295.833 323.5,296.5C 316.728,314.414 306.728,330.08 293.5,343.5C 291.413,342.415 290.08,340.749 289.5,338.5C 301.969,324.668 311.636,309.002 318.5,291.5 Z"/></g>
<g><path style="opacity:1" fill="#fcc223" d="M 323.5,296.5 C 324.833,297.5 326.167,298.5 327.5,299.5C 329.412,301.657 331.079,303.991 332.5,306.5C 325.997,324.187 315.997,339.52 302.5,352.5C 299.167,349.833 296.167,346.833 293.5,343.5C 306.728,330.08 316.728,314.414 323.5,296.5 Z"/></g>
<g><path style="opacity:1" fill="#fbbd2b" d="M 142.5,300.5 C 149.316,316.144 158.15,330.478 169,343.5C 170.129,345.141 171.629,346.141 173.5,346.5C 170.167,350.5 166.5,354.167 162.5,357.5C 149.198,344.247 138.864,328.914 131.5,311.5C 133.5,309.167 135.5,306.833 137.5,304.5C 139.167,303.167 140.833,301.833 142.5,300.5 Z"/></g>
<g><path style="opacity:1" fill="#faba31" d="M 332.5,306.5 C 332.833,306.5 333.167,306.5 333.5,306.5C 334.833,308.5 336.5,310.167 338.5,311.5C 330.54,329.11 319.874,344.777 306.5,358.5C 304.774,356.772 303.441,354.772 302.5,352.5C 315.997,339.52 325.997,324.187 332.5,306.5 Z"/></g>
<g><path style="opacity:1" fill="#305caa" d="M 191.5,339.5 C 203.534,353.192 217.867,363.859 234.5,371.5C 247.863,364.823 260.196,356.657 271.5,347C 274.118,344.894 276.118,342.394 277.5,339.5C 279.5,340.833 281.167,342.5 282.5,344.5C 282.607,346.903 281.607,348.736 279.5,350C 266.171,362.334 251.171,372.168 234.5,379.5C 220.325,373.149 207.325,364.983 195.5,355C 191.893,351.902 188.893,348.402 186.5,344.5C 187.833,342.5 189.5,340.833 191.5,339.5 Z"/></g>
<g><path style="opacity:1" fill="#214fa5" d="M 186.5,344.5 C 188.893,348.402 191.893,351.902 195.5,355C 207.325,364.983 220.325,373.149 234.5,379.5C 251.171,372.168 266.171,362.334 279.5,350C 281.607,348.736 282.607,346.903 282.5,344.5C 285.573,346.569 287.906,349.236 289.5,352.5C 273.405,368.056 255.072,380.389 234.5,389.5C 214.239,379.883 195.905,367.55 179.5,352.5C 181.117,349.216 183.45,346.549 186.5,344.5 Z"/></g>
<g><path style="opacity:1" fill="#12429f" d="M 179.5,352.5 C 195.905,367.55 214.239,379.883 234.5,389.5C 255.072,380.389 273.405,368.056 289.5,352.5C 291.479,353.812 293.145,355.479 294.5,357.5C 277.217,374.815 257.217,388.149 234.5,397.5C 212.076,387.732 192.076,374.399 174.5,357.5C 175.855,355.479 177.521,353.812 179.5,352.5 Z"/></g>
</svg>
