<svg xmlns="http://www.w3.org/2000/svg" width="187" height="54.458" viewBox="0 0 187 54.458">
  <g id="Group_6470" data-name="Group 6470" transform="translate(465.023 -169.032)">
    <path id="Path_663" data-name="Path 663" d="M-407.091,184.049c.123,2.58,1.72,3.409,4.146,3.409,1.72,0,3.5-.614,3.5-2.241,0-1.935-3.133-2.3-6.3-3.195-3.132-.89-6.417-2.3-6.417-6.326,0-4.79,4.821-6.664,8.937-6.664,4.36,0,8.753,2.119,8.783,7.063h-5.713c.093-2-1.781-2.641-3.531-2.641-1.228,0-2.764.43-2.764,1.873,0,1.689,3.163,2,6.357,2.886,3.163.891,6.358,2.365,6.358,6.326,0,5.559-4.729,7.339-9.551,7.339-5.036,0-9.49-2.211-9.52-7.831" transform="translate(0.57 0)" fill="#fff"/>
    <path id="Path_664" data-name="Path 664" d="M-382.791,178.842h-3.225v7.248c0,1.259.738,1.535,1.874,1.535.43,0,.891-.061,1.351-.061V191.4c-.952.03-1.9.154-2.856.154-4.453,0-5.589-1.29-5.589-5.62v-7.095h-2.641v-3.379h2.641v-4.821h5.22v4.821h3.225" transform="translate(0.777 0.018)" fill="#fff"/>
    <path id="Path_665" data-name="Path 665" d="M-367.78,169.488h5.8l8.2,21.927h-5.957l-1.351-3.93h-7.647l-1.383,3.93h-5.865m8.568-8.169h4.976l-2.427-7.677h-.06Z" transform="translate(0.972 0.005)" fill="#fff"/>
    <rect id="Rectangle_3262" data-name="Rectangle 3262" width="5.221" height="21.927" transform="translate(-352.689 169.493)" fill="#fff"/>
    <path id="Path_666" data-name="Path 666" d="M-346.716,169.488h5.22v7.739h.061a5.287,5.287,0,0,1,4.546-2.211c4.514,0,6.726,3.93,6.726,8.077,0,4.483-2.119,8.782-7.125,8.782a5.093,5.093,0,0,1-4.391-2.3h-.062v1.843h-4.975m5.036-8.138c0,2.794.8,4.606,3.162,4.606,2.334,0,3.133-2.426,3.133-4.606,0-2.027-.8-4.269-3.1-4.269C-339.9,179.008-341.68,179.99-341.68,183.277Z" transform="translate(1.292 0.005)" fill="#fff"/>
    <path id="Path_667" data-name="Path 667" d="M-328.993,180.33a4.9,4.9,0,0,1,2.487-4.269,10.529,10.529,0,0,1,5.068-1.1c3.778,0,7.431.829,7.431,5.344v6.971a9.267,9.267,0,0,0,.615,4.084h-5.251a6.262,6.262,0,0,1-.308-1.505,7.189,7.189,0,0,1-5.251,1.965c-3.041,0-5.437-1.535-5.437-4.821,0-5.19,5.651-4.791,9.275-5.528.891-.184,1.382-.491,1.382-1.474,0-1.2-1.445-1.658-2.518-1.658a2.334,2.334,0,0,0-2.61,2m1.873,8.261c2.487,0,3.316-1.412,3.194-4.7a14.737,14.737,0,0,1-3.224.859c-1.168.277-2.15.768-2.15,2.028C-324.418,188.069-323.4,188.591-322.237,188.591Z" transform="translate(1.478 0.065)" fill="#fff"/>
    <path id="Path_668" data-name="Path 668" d="M-312.194,175.416h5.068V177.6h.061a6.021,6.021,0,0,1,5.007-2.642c5.312,0,5.742,3.87,5.742,6.173v10.226h-5.22v-7.708c0-2.181.245-4.391-2.611-4.391-1.965,0-2.826,1.658-2.826,3.409v8.691h-5.22" transform="translate(1.669 0.065)" fill="#fff"/>
    <path id="Path_669" data-name="Path 669" d="M-290.347,186.1a2.141,2.141,0,0,0,.86,1.781,3.26,3.26,0,0,0,1.934.553c1.013,0,2.457-.43,2.457-1.689,0-1.228-1.628-1.474-2.549-1.689-3.286-.829-7.4-.921-7.4-5.22,0-3.838,4.147-4.883,7.279-4.883,3.5,0,7.155,1.013,7.339,5.159h-4.821a1.5,1.5,0,0,0-.675-1.382,3.089,3.089,0,0,0-1.658-.4c-.859,0-2.242.092-2.242,1.2,0,1.5,3.5,1.78,5.9,2.3,3.225.645,4.054,2.979,4.054,4.3,0,4.268-4.054,5.68-7.647,5.68-3.778,0-7.647-1.259-7.8-5.712" transform="translate(1.853 0.065)" fill="#fff"/>
    <path id="Path_670" data-name="Path 670" d="M-407.358,200.4c0-1.745-.353-2.5-1.444-2.5-1.224,0-1.509,1.224-1.509,4.613,0,3.624.5,4.277,1.543,4.277.873,0,1.509-.453,1.509-3.036h2.416c0,2.583-.637,4.815-3.807,4.815-3.624,0-4.076-2.584-4.076-6.224s.452-6.223,4.076-6.223c3.455,0,3.706,2.532,3.706,4.277" transform="translate(0.571 0.296)" fill="#fff"/>
    <path id="Path_671" data-name="Path 671" d="M-404.2,196.226h2.315v1.98H-404.2m0,1.107h2.315v9.025H-404.2Z" transform="translate(0.664 0.297)" fill="#fff"/>
    <path id="Path_672" data-name="Path 672" d="M-400.218,196.724h2.315v2.584h1.342v1.576H-397.9v4.882c0,.7.151.99.822.99a4.971,4.971,0,0,0,.521-.033v1.61a14.794,14.794,0,0,1-1.51.1c-1.812,0-2.147-.554-2.147-2.383v-5.167h-1.175v-1.576h1.175" transform="translate(0.695 0.302)" fill="#fff"/>
    <path id="Path_673" data-name="Path 673" d="M-395.923,209.529a3.584,3.584,0,0,0,.6.051c.856,0,1.175-.469,1.241-1.275l-2.532-9.024h2.415l1.342,6.24h.033l1.175-6.24h2.314l-2.181,8.42c-.8,3.121-1.325,3.557-3.473,3.557h-.939" transform="translate(0.747 0.33)" fill="#fff"/>
    <path id="Path_674" data-name="Path 674" d="M-379.688,204.394a4.906,4.906,0,0,0,.419-1.812h2.08a6.226,6.226,0,0,1-1.224,3.54l1.576,2.214H-379.4l-.671-.923a3.807,3.807,0,0,1-2.885,1.159c-3.037,0-3.674-2.114-3.674-3.456,0-1.392.923-2.533,2.415-3.455l-.419-.621a3.4,3.4,0,0,1-.806-2.164c0-1.56,1.259-2.515,3.053-2.515,2.046,0,2.986,1.106,2.986,2.5,0,1.191-.671,2.113-2.081,3.1m-1.61,1.125a2.471,2.471,0,0,0-1.224,2.029,1.6,1.6,0,0,0,1.678,1.577,1.889,1.889,0,0,0,1.56-.754Zm.236-2.97.285.4.436-.369a1.721,1.721,0,0,0,.755-1.308.956.956,0,0,0-1.057-1.006.946.946,0,0,0-1.023.972A2.485,2.485,0,0,0-382.858,200.117Z" transform="translate(0.856 0.298)" fill="#fff"/>
    <path id="Path_675" data-name="Path 675" d="M-372.929,196.36h3.959c3.355,0,3.96,2.3,3.96,5.82,0,4.245-.908,6.157-4.111,6.157h-3.807m2.416-1.778h1.073c1.678,0,2.014-1.056,2.014-4.312,0-2.717-.217-4.109-2.063-4.109h-1.023Z" transform="translate(1.006 0.298)" fill="#fff"/>
    <path id="Path_676" data-name="Path 676" d="M-364.175,196.226h2.316v1.98h-2.316m0,1.107h2.316v9.025h-2.316Z" transform="translate(1.101 0.297)" fill="#fff"/>
    <path id="Path_677" data-name="Path 677" d="M-359.148,205.354v.3a1.157,1.157,0,0,0,1.207,1.309,1.026,1.026,0,0,0,1.174-1.075,1.06,1.06,0,0,0-.838-1.022l-1.627-.587a2.5,2.5,0,0,1-1.929-2.516c0-1.493.938-2.718,3.321-2.718,2.1,0,3.086.939,3.086,2.568v.368h-2.079c0-.906-.269-1.359-1.024-1.359a.984.984,0,0,0-1.09.974c0,.436.235.8,1.006,1.056l1.393.47a2.418,2.418,0,0,1,2,2.583c0,1.9-1.409,2.836-3.355,2.836-2.6,0-3.322-1.142-3.322-2.869v-.319" transform="translate(1.133 0.328)" fill="#fff"/>
    <path id="Path_678" data-name="Path 678" d="M-353.4,196.724h2.315v2.584h1.342v1.576h-1.342v4.882c0,.7.152.99.823.99a4.97,4.97,0,0,0,.52-.033v1.61a14.8,14.8,0,0,1-1.51.1c-1.812,0-2.147-.554-2.147-2.383v-5.167h-1.175v-1.576h1.175" transform="translate(1.206 0.302)" fill="#fff"/>
    <path id="Path_679" data-name="Path 679" d="M-349.364,199.283h2.214v1.207h.033a2.338,2.338,0,0,1,2.081-1.443,3.644,3.644,0,0,1,.419.033V201.3c-.235-.017-.486-.033-.721-.033a1.561,1.561,0,0,0-1.71,1.628v5.418h-2.316" transform="translate(1.263 0.328)" fill="#fff"/>
    <path id="Path_680" data-name="Path 680" d="M-344.188,196.226h2.316v1.98h-2.316m0,1.107h2.316v9.025h-2.316Z" transform="translate(1.32 0.297)" fill="#fff"/>
    <path id="Path_681" data-name="Path 681" d="M-336.62,202.537c0-.872-.168-1.812-1.04-1.812-1.14,0-1.325,1.006-1.325,3.086,0,2.231.2,3.154,1.241,3.154.771,0,1.124-.655,1.124-2.115h2.214c0,2.367-.99,3.692-3.439,3.692-2.315,0-3.455-1.124-3.455-4.748,0-3.707,1.527-4.747,3.658-4.747s3.237,1.359,3.237,3.49" transform="translate(1.351 0.328)" fill="#fff"/>
    <path id="Path_682" data-name="Path 682" d="M-333.208,196.724h2.314v2.584h1.343v1.576h-1.343v4.882c0,.7.152.99.823.99a4.933,4.933,0,0,0,.52-.033v1.61a14.794,14.794,0,0,1-1.509.1c-1.812,0-2.147-.554-2.147-2.383v-5.167h-1.175v-1.576h1.175" transform="translate(1.427 0.302)" fill="#fff"/>
    <path id="Path_683" data-name="Path 683" d="M-319.946,200.4c0-1.745-.352-2.5-1.444-2.5-1.223,0-1.508,1.224-1.508,4.613,0,3.624.5,4.277,1.542,4.277.872,0,1.51-.453,1.51-3.036h2.416c0,2.583-.638,4.815-3.808,4.815-3.624,0-4.076-2.584-4.076-6.224s.452-6.223,4.076-6.223c3.455,0,3.707,2.532,3.707,4.277" transform="translate(1.526 0.296)" fill="#fff"/>
    <path id="Path_684" data-name="Path 684" d="M-313.4,199.047c2.784-.051,3.555,1.61,3.555,4.747,0,3.087-.9,4.748-3.555,4.748-2.785.05-3.556-1.611-3.556-4.748,0-3.085.906-4.747,3.556-4.747m0,7.919c.939,0,1.24-.923,1.24-3.171s-.3-3.17-1.24-3.17c-1.141,0-1.242,1.325-1.242,3.17S-314.537,206.966-313.4,206.966Z" transform="translate(1.617 0.328)" fill="#fff"/>
    <path id="Path_685" data-name="Path 685" d="M-304.579,207.248h-.034a2.476,2.476,0,0,1-2.3,1.292c-1.443,0-2.3-.789-2.3-2.567V199.28h2.314V205.5c0,.906.3,1.258.99,1.258.789,0,1.225-.486,1.225-1.492V199.28h2.314V208.3h-2.214" transform="translate(1.702 0.33)" fill="#fff"/>
    <path id="Path_686" data-name="Path 686" d="M-301.447,199.283h2.214v1.056h.034a2.476,2.476,0,0,1,2.3-1.292c1.443,0,2.3.789,2.3,2.568v6.692h-2.313v-6.223c0-.906-.3-1.259-.99-1.259-.79,0-1.226.487-1.226,1.493v5.989h-2.314" transform="translate(1.786 0.328)" fill="#fff"/>
    <path id="Path_687" data-name="Path 687" d="M-289.336,202.537c0-.872-.169-1.812-1.04-1.812-1.14,0-1.326,1.006-1.326,3.086,0,2.231.2,3.154,1.242,3.154.771,0,1.124-.655,1.124-2.115h2.213c0,2.367-.989,3.692-3.438,3.692-2.315,0-3.454-1.124-3.454-4.748,0-3.707,1.525-4.747,3.655-4.747s3.237,1.359,3.237,3.49" transform="translate(1.867 0.328)" fill="#fff"/>
    <path id="Path_688" data-name="Path 688" d="M-286.5,196.226h2.315v1.98H-286.5m0,1.107h2.315v9.025H-286.5Z" transform="translate(1.95 0.297)" fill="#fff"/>
    <rect id="Rectangle_3263" data-name="Rectangle 3263" width="2.316" height="11.977" transform="translate(-280.96 196.658)" fill="#fff"/>
    <path id="Path_689" data-name="Path 689" d="M-428.253,169.58l-14.334,15.338-14.333-15.338h-7.739V176.2l15.111,16.17-12.286,13.146a31.741,31.741,0,0,0,5.83,8.657l13.416-14.355,13.417,14.355a31.729,31.729,0,0,0,5.831-8.657l-12.288-13.146,15.113-16.171V169.58" transform="translate(0.004 0.006)" fill="none"/>
    <path id="Path_690" data-name="Path 690" d="M-465.023,169.12v22.811c0,13.9,7.958,25.352,21.824,31.411a1.659,1.659,0,0,0,.618.147,1.632,1.632,0,0,0,.61-.144c13.874-6.062,21.831-17.513,21.831-31.414V169.12Zm44.514,7.079-15.113,16.171,12.288,13.146a31.729,31.729,0,0,1-5.831,8.657l-13.417-14.355L-456,214.173a31.741,31.741,0,0,1-5.83-8.657l12.286-13.146-15.111-16.17v-6.615h7.739l14.333,15.338,14.334-15.338h7.74Z" transform="translate(0 0.001)" fill="#fff"/>
  </g>
</svg>
