<?xml version="1.0" encoding="UTF-8"?>
<!DOCTYPE svg PUBLIC "-//W3C//DTD SVG 1.1//EN" "http://www.w3.org/Graphics/SVG/1.1/DTD/svg11.dtd">
<svg xmlns="http://www.w3.org/2000/svg" version="1.1" width="500px" height="507px" style="shape-rendering:geometricPrecision; text-rendering:geometricPrecision; image-rendering:optimizeQuality; fill-rule:evenodd; clip-rule:evenodd" xmlns:xlink="http://www.w3.org/1999/xlink">
<g><path style="opacity:0.975" fill="#fefffe" d="M 348.5,1.5 C 351.168,2.4567 352.668,4.4567 353,7.5C 354.657,14.0928 355.824,20.7594 356.5,27.5C 366.5,27.5 376.5,27.5 386.5,27.5C 386.815,18.2426 389.148,9.57598 393.5,1.5C 395.588,5.17769 396.755,9.17769 397,13.5C 397.5,30.8301 397.667,48.1635 397.5,65.5C 403.5,65.5 409.5,65.5 415.5,65.5C 415.334,60.8215 415.501,56.1548 416,51.5C 419.048,42.3957 421.714,42.3957 424,51.5C 424.499,56.1548 424.666,60.8215 424.5,65.5C 427.518,65.6646 430.518,65.498 433.5,65C 434.235,61.1308 435.568,57.4641 437.5,54C 440.298,53.4392 442.131,54.6059 443,57.5C 444.327,80.1449 444.827,102.812 444.5,125.5C 396.167,125.5 347.833,125.5 299.5,125.5C 299.333,102.831 299.5,80.1642 300,57.5C 301.348,52.0418 303.682,51.3751 307,55.5C 307.897,58.4899 308.731,61.4899 309.5,64.5C 312.428,65.4841 315.428,65.8174 318.5,65.5C 318.334,60.8215 318.501,56.1548 319,51.5C 321.453,42.3772 324.119,42.3772 327,51.5C 327.499,56.1548 327.666,60.8215 327.5,65.5C 333.5,65.5 339.5,65.5 345.5,65.5C 345.333,48.83 345.5,32.1633 346,15.5C 346.519,10.7619 347.352,6.09527 348.5,1.5 Z"/></g>
<g><path style="opacity:0.967" fill="#fefffe" d="M 5.5,133.5 C 71.1626,134.56 136.829,135.394 202.5,136C 261.311,137.202 319.645,141.202 377.5,148C 392.749,150.229 407.749,153.562 422.5,158C 430.487,160.669 436.653,165.502 441,172.5C 442.426,177.757 441.259,182.257 437.5,186C 425.178,192.329 412.178,196.663 398.5,199C 388.573,201.099 378.573,202.766 368.5,204C 320.201,208.967 271.868,213.633 223.5,218C 207.796,219.807 192.463,223.14 177.5,228C 170.665,235.027 171.332,241.36 179.5,247C 193.355,253.062 207.688,257.729 222.5,261C 275.503,271.334 328.503,281.667 381.5,292C 412.687,298.547 443.687,305.88 474.5,314C 482.178,316.078 488.345,320.244 493,326.5C 494.309,328.686 494.476,330.853 493.5,333C 437.835,332.944 382.169,332.61 326.5,332C 310.366,323.509 293.699,316.175 276.5,310C 224.965,293.711 172.965,279.044 120.5,266C 108.651,262.497 98.484,256.33 90,247.5C 85.0553,233.799 88.5553,222.632 100.5,214C 119.001,203.056 139.001,196.722 160.5,195C 210.123,190.146 259.79,185.813 309.5,182C 312.196,181.235 314.696,180.068 317,178.5C 317.896,175.975 317.396,173.808 315.5,172C 311.277,170.528 306.943,169.528 302.5,169C 289.186,167.745 275.853,166.745 262.5,166C 176.839,162.595 91.172,159.429 5.5,156.5C 5.5,148.833 5.5,141.167 5.5,133.5 Z"/></g>
<g><path style="opacity:0.911" fill="#fefffe" d="M 3.5,356.5 C 20.1667,356.5 36.8333,356.5 53.5,356.5C 53.5,360.167 53.5,363.833 53.5,367.5C 47.5,367.5 41.5,367.5 35.5,367.5C 35.5,384.833 35.5,402.167 35.5,419.5C 30.8333,419.5 26.1667,419.5 21.5,419.5C 21.5,402.167 21.5,384.833 21.5,367.5C 15.5,367.5 9.5,367.5 3.5,367.5C 3.5,363.833 3.5,360.167 3.5,356.5 Z"/></g>
<g><path style="opacity:0.911" fill="#fefffe" d="M 169.5,356.5 C 173.833,356.5 178.167,356.5 182.5,356.5C 182.334,366.839 182.5,377.172 183,387.5C 186.833,383 190.667,378.5 194.5,374C 199.75,373.807 204.917,373.307 210,372.5C 210.167,372.833 210.333,373.167 210.5,373.5C 205.872,379.463 200.872,385.13 195.5,390.5C 200.833,399.833 206.167,409.167 211.5,418.5C 206.833,419.833 202.167,419.833 197.5,418.5C 194,412.167 190.5,405.833 187,399.5C 185.667,400.833 184.333,402.167 183,403.5C 182.501,408.823 182.334,414.156 182.5,419.5C 178.167,419.5 173.833,419.5 169.5,419.5C 169.5,398.5 169.5,377.5 169.5,356.5 Z"/></g>
<g><path style="opacity:0.906" fill="#fefffe" d="M 313.5,356.5 C 317.833,356.5 322.167,356.5 326.5,356.5C 326.334,363.508 326.5,370.508 327,377.5C 337.182,370.118 346.516,371.118 355,380.5C 358.804,389.228 359.471,398.228 357,407.5C 350.21,420.874 340.376,423.708 327.5,416C 326.874,415.25 326.374,414.416 326,413.5C 325.505,415.473 325.338,417.473 325.5,419.5C 321.5,419.5 317.5,419.5 313.5,419.5C 313.5,398.5 313.5,377.5 313.5,356.5 Z M 332.5,382.5 C 339.954,381.651 344.121,384.984 345,392.5C 346.217,398.802 344.717,404.302 340.5,409C 332.75,411.611 328.25,408.778 327,400.5C 325.466,393.264 327.299,387.264 332.5,382.5 Z"/></g>
<g><path style="opacity:0.892" fill="#fefffe" d="M 66.5,372.5 C 85.612,371.947 94.612,381.28 93.5,400.5C 83.8333,400.5 74.1667,400.5 64.5,400.5C 65.3344,408.849 69.6678,411.683 77.5,409C 79.1554,407.556 79.822,405.722 79.5,403.5C 84.1421,404.395 88.8087,405.228 93.5,406C 85.9054,420.642 74.572,424.309 59.5,417C 50.4279,407.64 48.2612,396.806 53,384.5C 55.8332,378.493 60.3332,374.493 66.5,372.5 Z M 69.5,382.5 C 76.5249,381.532 80.1916,384.532 80.5,391.5C 75.1667,391.5 69.8333,391.5 64.5,391.5C 64.3723,387.415 66.039,384.415 69.5,382.5 Z"/></g>
<g><path style="opacity:0.896" fill="#fefffe" d="M 229.5,372.5 C 249.098,371.432 258.432,380.765 257.5,400.5C 247.478,400.168 237.478,400.501 227.5,401.5C 229.537,409.018 234.204,411.518 241.5,409C 242.594,407.22 243.594,405.386 244.5,403.5C 248.423,404.598 252.423,405.265 256.5,405.5C 254.647,413.519 249.647,418.352 241.5,420C 227.76,422.22 218.927,416.72 215,403.5C 212.102,389.292 216.935,378.959 229.5,372.5 Z M 233.5,382.5 C 240.479,381.486 244.146,384.486 244.5,391.5C 238.824,391.666 233.157,391.499 227.5,391C 228.418,387.305 230.418,384.472 233.5,382.5 Z"/></g>
<g><path style="opacity:0.892" fill="#fefffe" d="M 275.5,372.5 C 281.909,372.183 288.243,372.683 294.5,374C 298.779,376.443 301.779,379.943 303.5,384.5C 300.162,385.976 296.662,386.976 293,387.5C 291.18,386.396 289.68,384.896 288.5,383C 283.63,380.71 279.296,381.377 275.5,385C 276.551,386.385 277.884,387.385 279.5,388C 288.266,389.029 296.099,392.196 303,397.5C 307.235,407.357 304.402,414.524 294.5,419C 285.9,421.441 277.567,420.774 269.5,417C 265.472,414.097 263.139,410.264 262.5,405.5C 266.853,404.941 271.186,404.275 275.5,403.5C 275.444,406.561 276.778,408.728 279.5,410C 282.833,410.667 286.167,410.667 289.5,410C 291.698,408.33 292.032,406.33 290.5,404C 282.861,402.591 275.528,400.258 268.5,397C 260.579,385.929 262.912,377.762 275.5,372.5 Z"/></g>
<g><path style="opacity:0.899" fill="#fefffe" d="M 437.5,372.5 C 445.819,373.124 454.152,373.457 462.5,373.5C 465.357,383.573 468.524,393.573 472,403.5C 475.876,393.707 479.042,383.707 481.5,373.5C 486.214,373.173 490.88,373.507 495.5,374.5C 489.055,391.058 482.889,407.724 477,424.5C 472.203,436.402 463.869,440.068 452,435.5C 451.782,432.574 451.282,429.74 450.5,427C 458.024,428.884 463.024,426.218 465.5,419C 460.129,405.095 454.629,391.262 449,377.5C 448.125,380.628 446.958,383.628 445.5,386.5C 436.704,382.423 432.537,385.423 433,395.5C 432.5,403.493 432.334,411.493 432.5,419.5C 428.167,419.5 423.833,419.5 419.5,419.5C 419.5,404.167 419.5,388.833 419.5,373.5C 423.5,373.5 427.5,373.5 431.5,373.5C 431.34,375.199 431.506,376.866 432,378.5C 433.36,375.977 435.193,373.977 437.5,372.5 Z"/></g>
<g><path style="opacity:0.902" fill="#fefffe" d="M 96.5,373.5 C 100.833,373.5 105.167,373.5 109.5,373.5C 111.487,382.631 113.987,391.631 117,400.5C 119.483,391.557 121.649,382.557 123.5,373.5C 127.884,373.174 132.217,373.508 136.5,374.5C 138.7,383.308 141.2,391.974 144,400.5C 146.19,391.738 148.69,383.071 151.5,374.5C 155.833,373.167 160.167,373.167 164.5,374.5C 159.055,389.287 154.388,404.287 150.5,419.5C 146.116,419.826 141.783,419.492 137.5,418.5C 135.001,409.839 132.501,401.172 130,392.5C 127.671,401.484 125.504,410.484 123.5,419.5C 119.116,419.826 114.783,419.492 110.5,418.5C 105.425,403.609 100.758,388.609 96.5,373.5 Z"/></g>
<g><path style="opacity:0.899" fill="#fefffe" d="M 366.5,373.5 C 370.833,373.5 375.167,373.5 379.5,373.5C 379.335,384.53 379.835,395.53 381,406.5C 386.312,412.113 390.979,411.446 395,404.5C 395.5,394.172 395.666,383.839 395.5,373.5C 399.833,373.5 404.167,373.5 408.5,373.5C 408.5,388.833 408.5,404.167 408.5,419.5C 404.5,419.5 400.5,419.5 396.5,419.5C 396.66,417.801 396.494,416.134 396,414.5C 386.638,422.785 377.638,422.452 369,413.5C 368.012,410.576 367.346,407.576 367,404.5C 366.5,394.172 366.334,383.839 366.5,373.5 Z"/></g>
<g><path style="opacity:0.876" fill="#fefffe" d="M 292.5,446.5 C 303.66,445.896 310.66,450.896 313.5,461.5C 310.962,461.507 308.462,461.841 306,462.5C 305.167,462.167 304.333,461.833 303.5,461.5C 301.173,456.171 297.173,454.338 291.5,456C 286.378,459.155 284.045,463.822 284.5,470C 284.437,475.071 286.103,479.404 289.5,483C 297.142,486.013 301.808,483.513 303.5,475.5C 306.877,475.959 310.211,476.626 313.5,477.5C 310.075,490.374 301.741,495.207 288.5,492C 280.743,489.236 276.243,483.736 275,475.5C 272.753,460.621 278.586,450.955 292.5,446.5 Z"/></g>
<g><path style="opacity:0.869" fill="#fefffe" d="M 5.5,447.5 C 14.1731,447.334 22.8397,447.5 31.5,448C 39.7774,450.722 42.6108,456.222 40,464.5C 38.647,465.685 37.4803,467.019 36.5,468.5C 45.9106,476.326 45.5773,483.826 35.5,491C 25.5657,492.395 15.5657,492.895 5.5,492.5C 5.5,477.5 5.5,462.5 5.5,447.5 Z M 15.5,455.5 C 20.4524,456.119 25.4524,456.786 30.5,457.5C 32.0066,459.969 31.6732,462.135 29.5,464C 24.9145,464.197 20.4145,464.697 16,465.5C 15.5017,462.183 15.335,458.85 15.5,455.5 Z M 15.5,473.5 C 20.1785,473.334 24.8452,473.501 29.5,474C 33.7825,476.769 34.1158,479.769 30.5,483C 25.5111,483.499 20.5111,483.666 15.5,483.5C 15.5,480.167 15.5,476.833 15.5,473.5 Z"/></g>
<g><path style="opacity:0.849" fill="#fefffe" d="M 221.5,447.5 C 224.833,447.5 228.167,447.5 231.5,447.5C 231.334,452.511 231.501,457.511 232,462.5C 239.878,456.572 246.211,457.905 251,466.5C 251.5,475.16 251.666,483.827 251.5,492.5C 248.5,492.5 245.5,492.5 242.5,492.5C 242.787,484.114 242.287,475.781 241,467.5C 237.475,465.81 234.475,466.476 232,469.5C 231.5,477.159 231.334,484.826 231.5,492.5C 228.167,492.5 224.833,492.5 221.5,492.5C 221.5,477.5 221.5,462.5 221.5,447.5 Z"/></g>
<g><path style="opacity:0.768" fill="#fefffe" d="M 465.5,447.5 C 468.5,447.5 471.5,447.5 474.5,447.5C 474.5,450.5 474.5,453.5 474.5,456.5C 471.5,456.5 468.5,456.5 465.5,456.5C 465.5,453.5 465.5,450.5 465.5,447.5 Z"/></g>
<g><path style="opacity:0.901" fill="#fefffe" d="M 482.5,447.5 C 485.5,447.5 488.5,447.5 491.5,447.5C 491.5,462.5 491.5,477.5 491.5,492.5C 488.5,492.5 485.5,492.5 482.5,492.5C 482.5,477.5 482.5,462.5 482.5,447.5 Z"/></g>
<g><path style="opacity:0.88" fill="#fefffe" d="M 62.5,458.5 C 79.9406,461.048 85.1072,470.382 78,486.5C 71.0554,493.069 63.2221,494.236 54.5,490C 44.9676,480.038 45.301,470.371 55.5,461C 58.0037,460.302 60.337,459.469 62.5,458.5 Z M 61.5,466.5 C 66.1328,465.458 69.2994,467.125 71,471.5C 72.4261,476.757 71.2594,481.257 67.5,485C 62.8795,486.538 59.7129,485.038 58,480.5C 56.6077,475.093 57.7744,470.426 61.5,466.5 Z"/></g>
<g><path style="opacity:0.851" fill="#fefffe" d="M 100.5,458.5 C 108.167,459.138 109.501,462.471 104.5,468.5C 101.22,466.717 98.7195,467.383 97,470.5C 95.7883,477.389 95.6217,484.222 96.5,491C 93.3812,492.405 90.0479,492.905 86.5,492.5C 86.5,481.5 86.5,470.5 86.5,459.5C 89.5,459.5 92.5,459.5 95.5,459.5C 95.3505,460.552 95.5172,461.552 96,462.5C 97.2499,460.807 98.7499,459.473 100.5,458.5 Z"/></g>
<g><path style="opacity:0.877" fill="#fefffe" d="M 122.5,458.5 C 137.942,459.435 144.109,467.435 141,482.5C 135.502,492.451 127.335,495.284 116.5,491C 108.238,484.39 106.404,476.223 111,466.5C 113.913,462.406 117.746,459.74 122.5,458.5 Z M 122.5,466.5 C 127.624,465.464 130.79,467.464 132,472.5C 133.439,477.857 131.939,482.024 127.5,485C 123.74,486.176 120.907,485.01 119,481.5C 118.333,477.833 118.333,474.167 119,470.5C 119.69,468.65 120.856,467.316 122.5,466.5 Z"/></g>
<g><path style="opacity:0.885" fill="#fefffe" d="M 194.5,458.5 C 198.505,458.557 202.005,459.89 205,462.5C 205.483,461.552 205.649,460.552 205.5,459.5C 208.5,459.5 211.5,459.5 214.5,459.5C 214.667,471.838 214.5,484.171 214,496.5C 211.233,503.105 206.233,505.772 199,504.5C 190.613,505.998 185.447,502.665 183.5,494.5C 186.446,493.345 189.446,493.179 192.5,494C 194.253,496.2 196.586,497.367 199.5,497.5C 204.81,496.911 206.643,493.911 205,488.5C 195.753,494.866 188.753,492.866 184,482.5C 180.746,471.355 184.246,463.355 194.5,458.5 Z M 196.5,466.5 C 200.808,465.735 203.642,467.402 205,471.5C 206.369,476.48 205.203,480.647 201.5,484C 196.957,485.615 194.124,484.115 193,479.5C 191.668,474.372 192.835,470.039 196.5,466.5 Z"/></g>
<g><path style="opacity:0.877" fill="#fefffe" d="M 332.5,458.5 C 349.224,460.612 354.724,469.612 349,485.5C 342.006,492.991 333.84,494.491 324.5,490C 315.283,480.687 315.283,471.354 324.5,462C 327.158,460.522 329.825,459.355 332.5,458.5 Z M 331.5,466.5 C 336.133,465.458 339.299,467.125 341,471.5C 342.426,476.757 341.259,481.257 337.5,485C 332.579,486.124 329.412,484.291 328,479.5C 326.668,474.415 327.835,470.081 331.5,466.5 Z"/></g>
<g><path style="opacity:0.858" fill="#fefffe" d="M 410.5,458.5 C 415.845,458.199 420.012,460.199 423,464.5C 424.316,473.782 424.816,483.116 424.5,492.5C 421.167,492.5 417.833,492.5 414.5,492.5C 414.666,484.826 414.5,477.159 414,469.5C 411.855,466.072 409.021,465.572 405.5,468C 404.809,469.067 404.309,470.234 404,471.5C 403.5,478.492 403.334,485.492 403.5,492.5C 400.5,492.5 397.5,492.5 394.5,492.5C 394.5,481.5 394.5,470.5 394.5,459.5C 397.5,459.5 400.5,459.5 403.5,459.5C 403.351,460.552 403.517,461.552 404,462.5C 406.013,460.752 408.18,459.418 410.5,458.5 Z"/></g>
<g><path style="opacity:0.864" fill="#fefffe" d="M 443.5,458.5 C 451.91,458.366 457.577,462.199 460.5,470C 457.207,470.826 453.874,471.326 450.5,471.5C 449.826,466.849 447.159,465.349 442.5,467C 438.862,472.402 438.529,478.069 441.5,484C 446.585,486.857 449.918,485.524 451.5,480C 462.009,479.147 463.342,482.48 455.5,490C 435.847,496.017 427.681,488.85 431,468.5C 433.432,462.882 437.599,459.549 443.5,458.5 Z"/></g>
<g><path style="opacity:0.854" fill="#fefffe" d="M 147.5,459.5 C 150.5,459.5 153.5,459.5 156.5,459.5C 156.137,467.571 156.637,475.571 158,483.5C 161.294,486.311 164.294,485.978 167,482.5C 167.5,474.841 167.666,467.174 167.5,459.5C 170.833,459.5 174.167,459.5 177.5,459.5C 177.5,470.5 177.5,481.5 177.5,492.5C 174.5,492.5 171.5,492.5 168.5,492.5C 168.657,491.127 168.49,489.793 168,488.5C 163.909,492.305 159.076,493.472 153.5,492C 151.714,491.215 150.214,490.049 149,488.5C 147.58,478.914 147.08,469.247 147.5,459.5 Z"/></g>
<g><path style="opacity:0.857" fill="#fefffe" d="M 356.5,459.5 C 359.833,459.5 363.167,459.5 366.5,459.5C 366.334,467.507 366.5,475.507 367,483.5C 370.339,486.299 373.339,485.966 376,482.5C 377.311,474.895 377.811,467.228 377.5,459.5C 380.5,459.5 383.5,459.5 386.5,459.5C 386.5,470.5 386.5,481.5 386.5,492.5C 383.5,492.5 380.5,492.5 377.5,492.5C 377.649,491.448 377.483,490.448 377,489.5C 369.935,494.095 363.602,493.428 358,487.5C 356.614,478.234 356.114,468.9 356.5,459.5 Z"/></g>
<g><path style="opacity:0.888" fill="#fefffe" d="M 465.5,459.5 C 468.5,459.5 471.5,459.5 474.5,459.5C 474.5,470.5 474.5,481.5 474.5,492.5C 471.5,492.5 468.5,492.5 465.5,492.5C 465.5,481.5 465.5,470.5 465.5,459.5 Z"/></g>
</svg>
