<?xml version="1.0" encoding="UTF-8"?><svg id="a" xmlns="http://www.w3.org/2000/svg" xmlns:xlink="http://www.w3.org/1999/xlink" viewBox="0 0 211.28 58.08"><defs><style>.f{fill:none;}.f,.g{stroke-width:0px;}.h{clip-path:url(#d);}.i{clip-path:url(#b);}.j{clip-path:url(#c);}.g{fill:#fff;}</style><clipPath id="b"><rect class="f" x="2.01" y="2.41" width="206.73" height="52.79"/></clipPath><clipPath id="c"><rect class="f" x="2.01" y="2.41" width="206.73" height="52.19"/></clipPath><clipPath id="d"><rect class="f" x="2.01" y="2.41" width="206.73" height="52.79"/></clipPath></defs><rect class="g" x="97.19" y="53.79" width="111.42" height=".81"/><g class="i"><path class="g" d="m101.26,47.43c-.07,1.23-.56,2.37-1.98,2.37-1.85,0-2.1-1.75-2.1-3.39s.3-3.39,2.1-3.39c1.33,0,1.89.75,1.93,2.03h-.84c-.02-.74-.26-1.37-1.09-1.37-1.11,0-1.26,1.22-1.26,2.73s.15,2.73,1.26,2.73c.98,0,1.12-.91,1.14-1.71h.84Z"/><path class="g" d="m119.95,46.4c0,1.65-.3,3.39-2.1,3.39s-2.1-1.75-2.1-3.39.3-3.39,2.1-3.39,2.1,1.75,2.1,3.39m-3.36,0c0,1.51.15,2.73,1.26,2.73s1.26-1.23,1.26-2.73-.15-2.73-1.26-2.73-1.26,1.22-1.26,2.73"/><path class="g" d="m134.44,43.14h.8v4.59c0,.96.31,1.41,1.11,1.41.86,0,1.11-.5,1.11-1.41v-4.59h.8v4.59c0,1.25-.64,2.07-1.92,2.07s-1.91-.72-1.91-2.07v-4.59Z"/><polygon class="g" points="152.75 43.14 153.8 43.14 155.95 48.59 155.97 48.59 155.97 43.14 156.78 43.14 156.78 49.67 155.67 49.67 153.58 44.38 153.56 44.38 153.56 49.67 152.75 49.67 152.75 43.14"/><path class="g" d="m175.35,47.43c-.07,1.23-.56,2.37-1.98,2.37-1.85,0-2.1-1.75-2.1-3.39s.3-3.39,2.1-3.39c1.34,0,1.89.75,1.93,2.03h-.84c-.02-.74-.26-1.37-1.09-1.37-1.11,0-1.26,1.22-1.26,2.73s.15,2.73,1.26,2.73c.98,0,1.11-.91,1.14-1.71h.84Z"/><rect class="g" x="189.84" y="43.14" width=".8" height="6.53"/><polygon class="g" points="205.13 43.14 205.93 43.14 205.93 48.95 208.58 48.95 208.58 49.67 205.13 49.67 205.13 43.14"/><path class="g" d="m181.68,16.43c1.05,0,1.92-.92,1.92-2.04s-.86-2.03-1.92-2.03-1.92.92-1.92,2.03.86,2.04,1.92,2.04"/><path class="g" d="m104.87,25.98v-.06c2.2-.23,6.13-1.03,6.13-5.95,0-2.61-2.53-5.36-7.08-5.36h-9.62v.68h2.9v23h-2.9v.67h10.75c2.87,0,6.53-2.08,6.53-6.42,0-4.09-3.49-6.54-6.71-6.56m-4.56-10.7h1.9c5.87,0,5.67,3.3,5.67,5.01,0,4.38-.92,5.19-5.25,5.19h-2.33v-10.2Zm2.88,23h-2.88v-11.95h1.97c4.69,0,5.83,2.31,5.83,5.92s-.02,6.04-4.91,6.04"/><path class="g" d="m150.92,38.49c-.8-.22-.73-.54-1.43-1.45l-4.99-8.35,4.45-5.37h2.11v-.7h-5.1v.7l1.85-.02-6.7,7.96V14.55s-5.33,0-5.33,0v.72h.83s1.4-.08,1.64.18c.24.27.2.64.2.64v22.22h-2.03v.7h6.76v-.7h-2.06v-5.8s1.43-1.63,1.43-1.63l4.44,7.43h-1.81v.7h6.69v-.47s-.94-.06-.94-.06Z"/><path class="g" d="m137.34,23.92c-.07-1.2-1.4-1.56-2.46-1.56-2.6,0-4.35,1.67-4.73,3.19h-.06v-2.94h-5.33v.72h.83s1.4-.08,1.64.19c.24.27.2.64.2.64v14.16h-2.19v.7h7.26v-.7h-2.41v-9.93c0-3.35,2.55-5.03,3.85-5.08,1-.04,1.43.21,1.71.57.28.36.29.72.8.88.56.16.86-.53.91-.84"/><path class="g" d="m197.05,23.92c-.07-1.2-1.4-1.56-2.46-1.56-2.6,0-4.35,1.67-4.73,3.19h-.06v-2.94h-5.33v.72h.83s1.4-.08,1.64.19c.24.27.2.64.2.64v14.16h-4.1s0-15.68,0-15.68h-5.33v.72h.83s1.4-.08,1.64.19c.24.27.2.64.2.64v14.14s-1.68,0-1.68,0h-2.51v-11.97c0-1.99-.95-3.81-4.35-3.81-2.32,0-3.9,1.66-4.73,3.28l-.06.16v-11.41h-5.34v.72h.83s1.4-.08,1.64.18c.24.27.2.64.2.64v22.21s-2.02,0-2.02,0v.7h6.79v-.7h-2.09v-11.26c.57-1.15,1.94-3.66,4.6-3.66,1.02,0,1.87.29,1.87,2.14v12.78h-2.03v.7h20.42v-.71h-2.09v-9.93c0-3.35,2.55-5.03,3.85-5.08,1-.04,1.43.21,1.7.57s.29.72.8.88c.56.16.86-.53.91-.84"/><path class="g" d="m159.03,29.59c-4.02-1.61-5.02-2.41-5.02-3.68,0-1.57,1.19-2.61,2.68-2.61,3.49,0,3.83,3.49,4.21,3.49.58,0,.42-.46.42-1.49,0-.27.04-1.57-.19-1.88-.46-.58-3.1-.88-3.75-.88-2.8,0-5.17,1.53-5.17,4.6,0,2.72,2.57,3.72,4.64,4.75,1.53.73,3.49,1.34,3.49,3.37s-1.53,3.3-3.41,3.3c-4.14,0-3.72-5.22-4.56-5.22-.57,0-.46,1.23-.46,1.88,0,3.03,0,2.75.84,2.75.92,0,1.61,1.43,4.29,1.43,2.84,0,5.17-2.38,5.17-5.25,0-2.45-1-3.64-3.18-4.56"/><path class="g" d="m124.41,34.3c-.66,2.27-1.98,3.9-4.29,3.9-3.28,0-4.57-3.67-4.57-7.29v-.25h9.62c0-4.23-1.56-8.38-5.79-8.38-4.82,0-6.73,4.52-6.73,8.77s2.73,8.1,6.55,8.1c2.8,0,4.99-1.12,6.09-4.77l-.88-.09Zm-5.31-11.56c3.49,0,3.34,4.85,3.34,7.12h-6.88c0-1.95.5-7.12,3.55-7.12"/><path class="g" d="m207.86,34.3c-.66,2.27-1.98,3.9-4.29,3.9-3.28,0-4.56-3.67-4.56-7.29v-.25h9.61c0-4.23-1.56-8.38-5.79-8.38-4.82,0-6.73,4.52-6.73,8.77s2.73,8.1,6.55,8.1c2.8,0,4.99-1.12,6.09-4.77l-.88-.09Zm-5.31-11.56c3.49,0,3.34,4.85,3.34,7.12h-6.88c0-1.95.49-7.12,3.55-7.12"/><path class="g" d="m73.12,26.9c0-3.06,2.38-4.6,5.17-4.6.65,0,3.29.31,3.75.88.23.31.19,1.61.19,1.88,0,1.03.15,1.49-.42,1.49-.38,0-.73-3.49-4.21-3.49-1.49,0-2.68,1.04-2.68,2.61,0,1.26,1,2.07,5.02,3.68,2.18.92,3.18,2.11,3.18,4.56,0,2.87-2.34,5.25-5.17,5.25-2.68,0-3.37-1.43-4.29-1.43-.84,0-.84.28-.84-2.75,0-.65-.11-1.88.46-1.88.84,0,.42,5.22,4.56,5.22,1.88,0,3.41-1.31,3.41-3.3s-1.95-2.64-3.49-3.37c-2.07-1.03-4.64-2.03-4.64-4.75"/><path class="g" d="m61.49,30.58v.25c0,3.62,1.28,7.29,4.56,7.29,2.32,0,3.63-1.63,4.29-3.9l.88.08c-1.09,3.66-3.29,4.78-6.09,4.78-3.82,0-6.55-3.66-6.55-8.1s1.91-8.78,6.73-8.78c4.23,0,5.79,4.15,5.79,8.38h-9.62Zm6.88-.8c0-2.27.16-7.12-3.34-7.12-3.05,0-3.55,5.16-3.55,7.12h6.88Z"/><path class="g" d="m85.32,18.16s.15-.04.2-.06c2.13-.65,2.49-2.83,2.49-2.83v7.1s3.6,0,3.6,0v.85h-3.6v13.42c0,1.38.54,1.66,1.55,1.66,1.34,0,2.36-1.13,2.36-1.13l.82.07s-1.33,1.76-3.72,1.76c-2.22,0-3.7-1.28-3.7-3.5v-12.27h-1.45v-.85h1.45v-4.21Z"/></g><g class="j"><path class="g" d="m55.66,14.6v.54h.69s1.61.5,1.49,1.11c-.09.47-3.9,16.79-3.9,16.79l-4.3-17.9h2.85v-.54h-7.56v.54h1.9l.81,3.38-3.03,14.52-4.3-17.9h2.05v-.54h-6.6v.54h1.74l5.77,23.69h.65l4.13-18.6,4.55,18.6h.65l3.93-16.28,1.35-5.65c.36-1.19,1.15-1.77,2.25-1.77h.21v-.54h-5.33Z"/><path class="g" d="m14.62,2.41s-.09.02-.12.04c0,0-.02.01-.02.01h-.09s-.02.11-.02.11c-.12.6-.11,1.47-.1,1.88-.03-.01-.05-.02-.09-.02-.02,0-.04,0-.05,0h-.04s-.03.04-.03.04c-.08.08-.07.19-.07.26,0,.02,0,.04,0,.06v.06s.04.05.04.05c.02.02.04.04.08.05,0,.01,0,.03,0,.04,0,.06-.02.13,0,.21h0s0,0,0,0c.02.08.08.11.12.14,0,.02,0,.04-.01.05-.06-.04-.14-.08-.23-.08-.02,0-.04,0-.06,0h-.02s-.02.01-.02.01c-.02,0-.05-.03-.08-.05,0,0,0,0-.01,0,0,0,0,0,0,0-.02,0-.06-.05-.11-.06,0,0-.01,0-.02,0-.03-.01-.07-.03-.12-.03-.07,0-.13.03-.17.08l-.03.04h0s-.05,0-.08,0c-.04,0-.09.01-.13.04l-.08.04v.09s0,.15,0,.15c-.02,0-.04,0-.07,0-.05,0-.1.02-.15.05l-.05.04v.07c-.01.12.06.2.12.25-.03.04-.07.07-.1.1,0,0-.01,0-.02,0-.04.02-.14.06-.16.17,0,0-.01,0-.02,0-.03,0-.07,0-.11.03-.25.08-.22.33-.21.44,0,.05.01.1,0,.12v.06s.02.05.02.05c.02.03.08.09.22.09.02,0,.04,0,.06,0,.02,0,.03,0,.05.01.02,0,.04,0,.06.01,0,.01,0,.02,0,.03,0,.07.2.15.14.15h0s.02,0,.03,0c0,0,.01,0,.02,0,.05.06.12.09.17.11.02,0,.05.02.05.03h0s0,.01,0,.01c.11.09.23.18.33.26.02.01.04.03.05.04-.05.05-.1.09-.15.14-.01.01-.02.02-.03.03l-.03-.04s-.02-.03-.03-.04c-.12-.15-.27-.36-.52-.36-.02,0-.05,0-.07,0h-.02s-.02,0-.02,0c-.13.06-.28.09-.43.12-.14.03-.29.06-.43.11h-.03s-.02.04-.02.04c-.03.03-.05.06-.08.09-.09.11-.17.2-.28.28h0s0,0,0,0c-.08.07-.11.15-.07.26h-.01s0,.08,0,.08c0,.04-.02.08-.05.13v.02s-.02.02-.02.02v.03s0,.03,0,.04c-.01.08-.03.21.08.31l.04.04h.06s.17-.03.2-.03c.15-.03.21-.05.25-.11l.02-.03v-.03s.04-.02.06-.02h.06s.03-.06.03-.06c.04-.06.05-.14.06-.21h.03c.06-.01.14-.04.17-.16h0s.03-.07.03-.07c.02-.06.08-.07.24-.09.02,0,.04,0,.05,0,.1.09.14.24.19.39.01.04.03.08.04.13,0,0-.02,0-.02,0-.12.04-.22.07-.34.08h-.06s-.04.05-.04.05h0c-.17.22-.35.43-.54.62l-.06.06.02.08c.02.09-.02.15-.1.26-.04.05-.08.11-.11.17l-.02.04v.04c.03.1.01.2,0,.33,0,.07-.02.13-.02.21v.06s.04.04.04.04c0,0,0,0,0,0,.03.03.08.09.17.09.02,0,.04,0,.07-.01h0s0,0,0,0c.02-.01.04-.02.07-.03.21-.1.45-.21.54-.49v-.03s0-.03,0-.03c0-.08-.04-.13-.07-.17h.09s.04-.03.04-.03c.09-.08.09-.18.1-.24,0-.01,0-.03,0-.04h0c.06-.1.14-.2.23-.29.06,0,.12.01.19.01.09,0,.18,0,.26-.01.03,0,.07,0,.11-.01h0s0,.04,0,.04c.03.1.11.2.17.26-.02.08-.03.17.06.22.07.05.29.19.29.2l.12.08.06-.09h0s.07.04.12.05h.05s.04,0,.04,0c0,0,.01,0,.02,0,.04-.01.12-.04.16-.11,0,0,0,.01.01.01l.03.03h.04c.09.03.19.05.27.08v.28l.04.03c.04.18.12.33.25.46.02.04.04.07.06.09,0,0,0,0,0,0-.04.02-.09.05-.14.09l-.2.12c-.18,0-.31.02-.48.04h-.03s-.14.02-.14.02v.14s.05.39.05.39l-.09-.39-.03-.13-.13.02c-.36.06-.71.15-1.05.26l-.13.04.03.09-.03-.08-.13.05c-.37.15-.66.31-.98.54l-.09.07.05.11.43.98c-.05,0-.11.04-.14.13-.09.02-.19.05-.27.14l-.02.02v.03s-.02.07-.01.1c-.04.01-.09.04-.13.08h0s0,0,0,0c-.07.1-.05.19-.03.25-.05.04-.08.08-.12.12-.01.02-.03.03-.04.05l-.02.02v.02c-.05.08-.06.15-.02.21-.09.03-.17.08-.24.16l-.02.02v.02s-.02.03-.02.03c-.03.04-.06.08-.09.12-.02,0-.03,0-.05,0-.15,0-.28-.08-.42-.17h0c-.15-.11-.33-.22-.55-.22-.03,0-.06,0-.08,0-.02-.06-.04-.11-.07-.17-.03-.08-.06-.16-.1-.25l-.03-.07h-.07s-.12-.04-.12-.04h-.05s-.04.02-.04.02c-.1.06-.22.09-.34.13-.26.08-.55.17-.72.47-.13.14-.19.32-.24.48-.05.14-.08.25-.15.33.02-.05.03-.11.05-.16.03-.08.06-.17.08-.25.02-.07.03-.15.05-.22.26-1.09.58-2.45-.02-3.47h0s0-.02,0-.02c-.47-.61-1.2-.69-1.79-.69h-.05l-.04.04s-.03.02-.03.02c-.02,0-.07-.05-.1-.08-.06-.06-.13-.13-.22-.16-.13-.05-.27-.08-.41-.08-.46,0-.85.29-1.2.54.04.06-.06.04-.11.08-.01,0-.04.01-.07.02-.07.02-.18.05-.23.14-.03.06-.04.13,0,.21l.02.07.07.02c.09.03.15.1.23.22.03.04.06.09.1.14-.21.22-.43.49-.44.84,0,.03-.07.09-.11.12-.08.08-.19.18-.18.32,0,.09.06.17.15.24l.06.04.07-.02s.1-.02.15-.02c.12,0,.25.03.36.06h0c.13.03.27.06.4.06s.25-.03.35-.09c.03.07.07.13.12.18h-.12l-.03.1c-.03.1-.12.18-.22.27-.04.04-.08.07-.12.11-.14-.07-.28-.11-.42-.15-.2-.06-.39-.11-.53-.26l-.04-.04h-.25v.15c0,.19-.07.39-.16.6-.14.34-.29.72-.04,1.11-.1.07-.22.14-.3.27-.12.1-.18.2-.19.31,0,.18.15.31.28.42.08.06.17.14.19.2v.03s.03.02.03.02c.18.18.41.22.61.26.22.04.4.08.53.26.09.13.17.26.25.39.05.08.1.17.16.26-.16-.11-.35-.16-.52-.21-.16-.04-.3-.09-.43-.16l-.1-.06-.08.08-.07.07-.07.07.05.09c.07.14.09.35.04.5-.05-.01-.1-.02-.15-.02-.17,0-.33.07-.46.13h0c-.12.05-.23.1-.34.1-.08,0-.15-.02-.22-.07l-.08-.05-.08.05c-.11.07-.14.18-.17.25,0,.01,0,.02-.01.03h0s0,.02,0,.02c-.09.53.07,1,.44,1.28.06.07.15.1.22.11,0,0,.02,0,.03,0h0v.03c0,.08-.04.15-.1.24-.07.13-.17.28-.11.48l.03.13.13-.02s.04,0,.06,0c.11,0,.21.06.32.13.07.05.14.09.23.13h0s0,0,0,0c.09.03.19.04.28.04.27,0,.49-.11.71-.22h.01c.19-.1.39-.2.62-.2h0l.03.04c-.73.78-1.46,1.73-1.71,2.9-.17.48-.03.96.09,1.39.03.09.05.17.07.26.05.36.17.68.29,1,.06.15.11.31.16.47h0s0,.01,0,.01c.11.26-.02.42-.23.67-.18.21-.39.45-.34.79v.47c.04.07.05.15.06.24.01.11.02.22.07.33l.03.06.06.02s.06.01.09.01c.01,0,.02,0,.03,0h0c0,.09,0,.2.03.29.09.33.35.56.61.79.09.08.18.16.25.23l.08.08.1-.05c.19-.1.18-.31.17-.44,0-.06,0-.13,0-.17,0-.01.02-.03.03-.05.01-.03.04-.09.06-.1.04.02.08.06.13.09.09.08.19.16.33.16.02,0,.04,0,.05,0h.07s.03-.08.03-.08c.25-.54.42-1.29.22-1.89.17.08.34.13.52.15.48.07.96.43,1.17.87-.26.19-.42.46-.44.75-.05.34.09.67.4.91-.11.2-.18.39-.23.58-.02.05-.02.1-.03.14-.01.09-.02.1-.04.11-.42.19-.76.44-1.01.74-.45.47-.14.88.1,1.21.14.19.28.38.29.56v.03s.02.03.02.03c.12.2.18.41.24.65.05.17.1.35.17.52v.03s.04.02.04.02c.12.1.27.16.43.16.03,0,.06,0,.1,0h.02s.02-.01.02-.01c.3-.14.3-.45.3-.68,0-.09,0-.18.01-.26.12-.15.29-.24.47-.25.18.05.27.08.37.19-.08.1-.15.19-.23.28-.39.48-.69.85-1.12,1.22l-.08.07.05.1c.25.53.85,1.79,2.07,2.91,1.51,1.38,3.44,2.08,5.76,2.08,1.34,0,2.57-.23,3.66-.7.88-.38,1.67-.9,2.35-1.57,1.11-1.09,1.61-2.27,1.71-2.64l.02-.07-.05-.06-1.14-1.37s.03-.06.14-.14c.04-.03.08-.06.11-.09h0c.14-.08.29-.16.43-.16.02,0,.04,0,.06,0,0,.04-.02.08-.03.12-.02.08-.05.18-.05.29-.03.22.12.34.23.43.02.02.04.03.05.04l.04.03h.05s.09,0,.14.02c.06.01.13.02.19.02.17,0,.3-.08.38-.23.23-.43.43-.91.6-1.47h0c.04-.13.08-.25.13-.38.11-.27.22-.55.2-.9h0s0-.01,0-.01c-.05-.35-.37-.66-.66-.75h0s0,0,0,0c-.21-.05-.28-.22-.38-.49-.06-.15-.11-.31-.22-.45-.05-.08-.11-.14-.17-.19-.03-.03-.06-.06-.09-.09.2-.19.31-.45.33-.8h0s0-.03,0-.03c-.04-.27-.17-.52-.37-.71.08-.16.26-.34.5-.49.35-.12.67-.29.98-.45.14-.07.27-.14.41-.21h0s0,0,0,0c.06-.03.12-.07.18-.11.02,0,.03-.02.04-.03-.02.02-.05.04-.07.06-.04.03-.08.07-.12.1-.68.39-.67,1.14-.6,1.68,0,.09.01.19.08.26.04.04.09.06.15.06.08,0,.16-.05.24-.1h.02s.1-.07.13-.08l.04.02.05-.02c.11-.03.18-.1.23-.17.14.31.43.47.68.61.05.03.1.06.15.09h.01s.01.01.01.01c.02,0,.04.04.06.07.05.06.11.16.25.18h.1s.04-.08.04-.08c.02-.05.05-.1.07-.14.12-.25.25-.52.3-.82v-.03s0-.03,0-.03c-.02-.07-.04-.14-.06-.22-.01-.05-.02-.11-.04-.16h0c.07,0,.16.03.23.07l.03.02h.01s.01.02.02.03c.03.05.09.14.2.14.1,0,.16-.08.18-.1l.05-.07-.03-.08c-.07-.17-.03-.44-.01-.58.08-.37-.12-.61-.3-.83-.14-.17-.27-.32-.25-.53h0s0,0,0,0c0,0,0,0,0,0h0c.05-.35.15-.7.24-1.04.16-.58.32-1.18.3-1.86h0s0-.01,0-.01c-.1-.81-.39-1.53-.85-2.14-.16-.24-.4-.39-.63-.54-.22-.14-.43-.27-.55-.47.11-.05.24-.07.38-.07.23,0,.46.06.62.17h.01s.02.02.02.02c.09.03.18.05.29.05.16,0,.3-.04.42-.08h0c.12-.03.23-.07.33-.07.09,0,.17.03.25.08l.05.03h.06c.12-.03.2-.13.21-.28v-.06s-.03-.04-.03-.04c-.07-.1-.09-.23-.11-.38-.02-.13-.03-.27-.1-.41.08-.08.13-.18.19-.27.12-.19.19-.31.35-.32h.09s.03-.1.03-.1v-.02c.03-.07.08-.2-.07-.33l-.03-.03h-.04c-.17-.04-.3-.19-.43-.34-.17-.2-.36-.43-.68-.43-.07,0-.14.01-.21.03,0-.11,0-.23-.02-.33-.01-.08-.02-.16-.02-.24h0s.01-.08.03-.13c.03-.08.07-.18.03-.29l-.08-.27-.17.22c-.12.16-.3.19-.5.23-.15.03-.31.06-.46.15.05-.1.1-.21.15-.31h0s0-.01,0-.01c.11-.35.38-.5.7-.68.23-.13.46-.26.64-.48h0s0-.02,0-.02c.08-.14.23-.26.37-.38.07-.06.14-.12.2-.18l.1-.1-.07-.06.03-.07-.15-.05c-.2-.07-.36-.13-.48-.26l-.02-.03h-.03s-.08-.04-.11-.05c.02-.15.01-.31.01-.46,0-.22,0-.45.05-.66l.03-.13-.13-.04s-.02,0-.03,0l-.04-.12-.16.13c-.12.1-.3.11-.49.12-.23.01-.48.03-.68.2-.04-.05-.09-.09-.13-.13-.16-.16-.22-.23-.17-.36h0s0-.02,0-.02c.01-.06.02-.11.02-.17,0-.05.01-.1.02-.15h.04c.06.02.13.03.19.03.24,0,.43-.08.61-.16.15-.06.29-.12.44-.14h.05s.02-.02.02-.02c.01,0,.02,0,.03,0h.01s.02,0,.03,0c.03,0,.13,0,.2-.08.04-.06.05-.13.02-.22l-.02-.05-.04-.03c-.18-.12-.23-.31-.28-.52-.05-.21-.1-.44-.3-.61.08-.1.17-.21.26-.21h.05l.04-.03c.13-.11.13-.22.12-.3v-.07s-.08-.03-.08-.03c0,0-.02,0-.02-.01-.04-.02-.1-.05-.17-.05-.37-.23-.82-.46-1.38-.46-.07,0-.15,0-.22.01h-.02s-.02.01-.02.01l-.52.23c-.07.03-.13.08-.19.13-.05.05-.11.09-.15.09-.01,0-.02,0-.03,0h-.02s-.02-.01-.02-.01c-.06,0-.13,0-.19,0-.72,0-1.36.4-1.72,1.07h0s0,.01,0,.01c-.44,1.03-.14,2.14.12,3.12.03.11.06.22.09.33h0c-.08-.05-.2-.11-.34-.12v-.02s0-.03,0-.05v-.02s0-.02,0-.02c-.14-.52-.64-.66-1.01-.72h-.01s-.01,0-.01,0c-.01,0-.04-.02-.05-.03-.05-.04-.12-.09-.21-.09-.07,0-.14.03-.2.1l-.06.06.03.08c.06.16,0,.3-.05.47-.06.17-.13.38-.05.59-.18.11-.32.28-.44.44-.04.05-.08.1-.12.15-.05.02-.1.05-.14.07-.09.04-.17.09-.26.13h-.03s-.02.04-.02.04c-.05.06-.07.15-.05.23-.04-.07-.09-.13-.13-.19h0s.02-.04.03-.07c.15-.18.15-.41.14-.6,0-.05,0-.09,0-.13v-.03s-.01-.03-.01-.03c0-.02-.01-.04-.02-.06-.01-.04-.02-.08-.05-.13-.07-.31-.26-.55-.55-.72,0-.02.02-.05.03-.08v-.02s0-.03,0-.03c-.02-.14-.11-.18-.17-.2-.02-.09-.09-.15-.13-.18,0,0,0,0,0,0,0-.06,0-.13-.02-.17v-.02s-.02-.02-.02-.02c-.04-.05-.11-.11-.23-.11-.02,0-.05,0-.07,0-.02-.05-.04-.09-.07-.14v-.02s-.02-.01-.02-.01c-.03-.03-.07-.05-.11-.05,0,0,0,0,0-.01h0s0-.01,0-.01c-.01-.05-.04-.09-.08-.12l.41-.92.05-.11-.09-.07c-.17-.12-.34-.23-.5-.32,0-.13-.01-.31-.02-.48,0-.03,0-.05,0-.08h0c-.06,0,0-.07,0-.14h0c0-.07,0-.23-.19-.29-.1-.05-.2-.11-.24-.2-.01-.06,0-.12.01-.19,0-.04.02-.08.02-.13.03-.08.06-.18.07-.29.09-.09.08-.22.07-.3,0-.02,0-.03,0-.05.04-.02.09-.04.14-.06.02,0,.04-.02.06-.03l.04-.02.02-.03c.07-.1.18-.17.3-.2h0s0-.04.02-.04c.01,0,.03,0,.05.01.02,0,.04.01.06.01t0,0s.05,0,.06.02c.02.03.03.13,0,.24-.03.08-.06.15-.1.22-.04.07-.08.14-.11.23h0s0,0,0,0c-.07.25-.08.63.31,1.02.08.08.19.11.28.14.12.03.14.05.14.07-.02.24.14.45.31.57h.01s.01.01.01.01c.1.04.16.06.2.06.07,0,.13-.04.15-.1.04-.11-.05-.2-.15-.28-.02-.03-.01-.05.08-.15.06-.07.13-.15.17-.25.16-.28-.02-.49-.13-.63-.12-.14-.15-.2-.1-.3.1-.2.16-.37.23-.55.01-.03.02-.07.04-.11.09-.24.09-.64-.12-.95-.14-.2-.42-.43-.98-.43-.04,0-.08,0-.12,0-.49.03-.89.61-1,.79,0,.01-.03.02-.09.03-.02,0-.04,0-.06,0-.01,0-.02-.01-.04-.02l.03-.08-.12-.06-.2-.1-.1-.05s0,0,0,0c.04-.05.1-.13.08-.25,0-.05,0-.29-.04-.44-.03-.11-.06-.19-.1-.28,0-.02-.02-.04-.02-.07.11-.09.23-.2.28-.38h0s0-.02,0-.02c0-.03,0-.07.01-.11.03-.26.07-.59-.14-.84-.01-.02-.03-.04-.05-.06.11-.05.2-.14.27-.26.25-.11.25-.37.25-.54,0-.07,0-.14.01-.19v-.03s0-.03,0-.03c0-.06-.04-.27-.22-.33h-.02s-.02,0-.02,0c-.04,0-.06-.03-.12-.13-.01-.03-.03-.05-.05-.08,0-.15-.07-.3-.17-.4-.07-.07-.16-.11-.26-.11s-.19.04-.27.07c-.04.01-.08.03-.11.04h-.02s-.02.02-.02.02c-.27.18-.43.39-.46.6-.04.02-.09.04-.14.06-.07.03-.14.05-.2.09h0s-.05-.05-.05-.05c0-.01,0-.04,0-.06,0-.04.01-.11,0-.18.02-.01.03-.02.04-.04l.04-.05v-.06s0-.03,0-.06c0-.07.01-.18-.07-.26l-.03-.03h-.04s-.03-.02-.05-.02c-.04,0-.07,0-.1.02-.02-.41-.08-1.56-.12-1.9,0-.05-.02-.08-.04-.1-.03-.03-.07-.05-.11-.05m-.21,1.54c0-.42.02-.95.1-1.35.03,0,.09-.05.11-.05,0,0,0,0,0,.01h0c.04.36.11,1.76.13,2.01,0,.03,0,.04,0,.04,0,0,.04.07.08.07,0,0,0,0,.01,0,.05-.04.08-.1.14-.1,0,0,.01,0,.02,0,.03.03.03.07.03.11,0,.03,0,.07,0,.1,0,.01,0,.02,0,.03-.01.02-.04.02-.06.02,0,0-.02,0-.02,0s-.02,0-.02,0c-.03,0-.05,0-.05.04,0,0,0,.02,0,.03.04.02.06.04.07.07,0,0,0,0,0,0,0,.02,0,.04,0,.06,0,.05-.01.1-.01.14s.01.08.05.11v.44c-.07.01-.08.06-.08.11,0,.04,0,.08,0,.11,0,.02,0,.04-.01.06.12.14.25.29.32.47,0,0,0,0,0,.01.01.03.02.06.02.09h.09s.02-.06.02-.09c0,0,0-.01,0-.02.02-.08.02-.12.04-.18,0-.06.03-.08.03-.12,0-.02,0-.04-.02-.06,0-.06-.04-.18-.07-.21,0-.02,0-.04,0-.06,0-.2-.31-.13-.29-.37.02-.02.04-.04.06-.06.15-.12.33-.14.49-.25h0c0-.25.21-.45.4-.57.11-.02.23-.1.35-.1.06,0,.11.02.16.07.08.08.13.19.13.31,0,.01,0,.02,0,.03.09.11.13.3.3.31.09.03.12.13.13.22-.06.23.07.57-.23.66-.06.12-.14.21-.27.26h-.13s0,.02,0,.03c0,.04.02.08.06.11,0,0,0,0,0,0,.04.04.08.07.1.11.1.12.13.27.13.43,0,.14-.02.29-.04.42-.04.17-.18.26-.31.37.04.14.11.27.15.43.04.15.04.39.04.41h0s0,.02,0,.03c0,.07-.04.11-.07.15-.05.03-.09.04-.13.04-.06,0-.12-.02-.2-.04-.08-.02-.22-.03-.34-.04.04.03.08.06.12.08s.09.04.12.06c.05.02.15.06.15.06l.04-.06.18.08.04.02-.03.07.15.07.05-.08.2.1-.03.08s.14.07.21.09c.09-.03.21,0,.28-.11.17-.27.52-.7.89-.72.04,0,.08,0,.11,0,.8,0,1.01.5,1.01.89,0,.11-.02.22-.05.29-.08.22-.14.4-.26.64-.03.05-.04.1-.04.14,0,.24.32.39.32.62,0,.05-.01.11-.05.17-.04.17-.27.28-.27.43,0,.04.01.08.05.13.09.07.12.11.12.12,0,0,0,0-.01,0-.03,0-.1-.03-.15-.05-.14-.1-.25-.26-.25-.42,0-.01,0-.03,0-.04-.02-.24-.32-.17-.46-.31-.23-.23-.3-.46-.3-.66,0-.08.01-.15.03-.22.05-.16.15-.26.21-.45.02-.06.03-.13.03-.19,0-.13-.05-.25-.22-.25h0c-.22,0-.42.1-.54.28-.09.04-.18.08-.27.13-.01.03-.01.06-.01.09,0,.04,0,.09,0,.13,0,.06-.01.12-.07.15,0,.12-.03.23-.07.33,0,.1-.04.2-.04.3,0,.03,0,.06.01.09.05.15.19.23.32.29.1.03.1.09.1.14h0s0,.03,0,.04c0,.22.02.51.02.7l.02.08c.19.1.37.21.54.34l-.46,1.04v.02s.11,0,.12.07c0,.05.02.1.05.14,0,0,.01,0,.02,0,0,0,.02,0,.03,0,0,0,.02,0,.03,0,0,0,.02,0,.02,0,.04.07.08.15.09.23.04,0,.09-.02.14-.03.01,0,.02,0,.03,0,.04,0,.08.01.11.05,0,.01.01.04.01.07s0,.05-.02.07c.03.09.16.12.16.22,0,.01,0,.03,0,.05.04.03.1.03.14.05.02.01.04.03.04.07-.01.05-.05.1-.05.16,0,.01,0,.02,0,.03.29.15.51.38.57.7.04.06.04.13.07.19,0,.02,0,.04,0,.07,0,.04,0,.09,0,.13,0,.17-.01.35-.14.47,0,0,0,.01,0,.01,0,.05-.05.06-.08.11.01.02.02.04.02.07l.05.02c.5.75,1.01,1.62,1.8,2.1.12.03.22.11.33.17.15.05.33.07.5.07.28,0,.57-.07.78-.24.2-.17.31-.41.31-.65,0-.07,0-.15-.03-.22-.05-.13-.11-.26-.23-.35-.06-.02-.13-.03-.2-.03s-.14,0-.2.03c-.29.3-.52.76-.99.78-.1.04-.15.19-.27.19,0,0,0,0-.01,0-.03-.03-.04-.05-.04-.07,0-.06.07-.1.07-.17,0,0,0-.01,0-.02-.04-.21-.16-.39-.21-.59l-.05-.24s-.09.01-.13.01c-.43,0-.6-.5-1-.6-.02-.02-.03-.06-.03-.09s.01-.07.03-.09c.14-.07.28-.14.42-.21.17-.19.32-.44.53-.57h0s.08-.05.13-.06c-.06-.09-.08-.18-.08-.26,0-.24.17-.47.16-.73,0-.06,0-.12-.03-.19.03-.04.06-.05.09-.05.04,0,.08.03.13.06.04.03.08.06.13.06h0c.38.06.79.2.9.61h0s0,.05,0,.07c0,.06,0,.11.07.14.02,0,.04,0,.05,0,.11,0,.2.05.29.1.04.02.08.04.12.06,0,0,.01,0,.02,0,.04.02.08.03.13.03h.01c-.19-.79-.5-1.65-.5-2.5,0-.37.06-.74.21-1.11.32-.61.91-1,1.6-1,.06,0,.11,0,.17,0,.03.02.07.02.1.02.15,0,.26-.18.4-.24l.52-.24c.07,0,.14,0,.21,0,.51,0,.94.2,1.35.46.01,0,.02,0,.03,0,.05,0,.09.03.13.05,0,.01,0,.02,0,.03,0,.05-.03.1-.07.13-.21,0-.34.24-.47.38.05.03.08.05.12.08h0c.34.31.15.86.59,1.14,0,.03.01.04.01.06,0,.05-.04.06-.09.06-.01,0-.02,0-.04,0-.01,0-.02,0-.04,0-.03,0-.07,0-.08.02-.37.03-.65.3-1.04.3-.05,0-.11,0-.17-.02-.02-.02-.04-.02-.06-.02,0,0-.01,0-.02,0h-.02s-.05,0-.06-.02c-.07.14-.06.31-.09.47-.02.05-.03.09-.03.13,0,.22.22.35.37.52,0,0,0,0,0,0,.03.04.06.08.08.12.03-.04.06-.08.09-.11,0,0,0,0,0,0,.32-.29.85-.07,1.18-.33,0,.02.02.03.04.03,0,0,.01,0,.02,0,0,0,.01,0,.02,0s.01,0,.02,0c-.04.18-.05.37-.05.56,0,.08,0,.17,0,.25,0,.14,0,.28-.02.42.06.07.05.04.21.09.15.17.35.24.54.31,0,0,0,0,0,.01,0,.01.02.02.03.04-.18.18-.45.35-.59.59-.4.49-1.15.53-1.37,1.2-.32.72-.78,1.37-1.37,1.98.02.02.04.03.05.03.03,0,.06-.02.09-.04.01-.01.03-.02.05-.03.08-.07.17-.15.25-.23.34-.32.64-.7.84-1.09.31-.36.85-.15,1.15-.54,0,.02,0,.03,0,.05,0,.1-.08.2-.08.31h0c0,.18.05.35.05.52,0,.08-.01.17-.05.25.01,0,.02,0,.04,0,.03,0,.07-.02.1-.03,0,0,.01,0,.02,0,.02,0,.03-.01.05-.01.07-.02.13-.03.19-.03.48,0,.61.68,1.08.76.04.03.05.06.05.09,0,.03-.01.06-.03.1-.38.03-.44.51-.71.71.2.25.08.64.28.89,0,.06-.03.13-.09.14-.11-.08-.22-.1-.33-.1-.12,0-.25.04-.37.07-.12.04-.25.07-.38.07-.08,0-.15-.01-.24-.04-.18-.13-.45-.2-.7-.2-.21,0-.41.05-.57.15.22.57.94.67,1.25,1.15.47.61.73,1.31.83,2.07,0,.03,0,.06,0,.1,0,1-.4,1.84-.54,2.78,0,.02,0,.05,0,.07,0,.46.56.68.56,1.13,0,.05,0,.09-.02.14-.01.1-.03.23-.03.35,0,.11.01.22.05.31-.03.04-.05.05-.07.05-.07,0-.09-.17-.19-.17-.08-.06-.2-.1-.31-.1-.07,0-.13.01-.18.05.06.17.09.35.14.52-.05.33-.21.62-.35.92-.14-.02-.15-.19-.28-.24-.28-.16-.63-.3-.78-.64-.03-.1-.03-.24-.1-.3-.07.14-.12.34-.31.4-.01,0-.03,0-.05,0-.07,0-.14.04-.21.09-.07.04-.13.09-.18.09s-.08-.05-.08-.18h0c-.02-.15-.03-.29-.03-.43,0-.45.12-.88.57-1.14.13-.11.29-.23.42-.38,0-.01,0-.02,0-.04,0-.06-.02-.11-.07-.15-.19.08-.36.2-.54.31-.46.22-.9.5-1.39.66-.24.14-.53.39-.61.66.22.17.36.42.4.68-.02.31-.11.6-.38.78.06.15.24.26.33.4.26.32.21.88.68.99.26.09.53.36.57.64,0,.02,0,.05,0,.08,0,.43-.23.77-.33,1.15-.15.5-.34.98-.59,1.44-.06.12-.16.15-.26.15-.11,0-.23-.04-.33-.04-.11-.09-.24-.16-.24-.31,0-.01,0-.03,0-.04h0c0-.19.09-.33.09-.51h0c-.07-.04-.14-.06-.21-.06-.19,0-.37.11-.52.19-.09.1-.31.2-.31.34,0,.03,0,.05.02.08l1.15,1.38c-.13.47-1.81,4.8-7.58,4.8-5.36,0-7.18-3.81-7.7-4.9.55-.47.89-.94,1.44-1.61-.16-.23-.29-.27-.54-.34-.25,0-.46.13-.61.33-.02.08-.02.16-.02.25v.14c0,.2-.02.39-.21.49-.03,0-.06,0-.08,0-.13,0-.25-.04-.34-.12-.17-.38-.21-.82-.43-1.18-.03-.46-.62-.83-.62-1.26,0-.13.05-.26.19-.41.26-.32.61-.55.96-.71.15-.07.1-.22.14-.33.06-.24.16-.45.28-.66-.26-.16-.46-.41-.46-.72,0-.04,0-.08.01-.13.01-.3.22-.55.47-.71-.2-.54-.77-.98-1.32-1.06-.32-.05-.61-.18-.87-.38l-.02.02s.06.07.08.11c.03.04.05.09.08.13.1.21.14.44.14.69,0,.44-.14.9-.3,1.24-.01,0-.02,0-.03,0-.16,0-.28-.22-.44-.26h-.01c-.13,0-.17.15-.22.24-.02.05-.03.1-.03.15s0,.11,0,.17c0,.09-.01.18-.1.22-.29-.3-.73-.57-.82-.97-.02-.06-.02-.12-.02-.19,0-.04,0-.08,0-.11,0-.07,0-.13-.02-.19-.05.04-.09.1-.15.1-.01,0-.03,0-.04,0-.08-.17-.04-.39-.12-.57v-.43s0-.06,0-.09c0-.48.62-.72.62-1.18,0-.07-.01-.15-.05-.24-.15-.49-.37-.94-.45-1.46-.09-.36-.24-.74-.24-1.13,0-.15.02-.3.07-.44.24-1.16.98-2.12,1.84-3.02,0,0,0-.02,0-.02,0-.04-.06-.05-.08-.07,0,0-.02,0-.03,0,0,0-.02,0-.03,0s-.02,0-.03,0c-.02,0-.05,0-.06.03l-.02-.03s-.05,0-.07,0c-.25,0-.47.1-.68.21-.21.1-.42.21-.66.21-.08,0-.16-.01-.24-.04-.2-.08-.36-.27-.6-.27-.03,0-.05,0-.08,0,0-.03-.01-.06-.01-.08,0-.21.22-.37.22-.6,0-.03.01-.05.01-.06,0-.15-.22-.09-.29-.19-.29-.22-.42-.55-.42-.9,0-.08,0-.17.02-.26.02-.08.04-.16.12-.21.11.07.2.09.3.09.14,0,.27-.06.4-.12.13-.06.26-.12.41-.12.07,0,.14.01.21.05.07-.09.11-.22.11-.36,0-.13-.03-.27-.08-.37l.07-.07c.39.25.96.16,1.2.68.17.39.5.8.94.87.11,0,.22.05.33.05h.01s.09,0,.13-.03c-.08-.22-.37-.24-.54-.4-.65-.4-.95-1.08-1.34-1.65-.28-.43-.83-.22-1.15-.54-.09-.21-.46-.35-.46-.55,0-.07.04-.14.15-.22.07-.12.18-.18.28-.25h0s.08-.05.12-.08c-.14-.16-.19-.32-.19-.48,0-.41.33-.81.33-1.24,0,0,0-.01,0-.02h.05c.3.31.75.26,1.08.49.13-.17.38-.31.45-.52h.05c.07.43.56.76.55,1.19,0,.11-.03.22-.11.34,0,.05,0,.1,0,.15,0,.16.03.3.09.43.01.03.03.05.04.08.03.04.05.08.09.11,0-.05,0-.1.01-.14,0-.03,0-.05,0-.08.04-.41.12-.8.2-1.19,0-.08.08-.43.08-.43.04-.29.08-.43.09-.62,0,0,0-.02,0-.03v-.04s0-.07,0-.11c-.18.14-.46.24-.52.49l-.07.05c-.13-.29-.49-.44-.52-.78-.13.14-.28.19-.43.19-.12,0-.25-.03-.38-.06-.13-.03-.26-.06-.39-.06-.06,0-.13,0-.19.03-.07-.05-.1-.1-.1-.14,0-.14.28-.26.29-.42.01-.3.2-.53.4-.74.03-.04.07-.07.1-.1-.19-.16-.25-.43-.49-.5,0-.02-.01-.04-.01-.05,0-.12.19-.09.27-.16.37-.26.76-.59,1.22-.59.12,0,.24.02.36.07.13.04.23.25.37.25.04,0,.08-.02.13-.06.64,0,1.27.11,1.67.64.23.4.32.87.32,1.35,0,.76-.21,1.57-.37,2.24-.05.22-.17.44-.17.66,0,.01,0,.03,0,.04.05-.01.1-.03.13-.05,0,0,0,0,0,0,.35-.19.27-.67.54-.94.21-.4.68-.38,1.01-.57l.12.02c.08.17.12.35.21.52.06-.02.11-.03.17-.03.18,0,.33.1.48.2.15.1.3.2.49.2.04,0,.09,0,.13-.02.04-.06.08-.12.12-.18l.02-.05c.09-.09.2-.15.33-.15,0,0,0,0,0,0,0,0,.02,0,.03,0,.04-.02.08-.06.11-.09-.04-.07-.21-.01-.21-.1,0-.01,0-.03.02-.06.07-.07.13-.14.22-.2,0,0,0,0,0-.01,0-.06-.03-.1-.03-.16,0-.02,0-.04.02-.06.05-.06.19-.04.19-.12,0-.01,0-.03,0-.05,0-.02-.02-.03-.02-.05,0,0,0,0,0-.01.07-.07.17-.09.26-.11.05-.03.01-.12.09-.12,0,0,.02,0,.02,0h0s.09-.02.13-.05h.01s-.51-1.13-.51-1.13c.3-.21.58-.37.95-.52l.2.52.21-.08-.15-.55c.32-.11.66-.2,1.02-.26l.13.57.26-.03-.06-.59c.19-.02.34-.04.54-.04l.25-.14c.1-.09.23-.1.23-.18,0,0,0-.02,0-.03-.01-.07-.09-.1-.1-.17-.14-.14-.21-.28-.25-.46l-.02-.02v-.31c-.12-.06-.26-.1-.39-.12-.06-.06,0-.19-.1-.21-.07.06-.07.14-.13.2,0,.05-.07.07-.12.09-.06-.01-.12-.07-.17-.07-.03,0-.05.01-.08.05,0,0-.22-.15-.29-.2,0,0,0,0,0-.01,0-.04.03-.12.03-.12,0,0-.15-.15-.19-.27v-.14s-.02,0-.03,0c-.08,0-.15,0-.23.02-.08,0-.16.01-.24.01s-.16,0-.23-.03c-.11.11-.22.25-.3.37-.06.07,0,.19-.07.26,0,0,0,0-.01,0-.01,0-.03,0-.05,0s-.03,0-.05,0c-.04,0-.07.01-.08.07,0,.02-.01.03-.01.05,0,.08.08.13.09.21-.08.25-.32.33-.54.44,0,0-.02,0-.02,0-.03,0-.05-.03-.08-.05,0-.15.04-.3.04-.44,0-.04,0-.09-.01-.13.07-.15.22-.26.22-.44,0-.03,0-.06-.01-.09.2-.2.38-.42.56-.64.15-.01.29-.06.43-.11,0,0,0,0,0,0,.04-.01.08-.02.12-.03,0,0,0-.01,0-.02,0-.03-.05-.05-.07-.09-.09-.23-.13-.5-.34-.65-.17.03-.4,0-.47.19-.08.02,0,.13-.09.14h0c-.05,0-.08-.04-.12-.06-.04.11-.01.26-.06.34-.07.01-.13.05-.19.09.01.01.01.03.01.04v.02s-.29.07-.32.07c-.03-.03-.04-.07-.04-.11s0-.08.01-.12c.03-.07.07-.13.07-.21.02-.02.03-.04.03-.06,0-.04-.03-.08-.03-.11,0-.02,0-.04.03-.06.15-.11.25-.24.38-.39.28-.11.6-.11.87-.23.02,0,.03,0,.05,0,.2,0,.34.21.45.35l.04.04.09.11s.07-.06.11-.1c.08-.07.16-.14.23-.21.01-.02.01-.04.01-.06,0-.02,0-.03,0-.05v-.02c-.15-.11-.3-.21-.45-.34-.07-.08-.21-.06-.24-.18-.02,0-.04,0-.06,0h-.03s-.02,0-.03,0c0,0-.01,0-.02,0h0c0-.07-.03-.11-.03-.16,0,0,0-.02,0-.03-.03.01-.05.01-.07.01-.05,0-.1-.03-.17-.03-.02,0-.04,0-.06,0-.08,0-.1-.03-.1-.03,0-.02,0-.04,0-.07,0-.07-.01-.14-.02-.21,0-.08.02-.16.13-.19.07-.03.17,0,.22-.1,0,0,0-.01,0-.02,0-.08.08-.08.13-.11.07-.07.15-.15.21-.24-.05-.06-.18-.1-.18-.21h0s.04-.03.06-.03c.03,0,.05,0,.08.02.02,0,.05.02.08.02.02,0,.04,0,.07-.02v-.3s.04-.02.06-.02c.03,0,.06.01.09.03.01,0,.02.02.03.02.04.03.07.06.12.08v-.23s.02-.03.04-.03c.04,0,.08.03.12.04.07.04.15.12.23.12.02,0,.04,0,.06-.01.01,0,.02,0,.03,0,.07,0,.13.04.18.08,0,0,0,0,0,0,.04.03.07.06.11.09.02-.04.04-.09.05-.13,0,0,0,0,0,0,.01-.05.03-.1.03-.15,0-.02.02-.04.02-.07,0,0,0,0,0-.01-.04-.05-.13-.02-.15-.1,0-.02,0-.04,0-.06,0-.05.01-.11.01-.16,0,0,.01-.05.03-.06,0,0,0-.02,0-.03,0-.04-.02-.04-.05-.04,0,0-.02,0-.02,0,0,0-.02,0-.03,0-.02,0-.04,0-.05-.02,0-.01,0-.02,0-.03,0-.03,0-.07,0-.1,0-.04,0-.08.03-.11,0,0,.01,0,.02,0,.04,0,.07.03.09.05.02.02.03.03.05.05,0,0,0,0,.01,0,.02,0,.04-.02.05-.03.02-.02.03-.04.03-.04,0,0,0-.01,0-.04,0-.02,0-.04,0-.06h0c0-.13-.01-.33-.01-.56m.36-1.36h0s0,0,0,0m2.01,2.24s0,0,0,0c0,0,0,0,0,0m-2.89.53h0Zm1.17.52h.07s0-.08,0-.08c.01,0,.02.01.03.01.02.01.05.03.06.04h0s-.01.1.02.14h0s.04.11.04.13c0,.02,0,.04.02.05,0,0,0,0,0,.01,0,.02-.02.04-.02.08-.06-.1-.14-.19-.21-.28,0-.03,0-.06,0-.09,0,0,0-.02,0-.03m.24.32s0-.01,0-.02c.03.04.06.07.02.08-.01,0-.02,0-.02,0-.02,0,.03-.03,0-.07m0,0s0,0,0,0c0,0,0,0,0,0m1.43.33s0,0,0,0c0,0,0,0,0,0m-3.2,1.25h0Zm-.92,2.06h0m0,0h0s0,0,0,0m-6.86.73s0,0,0,0c0,0,0,0,0,0m-1.71.55h0,0Zm0,0h0,0Zm14.61.34s0,0,0,0c0,0,0,0,0,0m-14.39.38h0s0,0,0,0Zm22.48,1.16s0,0,0,0c0,0,0,0,0,0m-9.04.41h0,0Zm-12.17.84l.14-.09.07-.05.05-.03v-.06c.04-.11.13-.19.24-.26,0,.07-.02.14-.03.22-.01.08-.03.17-.04.28h0s0,0,0,0c0,0,0,0,0,0,0,0,0,0,0,0,0,.04-.07.35-.08.44-.01.07-.03.15-.04.22-.03-.24-.17-.44-.3-.62-.1-.14-.19-.28-.23-.42.07.07.12.14.16.22l.07.15Zm21.41-.45h0,0m0,0s0,0,0,0t0,0m-15.29.2s0,0,0,0h0Zm9.29.37h0,0Zm-15.07.34s0,0,0,0c0,0,0,0,0,0m-.14.7s.02-.03.02-.04c0,.05-.02.11-.03.16,0-.04,0-.08,0-.12m14.91,2.87c-.49-.39-.87-.94-1.23-1.48h.01c.14.04.26.15.38.27.17.16.36.34.65.34h.02l.02.11h0s0,0,0,0c.03.1.07.19.1.28.04.1.08.19.1.29,0,0-.01.02-.01.02-.04.06-.05.12-.05.16m1.53-.78s.08-.01.13-.01c.05,0,.09,0,.14.01.08.07.12.16.16.27.07.26-.02.54-.24.72,0,0,0,0,0,0-.17.13-.41.21-.69.21-.15,0-.3-.02-.44-.06-.03-.01-.06-.03-.1-.05-.06-.04-.13-.08-.22-.11.08-.03.14-.09.18-.13.01-.01.03-.03.05-.05.4-.03.63-.32.84-.58.06-.08.12-.15.18-.21m-16.3,1.64c-.33-.06-.59-.34-.75-.63.16.19.35.36.58.51.06.05.12.09.18.12h-.01m-.69,1.81h0,0m-.33,9.41s0,0,0,0c0,0,0,0,0,0m18.27.7s0,0,0,0c0,0,0,0,0,0m-15.91.67s0,0,0,0c0,0,0,0,0,0m-1.08.99s0,0,0,0c0,0,0,0,0,0m16.23,2.46s0,0,0,0c0,0,0,0,0,0m0,.02s0,0,0,0c0,0,0,0,0,0M15.21,5.85s0,0-.01,0c0,0,0,0,0,0,0,0,0,0,.02,0t0,0s0,0-.01,0"/></g><g class="h"><path class="g" d="m14.6,4.51s0-.92-.07-1.57h-.04c-.06.64,0,1.57,0,1.57h.1Z"/><path class="g" d="m16.47,5.46c.05.06.02.13.03.19h.1s.03-.08.07-.08c.01.02,0,.07,0,.11,0,.05.04.11.04.13-.06,0-.06-.08-.09-.1-.15-.02-.14.18-.25.22.01.06-.03.18.03.22.09.07.18-.05.27-.06.03-.06.09-.15.05-.23.02-.06.11,0,.15-.02.05-.09.06-.2.05-.3,0-.08.01-.17-.06-.26-.09,0-.11-.06-.19-.1-.07-.09-.19,0-.23,0,0-.06.09-.1.15-.12,0-.02,0-.04-.02-.05-.08-.18-.21-.04-.31,0-.03.01,0,0-.03,0,.06-.08.12-.15.21-.18.01-.05-.02-.08-.05-.11-.15-.03-.28.13-.4.22h-.03c.02-.1.16-.17.2-.26-.02-.01-.03.02-.05.01-.17.08-.35.25-.33.46.2.05.37.14.57.19.1,0,.02.14.13.13"/><path class="g" d="m14.51,5.12c0-.11-.07-.21-.06-.31h-.12v.27c.06.03.12.07.18.04"/><path class="g" d="m14.7,5.03c.02.09,0,.19-.03.27-.05.11-.15.03-.22.07-.01.08-.05.18-.04.25.13-.05.28-.03.42-.05v-.25c-.17-.07.05-.19-.02-.31-.07-.09-.11-.23-.25-.2-.02.12.12.13.14.22"/><path class="g" d="m16.21,5.71s.02-.11.06-.15c.02-.04.02-.11-.04-.13-.19-.04-.35-.15-.55-.17-.17.05-.36.08-.49.22.02.08.11.12.18.15.27-.09.58-.01.84.08"/><path class="g" d="m13.68,5.79s.08.08.14.07c.11-.06.15-.19.26-.22-.02-.06-.08-.08-.14-.08,0,.04.04.12-.03.15-.06.01-.1-.05-.13-.08-.06-.01-.11-.09-.15-.13,0,.1.08.2.05.29"/><path class="g" d="m13.29,5.72s.08,0,.12-.02c.04-.06-.09-.12-.13-.14.03.02,0,.12.01.17"/><path class="g" d="m14.18,5.81c.04.06.1.12.11.19.06.09.06.19.07.3h.03s.11.05.09.11c.05.06.02.15.07.2.25.16.15.51.09.74h.02s.08-.06.13-.07c.06,0,.12.03.16.07.09.04.18.02.26-.03.13-.11,0-.26.02-.39-.04.05-.16.22-.17.19-.04-.05.03-.08.05-.16.06-.15.05-.14,0-.36l-.04-.05v-.04c-.06.35-.25.62-.29.58-.03-.04.21-.26.2-.74-.04-.03-.07-.14-.12-.16,0,.07-.11.54-.16.56-.01-.23.08-.51-.04-.74-.11-.17-.3-.25-.49-.31-.02.01-.04.05-.04.08.01.01.02.03.04.03"/><path class="g" d="m15.52,6.21s.02.11.02.14c.09,0,.19-.04.27-.08.07-.14.11-.3.09-.48-.12-.06-.33-.06-.48-.02.11.04.07.17.08.27h.1s-.02.03-.05.07c0,0,0,.04,0,.04h.09s.04,0,.03.03c-.03.05-.11.03-.14.03m.06-.36s.04-.06.08-.06c.04,0,.06,0,.09.05-.02.04-.03,0-.06.02,0,.02-.1.06-.11,0m.07.22c.07-.06.11.02.14.07v.07c-.07.03-.03-.05-.07-.08-.02-.01-.07-.04-.07-.06"/><path class="g" d="m14.47,5.71c.12.06.23.15.32.21v-.08c.02-.08-.01-.15-.08-.18-.05,0-.13.01-.24.04"/><path class="g" d="m13.7,6.02v-.05c-.09-.1-.23-.12-.35-.18-.05.03-.11.07-.18.06l.06.07c-.07.14-.21.25-.27.39.07.06.15.11.24.14.17-.15.33-.28.5-.43m-.31.06c0,.06-.05.09-.1.11-.05-.02-.07-.08-.06-.13.04-.06.12-.03.16.02"/><path class="g" d="m16.15,5.95c-.01-.08-.02-.15-.12-.15-.01.13-.01.26-.05.39.06.01.1-.03.15-.03.05-.04.03-.15.02-.21"/><path class="g" d="m14.33,6.46s-.13.01-.16-.04c.03-.1,0-.2-.01-.3-.02-.07-.04-.14-.09-.2-.05.03-.1.06-.14.11-.02.07.04.14.03.22.06.12-.05.28.06.37.14.2-.06.57-.06.57l.49.2v-.08s.03-.16.06-.4c-.03-.01,0-.13,0-.15-.12-.02-.16-.21-.19-.3"/><path class="g" d="m13.71,6.6c.08-.11.06-.28.02-.42-.06.03-.09.08-.13.14-.11.11-.24.19-.32.32.04.02.07-.02.1-.04.11.03.22.03.33,0"/><path class="g" d="m15.7,6.69c.16-.15.37-.23.58-.29v-.05l-.03-.06c-.11.01-.26-.03-.36.04-.05.11-.19.11-.28.16.12.01.04.14.09.2"/><path class="g" d="m13,6.5c-.04-.05-.11-.06-.16-.09-.05.18-.26.05-.31.25-.07.28.08.15.24.13.07-.03.14-.04.12-.19.02-.04.07-.09.11-.1m-.25.18s-.08.02-.1-.03c-.03-.06.05-.08.07-.12.04-.02.07.02.09.05.03.06-.04.07-.07.1"/><path class="g" d="m15.44,6.72c.04-.07.12-.14.12-.22-.06.02-.1-.03-.14-.04-.07.08.01.17,0,.26h.02Z"/><path class="g" d="m16.21,6.58s.12-.06.12-.06l-.03-.04s-.26.11-.4.19c-.15.09-.2.17-.32.26-.15.17-.28.39-.28.64.05,0,.1-.03.13-.07.12-.38.42-.73.78-.93"/><path class="g" d="m15.33,6.5v-.04s-.1.03-.1.03l.03.09h.05s.01-.06.02-.08"/><path class="g" d="m15.35,6.62l-.02-.11s-.01.04-.02.07h-.05s.03.09.03.09l.07-.05Z"/><path class="g" d="m15.97,6.9c-.11.13-.18.28-.23.43.05-.01.1-.02.15-.04.07-.06.04-.1.06-.18,0-.06.05-.12.07-.17.04-.04.05-.03.08,0,.02.12-.07.21-.04.34-.03.08-.12.1-.18.15-.09.06-.04.19-.04.28.02.06.07.18.17.12.2-.11.45-.2.56-.44-.03-.23.11-.45-.02-.64-.03-.07-.1-.07-.15-.09-.16.04-.3.11-.43.24"/><path class="g" d="m13.77,7.13s.03-.03.04-.05c0-.13.08-.23.05-.36-.15.04-.31.14-.48.07-.05.04-.08.09-.1.15.16.08.33.13.49.19"/><path class="g" d="m14.89,7.7c-.41-.21-1.73-.7-1.73-.7,0,0-.04-.15-.08-.25,0,0,0-.03,0-.03h-.05s-.02.14-.03.2c-.04.02-.14.02-.06.1h.07c.36.14,1.23.45,1.86.71v-.03Z"/><path class="g" d="m13.67,7.42c-.06-.02-.13-.06-.2-.07.07.03.12.11.2.12v-.05Z"/><path class="g" d="m14.7,7.79c-.28-.11-.56-.23-.85-.32-.03.06-.04.14-.05.2.18.15.33.34.53.44.11-.1.27-.21.37-.33"/><path class="g" d="m15.06,7.68c-.02.07-.04.17-.03.24.09,0,.21.13.28,0,.07-.04.11.03.17.03.11.03.23.04.33-.01-.09-.12-.13-.26-.14-.4l-.18.09c-.1.19-.28.02-.43.05"/><path class="g" d="m13.08,8.62c.02-.14.11-.25.12-.4-.12-.12-.18-.27-.31-.38-.05-.11-.2-.06-.29-.1-.28.18-.72.03-.88.4-.04.07-.14.1-.15.18.07.02.1-.05.17-.01.08,0,.02-.09.05-.13.02-.06.07-.1.13-.11.04.01.06.06.09.07.12-.22.42-.17.65-.22.1.04.16.15.22.24.06.09.06.21.13.3,0,.06.05.11.07.16"/><path class="g" d="m13.77,7.84s-.09.08-.06.13c.15.15.26.27.41.39.03-.04.08-.07.09-.13-.15-.12-.28-.26-.44-.39"/><path class="g" d="m14.87,7.89c-.05.08-.09.16-.12.25.06,0,.15-.03.21-.06-.11-.01-.07-.14-.09-.19"/><path class="g" d="m16.23,8.02c-.11,0-.22.07-.26.17-.08.11-.2,0-.28.02l.03.08c.13.23.39.46.67.42.04-.2.01-.45-.07-.64-.01-.03-.05-.06-.09-.05"/><path class="g" d="m14.06,9c.06-.11-.01-.14-.07-.2-.02-.02-.08-.12-.02-.2.02-.03.04-.06.04-.1l-.29-.28c-.06-.08-.21-.23-.29-.05-.04.1-.03.21-.04.33,0,.12.1.32.1.32,0,0-.06.01-.15.03-.23.04-.41.14-.62.22-.17-.01-.3.08-.39.21-.1.13-.19.26-.3.38.03.19-.08.33-.19.48.08,0,.14-.07.22-.08.04-.06.03-.15.09-.21.03-.03.09-.02.13,0v-.12c.1-.19.23-.36.4-.5.29.01.56.02.85,0,.13-.12.22.09.36.07.09-.09.12-.16.18-.28"/><path class="g" d="m14.95,8.55c.25,0,.52.06.77.02-.04-.08-.08-.15-.12-.23l-.12-.23c-.1-.13-.15.08-.26,0-.2.15-.53.09-.65.34,0,.08-.08.13-.05.23.07.04.14.08.22.1.07-.08.09-.2.21-.24"/><path class="g" d="m14.56,8.08c-.19.17-.35.37-.46.59l.11.1s.05-.05.08-.11c.12-.15.13-.23.23-.43,0,0,.02-.09.03-.15"/><path class="g" d="m11.46,8.65c.08-.01.19-.04.28-.09.01-.06.02-.12.01-.17-.2-.05-.22.14-.29.26"/><path class="g" d="m18.89,9.11c.04.07.07.17.08.26.04.25,0,.28-.03.43-.05.29-.33.65-.19.85.25.24.34.36.34.61.05-.1.12-.21.02-.32-.03-.05-.13-.18-.21-.3-.1-.15.02-.37.09-.54.06-.12.07-.18.09-.25.15-.42.06-.86-.28-1.08-.23-.15-.44-.15-.62-.11-.1.02-.17.07-.21.09l.3-.06c.26,0,.52.19.63.42"/><path class="g" d="m14.63,9.11c.03-.06.1-.12.06-.18-.13-.02-.23-.12-.36-.14-.05.04-.07.11-.09.18.13.06.26.13.39.14"/><path class="g" d="m15.43,8.81c-.06.05-.16.02-.22.07-.04.03-.14,0-.14.07.06.05.13.07.2.1.06-.07.13-.16.16-.24"/><path class="g" d="m17.33,9.53s.17-.13.23-.18c.22-.18.26-.37.56-.39.2.01.39.11.48.3.12.16.09.4.04.59-.03.1-.08.29-.14.41-.26.53.29.6.41.92.06-.18-.15-.28-.24-.41-.24-.26-.01-.6.09-.86.1-.18.09-.47.05-.63-.04-.16-.2-.37-.4-.43-.68-.19-.78.52-1.26.65.02.13.08.05.17.02"/><path class="g" d="m14.86,9.25c.17.08.32.2.51.24.12-.16.25-.32.36-.49.02-.09-.1-.07-.15-.11-.1.11-.17.23-.26.32-.06.01-.09-.03-.14-.04-.08-.03-.16-.1-.24-.1l-.08.18Z"/><path class="g" d="m15.67,9.34s.23.12.35.18c.02.06.04.19.04.19l.13-.08c.07-.04.17.06.25.09.05.06.05.21.05.21,0,0,.13-.11.19-.14.13.06.4.18.4.18l.02-.1s-.21-.1-.37-.17c-.05-.04-.06-.03-.06-.09.03-.08.05-.14.08-.22.01-.04.04-.1.04-.1l-.12-.06s-.03.08-.04.1c-.02.1-.04.14-.1.23-.08.02-.16-.03-.23-.07-.12-.06,0-.18.03-.28.02-.03.05-.12.05-.12l-.11-.05-.04.08c-.04.09-.07.19-.13.28-.14-.02-.36-.15-.36-.15l-.06.09Z"/><path class="g" d="m16.08,9.23s.03-.09.04-.12c.02-.04-.08-.05-.13-.07-.03.04-.11.14-.04.17.03.03.08.06.13.03"/><path class="g" d="m18.33,10.76c-.05-.12-.07-.39,0-.51.17-.29.26-.59.14-.92-.05-.07-.09-.14-.17-.19-.09-.05-.2-.05-.28,0-.05.03-.08.08-.1.1.19,0,.36.01.44.14.09.14.04.3,0,.47-.05.11-.1.25-.16.35-.1.17-.08.44.02.61.12.2.21.26.39.26-.11-.1-.19-.16-.28-.29"/><path class="g" d="m14.18,9.17l-.07-.05-.08.17c.02.19-.09.35-.2.5.04.04.07.1.13.12,0,0,.06-.07.1-.19.06-.16.03-.25.03-.38.03-.04.09-.08.1-.16"/><path class="g" d="m14.22,9.47c.07.03.14.06.21.05.02-.1.15-.15.12-.26-.08-.03-.16-.08-.26-.09-.02.1-.12.19-.07.3"/><path class="g" d="m16.48,9.42c.04-.05.04-.14.04-.19-.04.05-.04.14-.04.19"/><path class="g" d="m13.85,9.43c-.07-.02-.13-.06-.2-.07v.06c.03.06.08.14.12.2.03-.06.12-.11.08-.19"/><path class="g" d="m15.69,10.33c.16-.02.32.08.4.22.04.24.63.58.7.65.18.08.28.21.37.42.04.1.09.33.09.33l.1.06s0-.49-.01-.69c-.08-.12-.26-.14-.34-.28-.16-.19-.04-.44-.02-.66.04-.06.05-.15.03-.2-.12-.05-.26-.09-.39-.13-.06.03-.07.1-.15.1-.06-.02-.13-.07-.1-.14.03-.12-.09-.14-.16-.17-.07-.02-.14.04-.2.09-.14,0-.06-.16-.14-.22l-.32-.16s-.05.08-.09.11c-.2-.03-.37-.13-.56-.21-.04.03-.04.07-.06.1-.02.07-.05.16.02.22-.03.06-.07.14-.07.14.09.02.18.05.27.08.15.07.33.1.45.24,0,.12.13.06.19.11"/><path class="g" d="m16.91,9.52l-.04.09s.06.04.09.05c.01-.05-.02-.11-.05-.14"/><path class="g" d="m14.65,9.83s.07-.13.08-.14c0-.01-.16-.09-.17-.1l.1.25Z"/><path class="g" d="m14.14,9.92h.04c.04-.05.1-.08.1-.16-.11-.04-.14.09-.14.16"/><path class="g" d="m12.03,10.14c-.05.05-.12.06-.18.11-.04.08,0,.2-.03.27.12-.04.19-.13.26-.24.03-.06,0-.1-.05-.14"/><path class="g" d="m15.37,11.46s.18-.1.28-.17c.07-.1.06-.17.03-.26-.09-.09-.15-.22-.25-.3-.15-.07-.13-.28-.3-.34,0,.3.2.42.31.67.07.2-.28.29-.39.38,0,0,.17,0,.17,0h.15Z"/><path class="g" d="m15.84,11.57c.13.02.4.07.49.09.2.05.51.15.51.15l-.15.55.2.07.22-.51s-.14-.41-.27-.48c-.31-.21-.71-.33-.91-.7l-.11.12c-.04.06-.05.03-.06.08.05.07.15.26.12.29-.05.07-.28.26-.34.32h.31s0,.02,0,.02Z"/><polyline class="g" points="15.51 11.56 15.52 11.56 15.52 11.56 15.51 11.56"/><path class="g" d="m15.72,12.15l.13-.59s-.07-.01-.07-.01l-.21.02h-.04s-.06.54-.06.54l.26.04Z"/><path class="g" d="m15.52,11.55h0s0,0,.02,0h-.01Z"/><path class="g" d="m15.77,11.55s.03,0,.07.01h0s-.31-.02-.31-.02c0,0-.01.01-.01.01h0s.04.01.04.01l.21-.02Z"/><path class="g" d="m12.26,14.5c.05-.02.13-.07.15-.1-.09-.07-.26.06-.27-.11.06-.1.19-.05.29-.08.07.02.08.11.07.15.21-.11.46-.17.72-.14.04.01.1.02.13-.01.08-.01.14-.07.21-.1.14-.06.32-.07.46,0,.16.14.27-.12.44-.12.25-.11.45.07.67.11.18.08.41.07.6,0,.17-.12.41-.03.6,0,.18-.12.45-.1.65-.02.06.04.19.05.17.16.21-.08.42.02.62.07.23.05.31.36.57.31l.02-.11s-.08-.04-.11-.03c-.11-.01-.08-.1-.09-.18-.02-.04-.05,0-.08,0-.05.04-.03-.07-.05-.1.04-.17-.14-.08-.22-.11-.09-.05.03-.13,0-.2-.04-.05-.09-.01-.14-.03-.06-.06-.12-.05-.16-.12-.05,0-.07.07-.12.07.03.1-.05.16-.06.24-.04.05-.03.15-.12.16-.1-.08.04-.2.03-.29h-.05s-.04.03-.07.06c-.03.04-.08.01-.1-.02-.02-.07.03-.1.07-.14.02-.07.2-.05.11-.16-.07-.08-.14-.02-.22,0-.08,0-.14-.05-.2-.12-.08-.02-.13.04-.21.02-.07-.19-.22.03-.32-.11-.06-.04-.12.02-.16.06-.11.02-.09-.15-.21-.1-.1.1-.14-.07-.25-.05-.01.01-.03.03-.05.04,0,.04.03.06.04.1.01.06.03.15-.05.19-.02,0-.04,0-.06-.01-.04-.04-.02-.08-.01-.13-.1-.09-.15.08-.24.08-.07,0-.06-.08-.09-.13-.09-.06-.14.13-.22.11-.1.04-.17-.12-.27-.05,0,.05,0,.09.04.12-.01.06-.05.12-.1.17-.11-.1-.25-.03-.37.02-.04-.02-.04-.07-.04-.11.08-.07.17-.13.29-.12,0-.09.05-.17.12-.22.12-.03.23,0,.31.08l.12-.13c.02-.06-.07-.04-.09-.09-.06-.05-.12,0-.15.06-.07.03-.15,0-.22-.02-.08-.04-.15.02-.21.05-.02-.02-.06,0-.06-.04-.07-.07-.12.04-.16.08-.08.06-.13-.08-.2-.01-.02.05.05.06.04.11,0,.04-.04.02-.06.04-.09-.1-.13.06-.21.05-.1-.05.02-.13-.02-.18l-.04.04s-.07.07-.05.11c.12.04.14.18.16.29-.02.03-.03.06-.08.06-.1-.04-.03-.14-.1-.19-.13.04-.21.16-.29.27-.15,0,.02-.13-.09-.17-.03.02-.08.08-.11.02,0-.04.01-.06,0-.1.04-.06.1-.07.16-.05.09.06.15-.11.23-.14l-.11-.06s-.03.09-.06.12c-.07.02-.13-.04-.21-.03.01.05-.03.08-.06.11-.07.02-.11-.03-.18-.03-.04.01-.05.05-.06.08.09.04.19.1.19.22-.01.02-.04.07-.08.05-.05-.04-.08-.1-.14-.12-.13.06.05.2-.08.27-.07,0-.11-.04-.17-.07-.09-.1.1-.14.11-.25.04-.05-.02-.06-.05-.08-.15-.1-.08.15-.2.12-.02-.09-.11-.08-.18-.09-.06.01-.04.05-.03.09-.05.06-.14.01-.19.04-.01.05.02.1,0,.16-.04.1-.16.01-.22.1.05.04.07.11.09.18-.05.06-.14.05-.21.08.16.18.37-.06.58.05m5.25-.42s.11.03.09.08c-.02,0-.03,0-.05,0,0,0-.02.01-.03.02-.03-.02-.09-.03-.1-.07.01-.03.05-.04.08-.03m-.71-.32s.05.03.07.06c-.02.05,0,.12-.06.14-.03.01-.05-.02-.06-.04.05-.04-.06-.15.05-.16m-.48-.15c.08,0,.16,0,.19.08.04.06.05.12.04.19-.12.06-.11-.21-.23-.11,0,.06.02.13-.02.17-.05.03-.05-.04-.08-.06.02-.1,0-.23.1-.27m-.6-.04s.09-.05.14-.06c.07,0,.13.05.12.13-.01.07.13.13.03.2-.06.05-.12-.05-.2-.03-.05-.01-.08-.05-.05-.1.07-.07-.08-.06-.04-.14"/><path class="g" d="m15.28,13.45l.04-.03s.11-.01.12-.06c-.05-.1-.17-.07-.23-.01,0,.05.05.07.07.1"/><path class="g" d="m16.16,14.34c.02-.1-.13-.03-.16-.11-.19.19-.49.18-.74.13-.03.09.06.12.04.2.04.05.03.12.06.18.02.26.05.53.05.79.07.1.19.09.3.12.15.03.34,0,.49-.05.07.08.17.01.26.02.02-.24.05-.48.01-.73-.08-.2-.09-.43-.31-.55"/><path class="g" d="m15.12,14.74c-.01-.12-.09-.22-.12-.34-.15-.21-.44-.13-.66-.15-.12-.03-.11.17-.25.1-.15-.09-.32-.1-.49-.05-.06.04-.15.07-.11.16.12.19.24.38.34.58.11.11.08.35.28.35.11,0,.23.01.31-.05-.05-.09-.17-.12-.18-.23.12-.1.19.07.29.09.22.08.45.17.69.19v-.28c.01-.29-.36-.2-.52-.36-.09,0-.16-.07-.24-.04,0,.06.12.1.03.16-.1,0-.18-.04-.25-.13-.03-.04-.03-.11.01-.15.3-.1.6.05.87.15"/><path class="g" d="m17.78,14.71s-.09-.13-.17-.11c-.02-.01-.02-.03-.02-.05-.15-.11-.36-.13-.54-.1-.09-.04-.19-.07-.29-.09-.08-.02-.18-.04-.25-.02.18.38.23.88.15,1.32.13.12.36.16.54.08.03-.03.11,0,.08.04h.03c.1.08.23.1.36.13.09-.07.11-.2.14-.31.08-.27.07-.63-.03-.89m-.63.89c-.14-.04-.25-.14-.34-.27,0-.03.06-.12.09-.14.09.07.07.23.19.29.11.11.23.12.38.17-.1.02-.23,0-.32-.06m.01-.67c-.06.02-.05.08-.05.13.03.02.03.05.03.08-.06.03-.08-.04-.1-.09-.01-.07-.01-.2.04-.24.16,0,.33.14.47.19-.15.02-.25-.07-.39-.07"/><path class="g" d="m13.03,14.38c-.23.07-.46.13-.67.24-.1.03-.07.14-.08.23.12.38.41.67.74.89.14.05.31,0,.46-.03.11-.04.27-.02.29-.18.04-.11-.02-.2-.06-.29-.06-.22-.19-.4-.31-.6-.13-.09-.15-.33-.37-.26"/><path class="g" d="m11.44,16.06h.26c.09-.04.23-.03.23-.17-.16,0-.34-.01-.51-.02-.05-.02-.1-.04-.15-.06-.02-.03-.07-.05-.05-.09.02-.02.03-.03.05-.04.1.03.2.09.32.09.28-.02.53-.08.81-.1.04-.02.1.01.13-.03-.04-.06-.08-.13-.13-.18-.03-.19-.21-.15-.35-.18-.11-.07-.29-.12-.41-.04.04.04.14,0,.15.08-.07.03-.15.11-.24.05-.1-.02-.08-.13-.11-.2.04-.08.12-.09.19-.11.21-.01.38.02.57.05v-.04c-.07-.1-.1-.22-.11-.34-.02-.03-.05-.05-.09-.04-.09.07-.23,0-.32.06-.12,0-.1.21-.25.13-.21.05-.31.22-.39.41,0,0-.01.12-.02.16,0,.04.02.17.02.17.06.18.21.37.4.44"/><path class="g" d="m11.02,15.45s0-.03,0,0,0,.02,0,0"/><path class="g" d="m18.1,14.89c0,.31.01.63-.08.94,0,.02-.04.04-.03.08.03,0,.05,0,.07.03l-.03.05c.18.06.34-.05.48-.15.05.07.11-.05.16.02,0,0,.02-.02.02-.03,0-.03.04-.08.08-.07.04.1-.02.2-.04.3l.02.02s.13.02.17-.04c.03-.16.07-.33.04-.51-.05-.06-.01-.17-.06-.23-.15-.19-.33-.33-.55-.45-.08-.05-.18,0-.25.04"/><path class="g" d="m14.51,15.52c-.11.06-.22.13-.36.13.26.01.59.02.89-.01.04-.06.09-.01.15-.03v-.06c-.2,0-.43.03-.59-.11-.03.02-.07.04-.09.08"/><path class="g" d="m14.65,4.65s-.05-.07-.05-.07c0,0-.1,0-.12,0s-.04.07-.04.07v.06s.2,0,.2,0c0,0,0-.02,0-.06"/><path class="g" d="m14.89,12.07c.12,0,.26,0,.38.02l.02-.47c-.14-.01-.4-.01-.4-.01-.14,0-.28.01-.42.03l.05.46c.12,0,.25-.02.38-.02"/><path class="g" d="m13.9,12.16l-.1-.41c-.25.06-.41.1-.64.17l.12.38c.2-.06.4-.11.62-.15"/><path class="g" d="m13.83,12.7l.96-.12v-.35c-.36.01-.71.06-1.03.12l.08.35Z"/><path class="g" d="m12.64,13.09l-.13-.32c-.12.06-.24.13-.35.19l.14.31.35-.19Z"/><path class="g" d="m12.8,13.01l.84-.27-.08-.35c-.32.08-.62.18-.89.3l.13.32Z"/><path class="g" d="m12.55,12.16c-.25.11-.39.19-.61.34l.16.32c.19-.11.35-.21.6-.31l-.15-.35Z"/><path class="g" d="m15.93,12.18c.22.04.37.07.58.13l.12-.41c-.23-.07-.36-.11-.61-.15l-.09.43Z"/><path class="g" d="m17.11,12.69c-.27-.12-.57-.22-.89-.3l-.08.35.84.27.13-.31Z"/><path class="g" d="m17.15,13.09l.33.18.14-.31c-.11-.07-.22-.13-.34-.19l-.13.31Z"/><path class="g" d="m16.03,12.35c-.33-.07-.67-.11-1.04-.12v.36l.96.1.08-.35Z"/><path class="g" d="m17.04,12.47c.24.1.45.21.65.32l.14-.32c-.21-.15-.38-.25-.63-.36l-.16.36Z"/><path class="g" d="m13.22,13.33s.08-.03.11-.04l-.08-.26c-.33.11-.59.22-.85.38.01.06.04.15.11.15.1,0,.19-.07.27-.09.08-.02.09.06.19.01.1-.05,0-.07.06-.09.06-.02.08.08.14.03.06-.04-.08-.05.05-.09"/><path class="g" d="m15.42,12.78s-.28-.03-.53-.04h0c-.24,0-.53.04-.53.04l.05.3c.07.02.15.03.24.02.16-.02.18-.05.24-.06.06,0,.08.03.24.06.08.01.16,0,.24-.02l.05-.3Z"/><path class="g" d="m13.48,13.21s.05-.02.08-.03c.1-.03.06-.04.15,0,.09.03.14.04.19.01.05-.03.14.02.19-.03.05-.05.05-.15.15-.13l-.04-.23c-.28.04-.54.1-.79.17l.08.24Z"/><path class="g" d="m16.81,13.47c.1.05.11-.03.19-.01.08.02.17.09.27.09.06,0,.09-.08.11-.15-.26-.16-.53-.27-.85-.38l-.08.26s.08.03.11.04c.13.04-.01.05.05.09.06.04.08-.06.14-.03.06.02-.04.04.06.09"/><path class="g" d="m15.69,13.16c.05.06.14,0,.19.03.05.03.1.02.18-.01.09-.03.05-.02.15,0,.02,0,.05.02.08.03l.08-.24c-.25-.08-.51-.13-.79-.17l-.04.23c.1-.02.1.07.15.12"/><path class="g" d="m23.58,12.06c.34.12.32.47.38.75.07.15.22.21.38.21.1.03.17-.16.26-.02-.05.21-.27.22-.45.24.15.3.48.38.75.47l.02-.02c-.04-.28.18-.61,0-.89.1-.01.24.01.33.07.45.16.86-.06,1.23-.26-.18-.34-.16-.91-.66-.97-.01.13.12.21.07.35-.02.21-.2.42-.4.49-.21.17-.57.05-.73.28-.14-.06,0-.14-.05-.24-.12-.18-.27-.35-.42-.5l.05-.05c.36.08.45.66.87.45.24-.12.43-.33.45-.61-.02-.16-.11-.24-.24-.33-.1-.08-.29-.02-.35-.14.17-.16.39,0,.57.05.31.2.43-.34.71-.43-.16-.12-.33-.22-.52-.28-.6-.19-1.2,0-1.63.43-.57-.11-1.16.04-1.56.5-.13.15-.26.29-.31.47l.12-.1c.33-.22.81-.09,1.13.07"/><path class="g" d="m6.9,11.87s-.02,0-.03,0c-.87.19-.48,1.27-1.25,1.56-.1.04-.14-.07-.21-.12-.26-.26.08-.5.1-.75-.08-.03-.13-.13-.24-.09-.16.17-.22.39-.42.54-.12.07-.24.08-.38.05-.11-.13-.27.06-.38-.07.24-.26.17-.65.52-.87.16-.18.58-.09.52-.45-.1-.13-.33-.05-.49-.07-.12-.08-.3-.09-.35-.24.26-.14.53-.28.78-.45.26-.08.49.04.71.14-.17-.25-.48-.29-.75-.26-.3.17-.61.38-.87.59.09.11.21.17.31.26.16.04.36.12.52.02.06.03.05.09.05.14-.08.11-.22.08-.33.12-.46.26-.53.75-.78,1.15.25.05.5.09.76.14.35-.02.42-.44.61-.64l.12.09c-.01.1-.05.18-.12.26-.05.29.16.47.31.68.22-.16.49-.31.64-.57.07-.46.27-.95.69-1.18"/><path class="g" d="m6.9,11.87s.03,0,.04-.02c-.01,0-.02.02-.04.02"/><path class="g" d="m4.56,11.4c.29.07.67.07.97,0,.1-.03.26-.06.35.02-.1.08-.23.08-.33.14-.21.1-.32.33-.47.5-.39.08-.67.42-.75.8.09.02.16.07.26.05.35-.03.4-.42.64-.61.31.04.51-.21.73-.4l.05.05c-.1.13-.17.28-.28.4.03.34-.39.61-.14.92.36-.1.45-.5.52-.8.16-.34.48-.79.92-.78.33.08.72.09.89.45,0-.16-.1-.27-.16-.4-.37-.58-1.03-.7-1.65-.59-.2.15-.45.02-.64-.07-.34-.13-.63.18-.89.33"/><path class="g" d="m7.95,12.91s0-.08-.02-.12c-.28-.25-.58-.49-.94-.54.37.09.66.41.97.66"/><path class="g" d="m6.68,12.39c.47.13.87.44,1.23.85.05-.05,0-.14.05-.19-.3-.3-.64-.59-1.04-.71-.06-.02-.22-.07-.23.05"/><path class="g" d="m22.45,12.91c.27-.27.63-.39.92-.57-.32.13-.67.2-.94.45,0,.04-.02.11.02.12"/><path class="g" d="m6.49,19.41l.05.05s.06-.02.09-.02c-.25-.28-.16-1.11-.16-1.11,0,0,.45.05.66-.02.02.04.07,0,.1-.02.03-.45.16-.88.57-1.15.43-.18,1.08-.27,1.51-.02.44.18.65-.32,1.06-.26-.3-.09-.37-.46-.64-.57-.02-.07.03-.1.07-.14.52-.03.5-.61.78-.9-.36.02-.57-.49-.97-.24,0,.09.11.14.17.21.06.14.19.3.07.45-.16.01-.05-.17-.12-.24-.07-.17-.25-.16-.4-.19-.22.03-.37.24-.54.4-.02,0-.06,0-.07-.02.13-.14.22-.3.33-.45.03-.09.03-.19.09-.26.1.09.2.02.31.02-.07-.16-.07-.37-.16-.49-.34.11-.78.2-.92.61,0,.52-.52.71-.83,1.11-.11.17-.17.35-.28.52-.04-.03-.11-.03-.12-.09.04-.04.02-.11.02-.16.23-.7.39-1.43.59-2.15,0-.33.19-.58.17-.92-.34-.32-.67-.65-1.09-.78-.42-.14-.16.42-.4.57-.08,1.19-.51,2.22-.45,3.47-.05.06-.11.08-.19.07-.23-.41-.52-.83-.42-1.34.28-.5-.19-.85-.31-1.27-.12.17-.31.3-.35.49,0,0-.05.4.02.59-.03.03-.05.06-.1.05-.03-.17-.13-.32-.09-.52-.04-.08-.13-.14-.24-.12-.32-.07-.47.33-.61.5-.13-.12.03-.25.05-.38.12-.18.3-.31.49-.35-.18-.11-.42-.07-.59-.21-.13.28-.22.61-.28.94.03.17.02.38.19.47.29.03.54.19.73.43l-.02.02c-.27-.09-.53-.21-.83-.26l-.35.31c-.08.13.12.2.12.33.16.33.53.33.85.38.86.3.85,1.29,1.58,1.82.23.26.56.33.78.54.01.12.09.33.09.33m2.43-3.16l.02.02c.17-.06.34-.08.49-.16.18.1-.04.2-.05.31-.19.12-.37-.12-.57-.05-.05,0-.11.01-.14-.05.07-.04.16-.04.24-.07m-1.91.47c.11-.03.14.11.24.09-.16.23-.18.52-.17.83-.11-.06-.08-.22-.12-.33.02-.19-.04-.42.05-.59m-1.37.07c.06-.08.1.02.17-.05l.1.09c.1-.02.07-.24.16-.09-.06.31-.01.69.1.99-.18-.29-.3-.65-.52-.94"/><path class="g" d="m23.51,17.79c.1.21.01.39.07.61.21.04.35.31.52.4-.1.23-.3.42-.38.66.04.02.08.05.14.05.14-.17.2-.44.43-.52.32-.28.57-.62.78-.97.42-.68.38-1.76,1.34-2,.12-.13.34-.11.38-.31-.11-.04-.2.12-.33.1-.17-.06-.28.15-.45.14-.04-.02-.02-.06-.02-.1.25-.41.58-.82.45-1.37-.14.03-.3.03-.42.09-.31.16-.32.48-.45.73-.05.05-.07.17-.16.17-.04-.03-.05-.07-.05-.12.01-.15-.01-.28-.07-.4.04-.18-.07-.3-.14-.43-.11.13-.15.29-.19.45.36.29.03.7-.05,1.01-.07.15-.05.35-.19.47-.38.17-.33.61-.47.92-.05.11.03.34-.17.33-.03-.35.08-.83-.09-1.16-.05-.1,0-.22.05-.3-.28-1.15-.5-2.33-.59-3.56-.27.05-.49.25-.73.38l-.02-.03c.17-.25.46-.33.68-.49-.35.08-.65.28-.94.52.04.85.36,1.58.57,2.36.12.19,0,.53.23.63.07.27.14.54.21.8-.04.17.28.41,0,.47-.17-.21-.23-.47-.4-.68-.04-.17-.34-.17-.24-.4-.36-.3-.77-.47-1.2-.59-.33-.16-.19-.69-.61-.71-.05.12-.08.25-.12.38.02.21.26.19.35.35-.17.52-.92.38-1.04.94l.12.07c.22.07.44,0,.61-.12.08-.04.08,0,.19,0,.14.12.18.28.19.45-.08.09-.19.11-.28.17-.07.13.06.27.12.38l.2-.17c.11-.19.19-.35.36-.51.19-.1.46-.1.66-.09.48.1,1,.5,1.15.99"/><path class="g" d="m24.86,15.55c-.1.27-.16.58-.4.78-.09.02-.16.07-.24-.02-.21-1.22-.44-2.44-.61-3.65.08,1.36.37,2.62.66,3.89.41-.06.48-.51.57-.83.06-.2.22-.38.02-.57-.12-.31.08-.63.28-.85.18.15.25.4.42.54v-.02c.21-.35.59-.49.97-.52.14.11.03.31.1.45,0,.3-.25.59-.1.87.1-.1.25-.11.38-.05.07.05.13.13.07.21-.34.46-1.13.48-1.23,1.06.43-.53,1.15-.64,1.51-1.25-.08-.1-.22-.08-.3-.19-.17-.1-.21.08-.36.12-.04-.04-.09-.08-.07-.14.27-.31.11-.81.19-1.2-.17.06-.35.08-.54.07-.29.03-.43.33-.64.49-.17-.19-.19-.46-.38-.61-.13.15-.28.3-.31.49-.32.29.11.57,0,.92"/><path class="g" d="m22.74,16l.21.17c-.14-1.12-.66-2.1-.71-3.23l-.07.07c.08.94.36,1.8.61,2.66.02.1.07.28-.05.33"/><path class="g" d="m25.02,13.95c-.38-.11-.8-.18-1.06-.54.08.86.3,1.67.45,2.5l.05.05c.1-.16.18-.33.21-.52l-.17-.47c.04-.27.18-.5.33-.73.06-.1.15-.18.19-.28"/><path class="g" d="m21.82,17.01c-.3.1-.27.43-.47.61-.18.09-.22.17-.33.17-.09-.16-.1-.34-.19-.49-.01-.18.19-.24.31-.31.04-.13-.07-.19-.12-.28-.21.18-.55.26-.8.12-.09-.08-.26-.09-.28-.24.03-.05.08-.05.12-.07.1-.31.43-.48.71-.57.1-.07.26-.14.28-.26-.12-.05-.23-.18-.31-.28-.08-.21.18-.36.13-.59.02-.1.24.05.37.07.27.12.25.41.38.61.37.11.74.23,1.06.45-.28-.28-.58-.42-.95-.49-.12-.05-.15-.31-.21-.45-.16-.27-.5-.23-.73-.4.02.29-.16.5-.17.78.01.14.17.22.26.33l-.07.07c-.51-.01-.66.58-1.06.78.25.24.52.52.92.45.13,0,.24-.23.38-.09-.04.16-.3.12-.27.32,0,.25.2.48.23.69.22-.22.59-.17.64-.54.2-.39.66-.33,1.01-.33-.25-.16-.55-.1-.83-.05"/><path class="g" d="m10.12,16.26c.07.27.32.45.57.54.11.13-.09.19-.14.28-.07.04-.2.02-.26.02-.05-.04-.12.02-.19,0-.38.35-.98.09-1.41.17-.27.06-.33.31-.42.52-.12.33.1.6.31.8.25.11.62.19.87.02,0-.03,0-.05-.02-.07-.02,0-.04.01-.05.02-.06-.03-.05-.09-.05-.14.47-.6,1.07-1.18,1.75-1.44.1-.25.26-.48.38-.73-.1-.02-.19-.07-.28-.12-.29-.18-.38-.51-.33-.83-.32.28-.29.74-.71.94"/><path class="g" d="m11.8,17.51c.66.04,1.38-.06,2.08-.1.11-.15.27-.28.33-.45.12-.13.18-.47.43-.38v-.03c.08-.4.6-.28.87-.47-.14-.15-.34-.15-.52-.21-.36-.02-.72.14-1.11.05-.33.32-1.09-.1-1.15.54-.12.15-.03.39-.26.49l-.02-.02c.06-.29.15-.56.31-.8-.11-.03-.28-.05-.38.02-.22.43-.41.88-.57,1.34"/><path class="g" d="m10.29,17.88c.21-.27.58-.35.68-.66-.52.27-.93.72-1.37,1.15v.05c.1.03.11-.05.16-.09.12-.05.17.11.24.14,1.38-.02,2.7-.17,3.87-.68.3-.1.56-.3.87-.38.03.02.02.05.02.07-.23.18-.55.28-.73.4.33-.08.62-.22.94-.31.12-.4.33-.78.68-1.06-.23.01-.44.06-.64.14-.04.21-.16.41-.33.54-.01-.01-.03-.03-.02-.05.16-.21.2-.48.38-.66.48-.1.97-.25,1.39-.45-.06-.02-.11-.06-.19-.05-.42.23-.9.31-1.34.47-.11.35-.34.63-.52.94-.93.48-1.92.81-3.02.9-.43,0-.88.1-1.3,0-.03.01-.09.05-.12,0,.02-.18.21-.28.33-.42"/><path class="g" d="m16.65,16.45c.08-.08.05-.21.07-.31-.16.06-.3.16-.47.19l.4.12Z"/><path class="g" d="m11.21,17.53c.12,0,.27.02.38-.02.1-.43.25-.84.45-1.23-.11.04-.22.08-.33.12-.24.35-.4.72-.49,1.13"/><path class="g" d="m17.15,16.3c.19.13.41.18.64.24v-.05l-.64-.19Z"/><path class="g" d="m18.19,16.85l-.02.02s-.06,0-.07-.02l-.02.02c.04.09.11.16.12.26-.07.09-.17.12-.26.17l-.07-.47c-.12-.05-.26-.07-.39-.08-.18,0-.37-.34-.52-.07-.33.2-.59-.18-.94-.12-.24.06-.37.32-.47.52-.15.21.07.39.19.54.6.24.98-.37,1.42-.66l.02.02c-.11.19-.27.43-.5.52-.44.27-.52.76-.47,1.23.11.16.29.13.45.17.22-.09.54-.08.61-.38.06.1-.04.2-.1.28-.02.18.11.33.26.42.12.14.22-.05.3-.12h-.07c-.17.03-.34-.13-.45-.28.03-.04.03-.11.1-.12.11.06.19.2.33.19.13,0,.23-.08.33-.17.22-.41.18-.9.12-1.37.04-.05.09-.08.16-.07.43.82.99,1.59,1.6,2.33.03-.22.13-.41.19-.61.06-.09-.02-.24.07-.31.14.02.23.14.33.24.08-.03.15-.15.19-.24-.71-.49-1.07-1.26-1.63-1.82l-.94-.14s.13.03.14.09m-.83,1.65c-.08.04-.1-.07-.17-.07.08-.21.18-.4.24-.61.02-.1.06-.19.14-.26l.02.02c-.15.28-.19.6-.24.92"/><path class="g" d="m17.49,16.61c.11.04.21.1.34.1l-.34-.1Z"/><path class="g" d="m17.49,16.61s-.1-.04-.15-.04l.15.04Z"/><path class="g" d="m17.97,16.56c.31.11.63.18.97.21l-.1-.12c-.27.07-.6-.03-.87-.1"/><path class="g" d="m22.9,17.72c-.01.11.1.13.17.14-.05-.05-.1-.12-.17-.14"/><path class="g" d="m15.24,17.95l-.1-.14c-.8.28-1.64.44-2.48.64.27.09.49-.07.76-.05.01.01.03.03.02.05-.18.1-.39.09-.57.19.2.18.45.38.57.61.05.12.18.24.16.36-.27-.31-.53-.67-.89-.9-.15-.04-.25-.02-.4,0v.05c.93.62,1.4,1.6,1.53,2.64l-.02.02s-.07-.06-.09-.09c-.25-.98-.74-2.02-1.72-2.52-.24-.03-.53-.03-.78,0,.47.23.9.59,1.29,1.01.69.73.88,1.69,1.04,2.62l.83-.71c.57-.55.98-1.25,1.65-1.67l-.02-.02-.02.02c-.13.04-.3.03-.4-.07,0-.04.05-.06.07-.1.03-.11.14-.22.1-.33-.13-.09-.37,0-.43-.17.22-.22.34-.48.35-.78.35-.44-.3-.4-.45-.66"/><path class="g" d="m8.02,18c.04-.17-.07-.12-.18-.14-.07.04-.1.17-.1.17h.23s.03-.03.04-.03"/><path class="g" d="m26.77,18.8c-.15.08-.27.23-.45.26-.05-.05-.12-.1-.1-.19.37-.2.28-.66.26-1.01-.36.13-.82.25-.94.68-.4.41-.76,1.14-1.41,1.01-.03-.02-.07-.07-.1-.02.1.08.23.08.33.14.66-.23,1.13-.94,1.53-1.51.17-.02.3-.15.47-.16.14.16.07.37,0,.54-.05.16-.28.25-.24.45.01.09.06.19.14.24.26-.15.49-.38.82-.35.24-.03.36.22.54.31,0,.13-.1.21-.12.33-.15.28-.43.44-.76.4-.14.04-.1.19-.14.28.07.04.17.02.26.02.2.04.44.13.5.35.1.35-.31.17-.45.28-.37.22-.7-.2-1.06-.09.12,0,.22.08.33.12.43.29.83-.06,1.3.02l-.14-.52c-.1-.28-.38-.18-.59-.23-.08-.06-.03-.15.05-.17.59.24.69-.48,1.08-.68-.32-.31-.67-.68-1.13-.49"/><path class="g" d="m7.46,18.07l.14-.03s.02-.11-.02-.12c-.08.02-.12.14-.12.14"/><path class="g" d="m23.23,18.26s-.05-.12-.09-.14c-.08-.02-.2-.26-.24-.07.11.07.22.14.33.21"/><path class="g" d="m5.15,20.1c.25-.17.48-.38.75-.5.11-.07.26-.04.35-.14l-.59-.07c-.54-.07-.77-.67-1.09-1.04-.2-.16-.46-.17-.68-.26-.06.22-.07.46-.19.66.06.01.11.06.19.05.07-.04.06-.11.1-.17l.45.42s.09.1,0,.14c-.31-.11-.57-.32-.92-.33-.2.09-.36.25-.38.47-.05.22.3.33.14.54-.29-.15-.39-.47-.35-.8.06-.29.39-.3.64-.35-.12-.02-.24-.06-.38-.05-.27.08-.55.26-.85.12.01.32,0,.65.24.87.16.21.45.15.59.35-.1.21-.3.38-.28.64.26.07.43.34.73.31.55-.28,1.12-.55,1.82-.4-.13-.14-.33-.29-.28-.47m-1.67.09c-.06-.01-.03-.06-.07-.09,0-.05-.02-.11.05-.12.18.12.47.05.66.07-.15.19-.45.02-.64.14"/><path class="g" d="m8.17,19.23c-.2-.15-.45-.21-.71-.24-.19-.05-.35-.31-.57-.14.09.43.62.43.75.85-.02-.12-.08-.25.07-.33.37,0,.74.13.9.5.07-.35.18-.68.4-.97-.06.04-.1-.07-.14,0-.02-.03-.04-.02-.07-.02-.28,0-.4-.24-.61-.42-.05-.11-.19-.37-.19-.37l-.25.03s.01.03,0,.05c-.07.42.24.67.47.97.01.04-.02.06-.05.09"/><path class="g" d="m24.01,20.71c-.08.05-.2.09-.28.07-.07-.3-.46-.18-.68-.31l-.02.02s-.04-.01-.05-.02c.04-.09.19-.03.28-.05.2.03.33.06.52.03.06-.09.14-.01.19.05.25.02.52.04.71-.07-.06-.09-.16-.17-.21-.26-.45-.47-1.12-.36-1.72-.31-.08-.04-.12-.09-.16-.17.06-.21.27-.22.45-.24.33-.07.58-.35.68-.66-.18-.11-.39-.16-.59-.24,0-.03,0-.06.02-.07.02,0,.07-.05.05-.1-.08-.06-.17-.21-.28-.23l-.14.28c-.26.46-.78.47-1.2.54l.24.35c.15-.11.28-.27.47-.28.07.02.06.11.09.17l.07.73c.36.27.11.8.12,1.18.12.12.24.25.38.33.07.06.22-.04.26.09.02.04-.03.06-.02.1-.06.12-.18.19-.31.19,0-.05-.09-.1-.02-.14l-.33-.4c-.06.26-.26.47-.28.75.06.04.15.11.26.19.26.09.48.22.71.35l.05-.38c.04-.15-.07-.27,0-.4.12.05.22.16.35.17.51.23,1.09-.04,1.63.05-.06-.2-.11-.4-.19-.59-.1-.47-.6-.66-1.01-.73m-1.6-1.74c.12-.2.42-.17.49-.4.15-.07.1.11.14.17l-.02.07c-.22.02-.38.25-.61.17"/><path class="g" d="m5.93,20.45c.06.03.05.09.05.14-.36.17-.42.59-.71.85-.03.08.07.05.1.12.49.23,1.03,0,1.44-.26l.07.07c-.06.25-.11.61.07.83.45-.17.89-.38,1.27-.73.02-.06-.04-.05-.07-.07-.32.34-.67.62-1.13.64-.06-.05-.08-.11-.07-.19-.1-.25.22-.54-.09-.66-.33.19-.66.41-1.06.35-.11-.07-.29.04-.38-.09.14-.17.32-.36.4-.57.06-.18.38-.2.28-.45-.15-.06-.36-.14-.4-.31.21-.2.53-.29.83-.28.36-.08.63.38,1.01.12.02-.56-.86-.59-.76-1.2.34-.26.62.19.94.05-.05-.06-.06-.14-.1-.21-.02-.12-.07-.25-.05-.36l.03-.11-.16.03s-.01.09-.02.11c-.02.18.19.45.19.45,0,0-.08,0-.16.01-.21-.19-.5-.1-.76-.06l.02.33c-.02.42.42.5.68.68,0,.09.11.13.07.24-.22.22-.43-.12-.66-.14-.49-.14-.97.09-1.32.4.12.14.26.24.42.28"/><path class="g" d="m26.44,20.71c.27.16.49-.09.76-.09v-.03c-.03-.2-.27-.2-.43-.24-.2.14-.27-.17-.47-.09-.14-.06-.32.13-.38-.07.11-.08.24-.13.38-.14.1-.01.08-.15.19-.14.11-.14.3-.18.49-.17.23-.02.34-.24.42-.42.11-.1-.06-.14-.12-.24-.41-.23-.72.19-1.06.33-.08.09-.19.1-.31.07-.13.06-.24.32-.4.19.04-.25.36-.33.38-.59.04-.34.39-.54.4-.9-.27,0-.42.23-.52.45-.33.42-.75.9-1.2,1.16.29.23.38.54.49.85-.05.16-.23.05-.31.12.07.02.11.1.19.07.43-.19,1.02-.35,1.48-.12"/><path class="g" d="m18,19.18c.17-.03.34.05.52.07-.1-.21-.18-.44-.26-.66-.06.21-.17.4-.26.59"/><path class="g" d="m8.62,21.33c.12.49.93.61,1.03.65.1.04-.23.02-.32-.02.05.13.22.08.31.13-.12.03-.2,0-.31-.02.12.09.19.27.43.23-.08-.31.1-.57.28-.8.18-.2.5-.25.57-.52.09-.17.11-.37.19-.54-.28-.05-.62-.17-.89-.02-.11.09-.2.23-.26.35-.06.01-.13,0-.14-.07.03-.36.29-.63.42-.94.21-.27.02-.61-.02-.9l-.1-.16c-.42.13-.76.49-.85.92l.21-.05c.19-.02.28.21.43.31.06.05-.01.1-.05.14-.14-.1-.25-.27-.45-.21-.26.26-.1.71-.05,1.01.05.21.07.5-.07.52-.08-.01-.1-.23-.11-.45-.05-.26-.05-.19-.15-.4-.2-.33-.37-.84-.82-.9v.07c.05.24-.1.49-.05.71.13-.1.31-.02.45.02.07.05.21.12.17.24-.09.09-.16-.08-.21-.1-.11-.03-.24,0-.31.1-.09.44.46.45.68.71m.83-.4c.07-.02.07.03.1.07.04.11-.03.12-.09.19-.03,0-.08.05-.09.02.02-.1.04-.2.09-.28"/><path class="g" d="m10.08,18.76s.02.04.02.07c.38.08.75.2,1.11.35-.27-.16-.57-.25-.85-.38-.1-.02-.2-.07-.28-.05"/><path class="g" d="m16.47,19.13c-.2-.05-.45-.15-.52-.38l-.21.56c.45.09.89,0,1.18-.38-.16.03-.26.23-.45.19"/><path class="g" d="m20.78,19.34c.23-.05.5-.03.66.17-.06-.31-.36-.56-.61-.75-.05.3-.36.51-.38.82.11-.08.21-.17.33-.24"/><path class="g" d="m10.74,19.13c-.22,0-.35-.22-.57-.21.06.23.08.51.07.73l.49-.52Z"/><path class="g" d="m11.18,19.44c-.06-.12-.2-.15-.33-.17-.33.27-.56.56-.9.85v.05h.05c.29-.22.55-.59.87-.78.1-.05.22,0,.3.05"/><path class="g" d="m11.47,19.32l.57.47c-.16-.17-.36-.37-.57-.47"/><path class="g" d="m18.85,19.32c.02.26.37.39.45.64l.09-.07c-.05-.1-.09-.2-.16-.28,0,.02.01.03.02.05l-.05.05c-.12-.1-.23-.25-.35-.38"/><path class="g" d="m15.55,20.74c-.66.81-1.36,1.49-2.17,2.1.79-.39,1.51-1.05,2.12-1.77l.02.02c-.07.19-.26.32-.35.49l.26-.21c.06.08-.11.13-.12.21.02,0,.03.01.05.03-.23.27-.33.5-.74.86s-.67.6-.67.6v.05l.23.14c.69-.16,1.22-.75,1.75-1.25.72-.61,1.41-1.56,2.25-1.76-.12-.28-.18-.56-.3-.83-.92.1-1.6.77-2.33,1.32"/><path class="g" d="m18.04,19.41l.15.58c.01.09.03.23.13.24-.07-.27-.22-.81-.22-.81l-.06-.02Z"/><path class="g" d="m21.25,19.56c-.12-.05-.26,0-.38.02-.23.14-.43.37-.38.66.06.16.15.32.24.47-.05.05-.08.15-.17.14-.12-.23-.06-.66-.45-.66-.14,0-.24.13-.33.21-.06.11-.08.26-.17.33l-.05-.05c-.03-.26.11-.44.28-.61-.14-.05-.3,0-.42.05.09.18.03.42.05.63.05.36.55.53.57.9.1.24-.06.44-.14.64-.13.16-.32.17-.49.21l.09.02c.52-.16,1.11-.15,1.6-.38l-1.06.19s-.08,0-.07-.05c.51-.19,1.1-.17,1.55-.49.36-.46.57-.98.64-1.56,0-.29,0-.6-.1-.83-.35.23-.56.6-.49,1.04-.05.09-.1.05-.16.02-.02-.29.17-.75-.17-.92"/><path class="g" d="m18.56,20.27c-.13-.23-.25-.79-.25-.79l-.07-.03.16.66c.07.04.03.21.16.17"/><path class="g" d="m11.99,20v-.05l-.38-.33c-.08-.04-.16-.15-.23-.12.19.19.39.32.61.49"/><path class="g" d="m18.45,19.51l.19.66c.07.04.02.18.14.17l-.26-.76-.07-.07Z"/><path class="g" d="m10.93,20.27c.15-.19.3-.38.31-.64-.02-.02-.04-.06-.07-.05.02.14-.03.24-.07.36-.08.1-.18.22-.17.33"/><path class="g" d="m18.66,19.62s-.03-.01-.02,0c.07.25.19.54.26.78.24.18.23.47.28.73,0,.63-.43,1.11-.75,1.6h.18c.34-.38.66-.81.75-1.3.15-.43-.31-.69-.12-1.13-.09-.22-.27-.48-.49-.57-.02-.03-.07-.08-.1-.12"/><path class="g" d="m10.12,21.75c-.1.21-.15.44-.02.66,1.15-.11,1.49-1.38,1.79-2.26-.12-.19-.32-.31-.5-.43-.09.15-.11.33-.21.47-.27.21-.25.54-.33.83-.05.4-.6.32-.73.73"/><path class="g" d="m7.13,21.87c.34-.07.63-.29.9-.54l-.33-.26c-.2-.27-.15-.62-.14-.97-.19.03-.4.16-.59.05-.26-.28-.8-.18-1.06,0,.17.27.51.15.75.26-.12.11-.34.07-.4.21-.25.19-.37.48-.54.73l.28.05c.45-.14.89-.31,1.23-.73.05-.01.07.02.09.05-.05.13-.11.26-.19.38v.78Z"/><path class="g" d="m10.34,20.12l.07.02c.08-.03.04-.11.05-.16-.09-.01-.1.08-.12.14"/><path class="g" d="m10.53,22.48c.97-.3,1.25-1.33,1.53-2.15l-.02-.02c-.3.79-.63,1.86-1.51,2.17"/><path class="g" d="m12.34,20.62c-.23.41-.32.87-.4,1.34.18-.07.31-.24.47-.35l.05.05c-.11.09-.08.24-.12.35.04.21.02.46.14.61l.1-.12c-.04-.41.08-.81-.07-1.16-.1.15-.21.32-.4.35,0-.3.07-.62.23-.87.02-.07.11-.16,0-.21"/><path class="g" d="m12.58,21.11c.12-.1-.01-.21-.07-.28l-.21.52c.12-.03.19-.16.28-.24"/><path class="g" d="m19.72,22.17c.19-.14.11-.34.1-.54-.08-.08-.11-.22-.24-.24-.04.34-.24.61-.35.92.17-.03.36-.03.49-.14"/><path class="g" d="m12.88,21.51c-.13.42-.08.94.05,1.34.02,0,.05,0,.07-.02l-.05-.05c-.11-.38-.09-.88-.02-1.27h-.05Z"/><path class="g" d="m16.65,21.75s.05.02.05.02l.19-.17-.03-.03s-.16.13-.21.18"/><path class="g" d="m11.8,21.66c-.3.45-.77.92-1.27,1.08h1.77c-.07-.22-.11-.45-.09-.71-.17.01-.27.17-.45.14-.11-.05,0-.12,0-.19.02-.11.07-.24.05-.33"/><path class="g" d="m4.56,21.89l.49-.12c-.15,0-.37-.03-.49.12"/><path class="g" d="m17.31,22.74c0-.25.01-.52-.12-.71l-.12-.19c-.09,0-.14.09-.21.12.11.24.26.48.23.78h.22Z"/><path class="g" d="m4.3,22.24c.21-.09.41-.2.64-.24-.23.04-.54-.02-.64.24"/><path class="g" d="m4.25,25.15c.29-1.18,1.42-2.13,2.4-2.83l-.07-.26c-.69-.14-1.37.03-1.98.21-.2.07-.28.03-.42.14-.46.73-.78,1.55-.64,2.5.17.52.21,1.09.45,1.58.05-.46.12-.92.26-1.34"/><path class="g" d="m16.23,22.01l-.68.73h1.34s-.14-.42-.25-.59c-.11-.11-.23-.17-.4-.14"/><path class="g" d="m26.23,22.79c.27.69-.03,1.47-.54,1.96-.07.02-.15.07-.21.05-.44,0-.75-.34-1.04-.64l-.52-.17c-.04.17-.17.29-.19.47,0,.17.08.33.21.42.08.09-.08.14-.12.21-.07.01-.12-.02-.17-.07-.17-.11-.38-.09-.57-.02-.15.09-.25.23-.26.4,0,.1.11.22,0,.31-.13-.07-.15-.22-.16-.35.04-.27.25-.51.52-.59-.51-.04-.84.45-1.37.31.08.16.18.31.23.47.12.21.32.41.59.35.15.02-.02.12.07.19-.06.19-.22.34-.26.54.21.03.41.15.63.07.34-.26.6-.71,1.04-.73.13.03.31.09.33.26-.06.12-.1.25-.21.35-.45.26-1.07.45-1.29.94l.19-.19s.13-.1.17,0c-.14.25-.47.48-.31.8.36.21.66-.16.99-.24.03.03.06.05.05.09.38-.16.7-.47,1.09-.64.12,0,.2.08.28.16.04.11.12.25.02.35-.49.52-1.19.89-.96,1.7l.12-.02c.32,0,.23-.32.45-.47.08,0,.17-.02.23.02-.05-.09-.2-.12-.21-.24.23-.16.31-.41.43-.64.04-.01.06.02.09.05,0,.29-.39.53-.12.83.11.08.22.15.38.12.11-.04.23-.1.28-.21.03-.07.06-.19-.05-.24-.02-.06.02-.1.07-.11.02-.17-.14-.33-.05-.47.17.06.19.26.28.4,0,.08-.14.1-.1.19.24.12.47-.14.69.05.05-.42-.13-.75-.47-1.01-.29-.61.02-1.26.19-1.82.08-.35.08-.53.09-.59,0-.39-.12-.8-.26-1.13-.04-.12-.2-.12-.21-.26.08-.05.12-.19.24-.14.28.3.31.69.35,1.08v-.21c.17-.96-.23-1.74-.83-2.4-.12-.09-.23-.29-.4-.33v.05c.26.21.4.48.57.73m-3.25,3.35c-.06.02-.11.07-.19.05.02-.11.2-.29,0-.35.02-.08.14-.05.19,0,.06-.07.11.03.19,0,.14-.02.27-.07.42-.05-.21.12-.42.21-.61.36m1.11-.99c-.12-.07.04-.13.03-.21.18.06.35.13.54.17-.14.16-.36,0-.57.05m.64,1.04c-.21.04-.07-.23-.19-.31.09-.05.22-.1.33-.14.29-.2.53-.53.87-.61.04.05.07.13-.02.14-.16.08-.31.18-.45.31.02.03-.39.4-.54.61m1.09.54c-.07.19-.15.37-.24.54-.08-.06-.24,0-.28-.12.29-.27.51-.61.68-.94l.12-.09c-.04.23-.19.41-.28.61"/><path class="g" d="m7.51,25.83c.23-.33.71-.56.68-.99,0-.1-.14-.21-.03-.31.19.02.33.14.47.26l.07-.28c.25-.76-.45-1.27-.26-2.03l-.02-.02c-.38.02-.7.17-1.06.21l-.02-.02c.27-.15.58-.19.87-.28.08-.06.25.04.28-.1-.29-.03-.6.04-.87.12l-.02-.02s.03-.05.05-.07l.9-.19c-.41-.03-.79.14-1.18.21.01.15-.15.23-.19.35.03,0,.08-.02.09.02-.06.02-.1.09-.17.1.05.57-.62.72-.66,1.25-.02.19-.06.39-.05.57.21-.03.42-.07.57-.26.06-.05.13,0,.17.05-.29.54.27.97.38,1.44m.49-2.33l.03-.12c.09.3.1.62.26.89l-.02.12c-.08,0-.16-.06-.21.05v.03h-.05c-.04-.31.07-.64,0-.97m-.99.59c.12,0,.13-.14.19-.21l.09-.45c.07-.03.05.04.07.07-.02.25-.1.48-.07.75-.03.04-.07.05-.12.05-.04-.12-.23-.05-.17-.21"/><path class="g" d="m9.96,22.74c-.43-.12-.79-.41-1.2-.56-.15.22-.2.52-.14.8.03.1.08.24.13.31,0-.16,0-.54,0-.54,0,0,1.18,0,1.21,0"/><path class="g" d="m21.23,23.23c.1-.07.1-.15.14-.28.03-.2.06-.47-.12-.59-.2.15-.63.38-.63.38h.53s.05.31.07.49"/><polygon class="g" points="21.74 22.41 21.56 22.27 21.58 22.5 21.74 22.41"/><path class="g" d="m7.06,22.41l-.28.07c-.76.57-1.53,1.26-2,2.07.1.26.38.49.66.52.29-.01.57-.12.71-.4.02-.42.09-.83.28-1.18.47-.23.38-.73.64-1.09"/><path class="g" d="m24.9,23.04s.05-.03.05-.03l.05.07s-.05.02-.04.04c.29.41.54.83.64,1.32.19-.2.33-.46.45-.71.17-.37,0-.78-.21-1.08-.09-.03-.13.07-.21.07-.19.09-.35.21-.54.33-.02-.03-.06-.05-.05-.09.2-.2.45-.28.66-.45v-.05c-.29.13-.57.29-.82.49-.01.04.02.05.04.08"/><path class="g" d="m23.66,23.89s0,.03,0,.04c0-.01,0-.03,0-.04"/><path class="g" d="m21.82,22.48l-.24.24c.07.38-.18.63-.33.92.04.31.01.58.02.87h.12c.15-.05.34-.13.4-.31-.06-.04-.18,0-.16-.12.05-.02.1-.06.16-.05.18-.16.12-.42.24-.61.11.24.08.53.12.8,0,.15-.19-.01-.19.14-.03.17-.07.39.07.52.26-.05.48-.23.73-.31.1-.03.24-.03.3-.09.01-.14,0-.31-.12-.43-.1,0-.16.15-.24.17-.04-.02-.02-.06-.02-.09.09-.1.03-.25.05-.38-.03-.15-.24-.28-.09-.45.04,0,.06.05.09.07.04.29.38.39.54.56-.04.05-.09.07-.14.07,0,.2.23.27.38.33.09-.12.16-.24.14-.4,0,.04-.04.06-.05.1l-.07-.07c.05-.3-.04-.56-.31-.71-.34-.48-.9-.62-1.41-.78"/><path class="g" d="m23.47,22.53l-.14.4c.29.23.4.59.61.85.43.08.86.18,1.13.59,0-.26-.1-.43-.23-.68-.37-.48-.77-1.01-1.37-1.15"/><path class="g" d="m20.03,22.54c-.07,0-.47.17-.54.19h.57s-.03-.17-.03-.19"/><path class="g" d="m18.98,22.59l-.1.15h.24s-.03-.15-.14-.15"/><path class="g" d="m24.53,22.85l-.02.05c.05.05.16.16.16.16l.07-.02s-.16-.17-.21-.18"/><path class="g" d="m15.41,23.28c.11-.19-.05-.59-.24-.26v1.86s.06-.01.07.03c.07-.16.04-.36.12-.52-.14-.08.01-.15,0-.26-.07.01-.12-.02-.16-.07,0-.12.13-.09.19-.14,0-.05.1-.13,0-.16-.03.04-.08.02-.12.02-.21-.26.26-.05.19-.28-.05.02-.13.09-.16,0-.07-.11.08-.14.12-.21"/><path class="g" d="m10.08,24.77l1.6,1.82,2.1,2.43c.1.1.16.26.31.31.2-.22.39-.44.59-.66-1.06-1.13-1.95-2.28-2.99-3.4l-1.6-1.79-.47-.52h-.61c-.09.15-.03.36-.05.54.39.4.78.84,1.13,1.27"/><path class="g" d="m10.45,23l1.25,1.37.02.07c1.12,1.2,2.15,2.46,3.28,3.63,0-.26.02-.53-.02-.78-.2.06-.31-.21-.47-.09-.14-.04-.31-.02-.4-.19-.11-.09,0-.2,0-.31,0-.08.16-.3.09-.34-.05-.03-.18-.13-.24-.17-.11.09-.32.25-.32.25,0,0-.24-.32-.37-.48.06-.04.2-.13.32-.25l-.13-.36c-.15,0-.41.02-.41.02l-.02-.6.41-.02s.03-.22.1-.37c-.1-.06-.34-.22-.34-.22l.33-.51s-.04-.3-.08-.43c-.17-.03-.41-.05-.57.02-.09-.06-.15-.18-.19-.28h-2.24v.05Z"/><path class="g" d="m15.17,28.26l-.02.61c.49-.45.97-1.04,1.46-1.56l.02-.07c1.31-1.44,2.64-2.86,3.91-4.29h-.55c-.55.68-1.13,1.19-1.69,1.86-1.08,1.11-2.08,2.28-3.14,3.44"/><path class="g" d="m15.45,24.34c.03.23-.05.52-.02.73l.07-.02c-.05-.28.07-.52.21-.71.06.03.05.09.05.14h.09c.11-.03,0-.12.02-.19.07-.1.17-.14.28-.12.06-.04.09-.1.1-.17-.05,0-.11.02-.14-.02,0-.03.03-.05.05-.07.06.04.08-.07.12,0,.01-.03.04-.02.07-.02-.02-.06.03-.1.02-.16-.06-.02-.15.04-.19-.05.06-.07.14-.06.21-.1.09-.13-.07-.22-.05-.35-.22,0-.14.3-.31.4.07.17-.14.24-.09.4-.02.2-.22.24-.38.28-.07-.17.21-.14.21-.31l-.14.05c-.1-.22.26-.13.24-.35-.08-.03-.11.05-.19.02-.15-.26.35-.04.28-.35h-.1c-.17-.14.14-.13.1-.26-.02-.06-.05-.1-.12-.1-.36-.03-.18.38-.26.56.05.13-.02.26-.07.38.1.15-.08.24-.09.38h.02Z"/><path class="g" d="m25.11,23.8c.19.32.22.65.34.67-.03-.12-.08-.37-.3-.77-.15-.26-.34-.55-.34-.55h-.08s.08.12.08.12c0,0,.14.24.3.53"/><path class="g" d="m14.72,23.45c-.03.17.16.11.23.19-.03.09-.16,0-.16.12-.02.15.23.16.23.16v-.76l-.18.11.12.07c0,.15-.19,0-.23.12"/><path class="g" d="m13.68,23.31l-.02.09c.02.1.08.14.19.12.03.03.1.03.07.09-.03.04-.1.02-.14.03v.09c.06.1.19.01.26.07.03.11-.1.03-.12.12-.04.23.23.04.31.17.02.11-.11.08-.17.12-.01.19.2.02.26.14.03.1-.09.05-.12.09-.04.04-.04.12,0,.16.41-.15.2.35.42.45,0-.23-.13-.4-.12-.64-.31.06-.06-.39-.31-.5.08-.36-.3-.47-.52-.61"/><path class="g" d="m14.32,23.49c.02.1.16.1.24.17,0,.02-.01.03-.02.05-.03.02-.07.07-.09.02-.01.01-.03.03-.05.02,0,.1.14.1.24.1.04-.17-.21-.25-.1-.43-.07.02-.14.05-.21.07"/><path class="g" d="m17.04,25.4l.05-.6-.4-.03s-.02-.21-.09-.37l.35-.21c-.1-.17-.31-.52-.31-.52l-.18.11s.07.26-.01.31c-.03.22-.35.25-.28.5.21.39.03.86-.21,1.18-.04.05-.08.03-.06.07-.01.08.21.35.21.35l.31.26.39-.47s-.26-.22-.31-.26c.11-.15.14-.35.14-.35l.4.03Z"/><path class="g" d="m14.46,24.08c-.04.15.14.1.21.14.04.04.09.07.07.14-.1.21.09.45.02.68h.02s.05-.06.07-.09c.05-.26-.08-.44-.07-.68-.11-.09-.08-.23-.12-.35-.03.11-.15.1-.21.17"/><path class="g" d="m14.93,24.33c-.08.06.09.58.09.58v-.9s-.1-.02-.12,0c-.09.03-.02.19.01.21,0,0,.11.06.02.12"/><path class="g" d="m21.06,23.9l-1.08,1.22-1.67,1.82c-.67.8-2.15,2.39-2.15,2.39l.26.31s3.14-3.49,4.63-5.09l.02-.65Z"/><path class="g" d="m11.66,32.01l1.98-2.19c-.53-.84-1.33-1.5-1.93-2.31l-1.63-1.89-1.15-1.32c-.03.8.01,1.56,0,2.33.04,2.45.25,4.89,1.27,6.96.47-.51,1.02-1.03,1.46-1.58"/><path class="g" d="m23.27,24.46c0,.11.14.14.21.17-.13-.3.04-.05-.21-.17"/><path class="g" d="m21.75,25.38c-.08-.16-.26-.27-.23-.47.05-.12.16-.05.23-.05l-.05-.26c-.12.09-.35.13-.49.17.01.98.07,1.74.02,2.92-.07,1.41-.15,2.9-.54,4.22.21-.26.32-.59.52-.87.05-.21.55-.38.21-.59-.17-.25-.18-.63-.05-.9.14-.22.36-.43.61-.45.15-.83.54-1.57,1.2-2.17-.21.09-.48.04-.68-.05-.12-.04-.22.09-.31-.02.02-.27.04-.53.17-.76-.38-.06-.41-.49-.61-.73"/><path class="g" d="m15.74,25c.02-.13.07-.24.12-.35l-.17-.02-.05.26s-.01.17.1.12"/><path class="g" d="m7.58,27.83h-.02c.01.26-.01.5-.07.73-.13-.26-.05-.63-.07-.9-.33-.34-.69-.58-1.11-.71-.13-.08-.33-.02-.45-.14-.04-.16-.13-.31-.28-.4-.08-.11-.27-.09-.26-.26.08-.06.33.07.4.05.18.09.33-.04.45-.17.51-.03.85.54,1.44.33-.18-.1-.35-.23-.54-.31-.07-.06-.22.04-.26-.09.06-.19.34-.02.47-.14-.08-.23-.22-.43-.33-.64-.05-.02-.08.03-.12.05-.09,0-.22.12-.28-.02-.04-.22.21-.21.31-.35-.01-.04.02-.09-.03-.12-.09.11-.24.08-.35.12-.09.03-.18.23-.28.09-.34.26-.77.45-1.2.33-.27.45-.44.95-.49,1.49h-.02c-.07-.56.17-1.05.35-1.53-.35.47-.45,1.2-.57,1.7.05.41-.3.66-.45.99-.02.21-.06.44-.05.64.27-.1.45-.37.64-.56.02.24-.13.5-.07.75-.14.34-.25.78,0,1.11.2-.25.29-.54.28-.87.14-.14-.08-.34.1-.47.04,0,.06.05.09.07.01.17.06.32.17.45.23.04.15.33.24.49.11-.41,0-.85-.1-1.23-.25-.29-.11-.65-.24-.99-.03-.12-.13-.24-.1-.36.23.11.27.55.59.43.21.18.41.39.66.47.59.21,1.23.38,1.62.97-.02-.33-.05-.66-.07-.99m-1.32-2.57c.15-.03.27.04.35.12-.11.11-.28-.02-.45.02-.12,0-.24.09-.36.02.07-.16.31-.07.45-.17"/><path class="g" d="m14.09,24.77c-.06.37.07.67.31.92.1-.17-.11-.26-.12-.4l.05-.31c-.03-.13-.11-.18-.23-.21"/><path class="g" d="m6.8,26.77s0,0,0,0c0,0-.02,0-.03,0,0,0,.01,0,.02,0"/><path class="g" d="m6.3,26.56c.14.08.32.14.48.2-.18-.08-.47-.29-.48-.27.02.01-.03.05,0,.06"/><path class="g" d="m8.69,27.64l-.03-2.36c-.06-.16-.14-.33-.3-.42l-.07.35c-.23.22.25.26.21.5-.2.13-.41.26-.59.47-.24.15.05.31.02.5-.27.26-.77.2-1.12.09.07.03.14.06.21.09.85.62,1.21,1.56,1.2,2.59.18.03.29.21.42.33.15.28.19.47.12.68-.27.33.2.54.35.76-.35-1.11-.28-2.42-.42-3.58"/><path class="g" d="m15.17,25.88s.08-.02.12,0c-.03-.28-.04-.55-.05-.83-.04,0-.05.07-.07.01v.82Z"/><path class="g" d="m15.02,25.82v-.73s-.08.1-.09.16c-.03.25.09.57.09.57"/><path class="g" d="m15.45,25.48c.15-.02.31-.14.38-.26,0-.12-.15-.14-.24-.1-.09.06-.27.11-.24.26.08.03.12-.16.19-.02,0,.05-.08.09-.09.12"/><path class="g" d="m14.84,25.52c.05-.21-.16-.28-.28-.38-.15.1-.05.21.02.31.07.06.19.08.26.07"/><polygon class="g" points="4.6 25.35 4.7 25.2 4.64 25.17 4.57 25.34 4.6 25.35"/><path class="g" d="m7.89,25.92c.12-.11.29-.2.35-.33-.06,0-.07-.1-.14-.07l-.52.57v.05c.16.08.18-.15.31-.21"/><path class="g" d="m15.92,26.87c.07-.05.24-.07.19-.21-.11-.08-.06-.22-.14-.31-.12-.22-.14-.51-.26-.71l-.05.05c.04.19.12.39.07.59-.18-.12-.14-.36-.21-.54h-.02l.14,1.06c.01.2.17.01.28.07"/><path class="g" d="m14.86,26.14c-.04.24,0,.5-.12.71-.03-.06-.09-.03-.12-.07-.02-.18.03-.34.02-.52-.06.06.02.19-.07.24-.04-.03-.02-.08-.02-.12-.04-.23.09-.44-.02-.64-.05.39-.2.74-.21,1.15.13.13.31-.06.43.12.09-.06.27.08.27.08v-1.02s-.16.06-.16.06Z"/><path class="g" d="m15.17,27.03l.33-.04c.05-.22-.08-.43-.07-.66-.03-.1-.03-.23-.1-.28-.03.19.07.36,0,.54-.12,0-.04-.13-.09-.19-.07-.09.06-.26-.07-.3v.93Z"/><path class="g" d="m6.52,26.28l-.03-.02c-.2-.11-.36-.02-.52.14-.03.1-.05.27.03.35.43.1.84.24,1.2.52-.26-.32-.65-.4-1.01-.52-.14-.04-.13-.2-.1-.31.09-.19.28-.11.43-.17"/><path class="g" d="m23.47,26.75l.68-.38.05-.1c-.32-.1-.6.35-.73.47"/><path class="g" d="m7.01,26.54c-.1-.02-.22-.15-.31-.07.28.26.66.2,1.01.14v-.07l-.02-.02c-.2.08-.47.05-.68.02"/><path class="g" d="m5.62,27.81c-.12-.06-.2-.22-.33-.26-.57.24.08.72.07,1.11.03.32.05.7-.02,1.01-.05.05-.05.15-.14.14-.12-.17-.21-.35-.24-.56-.05-.08-.14.02-.21.02-.06.18-.06.38-.21.52-.11.1-.05.31-.24.33-.17-.2-.24-.44-.3-.68l.12-.56c-.06.04-.09.13-.14.19-.16.5.03,1.03.47,1.37.02-.26.14-.47.26-.68.07-.12-.04-.35.17-.4.13.04.05.22.07.33.1.14.2.34.38.38.25-.52.25-1.25,0-1.77-.06-.16-.26-.26-.19-.47.05-.07.12-.12.21-.1.62.63,1.64.44,2.19,1.25-.4-.77-1.28-.75-1.91-1.15"/><path class="g" d="m22.71,27.86c-.02.32-.22.64-.22.97,0,.04.04.03.05.07.11-.35.14-.73.22-1.09l-.05.05Z"/><path class="g" d="m7.74,28.68c.02.19-.06.33.07.47.04-.37-.06-.74-.09-1.11,0,.18-.02.44.02.64"/><path class="g" d="m4.11,28.77s.02-.04.02-.07c-.12-.26-.32.08-.49.07-.11-.21.02-.44-.02-.68-.18.3-.05.69-.02,1.01.11-.14.3-.23.4-.4.06-.03.08.05.12.07"/><path class="g" d="m22.47,28.53l.05-.29c-.17.06-.09.19-.05.29"/><path class="g" d="m22.76,28.33l-.02.28c.1-.05.21-.11.28-.19-.11.03-.17-.06-.26-.09"/><path class="g" d="m7.95,29.48c.02-.34-.03-.66-.05-.99.02.33-.04.69.05.99"/><polygon class="g" points="15.97 29.38 15.51 28.83 15.23 29.11 15.71 29.67 15.97 29.38"/><path class="g" d="m26.08,29.41c-.29.05-.57-.06-.8-.24l.07.4c.2.27.49.38.75.54.2-.25.32-.63.16-.92,0,.12-.13.12-.19.21"/><polygon class="g" points="14.98 29.25 14.49 29.81 15 30.38 14.98 29.25"/><path class="g" d="m22.31,29.62l-.14.02c-.11-.03-.21-.15-.23-.26l-.07.17c.04.1.11.21.24.19.08-.02.17-.05.21-.12"/><polygon class="g" points="16.04 29.46 15.78 29.76 16.04 30.05 16.3 29.77 16.04 29.46"/><path class="g" d="m22.62,29.74c.07-.07.07-.14,0-.21l-.12.21s.08.08.12,0"/><path class="g" d="m21.49,29.98c.04.22.09.48.33.57.1.04.24.08.28-.05l-.1-.1c-.23.11.01-.15-.17-.19-.01-.03-.06-.03-.07,0-.07,0-.13.09-.19.02.02-.08.11-.1.17-.12.01-.07-.02-.12-.07-.17,0-.13-.11-.28,0-.4-.13.09-.12.28-.19.42"/><path class="g" d="m7.62,29.72c0,.13-.01.26.12.33.15.02.38.09.47-.1.12-.09-.03-.19-.05-.28,0,.1-.18.17-.09.28-.18.03-.33-.12-.43-.26l-.02.02Z"/><path class="g" d="m19.74,33.61c-1.17-1.26-3.37-3.77-3.37-3.77l-.26.28s2.26,2.61,3.41,3.88c0,0,.18-.25.22-.4"/><path class="g" d="m22.5,29.88c-.11-.12-.21.07-.31.14l.05.05c.11-.01.21-.09.26-.19"/><path class="g" d="m8.5,30.1c.05-.08-.02-.17-.07-.24l-.02.17s.05.07.09.07"/><path class="g" d="m15.19,30.99l.7-.79-.27-.29-.36.37c-.23.18-.06.49-.07.71"/><path class="g" d="m7.46,30.57s-.04-.11,0-.14c.04.05.11.08.12.14.06.06.15,0,.17-.07-.11-.06-.23-.07-.31-.19-.07-.12-.04-.2-.05-.35-.11.08-.08.22-.12.33,0,.26.23.52.45.61l-.26-.33Z"/><path class="g" d="m22.43,30.14s.06.07.12.05c.07-.04.16-.1.17-.19-.13-.12-.2.1-.28.14"/><path class="g" d="m21.96,30.17l.07.07c.06,0,.12-.04.14-.1-.05-.14-.18-.02-.21.03"/><path class="g" d="m8.36,30.14c-.04.06-.13.09-.12.17.04.07.11.06.17.09.02-.06.1-.1.07-.19-.04-.02-.05-.1-.12-.07"/><path class="g" d="m22.22,30.4c.08,0,.16-.04.19-.12-.08-.1-.24-.02-.26.07.03,0,.05.03.07.05"/><path class="g" d="m12.25,33.49l1.55-1.72c.3-.26.54-.6.8-.9l-.54-.61c-1.14,1.3-2.34,2.58-3.51,3.87.09.26.28.51.47.71l1.23-1.34Z"/><path class="g" d="m22.43,30.45c.07.06.16-.03.19-.09-.09-.03-.13.06-.19.09"/><path class="g" d="m8.12,30.38l-.19.14.1.09c.1.08.21-.03.26-.12-.05-.04-.12-.05-.17-.12"/><path class="g" d="m7.7,30.69c.04.06.11.05.14.12.07.02.1-.03.14-.07-.05-.05-.1-.12-.17-.14-.04.03-.11.03-.12.1"/><path class="g" d="m8.4,30.75c.06-.04.06-.09.09-.14-.1-.1-.18.08-.23.12.03.04.1.02.14.02"/><path class="g" d="m22.03,32.19c-.15,0-.29.21-.4.07.09-.03.03-.13.05-.19-.11,0-.2.07-.31.1-.03.05-.03.12-.09.17l-.02-.03c0-.21.05-.4.17-.56.14.1-.07.17,0,.31.09-.03.19-.03.26-.1-.02-.11.06-.28-.07-.33l.07-.05c-.03-.12.08-.33-.1-.35.09-.03.11-.12.17-.19.04-.02.07.02.1.05.04-.03.11-.03.12-.09.07-.22-.35-.37-.4-.07-.02.08-.14.12-.14.21-.27.37-.41.79-.68,1.16.18.16.5-.03.66.17.07.07.14-.02.19-.07.09.02.18.06.26.09.08-.03.17-.03.23-.09-.02-.06.04-.18-.05-.19"/><path class="g" d="m8.19,30.87c-.05-.06-.16-.06-.21,0l.02.02c.05.03.18.05.19-.02"/><polygon class="g" points="22.03 30.85 22.08 30.94 22.22 30.85 22.03 30.85"/><path class="g" d="m22.43,30.87l-.19.17c.02.07.07.15.12.19.17-.07-.05-.13.02-.24.06-.08.08.06.14.05.04-.02.02-.06.02-.1-.04-.02-.06-.1-.12-.07"/><path class="g" d="m8.45,31.13l.12.02.05-.12s-.06-.12-.12-.1c-.05.13-.15.21-.26.31.03.07.07.17.12.21.14-.07.03-.23.09-.33"/><path class="g" d="m18.64,35.33c.1-.1.16-.17.25-.34,0,0-2.51-2.92-3.48-3.93l-.24.28c.49.57,1.02,1.14,1.49,1.72l1.63,1.89.35.38Z"/><path class="g" d="m22.17,31.37l.05-.05c-.01-.08-.04-.19-.09-.24.01.07-.04.24.05.28"/><path class="g" d="m7.65,32.45c-.04-.33.17-.55.14-.87-.09.02-.16.15-.26.07l.31-.24c-.01-.07.01-.15.07-.17l.07.07.17-.17c-.12,0-.25.02-.35-.02-.35.39-.27.96-.52,1.39.13.05.26-.03.38-.07"/><path class="g" d="m22.76,31.37c.06-.09,0-.21-.1-.24-.1.1.08.15.1.24"/><path class="g" d="m21.86,31.18c-.12.05-.07.27-.05.35.1-.08.29-.09.21-.28.02-.1-.11-.12-.17-.07"/><path class="g" d="m8.76,31.18l-.07.07c-.07.07.02.14.07.19l.05-.05c-.02-.07.04-.17-.05-.21"/><path class="g" d="m22.36,31.42c.02.07.07.13.05.21.1-.04.2-.11.26-.19l-.14-.16-.17.14Z"/><path class="g" d="m14.89,37.55c-.25.1-.44-.08-.66-.12-.11-.08-.17-.14-.28-.21.07-.23.17-.54.21-.79-.09-.05-.25-.18-.32-.24-.08.05-.24.17-.32.22-.13-.13-.21-.26-.37-.48.07-.06.26-.18.33-.23-.05-.13-.09-.22-.11-.37-.1,0-.3,0-.41,0,0-.22,0-.36,0-.6,0,0,.24,0,.41,0,.03-.16.05-.21.12-.36-.1-.07-.23-.17-.33-.24.05-.09.28-.4.35-.49.03.02.29.21.29.21-.01-.1.02-.18.03-.2,0-.01-.06,0-.11-.12.04-.12.02-.16.01-.21.16-.08.07-.26.23-.33.05,0,.11-.02.14.02.02-.16.12-.33.26-.47.17-.03.27.08.4.14.09-.05.03-.16.05-.24.06-.08.1-.15.19-.19v-.9l-1.18,1.27-2.07,2.26-.38.4c.22.39.57.73.89,1.08.86.72,1.75,1.36,2.76,1.7-.05-.17.12-.52-.14-.52"/><path class="g" d="m8.1,31.37c-.2.06-.14.27-.19.42.11-.05.28-.08.28-.24-.03-.06-.03-.18-.1-.19"/><path class="g" d="m8.97,31.44c-.11.07-.12.24.02.28l.03-.02c.07-.1.07-.19-.05-.26"/><path class="g" d="m22.97,31.65c.01-.08-.01-.16-.07-.21-.17.07.02.17.03.26l.05-.05Z"/><path class="g" d="m22.22,31.46c-.16.06,0,.17-.05.28h.1c.06-.03.04-.09.05-.14-.05-.04.02-.17-.1-.14"/><path class="g" d="m8.62,31.6c-.05-.18-.18-.09-.23.02-.02.07.03.11.05.17.07-.04.18-.09.19-.19"/><path class="g" d="m22.08,31.65c-.03-.22-.18.02-.28,0,.04.1-.09.21.02.26.12-.05.3-.07.26-.26"/><path class="g" d="m22.76,31.82c.17-.04-.02-.16-.02-.24-.09.12-.29.13-.3.28.06.19.21-.05.33-.05"/><path class="g" d="m8.33,32.05c-.16-.01-.25.21-.4.17.09-.11.23-.2.35-.31,0-.06-.02-.12-.05-.17-.14.02-.27.14-.35.24-.01.17-.1.44.07.54l-.02.02c-.02.09.09.07.12.14l.02-.03c-.24-.23.19-.1.23-.26-.03,0-.08.02-.09-.02l.02-.02c.17-.05.08-.19.09-.31"/><path class="g" d="m8.83,31.89v-.05s-.07-.11-.14-.09c-.14.06-.33.23-.19.4l.33-.26Z"/><path class="g" d="m9.21,32.01s.08.02.09-.03c-.02-.08,0-.18-.07-.23-.07-.01-.12.07-.14.12.07.04.05.1.12.14"/><path class="g" d="m22.97,32.05c-.06-.04-.06-.1-.1-.14l-.28.12c-.12.1-.29.07-.42.14-.04.06-.04.16,0,.21.19-.06.44.03.57-.17.03,0,.08-.02.1.02.1-.08.26-.02.35-.14-.02-.11-.11-.22-.14-.31-.17.06.02.17-.07.26"/><path class="g" d="m22.17,32.01c.02.06.09-.01.14,0,.09-.03.06-.15,0-.19-.05.06-.2.07-.14.19"/><path class="g" d="m22.05,31.93c-.08.1-.35,0-.28.24.07,0,.21-.05.3-.12,0-.04.02-.09-.02-.12"/><path class="g" d="m8.59,32.43c.14,0,.24-.13.33-.21l.02.02s.07-.02.1-.05c0-.08-.11-.14-.14-.19l-.38.26c-.02.08.04.14.07.17"/><path class="g" d="m9.3,32.19c-.03.08.06.06.1.09.02-.06-.02-.17-.1-.09"/><path class="g" d="m22.88,32.59c-.13.4-.52.24-.85.31-.45-.05-.82.08-1.11-.19-.23-.05-.4.16-.59.28-.4.76-.77,1.54-1.32,2.24l.07.12c.11.03.16-.03.26-.1.41-.41.75-1.03,1.39-.97.31.07.45.41.64.64.31-.36.7-.6,1.18-.49.02-.12.07-.25.05-.35.09-.36.11-.76.17-1.13.06-.05.11-.14.19-.14.23.19.52.39.83.26.15-.08.21-.22.21-.38-.05-.21-.25-.38-.45-.45-.22.12-.53.12-.66.35m-1.65,1.38c-.08-.07-.17-.18-.21-.28l.07-.24c.11.03.2.15.26.24-.04.09,0,.22-.12.28m.1-.71c.05-.07-.02-.26.12-.23.08.1.24.18.21.33-.08.08-.03.26-.16.28-.03-.14-.24-.2-.17-.38m.4,1.11c-.12-.07-.15-.23-.26-.33.03-.08.03-.17.09-.23.07.01.14.05.19.12.22.13-.01.3-.03.45m.31-.42c-.03-.15-.16-.23-.28-.33l.05-.19c.16-.1.24.17.38.21-.05.1.01.29-.14.31"/><path class="g" d="m9.18,34.69c.24-.12.5-.08.73.05.26.32.61.43.97.54.03-.02.1,0,.07-.07-.63-.78-1.08-1.64-1.41-2.55-.17-.02-.4-.36-.52-.05-.18.19-.47.1-.66.26-.32.24-.56-.08-.9-.05-.1-.07-.24-.06-.35-.09-.2-.16.07-.29.02-.47l-.21.12c-.27.25-.71.51-.68.92.1.16.29.22.5.19.32-.02.45-.35.73-.47.12.11.15.31.16.5.02.05.07.12.02.17.1.17.01.41.07.59v.24c.3-.22.77-.19,1.08-.02.16.04.2.37.38.21m.14-1.51l.07.23c-.05.11-.13.21-.21.28-.11-.06-.08-.19-.12-.28.06-.09.15-.21.26-.23m-.35-.43c.14-.02.07.16.12.24.07.18-.13.24-.17.38-.14-.02-.09-.2-.16-.28-.03-.15.13-.22.21-.33m-.59.92c-.15-.02-.1-.21-.14-.31.14-.05.21-.31.38-.21l.05.19c-.12.1-.25.18-.28.33m.31.42c-.01-.15-.24-.32-.03-.45.05-.06.12-.1.19-.12.07.06.06.16.09.23-.11.1-.14.26-.26.33"/><path class="g" d="m14.93,33.25c-.12.23.15.44-.05.64.26.09-.01.36.14.52v-1.99s-.12.18-.09.27c-.16.13.2.28-.05.4.01.06-.03.14.05.17"/><path class="g" d="m15.17,32.59v.67s.12-.11.12-.11c.01-.03.05-.09,0-.12l-.02.02s-.02-.06-.05-.07c.03-.13.03-.29-.05-.4"/><path class="g" d="m15.48,34.13l.14-.12c.05-.11-.1-.07-.1-.16.04-.04.07-.08.12-.09.07-.11-.02-.16-.1-.24.05-.08.14-.09.21-.12.03-.09.05-.23-.02-.31.18-.1-.04-.22,0-.35-.09-.01-.15.05-.19.12-.17,0-.06.19-.09.28.12.15-.04.31.05.47-.05.16-.11.38-.02.52"/><path class="g" d="m13.99,34.01c0,.12.17.06.24.14.04.13-.12.11-.17.14.08.06.2.05.24.16-.03.04-.07.04-.1.07.04.03.02.08.05.12.28.06.13.42.31.59v-.14c-.03-.21-.13-.39-.19-.59.04,0,.08-.09.12-.02-.02-.12-.12-.2-.12-.33,0-.08.1-.07.16-.07.06.07.2.04.19.17-.03.03-.05.06-.1.05v.07c.04.09.12.03.19.05l-.02-.12c.07-.16-.02-.25-.1-.38.05-.04,0-.11.07-.14.08-.09-.03-.17-.1-.23l.02-.02c.09-.08.04-.22-.05-.28-.04-.1.11-.13.12-.21-.06-.12-.14-.25-.28-.26-.08,0-.08.08-.14.12-.05.11,0,.24.05.33,0,.05.01.11-.05.14.07.11.29.16.21.31-.05,0-.08,0-.12-.02,0,.08.02.15.07.21-.01.04-.05.11-.12.09-.15-.12-.19-.3-.14-.47-.01-.16-.04-.33-.24-.33-.04.04-.02.11-.02.17-.03.02-.05.07-.09.07v.09c0,.06.09.08.14.12.05.05.01.12-.05.17-.03,0-.06,0-.07-.02-.06.19.22.02.24.19-.04.07-.11.06-.17.09"/><path class="g" d="m16.04,33.23c-.18.08-.07.35-.26.47.04.04.03.11-.02.14.03.23.01.41-.05.63l.07-.02c.22-.13-.16-.4.17-.42.07-.09.07-.17,0-.26.03-.08.11-.04.16-.05.05-.08.11-.2.02-.28.03-.03.05-.06.1-.05l.02-.19c0-.18-.2-.07-.21.02"/><path class="g" d="m23.33,34.08c-.14.38-.18.81-.42,1.16l-.02-.02c.21-.62.35-1.26.54-1.89l-.19-.02c-.1.6-.26,1.16-.4,1.75l-.1.17-.02-.02c.07-.48.24-.92.28-1.42.03-.2.14-.47,0-.64-.05.7-.27,1.34-.35,2.03.05.07.12.21.23.17.37-.6.52-1.33.78-2l-.02-.02c-.21.2-.17.53-.31.78"/><path class="g" d="m15.17,33.35v1.03c.05-.08.15-.14.12-.25-.05-.03-.13-.03-.1-.12.03-.04.07-.04.1-.07.06-.09,0-.11-.07-.16,0-.09.07-.15.09-.24-.23.1-.06-.16,0-.21-.05-.06-.09.02-.14.03"/><path class="g" d="m7.37,33.32l-.07.07c.13.43.12.93.19,1.39-.06.1.03.26-.07.35-.07-.31-.06-.65-.1-.97,0-.25-.06-.49-.16-.68l-.12.12c.1.48.18.98.21,1.49l-.05.07-.05-.05c-.06-.49-.06-1.03-.26-1.44l.09.64c.11.37.05.81.24,1.15.07.03.18.05.23-.02.12-.43.07-.96.05-1.41-.02-.25-.05-.51-.14-.71"/><path class="g" d="m16.54,33.44c-.12-.09-.14.06-.17.14h.05c.05-.01.16-.05.12-.14"/><path class="g" d="m16.05,34.12c-.05.12-.12.28-.13.39-.08.08-.17.46-.29.67l.12.03c0-.09.04-.15.1-.22,0-.19.12-.37.23-.49-.13-.21.22-.15.19-.35-.05,0-.09,0-.12-.05.02-.1.12-.09.19-.12.12-.12.08-.19-.02-.31-.1.15-.2.28-.27.44"/><path class="g" d="m17.14,35.44c0-.21,0-.47,0-.6-.11,0-.29,0-.41,0-.05-.12-.07-.25-.12-.36,0,0,.24-.16.33-.24-.1-.14-.21-.3-.32-.42l-.17.35c-.09.12,0,.35-.21.38-.07.09.02.17.02.26.06.46-.05.93-.45,1.2.01.17.07.4.15.52l.29-.22c.06-.03.21.15.33.23.11-.16.25-.32.35-.5-.09-.06-.21-.15-.33-.23.06-.15.08-.2.11-.37.08,0,.31,0,.41,0"/><path class="g" d="m15.17,34.46v.83l.17.07c.21-.06.22-.24.24-.43.01-.14.17-.27.09-.4-.21.16-.17.47-.31.68-.13-.14-.02-.4-.02-.59.05-.17.3-.14.24-.35-.04,0-.09.02-.12-.02-.03.09-.09.17-.17.23-.05,0-.08,0-.12-.02"/><path class="g" d="m14.6,34.72c.11.21-.04.53.21.66l.21-.05v-.75s-.06,0-.07-.02c0,.24.13.5-.02.71-.18-.16-.03-.51-.21-.66-.04.04-.01.17-.12.12"/><path class="g" d="m14.3,35.16c-.06-.14-.1-.34-.23-.45-.14.3-.06.61.15.91,0-.17-.01-.33.09-.46"/><path class="g" d="m20.47,35.28c-.11-.16-.23-.33-.4-.45l-.02.05c.12.14.29.24.43.4"/><path class="g" d="m15.1,39.34h0c-4.66,0-6.05-4.37-6.05-4.37,0,0-.3.42-.62.81-.3.36-.72.76-.72.76,0,0,1.67,4.63,7.39,4.63h0c5.73,0,7.35-4.53,7.35-4.53,0,0-.51-.58-.74-.84-.23-.26-.59-.8-.59-.8,0,0-1.36,4.33-6.02,4.33m-6.55-2.68c-.1.15-.3.25-.24.47-.01.02-.03.02-.05.02-.05-.08-.13-.16-.17-.24,0-.09.13-.06.16-.14.09-.11.22-.24.3-.38h.03c.13-.17.25-.28.36-.44,0-.05.02-.1.05-.14.09-.01.09.1.14.15.08.11.12.23.23.33,0,.08-.05.12-.1.18-.03.04-.07.08-.12.09-.02-.1.06-.2.02-.31-.03-.05-.06-.1-.1-.13h-.03c-.12.17-.29.26-.39.44.05.12.19.16.29.21-.04.08-.1.12-.16.18-.09,0-.07-.12-.1-.18-.03-.04-.06-.1-.11-.11m.34,1.33c-.19-.12-.24-.36-.19-.58.04-.11.09-.21.15-.31.19-.19.45-.48.76-.31.04.05.08.1.11.15.05.31-.02.6-.26.82-.15.15-.33.27-.57.23m1.08.21c-.06.05-.01.14-.04.19.02.09-.04.16-.04.26-.07.1.08.17.03.25-.04.02-.06-.03-.09-.04-.11-.24-.13-.53-.1-.82-.02-.01-.03-.05-.06-.04-.09.14-.29.27-.18.46,0,.03-.02.05-.04.07-.1.03-.13-.08-.19-.12-.05-.05-.13-.04-.15-.11-.02-.14.14-.07.19-.14.21-.22.39-.48.59-.68.01-.08.01-.18.04-.26.1-.03.03.09.1.1.02.09.13.1.19.15.1.07.1.15.15.24.04.17-.02.31-.12.43-.08.05-.19.08-.28.05m.57,1.31c.05-.11.05-.24.11-.34.02-.12.09-.23.08-.35-.04,0-.05.05-.08.06l-.39.35s-.08.04-.1,0c-.04-.13.08-.18.09-.28.06-.03.02-.11.08-.14.05-.16.08-.33.14-.5,0-.11.05-.19.05-.3.03-.02.03-.09.08-.06.09.07.15.16.24.22.01.03-.02.05-.04.06-.05-.01-.07.02-.11.03-.03.04-.04.09-.05.14,0,.12-.07.22-.11.33.01.04-.03.06,0,.09.17-.09.31-.26.47-.35.04-.06.09-.07.15-.06.02.08-.05.13-.06.2-.03.06-.07.11-.08.18-.05.04-.01.12-.06.15-.02.05-.02.11-.04.15,0,.01.02,0,.03.01.12-.12.29-.27.41-.39.04-.07,0-.18.09-.23.08.06.25.08.21.22-.16.06-.3.23-.44.35-.2.15-.38.32-.55.49-.04,0-.07,0-.09-.03m1.31.49c.01.06.06.12.04.19-.02.01-.04,0-.06.01-.09-.08-.21-.09-.31-.16.03-.06.15-.11.11-.21-.1-.08-.21-.15-.33-.2-.06,0-.11.09-.15.12l.02.11c-.11-.02-.2-.09-.29-.15,0-.09.11-.04.15-.08.25-.19.45-.41.7-.6,0-.03,0-.06-.01-.08.03-.06-.07-.14.01-.19.09.03.17.1.22.17.01.13-.06.22-.05.36-.04.24-.1.48-.07.73m.93.09c.05.07.01.16.04.25-.03.12.13.13.1.23-.04.03-.07,0-.1-.01-.17-.19-.28-.45-.33-.72-.02,0-.04-.04-.07-.02-.04.16-.19.34-.04.48,0,.03,0,.05-.02.08-.09.06-.14-.04-.22-.06-.06-.03-.13,0-.17-.06-.06-.12.11-.11.14-.19.13-.27.22-.56.35-.81-.01-.08-.04-.17-.04-.25.08-.05.05.07.12.06.05.07.15.06.22.08.11.04.14.11.21.18.09.14.07.29.01.43-.06.07-.15.13-.24.13-.04.06.03.13.02.19m1.23.28c0,.07-.07.11-.08.17-.01.01-.04.01-.03.04-.08.1-.18.15-.31.15-.1-.03-.2-.03-.29-.09-.09-.02-.2,0-.29-.02.02-.05.04-.1.08-.14.08-.23.16-.46.17-.72-.02-.09,0-.2-.05-.28,0-.03.01-.06.04-.07.22.08.49.04.67.19-.02.07.05.1.07.14.12.18.08.44,0,.62m.55-.16c-.06.04-.11.12-.14.17-.06.03-.05-.05-.08-.07,0-.07-.09-.13-.06-.2l.14-.14c.07-.02.06.07.1.09.03.03.07.1.04.15m.95-.36s-.06-.03-.09-.04c-.09,0-.18-.08-.26,0,0,.02.01.04.02.06h-.01c.04.23-.02.5.06.7-.03.14.09.16.1.29-.04.07-.1,0-.16.02-.07-.02-.12.07-.18.04-.03-.07,0-.13,0-.19.04-.34-.02-.61-.07-.93-.14-.02-.19.12-.31.15-.06-.07-.01-.16,0-.24l.04-.04c.29.01.55-.06.83-.05.04.05.03.13.06.19,0,.02-.03.03-.04.05m1.01.51c-.01.09-.05.17-.09.24-.05.12-.17.18-.28.21-.24.01-.4-.2-.5-.38,0-.05-.05-.09-.05-.14-.08-.22,0-.45.12-.62.07-.11.18-.15.29-.18.14.01.26.08.37.17.13.2.25.45.14.69m1,.05c-.15.06-.25.26-.44.19-.17-.08-.27-.23-.36-.38.02-.05-.03-.07-.04-.1.01-.16-.03-.35.04-.49.01-.12.12-.23.21-.29.07-.01.14-.06.22-.04.01-.04.05-.01.08-.02.01.09.01.16,0,.26-.1,0-.12-.17-.24-.1-.18.11-.18.31-.17.51.03.04.03.1.04.15.08.13.17.34.35.33.03,0,.06-.02.08-.05,0-.1-.03-.2-.05-.3-.03-.04-.1-.08-.07-.14.07-.03.14-.05.21-.07.03,0,.07,0,.07.04-.03.11,0,.24.05.34-.02.06-.02.1,0,.16m.88-.28c-.22.11-.43.2-.63.35-.09-.12.06-.27-.05-.39-.04-.18-.12-.33-.16-.51-.03-.11-.09-.21-.2-.24-.04-.02-.01-.07-.02-.1.06-.04.15,0,.2-.07.1-.07.22-.08.33-.14.07,0,.1.07.15.11,0,.04.03.1-.03.11-.07-.02-.14,0-.19-.05-.05.03-.15.01-.15.09.03.12.09.24.15.35.08-.06.22-.04.23-.17.02-.02.04-.03.04-.05.11,0,.12.14.18.22,0,.03,0,.08-.04.08-.08-.02-.17-.06-.27-.03-.05.04-.15.03-.11.13l.03.03c0,.12.1.19.08.31.06.05.13,0,.19-.02.1-.02.14-.11.16-.19.02-.02.04-.05.08-.04.04.07.01.16.02.25m.83-.41s-.05.03-.07.05c-.08.04-.14.1-.23.11-.07-.07-.03-.16-.04-.26-.17-.21-.27-.47-.43-.69-.05.03-.11.05-.14.1-.1.02-.01.16-.11.16-.06-.06-.05-.23-.17-.17-.01-.06.06-.06.09-.1.15-.07.31-.17.46-.27l.11-.11c.11-.03.16.05.21.11,0,.02,0,.05-.03.05-.12-.06-.16.06-.23.11.14.25.26.5.41.75.06.05.21.06.17.16m1.04-.78c-.11-.04-.13-.16-.17-.26-.06-.05-.1-.12-.15-.16-.01-.02-.03,0-.05-.01-.12.12-.26.17-.37.33.07.14.21.26.35.33,0,.07-.08.06-.1.11-.03.07-.08.12-.13.17-.12-.03-.05-.16-.07-.24-.15-.16-.24-.34-.38-.5,0-.04-.05-.04-.04-.08-.06-.07-.16-.11-.26-.12,0-.06.06-.07.1-.09.09-.07.14-.16.24-.21.03.02.04.06.03.1-.04.17.1.27.16.4h.04c.1-.11.22-.22.34-.31,0-.04-.02-.07-.05-.1-.08-.09-.12-.24-.27-.22-.03-.02-.1,0-.07-.06.1-.08.19-.17.3-.24.07,0,.04.1.06.15.08.17.23.33.33.5.08.14.22.21.35.28.02.12-.12.14-.17.22m.91-.85c-.19.18-.32.39-.46.62-.04,0-.07-.03-.08-.06,0-.08-.07-.12-.09-.19-.18-.11-.29-.28-.39-.46-.04-.05-.07-.13-.13-.15-.04-.06-.12.03-.14-.04.03-.15.14-.26.21-.39.07-.08.14-.13.19-.22.07,0,.14.04.18.08-.01.08-.1.06-.14.11-.06.05-.14.1-.17.17.02.13.11.24.2.34.14-.04.25-.17.32-.3,0-.03-.01-.08.03-.08.08,0,.08.09.14.11,0,.03.02.07-.02.08-.08-.03-.11.04-.16.07-.06.1-.18.15-.19.27.09.12.22.16.32.29.12-.15.3-.27.28-.48.03,0,.01-.05.05-.04.03.06.11.1.09.18.03.03-.02.06-.02.08m.11-1.69c.07.07.04.19.03.28-.04.06-.04.13-.06.19.02.04.03,0,.06,0,.15,0,.34.02.48-.06.05-.03.08-.05.11-.1-.03-.11-.21-.03-.19-.16.07-.11.18-.02.26,0,.05.03.04.08.07.11,0,.06,0,.11-.02.16-.13.19-.35.25-.57.28-.15,0-.29.01-.39.11v.02c.11.12.24.26.43.24.04.01.01.05.02.08-.07.06-.15.12-.21.19,0,.02,0,.04-.01.05-.09,0-.08-.1-.1-.16-.25-.18-.43-.44-.65-.62-.04-.03-.15.03-.15-.05v-.04c.11-.14.31-.24.33-.44.06-.08.16-.17.27-.19.11.02.26,0,.32.1"/><path class="g" d="m19.65,35.3c-.04.07-.11.12-.14.19.31.17.62.33.92.52.06-.15.17-.28.19-.45-.24-.17-.41-.48-.68-.57l.61.61-.02.02c-.22-.14-.43-.3-.64-.5-.03,0-.07-.06-.09,0,.13.17.29.33.47.47-.01.06.12.08.05.14-.28-.06-.37-.41-.66-.45"/><path class="g" d="m10.29,35.26c-.27.17-.41.49-.61.73.09.14.14.32.26.43.23-.36.6-.67.94-.9l-.24-.02c-.3.18-.48.49-.68.76l-.02-.03c.11-.3.32-.56.59-.8l-.02-.02c-.3.08-.41.43-.64.61l-.03-.02c.19-.22.27-.5.5-.68l-.05-.05Z"/><path class="g" d="m14.7,35.75c.05-.07,0-.19.05-.26-.1-.05-.19-.11-.31-.12-.1.03-.01.14-.07.19.03.17.21.16.33.19"/><path class="g" d="m15.36,35.75s.11.02.17.02c.14-.01.21-.19.23-.29-.03-.05-.1-.12-.16-.11-.17.04-.21.23-.24.38"/><path class="g" d="m15.03,35.94v-.47s-.08-.01-.08-.01c-.04.03-.02.08,0,.13-.09.14.09.23.09.35"/><path class="g" d="m15.17,35.47l.02.76c.16-.24-.13-.5.07-.73-.04.02-.06-.03-.1-.02"/><path class="g" d="m18.85,35.47c-.2.25-.41.5-.61.76-.96.96-1.93,1.78-3.16,2.1-1.47-.43-2.8-1.47-3.82-2.73-.45.19-.74.47-1.07.85l-.07.1s1.58,2.59,5.01,2.59,5.17-2.86,5.17-2.86c0,0-.51-.4-.8-.52-.21-.1-.47-.08-.64-.28"/><path class="g" d="m15.57,36.15c.15.33.27.68.35,1.04.03,0,.07-.01.09-.05-.11-.42-.29-.81-.4-1.23-.23,0-.11.26-.23.35-.38.21-.16.81-.19,1.04l.05-.19c.06-.13-.02-.33.07-.45.04,0,.06.05.1.07-.02.23.03.44.05.64.37-.04,0-.34.02-.52,0-.2-.21-.44,0-.59l.05.05c.04.34.09.67.24.97.03,0,.08.02.09-.02-.06-.29-.15-.57-.28-.83,0-.1-.11-.22,0-.28"/><path class="g" d="m14.89,37.38l.12.02c.04-.39.04-.82,0-1.2,0,.09-.05.18-.15.21-.04-.06.02-.14,0-.21-.07-.18-.19-.21-.36-.26-.03.43-.32.76-.38,1.18l.02.02c.11-.25.15-.56.33-.8l.02.03c-.04.29-.19.54-.21.85.06.03.16.03.21,0,.04-.12,0-.29.12-.35.11.14,0,.31,0,.47.03,0,.06,0,.07.02.06-.18.08-.37.17-.54.11.14-.02.36.03.57"/><path class="g" d="m20.75,36.82c.07.11.14.21.24.28.03-.05.06-.06.09-.11v-.12c.08-.07,0-.16.01-.25-.04-.07-.09-.1-.17-.1-.1.08-.1.2-.16.3"/><path class="g" d="m9.56,36.95s-.07-.07-.12-.07c-.2.08-.39.26-.49.46-.05.1-.13.18-.11.31,0,.09.02.16.1.19.18-.02.31-.16.43-.26.11-.16.23-.31.23-.51-.03-.03-.03-.07-.04-.11"/><path class="g" d="m10.18,37.65s-.09-.07-.14-.05c-.04-.02-.07.04-.1.06-.03.09-.15.16-.16.25.05.05.06.15.15.14.14.02.22-.1.3-.18-.01-.07.04-.18-.04-.22"/><path class="g" d="m11.41,39.52v.03c.08.06.16.1.26.12.02-.15.08-.31.06-.46l-.32.31Z"/><path class="g" d="m16.32,40.51c-.04.08-.08.19-.18.2-.15-.03-.24-.17-.26-.32-.07-.05,0-.15-.06-.2,0-.15.02-.29.07-.42,0-.06.05-.1.09-.13.06.02.12-.04.16.01l.11.17c.04.22.15.45.06.68"/><path class="g" d="m13.56,39.64c-.06.08-.05.19-.09.28,0,.13-.05.24-.07.37-.02.08,0,.17.02.24.05.06.11.1.18.09.08-.03.16-.08.18-.16.05-.05.04-.12.07-.17-.01-.14.08-.28,0-.41,0-.16-.17-.2-.3-.24"/><path class="g" d="m12.76,39.4l.1.11s-.02.09-.03.14c.02-.04.05-.09.06-.13-.03-.06-.02-.17-.1-.19-.05,0-.11-.04-.15,0-.04,0-.05.05-.08.09,0,.09-.09.19-.08.27.01,0,.03.02.04.03.03-.1.07-.2.1-.29.02-.09.08-.01.13-.02"/><path class="g" d="m12.67,39.77c.08-.01.12-.06.16-.12.01-.05.02-.09.03-.14l-.1-.11c-.05,0-.11-.07-.13.02-.03.1-.06.19-.1.29.04.04.08.09.15.06"/><path class="g" d="m12.74,21.3s0-.09,0-.09l-.06.14v.02s.02-.02.05-.07"/><path class="g" d="m16.88,21.77s-.09.08-.09.08l.03.02s.06-.04.1-.08c.04-.03.09-.08.09-.08l-.03-.03s-.06.06-.1.1"/></g></svg>