<svg width="200" height="200" viewBox="0 0 200 200" fill="none" xmlns="http://www.w3.org/2000/svg">
<path d="M80.8013 43.9409L69.7966 34L58.7949 43.9409V60.5784H80.8013V43.9409Z" fill="white"/>
<path d="M28.2158 71.7173L36.9325 83.7375L53.396 85.4366L55.6449 63.4333L39.1815 61.7342L28.2158 71.7173Z" fill="white"/>
<path d="M26 128.737L43.2051 148H71.9344V109.471H43.2051L26 128.737Z" fill="white"/>
<path d="M98.8803 82.9046L81.6331 63.6536L58.6479 63.5993L56.2998 86.5803L73.547 105.831L98.8803 82.9046Z" fill="white"/>
<path d="M158.795 148L176 128.737L158.795 109.471H130.065V148H158.795Z" fill="white"/>
<path d="M128.453 105.831L145.703 86.5803L143.352 63.5993L120.367 63.6536L103.12 82.9046L128.453 105.831Z" fill="white"/>
<path d="M74.937 108.635V148H127.063V108.635L101 85.0472L74.937 108.635Z" fill="white"/>
</svg>
